<?xml version="1.0" standalone="no"?>
<!DOCTYPE svg PUBLIC "-//W3C//DTD SVG 20010904//EN"
 "http://www.w3.org/TR/2001/REC-SVG-20010904/DTD/svg10.dtd">
<svg version="1.0" xmlns="http://www.w3.org/2000/svg"
 width="512.000000pt" height="512.000000pt" viewBox="0 0 512.000000 512.000000"
 preserveAspectRatio="xMidYMid meet">

<g transform="translate(0.000000,512.000000) scale(0.100000,-0.100000)"
fill="#000000" stroke="none">
<path d="M4367 4941 c-15 -5 -127 -80 -248 -167 -155 -110 -229 -169 -247
-197 -27 -40 -27 -41 -32 -283 l-5 -242 -377 -346 c-208 -190 -380 -346 -383
-346 -3 0 -5 214 -5 475 l0 476 -25 24 c-32 33 -73 32 -118 -2 -66 -50 -372
-337 -414 -388 -96 -117 -162 -267 -197 -450 -8 -44 -58 -280 -110 -523 -53
-244 -96 -457 -96 -472 0 -24 -24 -51 -154 -170 -166 -152 -180 -174 -152
-228 26 -51 86 -57 137 -15 122 102 2010 1841 2034 1874 l30 41 5 244 5 244
203 145 c111 80 209 145 218 145 8 0 19 -10 24 -22 5 -13 39 -254 76 -537 l67
-513 -489 -489 -489 -489 -208 0 c-207 0 -208 0 -232 -25 -34 -33 -34 -87 0
-120 l24 -25 814 0 c619 0 816 -3 825 -12 28 -28 11 -56 -105 -175 -163 -167
-286 -244 -471 -296 -73 -20 -104 -21 -642 -27 -560 -5 -565 -5 -615 -28 -63
-28 -235 -159 -254 -193 -17 -31 -9 -71 21 -99 39 -36 73 -26 176 51 51 39
109 77 128 85 27 11 127 14 542 14 558 0 602 3 766 59 109 37 220 97 314 169
88 66 268 255 300 314 41 77 22 188 -44 250 -63 58 -58 58 -601 58 l-498 0
437 438 c446 446 468 471 468 544 0 18 -32 272 -71 563 -78 584 -77 583 -155
638 -44 31 -126 44 -177 28z m-1467 -1304 l0 -442 -261 -240 c-296 -271 -331
-302 -324 -283 4 14 116 533 165 772 53 255 98 335 289 516 69 66 127 120 129
120 1 0 2 -199 2 -443z"/>
<path d="M1567 2118 c-17 -18 -58 -146 -171 -543 -81 -286 -151 -523 -155
-527 -3 -3 -116 120 -251 274 -134 154 -255 287 -267 295 -49 33 -123 -7 -123
-67 0 -14 32 -184 71 -378 39 -195 68 -356 65 -359 -2 -3 -126 25 -274 61
-148 36 -281 66 -294 66 -14 0 -37 -9 -52 -21 -21 -16 -26 -29 -26 -62 0 -41
3 -44 362 -404 l363 -363 806 0 806 0 354 316 c459 410 459 410 459 452 0 42
-38 82 -78 82 -17 0 -155 -31 -308 -69 -153 -38 -280 -69 -281 -67 -1 1 13
171 32 376 42 457 43 479 12 508 -34 32 -86 29 -119 -5 -15 -16 -132 -164
-261 -331 -130 -166 -238 -299 -240 -295 -3 5 -71 240 -151 523 -159 557 -160
560 -227 560 -18 0 -39 -9 -52 -22z m188 -841 c74 -259 136 -459 147 -473 24
-30 88 -34 116 -6 9 9 109 135 221 280 112 144 205 261 206 260 2 -2 -11 -152
-28 -335 -28 -315 -29 -333 -13 -358 32 -49 51 -49 248 0 99 25 182 45 183 43
1 -2 -104 -98 -234 -215 l-236 -212 -740 0 -740 -1 -220 220 c-121 121 -217
220 -213 220 4 0 89 -20 189 -45 100 -25 197 -45 216 -45 37 0 69 26 78 62 3
13 -19 145 -49 293 -30 149 -53 271 -52 272 1 2 92 -100 202 -225 193 -220
200 -227 239 -230 32 -2 45 2 62 20 15 16 58 150 149 468 122 431 133 465 139
458 1 -2 60 -205 130 -451z"/>
</g>
</svg>
