<?xml version="1.0" encoding="UTF-8"?>
<svg version="1.1" viewBox="0 0 1600 1600" width="1280" height="1280" xmlns="http://www.w3.org/2000/svg">
<path transform="translate(516 -.375)" d="m0 0c0.967 2.11e-4 1.93 4.23e-4 2.93 6.41e-4 18.4 0.0397 36.2 1.5 54.4 4.37 1.17 0.182 2.34 0.364 3.55 0.551 84.6 13.5 161 53.2 222 114 1.55 1.54 3.1 3.08 4.65 4.61 6.4 6.36 12.2 13 17.8 20.1 0.863 1.03 1.73 2.05 2.61 3.07 11.7 13.7 21.9 28.6 31.4 43.9l1.56 2.51c17.4 28.2 30.8 58.8 40.4 90.5 0.256 0.837 0.512 1.67 0.775 2.54 17.2 57.2 16.4 116 16.3 175l-0.0625 54.2h-140c-0.375-59.9-0.375-59.9-0.478-78.6-0.04-5.66-0.04-5.66-0.0824-11.3-0.0174-2.47-0.0313-4.95-0.0422-7.42-0.318-69.2-16.2-136-64.3-188-1.86-2.03-3.66-4.1-5.45-6.2-7.8-8.92-16.3-16.7-25.6-24.1-1.07-0.871-2.14-1.74-3.21-2.62-26.5-21.5-57.8-37.7-90.8-46.4-0.907-0.242-1.81-0.484-2.75-0.733-64.6-16.9-134-8.55-192 24.5-15.4 9.04-29.6 19.5-43.1 31.2-0.878 0.764-1.76 1.53-2.66 2.32-9.98 8.84-19.1 18.2-27.3 28.7-0.493 0.621-0.985 1.24-1.49 1.88-27.6 34.8-45.8 75.1-53.1 119-0.317 1.88-0.664 3.75-1.02 5.62-1.17 6.56-1.6 13.1-1.89 19.7-0.0429 0.969-0.0857 1.94-0.13 2.94-0.403 9.68-0.505 19.3-0.538 29-0.00962 1.89-0.0196 3.79-0.03 5.68-0.0266 5.06-0.0479 10.1-0.068 15.2-0.0221 5.32-0.0494 10.6-0.0761 16-0.0496 10-0.0946 20.1-0.138 30.1-0.0497 11.4-0.104 22.9-0.16 34.3-0.113 23.5-0.22 47-0.323 70.6 0.914-2.34e-4 0.914-2.34e-4 1.85-4.73e-4 66.3-0.0169 133-0.0326 199-0.0419 0.989-1.38e-4 1.98-2.76e-4 3-4.18e-4 21.5-0.00299 43-0.00576 64.5-0.0083 10.5-0.00125 21.1-0.00254 31.6-0.00387 1.57-1.96e-4 1.57-1.96e-4 3.18-3.96e-4 34-0.00427 68.1-0.0118 102-0.021 35-0.00942 69.9-0.0156 105-0.0176 4.93-2.88e-4 9.87-6.14e-4 14.8-9.62e-4 0.971-6.74e-5 1.94-1.35e-4 2.94-2.04e-4 15.7-0.00118 31.3-0.00583 47-0.0118 15.7-0.00587 31.5-0.00814 47.2-0.00667 9.36 7.64e-4 18.7-0.00129 28.1-0.0073 6.24-0.00373 12.5-0.00388 18.7-0.00103 3.56 0.00152 7.12 0.0014 10.7-0.00305 3.82-0.00475 7.65-0.00188 11.5 0.00184 1.12-0.00263 2.25-0.00525 3.4-0.00796 1.01 0.00225 2.02 0.00449 3.06 0.00681 0.876-1.56e-4 1.75-3.12e-4 2.65-4.73e-4 1.97 0.125 1.97 0.125 2.97 1.12 0.243 2.35 0.422 4.67 0.554 7.02 0.0421 0.719 0.0843 1.44 0.128 2.18 0.423 7.8 0.459 15.6 0.447 23.4 0.00136 1.59 0.00314 3.18 0.00531 4.78 0.00451 4.27 0.00281 8.55-3.79e-4 12.8-0.00256 4.5-1.76e-4 9.01 0.00139 13.5 0.00181 7.56-5.58e-4 15.1-0.00534 22.7-0.00544 8.7-0.00368 17.4 0.00183 26.1 0.00456 7.51 0.00517 15 0.00256 22.5-0.00155 4.47-0.0018 8.93 0.00154 13.4 0.00292 4.2 8.27e-4 8.41-0.00489 12.6-0.00131 1.53-9.72e-4 3.06 0.00126 4.59 0.0135 10.2-0.388 20.2-1.13 30.4 0.723-0.261 1.45-0.522 2.19-0.791 26.4-9.53 53.1-16.7 80.8-21.2 0.659-0.108 1.32-0.215 2-0.326 41.6-6.7 85.4-6 127 0.326 1.61 0.24 1.61 0.24 3.25 0.485 5.41 0.836 10.8 1.82 16.1 2.96 1.83 0.388 3.66 0.762 5.49 1.13 47.8 9.55 96.7 29.2 137 56.4 0.932 0.61 1.86 1.22 2.82 1.85 18.4 12.1 35.7 25.5 52.2 40.2 0.769 0.68 0.769 0.68 1.55 1.37 6.63 5.89 13 12.1 19.3 18.3 0.706 0.701 1.41 1.4 2.14 2.12 4.55 4.57 8.85 9.29 13 14.2 0.846 0.964 1.69 1.93 2.56 2.92 17.1 19.9 32.3 41.6 45.4 64.3 0.697 1.21 1.4 2.41 2.11 3.61 28 47.6 44.5 102 51.2 156 0.125 1.03 0.125 1.03 0.252 2.08 1.94 16.2 2.74 32.2 2.75 48.5 0.00101 1.45 0.00101 1.45 0.00204 2.92-0.04 36.3-4.83 72.1-14.3 107-0.431 1.61-0.431 1.61-0.87 3.25-13.1 48.2-35.3 94.6-65.1 135-0.524 0.709-1.05 1.42-1.59 2.15-7.41 9.96-15.2 19.6-23.4 28.9-0.635 0.723-1.27 1.45-1.92 2.19-5.76 6.49-11.8 12.7-17.9 18.8-1.64 1.64-3.28 3.3-4.91 4.95-1.05 1.05-2.09 2.1-3.14 3.14-0.73 0.74-0.73 0.74-1.47 1.5-3.43 3.4-3.43 3.4-5.65 3.4v2c-1.88 1.74-1.88 1.74-4.56 3.88-1 0.801-2 1.6-3.04 2.43-0.822 0.651-0.822 0.651-1.66 1.31-1.82 1.44-3.62 2.9-5.43 4.36-29.1 23.6-62.1 45.6-97.3 59-3.81-7.34-7.2-14.8-10.4-22.4-0.808-1.89-1.62-3.77-2.44-5.65l-1.56-3.64c-0.466-1.08-0.931-2.17-1.41-3.28-1.02-2.68-1.68-5.16-2.14-7.98l1.73-0.788c23.4-10.7 45.1-23.6 66.3-38.2 0.742-0.506 1.48-1.01 2.25-1.53 2.01-1.37 4.01-2.76 6-4.15l1.75-1.21c2.76-1.96 3.89-2.8 5-6.11 0.209-4.5 0.186-9 0.185-13.5 0.00215-2.2 0.0202-4.4 0.0393-6.6 0.0878-21.5-3.34-39.5-18.6-55.7-4.16-3.95-8.83-7.11-13.6-10.2-1.07-0.739-1.07-0.739-2.16-1.49-11.8-7.7-25.7-12.1-39.2-15.8-1.6-0.444-1.6-0.444-3.24-0.897-12-3.29-24.1-6.33-36.1-9.32-3.81-0.947-7.63-1.9-11.4-2.86-2.43-0.606-4.86-1.21-7.29-1.82-1.14-0.284-2.27-0.569-3.44-0.861-1.04-0.258-2.08-0.515-3.15-0.781-0.915-0.228-1.83-0.455-2.77-0.69-2.15-0.556-2.15-0.556-4.2-0.484-0.367 1.02-0.367 1.02-0.742 2.06-9.46 24.5-26.6 42.7-50.3 54.1-22.5 9.98-48.1 10.6-71.2 2.42-22.6-8.84-40.2-25.3-51.2-46.9-0.346-0.682-0.693-1.36-1.05-2.07-1.74-3.54-2.89-6.75-3.58-10.6-1.03 0.276-2.06 0.552-3.12 0.837-9.94 2.65-19.9 5.18-29.9 7.65-3.82 0.952-7.64 1.9-11.5 2.86-2.59 0.644-5.18 1.28-7.76 1.92-43.2 10.2-43.2 10.2-77.7 36.7h-2l-0.789 1.66c-1.21 2.34-1.21 2.34-2.8 4.86-0.59 0.941-1.18 1.88-1.79 2.85-0.878 1.37-0.878 1.37-1.77 2.77-6.08 11.6-6.82 24.2-7.03 37-0.0463 1.96-0.129 3.91-0.246 5.87-0.919 11-0.919 11 2.92 21 3.74 3.66 8.01 6.35 12.6 8.89 2.42 1.37 4.66 2.95 6.91 4.57 1.36 0.908 2.72 1.81 4.09 2.71 0.751 0.495 1.5 0.99 2.28 1.5 79.4 52 177 73.7 287 53.3 7.22-1.51 14.3-3.12 21.3-5.55 2.45-0.527 3.7-0.345 6.03 0.562 0.937 1.66 0.937 1.66 1.56 3.85 0.36 1.22 0.36 1.22 0.727 2.47 0.242 0.885 0.484 1.77 0.733 2.68 0.261 0.904 0.521 1.81 0.79 2.74 0.831 2.9 1.64 5.8 2.44 8.7 0.558 1.95 1.12 3.91 1.68 5.86 1.02 3.57 2.04 7.15 3.03 10.7 0.201 0.721 0.402 1.44 0.609 2.18 0.429 1.79 0.429 1.79 0.429 3.79-25.5 8.17-52.4 13.1-79 16-0.682 0.0784-1.36 0.157-2.07 0.238-12.5 1.43-24.9 2.2-37.6 2.2-0.886 0.0014-1.77 0.0028-2.69 0.00424-20.8-0.0265-41.2-2.34-61.7-5.44-0.704-0.106-1.41-0.212-2.13-0.322-44.7-6.8-87.7-21-128-41.7-1.97-1.01-3.94-2-5.91-2.99-18.1-9.21-35.4-20.1-51.3-32.7-1.7-1.33-3.42-2.64-5.15-3.94-10.6-8.02-20.7-16.6-30.5-25.6-2.63-2.44-5.29-4.81-8.05-7.1-3.11-2.62-5.51-5.53-8.06-8.69-2.22-2.28-4.48-4.5-6.78-6.7-5.05-4.92-9.51-10.2-13.9-15.7-1.42-1.77-2.87-3.51-4.32-5.26-10.9-13.1-21.2-26.8-30-41.4-0.517-0.852-0.517-0.852-1.04-1.72-2.32-3.82-4.61-7.66-6.89-11.5-0.947-1.59-1.91-3.16-2.88-4.74-5.01-8.3-9.07-17-13.1-25.8-0.924-1.98-1.87-3.95-2.84-5.91-3.76-7.75-7.02-15.7-10.2-23.7-0.383-0.964-0.766-1.93-1.16-2.92-3.07-7.97-5.58-16.1-8.07-24.2-0.369-1.21-0.739-2.41-1.12-3.65-0.905-2.95-1.81-5.91-2.71-8.87-89.5-0.679-179-1.09-268-1.03-4.28 0.00302-8.57 0.0057-12.9 0.00838-35.8 0.0225-71.6 0.0554-107 0.1-1.67 0.00209-1.67 0.00209-3.38 0.00423-1.12 0.0014-2.23 0.00279-3.38 0.00423-2.25 0.00282-4.51 0.00564-6.76 0.00845-1.11 0.00139-2.23 0.00279-3.38 0.00422-18.6 0.023-37.2 0.0383-55.8 0.0473-11.3 0.00579-22.6 0.018-33.9 0.039-7.63 0.0137-15.3 0.0202-22.9 0.021-4.38 7e-4 -8.76 0.00461-13.1 0.0175-4.01 0.0117-8.02 0.014-12 0.00906-1.44-1.5e-4 -2.88 0.00301-4.31 0.0101-23.3 0.108-45-3.48-62.3-20.4-8.67-8.84-14.8-18.9-18.2-30.9-0.334-1.13-0.667-2.26-1.01-3.43-1.34-5.43-1.45-10.8-1.61-16.4-0.0376-1.14-0.0752-2.28-0.114-3.46-0.377-12.4-0.408-24.8-0.396-37.2-0.00116-2.56-0.00275-5.12-0.00473-7.69-0.00357-5.52-0.00353-11-9.53e-4 -16.6 0.00382-8.2 0.00183-16.4-0.00121-24.6-0.00524-14.7-0.00482-29.3-0.00192-44 0.00252-12.8 0.00317-25.6 0.00198-38.4-7.64e-5 -0.852-1.53e-4 -1.7-2.31e-4 -2.58-3.11e-4 -3.46-6.3e-4 -6.92-9.6e-4 -10.4-0.00305-32.4-2.96e-4 -64.7 0.0051-97.1 0.00476-28.8 0.00431-57.5-4.61e-4 -86.3-0.00535-32.4-0.00748-64.7-0.00439-97.1 3.21e-4 -3.44 6.34e-4 -6.89 9.43e-4 -10.3 7.91e-5 -0.848 1.58e-4 -1.7 2.4e-4 -2.57 0.00114-12.8-1.94e-4 -25.6-0.00272-38.5-0.00285-14.6-0.00216-29.1 0.00328-43.7 0.00295-8.15 0.00311-16.3-6.46e-4 -24.4-0.00249-6.07 1.92e-4 -12.1 0.00497-18.2 0.00112-2.47 5.32e-4 -4.93-0.00188-7.4-3e-3 -3.33 4.13e-5 -6.66 0.00472-9.99-0.00234-0.976-0.00468-1.95-0.00709-2.96 0.0025-0.881 0.00501-1.76 0.00759-2.67 6.78e-5 -0.763 1.36e-4 -1.53 2.05e-4 -2.31 0.125-1.86 0.125-1.86 1.13-3.86h46c-0.00524-5.73-0.0105-11.5-0.0159-17.4-0.0166-19-0.0277-38-0.0359-56.9-0.00514-11.5-0.0121-23-0.0236-34.5-0.01-10-0.0164-20.1-0.0186-30.1-0.00129-5.3-0.00429-10.6-0.0116-15.9-0.133-100 19.4-198 85.1-278 2.73-3.32 5.37-6.7 8.02-10.1 0.958-1.22 1.92-2.44 2.88-3.66 0.701-0.895 1.4-1.79 2.12-2.71 3.88 0.566 5.76 2.34 8.56 5 3.61 3.35 7.28 6.54 11.1 9.62 3.86 3.12 7.43 6.36 10.9 9.93 1.68 1.68 3.47 3.1 5.44 4.44-1.63 3.88-4.25 6.76-7 9.88-5.81 6.73-11 13.8-16 21.1-0.4 0.579-0.801 1.16-1.21 1.76-39.9 57.9-61.8 126-62 196-0.0096 2.09-0.0196 4.18-0.03 6.27-0.0269 5.64-0.048 11.3-0.068 16.9-0.022 5.91-0.0493 11.8-0.0761 17.7-0.0498 11.2-0.0948 22.3-0.138 33.5-0.0495 12.7-0.104 25.4-0.16 38.2-0.114 26.2-0.22 52.3-0.323 78.5h47c-0.0236-8.94-0.0236-8.94-0.0476-18.1-0.0499-19.8-0.0831-39.6-0.108-59.4-0.0154-12-0.0363-24-0.0709-36-0.0302-10.5-0.0493-20.9-0.0559-31.4-0.00387-5.52-0.0128-11-0.0349-16.6-0.367-95.3 26.3-178 94.1-247 3.62-3.54 7.38-6.87 11.2-10.1 0.527-0.446 1.05-0.892 1.6-1.35 63.6-53.6 144-78.4 227-71.6 36 3.3 71.2 13.1 104 29 1.39 0.679 1.39 0.679 2.8 1.37 35.6 17.6 69.5 43.1 95.2 73.6 0.45 0.531 0.899 1.06 1.36 1.61 12.7 15.1 24 31.2 33.6 48.4 0.452 0.803 0.904 1.61 1.37 2.43 27.1 48.6 37.9 102 37.7 157-0.00187 1.77-0.00329 3.54-0.00429 5.31-0.00377 4.59-0.0135 9.19-0.0247 13.8-0.0122 5.55-0.0166 11.1-0.0225 16.6-0.00961 8.37-0.0288 16.7-0.0462 25.1h47c-0.0916-16-0.0916-16-0.209-32-0.0538-6.55-0.105-13.1-0.137-19.7-0.47-91.7-23.6-182-87.4-251-1.87-2.04-3.68-4.11-5.48-6.21-4-4.58-8.23-8.91-12.5-13.2-0.794-0.793-1.59-1.59-2.41-2.4-4.91-4.85-9.85-9.42-15.3-13.7-2.8-2.19-5.48-4.49-8.17-6.8-11.7-9.73-24.4-18.1-37.4-26-1.34-0.815-2.68-1.63-4.02-2.46-47.2-29.1-102-44.7-157-48-0.68-0.0413-1.36-0.0826-2.06-0.125-85.6-5.03-177 22.4-242 79.4-1.15 1.06-1.15 1.06-2.33 2.14-0.717 0.656-1.43 1.31-2.17 1.99-0.608 0.58-1.22 1.16-1.84 1.76l-1.66 1.12c-3.72-1.24-4.55-2.67-6.94-5.75-3.57-4.48-7.28-8.75-11.2-12.9-0.509-0.549-1.02-1.1-1.54-1.66-2.21-2.39-4.44-4.76-6.69-7.11-0.646-0.694-1.29-1.39-1.96-2.1-0.553-0.579-1.11-1.16-1.68-1.75-1.01-1.68-1.01-1.68-1.05-3.59 1.57-3.17 4.2-4.91 6.98-6.96 1.29-0.983 2.59-1.97 3.88-2.95 1.03-0.776 1.03-0.776 2.08-1.57 2.08-1.59 4.12-3.23 6.16-4.88 17.6-14.2 36.9-26.3 56.9-36.7 0.668-0.35 1.34-0.699 2.02-1.06 10.5-5.43 21.1-10.3 32-14.9 0.838-0.357 1.68-0.714 2.54-1.08 28.8-12.1 59.2-19.9 90-24.6 0.663-0.103 1.33-0.206 2.01-0.312 19-2.92 37.9-4.41 57.1-4.38zm-399 632c-0.0619 97.5-0.124 195-0.188 296-0.0273 30.8-0.0546 61.7-0.0828 93.5-0.01 27.6-0.01 27.6-0.0161 55.1-0.00299 13.1-0.0159 26.2-0.0337 39.4-0.0178 13.4-0.0245 26.7-0.0203 40.1 0.00216 7.96-0.00385 15.9-0.0221 23.9-0.0125 5.86-0.0095 11.7-2.81e-4 17.6 0.00128 2.38-0.00257 4.76-0.0119 7.13-0.012 3.23-0.00558 6.46 0.0055 9.69-0.00788 0.931-0.0158 1.86-0.0239 2.82 0.0624 8 2.22 13.7 7.66 19.7 7.67 6.98 17.5 6.73 27.3 6.7 1.4 0.00173 1.4 0.00173 2.83 0.0035 3.13 0.00265 6.26-0.00184 9.39-0.00629 2.27 4.36e-4 4.53 0.00131 6.8 0.00259 6.23 0.00224 12.5-0.00177 18.7-0.00678 6.03-0.00387 12.1-0.00304 18.1-0.00232 12.3 0.00131 24.7-0.00202 37-0.00802 12.2-0.00592 24.4-0.00977 36.6-0.0109 1.14-1.03e-4 1.14-1.03e-4 2.3-2.08e-4 3.86-3.38e-4 7.71-6.4e-4 11.6-9.27e-4 27.3-0.0021 54.6-0.00884 81.9-0.0183 26.5-0.00919 53-0.0163 79.6-0.0205 0.818-1.32e-4 1.64-2.63e-4 2.48-3.99e-4 8.21-0.00132 16.4-0.00259 24.6-0.00384 16.7-0.00254 33.5-0.00536 50.2-0.00835 0.769-1.37e-4 1.54-2.75e-4 2.33-4.16e-4 51.4-0.0092 103-0.0251 154-0.0419 1.19-3.57 0.867-5.84 0.477-9.58-0.0656-0.651-0.131-1.3-0.199-1.97-0.212-2.09-0.432-4.17-0.653-6.26-1.6-15.5-2.86-30.8-2.88-46.4-0.00101-1.12-0.00101-1.12-0.00204-2.26 0.0913-64.8 15.8-128 44.3-187 0.417-0.855 0.834-1.71 1.26-2.59 18.3-37 43.7-73 73.2-102 1.69-1.68 1.69-1.68 3.75-4.34 1.75-2.19 1.75-2.19 4.75-4.19v-2c0.576-0.246 1.15-0.492 1.75-0.746 2.62-1.46 4.26-3.14 6.32-5.32 4.13-4.22 8.48-7.96 13.1-11.6 2.83-2.28 5.59-4.63 8.36-6.98 19.7-16.3 41.1-30.2 63.6-42.3 2.32-1.29 4.59-2.67 6.87-4.04v-172h-797zm936 174-2.86 0.438c-6.42 1-12.8 2.22-19.1 3.56-0.937 0.194-1.87 0.388-2.84 0.588-31.3 6.61-61.8 17.6-90.2 32.4-2.05 1.07-4.11 2.12-6.17 3.17-22.4 11.5-43.3 25.8-62.6 42-1.7 1.43-3.4 2.84-5.12 4.25-7.44 6.16-14.4 12.6-21.3 19.5-1.59 1.6-3.19 3.19-4.79 4.78-5.69 5.69-11 11.5-16 17.8-1.83 2.28-3.72 4.47-5.66 6.65-3.56 4.04-6.8 8.27-9.98 12.6-0.6 0.818-1.2 1.64-1.82 2.48-13.7 18.8-25.4 38.7-35.5 59.6-0.714 1.48-1.44 2.95-2.17 4.42-22.7 45.7-33.7 98-34.9 149-0.0219 0.72-0.0438 1.44-0.0664 2.18-0.675 23.8 1.46 47.8 5.6 71.2 0.397 2.27 0.764 4.54 1.11 6.81 8.92 54 33.5 107 66.4 151 0.681 0.935 1.36 1.87 2.06 2.83 5.92 8.07 12.4 15.6 18.9 23.2 0.66-0.33 1.32-0.66 2-1 0.522-2.57 0.94-5.1 1.31-7.69 4.5-27.7 20.6-51.4 42.9-68 22.9-16.4 48.8-24.9 75.9-31.6 3.34-0.824 6.67-1.65 10-2.48 0.963-0.239 0.963-0.239 1.95-0.483 3.38-0.84 6.76-1.68 10.1-2.52 1.38-0.343 2.75-0.685 4.13-1.03 1.03-0.256 1.03-0.256 2.08-0.517 4.15-1.03 8.3-2.06 12.5-3.07 1.99-0.488 3.97-0.979 5.96-1.47 2.47-0.612 4.95-1.22 7.42-1.82 1.11-0.275 2.21-0.549 3.35-0.832 1.45-0.357 1.45-0.357 2.94-0.721 2.66-0.698 2.66-0.698 5.44-2.76 0.401-2.49 0.608-4.74 0.688-7.24 0.0298-0.718 0.0596-1.44 0.0903-2.18 0.0578-1.52 0.108-3.04 0.15-4.56 0.0712-2.32 0.185-4.63 0.302-6.95 0.0508-1.48 0.0991-2.96 0.145-4.44 0.0383-0.69 0.0765-1.38 0.116-2.09 0.0631-3.85-0.343-5.37-2.83-8.37-0.877-0.718-1.75-1.44-2.66-2.18-0.96-0.816-1.92-1.63-2.91-2.47-1.05-0.863-2.1-1.73-3.15-2.59-16-13.4-28.8-28.6-38.9-46.9-0.347-0.621-0.693-1.24-1.05-1.88-14.9-27.1-19.1-56.2-19.1-86.7-0.00322-1.91-0.00659-3.82-0.0101-5.73-0.00596-3.99-0.00784-7.99-0.00725-12 1.01e-4 -5.06-0.0135-10.1-0.0308-15.2-0.0113-3.94-0.0131-7.89-0.0126-11.8-0.00116-1.86-0.00548-3.72-0.0133-5.59-0.182-47.5 13.5-90.5 47.2-125 0.701-0.763 1.4-1.53 2.12-2.31 24-25.4 59.5-40.8 93.9-44.7 0.968-0.111 1.94-0.222 2.93-0.336 30.5-2.99 60.4 2.5 88.1 15.3 0.62 0.285 1.24 0.571 1.88 0.865 19.3 9.09 37.8 23.5 51.1 40.1 0.768 0.942 1.54 1.88 2.33 2.86 22.5 28 35.8 63 35.8 99 0.00496 0.945 0.00993 1.89 0.015 2.86 0.0145 3.1 0.0214 6.2 0.0269 9.3 0.00283 1.07 0.00565 2.14 0.00857 3.24 0.015 5.67 0.0242 11.3 0.0285 17 0.00546 5.8 0.0294 11.6 0.058 17.4 0.0188 4.51 0.0238 9.02 0.0254 13.5 0.00299 2.14 0.0109 4.27 0.0242 6.41 0.154 26.6-4.5 50-15.3 74.4-0.472 1.06-0.944 2.12-1.43 3.21-9.11 19.2-26.7 46.6-46.7 55.8-2.7 1.44-4.13 2.52-5.91 5.04-1.02 5.98-0.753 11.8-0.5 17.9 0.0402 1.66 0.0767 3.32 0.109 4.98 0.0879 4.05 0.226 8.1 0.391 12.1 6.09 2.97 12.4 4.47 19 6.04 2.05 0.488 4.1 0.984 6.15 1.48 5.11 1.24 10.2 2.47 15.3 3.69 15.6 3.74 31.1 7.5 46.5 12 1.06 0.312 2.13 0.623 3.22 0.945 25.2 7.59 47.3 20.2 66.9 37.8 0.33 0.66 0.66 1.32 1 2h2c0.245 0.55 0.49 1.1 0.742 1.67 1.52 2.82 3.39 5.14 5.38 7.64 11 14.3 17.3 30.3 19.5 48.2 0.226 2.47 0.226 2.47 1.36 4.48 2.94-1.3 4.76-2.57 6.78-5.06 0.507-0.623 1.01-1.25 1.54-1.89 0.536-0.677 1.07-1.35 1.62-2.05 0.851-1.06 0.851-1.06 1.72-2.15 14.4-18.2 27.2-37.3 38.2-57.8 1.03-1.89 2.08-3.77 3.15-5.64 22-39.5 34.7-85.8 40-130 0.117-0.997 0.234-1.99 0.355-3.02 3.04-27.3 2.85-55.7-0.355-83-0.124-1.05-0.247-2.11-0.375-3.19-4.89-39.9-16.3-78.6-33.6-115-0.399-0.853-0.797-1.71-1.21-2.59-9.81-20.9-21.9-40.9-35.8-59.4-0.453-0.603-0.906-1.21-1.37-1.83-18.5-24.4-39.6-47.1-63.6-66.2-1.06-0.881-2.11-1.76-3.16-2.65-27.9-23.2-61-42.2-94.8-55.4-0.741-0.292-1.48-0.584-2.24-0.884-44.5-17.4-90.2-25.3-138-25.4-1.11-0.00101-2.22-0.00201-3.37-0.00305-17 0.0104-33.7 0.57-50.5 3.25zm-31.8 174c-17.6 20.3-26.2 42.4-31.2 68.5 0.66 0.33 1.32 0.66 2 1 2.51-1.02 4.93-2.1 7.38-3.25 14.4-6.57 28.1-7.9 43.8-7.9 1.54-3e-3 3.07-0.0064 4.61-0.0102 4.15-0.0088 8.31-0.0112 12.5-0.0118 2.6-7.13e-4 5.2-0.00285 7.8-0.0055 9.09-0.00924 18.2-0.0133 27.3-0.0125 8.45 6e-4 16.9-0.00994 25.3-0.0257 7.28-0.0131 14.6-0.0184 21.8-0.0178 4.33 2.54e-4 8.67-0.00252 13-0.0132 4.08-0.00977 8.17-0.0097 12.2-0.00248 1.49 0.00104 2.97-0.00125 4.46-0.00736 12.8-0.0491 25.2 0.867 37.3 5.19 0.753 0.252 1.51 0.504 2.28 0.764 4.05 1.39 7.51 3.02 11.2 5.3h2c-3.4-26.5-13-50.9-32-70-1.25-1.26-1.25-1.26-2.52-2.54-22.4-22.3-51-34.2-82.7-34.6-33 0.299-63.8 13.8-86.6 37.6zm-13.2 114c-0.866 0.578-1.73 1.16-2.62 1.75-10.4 9.84-15.3 22.9-15.8 36.9 0.52 32.4 14.5 61.7 37.4 84.3 22.6 21.2 53 32.8 84 32.3 15.1-0.616 30.2-3.9 44-10.3l2.1-0.973c10.7-5.09 19.9-11.4 28.9-19 1.03-0.826 2.06-1.65 3.12-2.5 21.2-18.4 34-48.2 36.1-75.9 0.955-17.2-2.64-31.2-14.2-44.4-11.4-10.7-26-12.6-40.9-12.5-1.51-0.00599-3.01-0.0128-4.52-0.0204-4.08-0.0176-8.15-0.0224-12.2-0.0236-2.55-0.00143-5.11-0.0057-7.66-0.011-8.92-0.0185-17.8-0.0267-26.8-0.0251-8.29 0.0012-16.6-0.0199-24.9-0.0515-7.14-0.0262-14.3-0.0369-21.4-0.0356-4.25 5.07e-4 -8.51-0.00505-12.8-0.0264-4.01-0.0195-8.01-0.0194-12-0.00497-1.46 0.00207-2.92-0.00252-4.38-0.0147-13.5-0.105-24.6 2.21-35.4 10.5zm52 194c-1.59 27.4-1.59 27.4 6 53 0.422 0.746 0.843 1.49 1.28 2.26 7.37 12 18.4 18.9 31.9 22.2 14.9 2.7 27.9-2.34 40-10.7 8.98-8.98 15.7-21.1 16-34.1-3.11e-4 -1.52-0.0113-3.05-0.0317-4.57-0.00424-1.21-0.00424-1.21-0.00858-2.45-0.0111-2.56-0.0362-5.11-0.0617-7.67-0.01-1.75-0.0192-3.49-0.0273-5.24-0.0219-4.25-0.0564-8.51-0.0977-12.8-1.17 0.219-1.17 0.219-2.36 0.443-3.61 0.672-7.21 1.33-10.8 1.99l-3.72 0.697c-16.8 3.06-33.2 3.6-50.2 1.55l-3.28-0.357c-6.56-0.767-12.8-1.99-19.2-3.73-2.53-0.715-2.53-0.715-5.46-0.597z" fill="#000002"/>
<path transform="translate(597,789)" d="m0 0c3.35 1.46 5.55 3.3 8.13 5.89 1.22 1.22 1.22 1.22 2.46 2.46 0.883 0.89 1.77 1.78 2.68 2.7 0.946 0.947 1.89 1.89 2.84 2.84 2.57 2.57 5.13 5.14 7.68 7.71 2.68 2.69 5.36 5.37 8.04 8.06 5.08 5.08 10.1 10.2 15.2 15.3 5.77 5.79 11.5 11.6 17.3 17.4 11.9 11.9 23.8 23.8 35.6 35.7-1.12 3.36-2.37 4.69-5 7h-2c-0.268 0.593-0.535 1.19-0.811 1.8-1.2 2.23-2.42 3.69-4.21 5.48-0.623 0.628-1.25 1.26-1.89 1.9-0.685 0.681-1.37 1.36-2.08 2.06-1.09 1.1-1.09 1.1-2.2 2.21-2.44 2.45-4.9 4.9-7.35 7.34-1.75 1.75-3.5 3.51-5.25 5.26-4.27 4.27-8.53 8.54-12.8 12.8-3.47 3.47-6.94 6.93-10.4 10.4-0.493 0.493-0.986 0.987-1.49 1.5-1 1-2 2-3.01 3.01-9.39 9.4-18.8 18.8-28.2 28.2-8.07 8.07-16.1 16.1-24.2 24.2-9.36 9.37-18.7 18.7-28.1 28.1-0.998 0.998-2 2-2.99 2.99-0.737 0.736-0.737 0.736-1.49 1.49-3.47 3.47-6.93 6.93-10.4 10.4-4.66 4.66-9.32 9.32-14 14-1.72 1.71-3.43 3.43-5.14 5.15-2.33 2.33-4.66 4.66-7 6.99-0.685 0.69-1.37 1.38-2.08 2.09-0.934 0.926-0.934 0.926-1.89 1.87-0.539 0.539-1.08 1.08-1.63 1.63-1.39 1.14-1.39 1.14-3.39 1.14-0.33 0.99-0.66 1.98-1 3h-2c-0.33 0.99-0.66 1.98-1 3h-2v2c-1.32 0.66-2.64 1.32-4 2v-2h-2c-1.35-1.65-2.68-3.32-4-5-0.99-0.66-1.98-1.32-3-2v-2c-0.99-0.33-1.98-0.66-3-1-2.19-1.94-2.19-1.94-4-4v-2c-0.99-0.33-1.98-0.66-3-1-2.19-1.94-2.19-1.94-4-4v-2c-1.32-0.66-2.64-1.32-4-2v-2c-0.99-0.33-1.98-0.66-3-1-2.19-1.94-2.19-1.94-4-4v-2c-0.99-0.33-1.98-0.66-3-1-2.19-1.94-2.19-1.94-4-4v-2c-0.99-0.33-1.98-0.66-3-1-2.19-1.94-2.19-1.94-4-4v-2c-1.98-0.99-1.98-0.99-4-2v-2c-0.99-0.33-1.98-0.66-3-1v-2c-1.98-0.99-1.98-0.99-4-2v-2c-0.99-0.33-1.98-0.66-3-1v-2c-1.98-0.99-1.98-0.99-4-2v-2c-0.99-0.33-1.98-0.66-3-1-2.19-1.94-2.19-1.94-4-4v-2c-1.98-0.99-1.98-0.99-4-2v-2c-0.99-0.33-1.98-0.66-3-1v-2c-1.98-0.99-1.98-0.99-4-2v-2c-0.99-0.33-1.98-0.66-3-1-2.19-1.94-2.19-1.94-4-4v-2c-0.99-0.33-1.98-0.66-3-1-2.19-1.94-2.19-1.94-4-4v-2c-1.98-0.99-1.98-0.99-4-2v-2c-0.99-0.33-1.98-0.66-3-1v-2c-1.32-0.66-2.64-1.32-4-2v-2c-0.99-0.33-1.98-0.66-3-1-2.19-1.94-2.19-1.94-4-4v-2c-0.99-0.33-1.98-0.66-3-1v-2c-1.32-0.66-2.64-1.32-4-2v-2c-1.32-0.66-2.64-1.32-4-2v-2c-0.598-0.268-1.2-0.536-1.81-0.812-2.19-1.19-3.6-2.28-5.19-4.19v-2c-0.99-0.33-1.98-0.66-3-1-2.19-1.94-2.19-1.94-4-4v-2h-2c-1.55-1.61-1.55-1.61-3.31-3.75-1.99-2.35-3.77-4.32-6.19-6.25-4.55-3.64-8.28-8.17-11.5-13 32.3-32.3 64.7-64.7 98-98 3.35 1.12 4.02 1.95 6.19 4.62 2.44 2.89 4.92 5.44 7.81 7.88 3.52 2.97 6.44 6.22 9.42 9.73 1.63 1.92 1.63 1.92 4.08 3.77 2.32 1.85 4.02 3.69 5.94 5.94 2.11 2.47 4.05 4.47 6.56 6.56 3.07 2.56 5.48 5.28 8.07 8.3 4.22 4.79 8.6 9.64 13.9 13.2v2c0.99 0.33 1.98 0.66 3 1 0.33 0.66 0.66 1.32 1 2 3.31-1.44 5.44-3.22 7.94-5.81 0.648-0.666 1.3-1.33 1.96-2.02 0.692-0.715 1.38-1.43 2.1-2.17 1.67-1.67 3.33-3.33 5-5l2.32-2.32c42.7-42.7 42.7-42.7 45.3-45.3 1.61-1.61 3.22-3.22 4.83-4.83 1.74-1.74 3.5-3.48 5.25-5.21 5.78-5.63 5.78-5.63 11.1-11.7 2.46-2.95 5.24-5.17 8.19-7.62 1.76-1.94 3.37-3.94 5-6zm-1.88 67.5c-0.713 0.715-1.43 1.43-2.16 2.17-1.23 1.22-1.23 1.22-2.49 2.47-0.896 0.907-1.79 1.81-2.72 2.75-0.955 0.956-1.91 1.91-2.87 2.87-2.6 2.6-5.19 5.21-7.78 7.82-2.71 2.72-5.42 5.44-8.13 8.16-5.14 5.15-10.3 10.3-15.4 15.5-5.84 5.87-11.7 11.7-17.5 17.6-12 12.1-24 24.1-36.1 36.2-4.14-1.9-6.94-4.7-10.1-7.93-0.599-0.607-1.2-1.21-1.81-1.84-1.3-1.32-2.59-2.63-3.89-3.95-2.05-2.08-4.1-4.16-6.15-6.24-5.84-5.9-11.7-11.8-17.5-17.7-3.56-3.62-7.13-7.24-10.7-10.8-1.36-1.38-2.72-2.76-4.08-4.15-1.89-1.93-3.79-3.85-5.7-5.77-0.839-0.87-0.839-0.87-1.69-1.76-1.71-1.76-1.71-1.76-4.39-3.79-4.03 0.0516-6.03 2.66-8.75 5.44-0.799 0.803-1.6 1.61-2.42 2.43-2.05 1.91-2.05 1.91-1.83 4.13-0.552 0.227-1.1 0.454-1.67 0.688-3.02 1.7-5.14 3.86-7.58 6.31-0.892 0.887-1.78 1.77-2.7 2.69-2.27 2.05-2.27 2.05-2.05 4.31-0.866 0.34-0.866 0.34-1.75 0.688-2.9 1.51-2.9 1.51-6.25 6.31 32.7 32.7 65.3 65.3 99 99 4.03-2.01 6.14-3.89 9.29-7.06 0.521-0.52 1.04-1.04 1.58-1.57 1.74-1.74 3.48-3.49 5.21-5.24 1.25-1.25 2.5-2.5 3.75-3.75 2.69-2.69 5.37-5.39 8.06-8.08 4.24-4.26 8.48-8.51 12.7-12.8 6.71-6.72 13.4-13.5 20.1-20.2 12-12.1 24-24.1 36.1-36.2 4.22-4.23 8.44-8.47 12.7-12.7 2.62-2.63 5.24-5.26 7.86-7.89 1.22-1.22 2.44-2.45 3.65-3.67 1.66-1.67 3.32-3.33 4.98-4.99 0.93-0.933 1.86-1.87 2.82-2.83 2.22-2.1 2.22-2.1 4.22-3.1-0.245-5.59-3.8-8.36-7.55-12.1-0.986-0.988-0.986-0.988-1.99-2-1.39-1.39-2.78-2.77-4.18-4.15-2.14-2.12-4.27-4.25-6.39-6.39-1.35-1.35-2.7-2.69-4.06-4.03-0.956-0.961-0.956-0.961-1.93-1.94-0.896-0.877-0.896-0.877-1.81-1.77-0.523-0.518-1.05-1.04-1.59-1.57-2.51-1.86-4.03-1.47-6.38 0.41z" fill="#000002"/>
<path transform="translate(825 680)" d="m0 0c1.31-0.00473 1.31-0.00473 2.65-0.00955 1.43 0.00304 1.43 0.00304 2.88 0.00613 0.97-9.57e-4 1.94-0.00191 2.94-0.0029 2.06-6.82e-4 4.11 0.00117 6.17 0.00534 3.16 0.00534 6.31 5.86e-5 9.47-0.00635 1.99 6.61e-4 3.99 0.00194 5.98 0.00391 0.949-0.00202 1.9-0.00405 2.88-0.00613 0.878 0.00315 1.76 0.0063 2.66 0.00955 1.16 0.00119 1.16 0.00119 2.35 0.00241 1.9 0.127 1.9 0.127 3.9 1.13 0.0253 6.25 0.0428 12.5 0.0549 18.7 0.00504 2.13 0.0119 4.25 0.0205 6.38 0.0121 3.05 0.0178 6.1 0.0222 9.15 0.00516 0.957 0.0103 1.91 0.0156 2.9 7.55e-5 0.881 1.51e-4 1.76 2.29e-4 2.67 0.00222 0.779 0.00444 1.56 0.00673 2.36-0.12 1.79-0.12 1.79-1.12 2.79-1.41 0.0929-2.83 0.117-4.24 0.114-0.901-7.55e-5 -1.8-1.51e-4 -2.73-2.29e-4 -0.979-0.00516-1.96-0.0103-2.97-0.0156-0.997-0.00141-1.99-0.00283-3.02-0.00429-3.2-0.00562-6.4-0.0182-9.6-0.0309-2.16-0.00501-4.33-0.00958-6.49-0.0137-5.32-0.0111-10.6-0.0278-15.9-0.0488-0.739-5.95-1.15-11.7-1.13-17.7-9.57e-4 -0.784-0.00191-1.57-0.0029-2.38-6.74e-4 -1.64 0.00113-3.27 0.00534-4.91 0.00542-2.52 1.38e-7 -5.03-0.00635-7.55 6.6e-4 -1.6 0.00194-3.19 0.00391-4.79-0.00304-1.13-0.00304-1.13-0.00613-2.29 0.0296-6.5 0.0296-6.5 5.26-6.5z" fill="#000002"/>
<path transform="translate(727,680)" d="m0 0c5.73-0.0206 11.5-0.0412 17.4-0.0625 1.79-0.0091 3.58-0.0182 5.42-0.0276 1.45-0.00293 2.9-0.00547 4.35-0.00757 0.726-0.00512 1.45-0.0102 2.2-0.0155 5.6-9.27e-4 11.1 0.475 16.7 1.11 0.0253 6.25 0.0428 12.5 0.0549 18.7 0.00504 2.13 0.0119 4.25 0.0205 6.38 0.0121 3.05 0.0178 6.1 0.0222 9.15 0.00516 0.957 0.0103 1.91 0.0156 2.9 7.55e-5 0.881 1.51e-4 1.76 2.29e-4 2.67 0.00222 0.779 0.00444 1.56 0.00673 2.36-0.12 1.79-0.12 1.79-1.12 2.79-1.41 0.0929-2.83 0.117-4.24 0.114-0.914-1.21e-4 -1.83-2.42e-4 -2.77-3.66e-4 -0.967-0.00512-1.93-0.0102-2.93-0.0155-0.884-0.00101-1.77-0.00201-2.68-0.00305-3.31-0.00525-6.63-0.0192-9.94-0.0321-7.4-0.0206-14.8-0.0412-22.4-0.0625v-46z" fill="#000002"/>
</svg>
