<?xml version="1.0" encoding="UTF-8"?>
<svg version="1.1" viewBox="0 0 1600 1600" width="1280" height="1280" xmlns="http://www.w3.org/2000/svg">
<path transform="translate(697 323)" d="m0 0c5.56 2.98 11.2 5.71 16.9 8.4 9.02 4.28 18 8.68 26.9 13.2 0.605 0.303 1.21 0.606 1.83 0.919 4.97 2.49 9.95 4.99 14.9 7.49 4.33 2.18 8.67 4.35 13 6.53 0.904 0.453 0.904 0.453 1.83 0.916 9.02 4.51 18.1 8.94 27.2 13.2 7.38 3.49 14.7 7.14 22 10.8 2.81 1.41 5.62 2.82 8.42 4.22 2.17 1.09 4.35 2.18 6.52 3.27 5.68 2.85 11.4 5.69 17 8.53 4.27 2.14 8.55 4.28 12.8 6.42 23.7 11.9 23.7 11.9 47.7 23.5 8.53 4.05 17 8.27 25.4 12.5 0.739 0.37 1.48 0.741 2.24 1.12 6.11 3.06 12.2 6.13 18.3 9.19 26.5 13.4 26.5 13.4 53.2 26.2 1.75 0.834 3.46 1.74 5.14 2.69 4.86 2.6 8.13 4.07 13.6 2.55 1.85-0.693 3.68-1.43 5.49-2.2 1-0.388 2-0.776 3.04-1.18 3.27-1.28 6.52-2.6 9.77-3.93 2.29-0.901 4.58-1.8 6.88-2.69 4.65-1.81 9.3-3.64 13.9-5.47 9.28-3.65 18.7-6.97 28.1-10.3 3.4-1.2 6.79-2.4 10.2-3.61 0.839-0.298 1.68-0.595 2.54-0.902 6.45-2.29 12.9-4.64 19.3-7 79.5-29.2 159-43 244-33.8 1.24 0.134 2.47 0.268 3.74 0.406 64.6 7.39 150 27.3 193 80.2 13.4 17.9 21.6 37.7 26.5 59.4 0.246 1.01 0.492 2.01 0.746 3.05 6.31 30.1-2.66 65.1-18.9 90.8-2.77 4.17-5.75 8.16-8.81 12.1-0.743 0.978-1.48 1.96-2.25 2.96-8.67 11-19 19.4-30.8 27-0.862 0.583-1.72 1.17-2.61 1.77-6.51 4.13-13.4 6.97-20.5 9.81-1.09 0.435-2.18 0.869-3.31 1.32-11.7 4.62-23.5 8.91-35.4 13.2-5.73 2.05-11.5 4.12-17.2 6.18-1.88 0.678-3.76 1.36-5.64 2.03-10.7 3.85-21.3 7.79-31.9 11.8-7.04 2.68-14.1 5.19-21.2 7.65-11.4 3.95-22.8 8.06-34.1 12.2-5.71 2.1-11.4 4.19-17.1 6.28-1.13 0.413-2.26 0.826-3.42 1.25-9.24 3.38-18.5 6.72-27.7 10.1-13.8 4.96-27.6 10-41.3 15.1-1.03 0.379-2.06 0.759-3.12 1.15-1.04 0.382-2.07 0.763-3.14 1.16-48.4 17.8-96.8 35.5-145 52.9-2.4 0.861-4.8 1.72-7.2 2.59-6.61 2.38-13.2 4.73-19.9 7-1.05 0.363-2.1 0.726-3.18 1.1-1.85 0.639-3.7 1.27-5.56 1.87-0.779 0.272-1.56 0.543-2.36 0.823-0.658 0.22-1.32 0.44-1.99 0.666-4 2.48-5.57 7.72-7.42 11.9-0.51 1.14-1.02 2.27-1.54 3.45-0.55 1.24-1.1 2.48-1.65 3.71-0.58 1.3-1.16 2.6-1.74 3.9-4.53 10.2-8.97 20.4-13.4 30.6-4.02 9.31-8.09 18.6-12.2 27.9-1.26 2.86-2.52 5.71-3.79 8.57-0.322 0.729-0.644 1.46-0.976 2.21-4.07 9.22-8.13 18.4-12.2 27.7-0.384 0.873-0.767 1.75-1.16 2.65-5.33 12.1-10.6 24.3-15.9 36.5-2.95 6.81-5.93 13.6-8.95 20.4-0.354 0.795-0.708 1.59-1.07 2.41-1.72 3.86-3.45 7.72-5.18 11.6-3.56 7.95-7 15.9-10.3 24-1.71 4.21-3.54 8.34-5.5 12.4-3.46 7.3-6.68 14.7-9.88 22.1-5.09 11.8-10.2 23.6-15.4 35.3-3.44 7.76-6.85 15.5-10.2 23.3-0.585 1.37-1.17 2.73-1.75 4.1-1.08 2.54-2.16 5.08-3.23 7.62-6.82 15.9-14.3 28.2-30.7 35.2-8.15 3.24-16.3 6.34-24.6 9.29-3.89 1.39-7.77 2.79-11.7 4.18-0.875 0.315-1.75 0.629-2.65 0.953-11.6 4.17-23.1 8.41-34.7 12.6-17.8 6.53-35.7 13-53.6 19.5-0.669 0.241-1.34 0.482-2.03 0.73-5.93 2.14-11.9 4.27-17.8 6.4-14.5 5.2-28.9 10.5-43.3 15.9-43.4 16.5-43.4 16.5-63.4 8-3.2-1.77-6.1-3.77-9-6-0.866-0.577-1.73-1.16-2.62-1.75-9.19-8.7-14.5-20.6-15-33.2 0.291-6.23 1.37-12 2.8-18.1 0.222-0.959 0.444-1.92 0.673-2.91 2.24-9.58 4.72-19.1 7.23-28.6 5.31-20.1 10.4-40.2 15.4-60.4 5.09-20.5 10.3-40.9 15.6-61.3 2.95-11.3 5.86-22.5 8.72-33.8 0.321-1.27 0.643-2.53 0.974-3.83 1.56-6.17 3.13-12.3 4.68-18.5 0.564-2.23 1.13-4.45 1.69-6.68 0.382-1.52 0.382-1.52 0.772-3.07 1.18-4.66 2.42-9.25 4.03-13.8-0.831 0.316-1.66 0.633-2.52 0.959-12.4 4.71-25 9.2-37.5 13.7-22.3 8.02-44.6 16.1-66.9 24.3-17.1 6.31-34.2 12.6-51.3 18.7-14 5.01-28 10.1-42 15.2-2.36 0.859-4.72 1.72-7.09 2.58-11 4.01-22.1 8.03-33.1 12.1-71.4 26.1-141 43-216 16.5-0.824-0.287-1.65-0.574-2.5-0.87-25.4-8.93-49.3-21.5-70.5-38.1-1.15-0.874-2.3-1.75-3.46-2.62-7.81-5.95-14.8-12.3-21.5-19.4-2.45-2.47-4.91-4.91-7.44-7.3-8.18-7.83-14.9-16.6-21.6-25.7-0.681-0.919-1.36-1.84-2.06-2.79-5.12-7.1-9.59-14.6-13.9-22.2-0.369-0.643-0.738-1.29-1.12-1.95-9.63-17-16.7-35.1-22.9-53.6-4.09-12-8.5-24-12.9-35.9-0.594-1.61-0.594-1.61-1.2-3.26-3.64-9.89-7.29-19.8-11-29.7-0.438-1.18-0.875-2.35-1.33-3.57-0.739-1.98-1.48-3.97-2.22-5.95-2.46-6.59-4.77-13.2-7.07-19.9-3.84-11.1-7.87-22.1-11.9-33.2-5.71-15.4-11.4-30.9-16.9-46.4-0.228-0.64-0.455-1.28-0.69-1.94-5.54-15.6-6.73-27.8 0.367-43 2.09-4.1 4.7-7.45 7.89-10.7 0.839-0.915 0.839-0.915 1.7-1.85 9.5-9.35 24.2-13.4 36.6-17.7 3.36-1.18 6.72-2.37 10.1-3.56 1.78-0.634 3.57-1.27 5.36-1.9 9.42-3.34 18.8-6.74 28.2-10.2 2.81-1.02 5.62-2.04 8.43-3.07 8.05-2.93 16.1-5.87 24.1-8.88 0.633-0.237 1.27-0.474 1.92-0.718 2.83-1.06 5.65-2.12 8.47-3.2 14-5.27 29-7.81 43.1-1.61 7.48 3.74 13.5 8.31 19.7 13.8 3.31 2.92 6.76 5.63 10.2 8.32 4.81 3.73 9.47 7.58 14.1 11.6 5.07 4.4 10.2 8.6 15.5 12.7 4.73 3.68 9.35 7.46 14 11.3 5.76 4.77 11.6 9.44 17.5 14 3.86 3.02 7.62 6.15 11.3 9.34 5.86 5.04 12 9.73 18.1 14.4 0.694 0.524 1.39 1.05 2.1 1.59 0.619 0.464 1.24 0.928 1.88 1.41 1.58 1.25 1.58 1.25 3.58 3.25 7.05-1.12 13.5-3.51 20.2-6.02 1.09-0.403 2.17-0.807 3.29-1.22 2.35-0.874 4.7-1.75 7.06-2.63 5.73-2.14 11.5-4.27 17.2-6.39 1.34-0.495 2.67-0.99 4.01-1.49 14.5-5.36 29-10.6 43.5-15.8 18.7-6.73 37.5-13.5 56.1-20.4 14.3-5.32 28.7-10.6 43.1-15.7 15.7-5.62 31.4-11.3 47.1-17.1 13.4-4.92 26.9-9.81 40.3-14.6 14.7-5.28 14.7-5.28 29.3-10.8 0.714-0.268 1.43-0.536 2.16-0.812 3.5-1.19 3.5-1.19 5.65-4-0.706-0.24-1.41-0.48-2.14-0.727-3.33-1.48-5.76-3.37-8.61-5.65-5.04-3.97-10.2-7.76-15.4-11.4-6.03-4.23-12-8.49-18-12.8-5.26-3.81-10.5-7.61-15.8-11.4-9.14-6.52-18.2-13.1-27.3-19.7-8.1-5.86-16.2-11.7-24.3-17.5-4.73-3.37-9.43-6.77-14.1-10.2-5.87-4.25-11.8-8.46-17.7-12.6-8.13-5.72-16.2-11.5-24.2-17.4-3.75-2.72-7.51-5.43-11.3-8.14-4.51-3.26-9.03-6.52-13.5-9.79-1.51-1.09-3.02-2.19-4.53-3.28-0.739-0.535-1.48-1.07-2.24-1.62-4.47-3.23-8.98-6.42-13.5-9.59-29.8-20.8-29.8-20.8-34.6-39.9-2.23-12.8 0.523-25.3 7.38-36.4 6.96-9.81 16.6-15.4 27.8-19.3 1.03-0.372 2.06-0.745 3.12-1.13 2.21-0.799 4.43-1.59 6.65-2.38 4.65-1.66 9.27-3.36 13.9-5.07 3.7-1.36 7.4-2.71 11.1-4.06 0.633-0.231 1.27-0.461 1.92-0.699 1.3-0.474 2.6-0.948 3.9-1.42 2.03-0.738 4.05-1.48 6.08-2.22 22.6-8.26 45.3-16.5 68-24.7 11.8-4.28 23.6-8.56 35.4-12.9 11.5-4.21 22.9-8.41 34.4-12.6 1.97-0.719 3.94-1.44 5.91-2.16 2.76-1.01 5.53-2.02 8.29-3.03 0.815-0.3 1.63-0.599 2.47-0.908 31.2-11.3 52.4-0.113 80.4 15zm-65 78c-1.36 0.499-1.36 0.499-2.76 1.01-1.47 0.552-1.47 0.552-2.97 1.12-1.55 0.572-1.55 0.572-3.14 1.16-3.4 1.25-6.79 2.52-10.2 3.78-2.35 0.868-4.7 1.73-7.05 2.6-4.77 1.76-9.54 3.52-14.3 5.29-9 3.33-18 6.63-27 9.92-2.48 0.907-4.96 1.82-7.44 2.73-10.1 3.71-20.3 7.33-30.4 10.9v3c1.99 1.64 3.93 3.07 6.06 4.5 1.3 0.899 2.6 1.8 3.89 2.7 0.672 0.463 1.34 0.927 2.04 1.4 3.13 2.18 6.19 4.44 9.26 6.71 11.7 8.63 23.5 17.2 35.6 25.4 6.42 4.35 12.6 8.87 18.7 13.7 5.19 4 10.6 7.68 16 11.4 6.32 4.39 12.5 8.89 18.7 13.5 10.1 7.43 20.3 14.7 30.5 22 4.73 3.37 9.43 6.77 14.1 10.2 5.87 4.25 11.8 8.46 17.7 12.6 6.05 4.25 12.1 8.55 18.1 12.9 0.726 0.523 1.45 1.05 2.2 1.59 1.05 0.758 1.05 0.758 2.12 1.53 0.683 0.49 1.37 0.979 2.07 1.48 1.41 1.05 2.79 2.15 4.14 3.28 0.679 0.559 1.36 1.12 2.06 1.69 0.597 0.513 1.19 1.03 1.81 1.56 4.27 2.09 8.65-0.16 12.9-1.6 1.93-0.691 3.86-1.39 5.78-2.09 1.57-0.565 1.57-0.565 3.18-1.14 3.44-1.24 6.88-2.48 10.3-3.73 2.4-0.867 4.81-1.73 7.21-2.6 7.22-2.61 14.4-5.22 21.7-7.84 2.05-0.741 4.09-1.48 6.14-2.22 12.6-4.57 25.2-9.17 37.9-13.8 0.913-0.333 1.83-0.667 2.77-1.01 16.8-6.13 16.8-6.13 33.6-12.3 3.29-1.21 6.58-2.4 9.87-3.6 1.71-0.621 3.41-1.24 5.12-1.86 0.783-0.282 1.57-0.564 2.37-0.855 4.26-1.56 8.3-3.28 12.3-5.4v-2c-0.558-0.261-1.12-0.522-1.69-0.791-18.4-8.64-18.4-8.64-26.7-13.1-5.75-3.13-11.6-5.98-17.5-8.77-9.79-4.65-19.5-9.44-29.2-14.3-0.7-0.351-1.4-0.702-2.12-1.06-5.06-2.53-10.1-5.07-15.2-7.61-5.78-2.9-11.6-5.8-17.3-8.7-0.69-0.346-1.38-0.692-2.09-1.05-8.19-4.1-16.4-8.14-24.7-12-6.43-2.98-12.8-6.16-19.1-9.35-8.25-4.16-16.5-8.29-24.8-12.4-2.28-1.14-4.57-2.29-6.85-3.43-12.5-6.28-25.1-12.5-37.7-18.4-4.11-1.93-8.17-3.94-12.2-5.97-0.678-0.34-1.36-0.679-2.05-1.03-3.39-1.7-6.77-3.43-10.1-5.19-1.08-0.558-1.08-0.558-2.19-1.13-1.38-0.711-2.75-1.43-4.12-2.16-5.56-2.85-9.2-3.08-15-0.931zm519 138c-10 3.72-20.1 7.35-30.1 11-17.6 6.39-35.2 12.8-52.8 19.2-14.3 5.23-28.5 10.4-42.8 15.6-17.1 6.17-34.2 12.4-51.2 18.6-1.12 0.409-2.24 0.817-3.39 1.24-11 4.01-21.9 8.02-32.9 12.1-16.1 5.92-32.2 11.8-48.4 17.6-18.8 6.79-37.6 13.6-56.3 20.5-15.1 5.58-30.3 11.1-45.5 16.5-18.1 6.49-36.2 13.1-54.2 19.8-17.3 6.39-34.6 12.7-51.9 19-0.942 0.34-1.88 0.68-2.85 1.03-1.91 0.69-3.82 1.38-5.73 2.07-0.954 0.344-1.91 0.688-2.89 1.04-0.958 0.345-1.92 0.691-2.9 1.05-12 4.33-24 8.7-36 13.1-1.15 0.418-2.3 0.836-3.48 1.27-5.84 2.12-11.7 4.25-17.5 6.37-11.5 4.18-23 8.37-34.5 12.5-4.59 1.67-9.17 3.34-13.8 5-1.14 0.413-2.27 0.825-3.44 1.25-6.85 2.49-13.7 4.98-20.5 7.47-5.69 2.07-11.4 4.14-17.1 6.21-1.13 0.41-2.26 0.82-3.42 1.24-13 4.72-25.9 9.42-38.9 14.1-1.22 0.44-2.43 0.88-3.69 1.33-1.22 0.44-2.43 0.88-3.69 1.33-21.4 7.74-42.8 15.5-64.2 23.4-17.2 6.33-34.4 12.6-51.7 18.8-1.36 0.49-1.36 0.49-2.74 0.99-1.78 0.644-3.57 1.29-5.35 1.93-4.68 1.69-9.35 3.39-14 5.11-0.986 0.363-1.97 0.725-2.99 1.1-1.88 0.691-3.75 1.39-5.63 2.08-13.6 5.01-27.8 7.39-41.7 1.92-4.66-2.27-8.62-5.08-12.7-8.3-0.85-0.675-0.85-0.675-1.72-1.36-6.26-4.99-12.4-10.1-18.6-15.2-1.44-1.19-2.87-2.37-4.31-3.56-0.712-0.589-1.42-1.18-2.16-1.78-4.91-4.05-9.89-8-14.9-11.9-5.41-4.23-10.7-8.6-16-13-4.47-3.7-8.99-7.32-13.6-10.9-5.16-4.01-10.2-8.16-15.1-12.4-4.79-4.08-9.67-8.02-14.6-11.9-1.21-0.967-2.42-1.93-3.62-2.9-1.27-1.01-2.54-2.02-3.81-3.04-0.604-0.485-1.21-0.971-1.83-1.47-2.57-2.03-4.6-3.55-7.73-4.59-2.77 0.698-2.77 0.698-5.86 1.88-1.17 0.424-2.35 0.848-3.56 1.28-1.26 0.466-2.52 0.932-3.78 1.4-1.27 0.467-2.55 0.933-3.82 1.4-2.51 0.92-5.03 1.85-7.54 2.77-2.93 1.07-5.87 2.11-8.83 3.13-0.746 0.262-1.49 0.523-2.26 0.793-1.91 0.671-3.83 1.33-5.75 1.99-2.7 1.05-2.7 1.05-3.39 3.09-0.299 3.02 0.491 4.92 1.58 7.75 0.627 1.65 0.627 1.65 1.27 3.34 0.449 1.15 0.898 2.3 1.36 3.49 0.856 2.22 1.71 4.45 2.56 6.68 0.344 0.899 0.344 0.899 0.695 1.82 2.15 5.66 4.13 11.4 6.11 17.1 4.2 12.1 8.59 24.2 13 36.3 1.67 4.56 3.34 9.11 5.01 13.7 0.425 1.16 0.849 2.32 1.29 3.51 2.6 7.1 5.19 14.2 7.76 21.3 1.68 4.64 3.36 9.28 5.05 13.9 0.793 2.19 1.58 4.38 2.37 6.57 3.91 10.9 7.94 21.7 12.5 32.3 0.354 0.834 0.707 1.67 1.07 2.53 16.8 38.7 51.1 70.6 90.2 86 27.3 10.5 56 14.6 85.2 10.8 0.804-0.101 1.61-0.202 2.44-0.306 16.8-2.45 32.8-8.19 48.7-13.9 1.99-0.717 3.99-1.43 5.98-2.15 13.4-4.83 26.8-9.75 40.2-14.7 14.5-5.36 29-10.6 43.5-15.8 18.9-6.81 37.8-13.7 56.7-20.7 15.7-5.82 31.4-11.5 47.1-17.2 16.4-5.89 32.8-11.8 49.2-17.9 18.5-6.81 37-13.5 55.5-20.2 1.2-0.434 2.4-0.867 3.63-1.31 6.83-2.47 13.7-4.94 20.5-7.4 3.5-1.27 7.01-2.53 10.5-3.8 2.28-0.824 4.56-1.65 6.84-2.47 1.05-0.383 2.11-0.765 3.19-1.16 0.973-0.351 1.95-0.703 2.95-1.06 0.851-0.309 1.7-0.617 2.58-0.935 10.5-3.54 24.8-3.63 34.9 0.894 13.3 7.42 21.3 16.6 26 31.3 2.56 14.3-1.54 28-5.05 41.7-0.641 2.51-1.27 5.03-1.91 7.54-6.61 26.3-13.4 52.5-20.2 78.7-4.72 18.2-9.35 36.5-13.9 54.7-4.22 17-8.52 33.9-12.8 50.9-0.17 0.668-0.34 1.34-0.515 2.03-2.08 8.16-4.15 16.3-6.23 24.5 3.47-0.531 6.75-1.13 10.1-2.29 0.79-0.275 1.58-0.549 2.39-0.833 0.878-0.312 1.76-0.624 2.66-0.945 0.967-0.34 1.93-0.68 2.93-1.03 16.4-5.82 32.8-11.8 49.2-17.8 4.71-1.72 9.41-3.43 14.1-5.14 3.52-1.28 7.03-2.56 10.5-3.85 1.65-0.603 3.3-1.2 4.96-1.8 2.28-0.829 4.57-1.67 6.85-2.5 0.666-0.24 1.33-0.48 2.02-0.727 7.37-2.64 7.37-2.64 12.2-8.52 0.635-1.45 1.25-2.9 1.86-4.37 0.515-1.19 0.515-1.19 1.04-2.41 1.13-2.63 2.24-5.26 3.35-7.9 0.795-1.85 1.59-3.71 2.39-5.56 1.66-3.85 3.31-7.71 4.96-11.6 3.41-7.97 6.91-15.9 10.4-23.8 1.88-4.26 3.75-8.53 5.62-12.8 0.554-1.26 0.554-1.26 1.12-2.55 3.95-9.02 7.89-18 11.8-27.1 8.04-18.5 16.1-36.9 24.2-55.3 3.38-7.7 6.76-15.4 10.1-23.1 1.87-4.27 3.75-8.54 5.62-12.8 0.75-1.71 1.5-3.42 2.25-5.12 1.5-3.42 3-6.83 4.5-10.2 0.371-0.846 0.742-1.69 1.12-2.56 0.75-1.71 1.5-3.42 2.25-5.13 1.87-4.26 3.74-8.52 5.61-12.8 3.42-7.79 6.84-15.6 10.3-23.4 1.94-4.41 3.87-8.81 5.81-13.2 0.377-0.857 0.753-1.71 1.14-2.6 4.33-9.86 8.65-19.7 12.9-29.6 2.06-4.78 4.14-9.54 6.22-14.3 1.38-3.2 2.73-6.41 4.08-9.62 5.58-13.1 10.7-23.7 24-30.3 0.681-0.338 1.36-0.675 2.06-1.02 11-5.25 22.6-9.06 34-13.1 2.57-0.918 5.14-1.84 7.71-2.76 3.95-1.42 7.9-2.83 11.8-4.24 12-4.27 23.9-8.62 35.8-13 5.4-1.98 10.8-3.96 16.2-5.93 1.02-0.373 2.04-0.746 3.09-1.13 8.63-3.15 17.3-6.27 25.9-9.39 16.6-5.99 33.3-12.1 49.9-18.1 0.689-0.251 1.38-0.503 2.09-0.762 13.8-5.02 27.5-10 41.2-15.1 3.33-1.22 6.65-2.44 9.98-3.66 0.799-0.293 1.6-0.586 2.42-0.887 14.3-5.25 28.7-10.4 43-15.6 15.1-5.46 30.2-11 45.3-16.6 18-6.63 36-13.2 54.1-19.6 14.8-5.33 29.7-10.7 44.5-16.2 3.92-1.45 7.84-2.87 11.8-4.27 16.5-5.86 30-11.9 38.4-28 3.69-8.91 3.36-21 0.336-30.1-8.32-19.2-27.2-25.9-45.4-33.2-44.8-17.4-92.5-26-140-26-0.895-6.75e-4 -1.79-0.00135-2.71-0.00204-57.9 0.0687-111 15.7-165 35.7z" fill="#000002"/>
</svg>
