<?xml version="1.0" encoding="UTF-8"?>
<svg version="1.1" viewBox="0 0 1600 1600" width="1280" height="1280" xmlns="http://www.w3.org/2000/svg">
<path transform="translate(1563,22)" d="m0 0c4.19 3.48 8.12 7.18 12 11 0.669 0.656 1.34 1.31 2.03 1.99 15.6 16.5 22.8 41.4 23.5 63.7-0.915 28.3-8.97 56.6-20.5 82.3-0.626 1.41-0.626 1.41-1.26 2.84-7.22 16.1-15.7 31.1-24.9 46.1-1.64 2.69-3.25 5.38-4.85 8.09-5.92 9.96-12.4 19.3-19.3 28.7-2.26 3.07-4.48 6.18-6.7 9.28-8.36 11.6-17 23-26.3 33.9-4.71 5.51-9.27 11.1-13.8 16.8-5.97 7.42-12.3 14.4-18.9 21.3-0.618 0.658-1.24 1.32-1.87 1.99-2.6 2.77-5.21 5.54-7.82 8.3-0.923 0.978-0.923 0.978-1.86 1.98-0.68 0.72-1.36 1.44-2.06 2.18-1.78 1.9-3.56 3.82-5.33 5.74-9.11 9.87-18.5 19.4-28 28.9-2.57 2.56-5.13 5.13-7.69 7.69-1.65 1.65-3.3 3.29-4.95 4.94-0.756 0.758-1.51 1.52-2.29 2.3-3.02 3.01-6.03 5.97-9.33 8.68-2.78 2.29-5.26 4.73-7.79 7.3-1.71 1.59-3.43 3.18-5.15 4.77-1.44 1.36-2.87 2.72-4.31 4.09-0.989 0.933-1.99 1.86-2.99 2.77-1.47 1.33-2.9 2.71-4.32 4.08-0.858 0.801-1.72 1.6-2.6 2.43-2.01 2.9-2.01 2.9-1.15 6.8 0.484 1.7 0.996 3.38 1.53 5.07 0.441 1.55 0.441 1.55 0.891 3.13 1.07 3.75 2.19 7.49 3.31 11.2 0.428 1.44 0.855 2.87 1.28 4.31 1.16 3.88 2.32 7.77 3.48 11.7 1.23 4.11 2.45 8.22 3.68 12.3 2.59 8.69 5.19 17.4 7.78 26.1 1.57 5.24 3.13 10.5 4.7 15.7 0.514 1.72 1.03 3.44 1.54 5.16 0.253 0.848 0.506 1.7 0.767 2.57 3.18 10.7 6.36 21.3 9.55 32 6.36 21.3 12.7 42.6 19 63.9 0.732-0.402 1.46-0.804 2.22-1.22 0.972-0.533 1.94-1.07 2.95-1.61 0.959-0.526 1.92-1.05 2.9-1.59 17.5-9.39 36.4-12.7 55.9-8.01 11.8 3.67 21.9 9.2 31.1 17.4 0.611 0.518 1.22 1.04 1.85 1.57 11.3 10.3 20.3 27.7 21.3 43 0.627 27.4-5.92 45.9-24.6 66-3.25 3.4-6.59 6.72-9.94 10-1.04 1.03-2.08 2.07-3.11 3.11-2.69 2.68-5.38 5.35-8.07 8.02-2.77 2.75-5.53 5.5-8.29 8.25-5.38 5.36-10.8 10.7-16.2 16.1 0.297 0.986 0.297 0.986 0.6 1.99 1.36 4.52 2.71 9.04 4.01 13.6 0.261 0.915 0.522 1.83 0.791 2.77 0.261 0.918 0.522 1.84 0.791 2.78 0.273 0.956 0.545 1.91 0.826 2.9 0.663 2.33 1.32 4.65 1.99 6.98 4.73-1.09 8.79-3.27 13.1-5.43 9.01-3.95 18.3-5.13 28.1-5.07 1.08 0.00572 2.17 0.0114 3.29 0.0173 20.6 0.452 37.6 9.27 51.9 23.9 13.1 14.9 18.8 32.9 18.6 52.5-1.71 25.7-14.5 43.1-32.5 60.5-0.977 0.953-1.95 1.91-2.93 2.86-4.09 4-8.18 8-12.3 12-2.54 2.45-5.07 4.91-7.58 7.39-1.41 1.39-2.85 2.75-4.29 4.11-4.82 4.49-4.82 4.49-6.68 10.5l1.32 3.72c0.564 2.03 1.12 4.06 1.68 6.09 0.73 2.47 1.47 4.95 2.21 7.42 0.407 1.37 0.813 2.74 1.22 4.11 1.1 3.72 2.21 7.45 3.33 11.2 1.18 3.95 2.35 7.9 3.52 11.9 2.75 9.27 5.52 18.5 8.28 27.8 1.01 3.39 2.02 6.78 3.04 10.2 7.63 25.6 15.3 51.2 22.9 76.8 3.7 12.4 7.39 24.7 11 37.1 0.759 2.56 1.52 5.12 2.28 7.68 1.23 4.13 2.45 8.27 3.66 12.4 0.439 1.49 0.881 2.99 1.33 4.48 5.38 18 5.38 18 2.16 25.7-6.24 10.7-17.1 19.8-25.8 28.6-0.552 0.556-1.1 1.11-1.67 1.69-2.91 2.93-5.83 5.86-8.75 8.79-2.99 3-5.96 6.01-8.94 9.02-2.32 2.34-4.64 4.68-6.97 7.01-1.1 1.11-2.2 2.22-3.29 3.33-7.74 7.87-15.1 15.4-26.8 15.9-8.82-0.432-14.7-4.72-20.5-11.1-3-3.88-5.77-7.88-8.54-11.9-2.74-3.92-5.61-7.74-8.46-11.6-4.05-5.47-8.06-11-12-16.5-6.21-8.75-12.6-17.4-19-26-7.42-10-14.8-20.1-22.1-30.2-3.93-5.45-7.9-10.9-11.9-16.3-4.54-6.14-9.04-12.3-13.5-18.5-8.79-12.2-17.7-24.3-26.8-36.3-4.02-5.34-7.96-10.7-11.8-16.2-5.86-8.25-11.9-16.4-17.9-24.5-7.42-10-14.8-20.1-22.1-30.2-3.93-5.45-7.9-10.9-11.9-16.3-4.54-6.14-9.04-12.3-13.5-18.5-6.18-8.58-12.4-17.1-18.7-25.6-3.51-4.75-7.01-9.51-10.5-14.3-2.93-3.97-5.86-7.94-8.79-11.9-8.44-11.4-16.8-22.9-25.1-34.4-7.81-10.8-15.7-21.6-23.6-32.4-1.76-2.38-3.51-4.76-5.27-7.15-0.578-0.784-1.16-1.57-1.75-2.38-1.16-1.57-2.32-3.15-3.48-4.73-3-4.08-6.02-8.15-9.05-12.2-0.623-0.837-1.25-1.67-1.89-2.54-1.18-1.58-2.36-3.16-3.54-4.73-13.9-18.7-13.9-18.7-12.8-29.7 1.94-7.63 5.34-12.7 12-17 5.91-3.03 11.6-3.9 18-2 8.2 3.48 12.9 8.89 18 16 0.976 1.34 1.95 2.68 2.93 4.02 2.81 3.86 5.59 7.73 8.37 11.6 2.71 3.78 5.42 7.54 8.14 11.3 0.8 1.11 0.8 1.11 1.62 2.24 4.53 6.26 9.11 12.5 13.7 18.7 4.06 5.49 8.07 11 12.1 16.6 4.19 5.82 8.44 11.6 12.8 17.3 8.32 11 16.5 22.2 24.5 33.5 6.23 8.64 12.6 17.2 18.9 25.8 7.42 10 14.8 20.1 22.1 30.2 3.93 5.45 7.9 10.9 11.9 16.3 4.54 6.14 9.04 12.3 13.5 18.5 6.76 9.39 13.6 18.7 20.5 28 7.42 10 14.8 20.1 22.1 30.2 5.7 7.9 11.5 15.7 17.3 23.6 6.41 8.68 12.8 17.4 19.1 26.1 4.13 5.73 8.31 11.4 12.6 17.1 4.75 6.3 9.39 12.7 14 19.1 4.01 5.57 8.05 11.1 12.1 16.6 0.588 0.797 1.18 1.59 1.78 2.42 1.15 1.56 2.31 3.13 3.46 4.69 8.62 11.7 17.1 23.4 25.6 35.2 4.6-2.09 7.2-5.38 10.5-9.19 1.14-1.3 2.34-2.56 3.54-3.81h2c0.33-0.99 0.66-1.98 1-3h2c0.33-0.99 0.66-1.98 1-3 2.75-2.38 5.48-4.63 8.44-6.75 2.49-3.58 1.27-7.1 0.562-11.2-0.635-2.78-1.44-5.49-2.28-8.21-0.241-0.801-0.482-1.6-0.731-2.43-0.536-1.78-1.08-3.55-1.62-5.33-1.23-4.01-2.44-8.03-3.65-12.1-0.696-2.31-1.39-4.62-2.09-6.93-3.29-10.9-6.53-21.8-9.77-32.7-0.405-1.36-0.405-1.36-0.817-2.75-1.38-4.65-2.76-9.29-4.14-13.9-2.65-8.91-5.3-17.8-7.95-26.7-0.381-1.28-0.381-1.28-0.769-2.59-3.43-11.5-6.9-23.1-10.4-34.6-4.24-13.9-8.38-27.9-12.5-41.9-1.94-6.61-3.88-13.2-5.83-19.8-0.193-0.655-0.386-1.31-0.585-1.99-3.74-12.7-7.56-25.3-11.4-38-4.37-14.4-8.6-28.8-12.8-43.2-3.77-13-7.56-26-11.6-38.9-3.33-10.7-6.53-21.5-9.73-32.2-0.299-1.01-0.598-2.01-0.906-3.05-1.23-4.13-2.46-8.27-3.69-12.4-2.11-7.1-4.22-14.2-6.34-21.3-5.87-19.7-11.7-39.4-17.5-59.1-6.6-22.4-13.3-44.7-20-67.1-2.88-9.66-5.76-19.3-8.63-29-0.878-2.95-1.76-5.91-2.63-8.86-0.218-0.733-0.436-1.47-0.66-2.22-9.46-31.8-19-63.6-28.5-95.5-0.854-2.86-1.71-5.72-2.56-8.57-6.65-22.3-13.3-44.5-20-66.8-0.48 0.411-0.96 0.823-1.45 1.25-0.63 0.54-1.26 1.08-1.91 1.64-0.624 0.535-1.25 1.07-1.89 1.62-1.31 1.12-2.62 2.24-3.93 3.37-3.84 3.32-7.48 6.76-11 10.4-1.84 1.81-3.76 3.5-5.71 5.18-3.45 2.97-6.65 6.1-9.81 9.38-1.95 1.89-3.93 3.67-5.98 5.45-4.28 3.72-8.4 7.58-12.5 11.5-4.91 4.64-9.82 9.26-14.8 13.8-8.1 7.39-16.1 14.9-24.1 22.4-7.89 7.42-15.8 14.8-23.9 22-5.4 4.84-10.8 9.71-16.1 14.6-3.24 2.98-6.49 5.93-9.81 8.81-4.13 3.58-8.13 7.3-12.1 11-4.93 4.57-9.92 9.07-14.9 13.5-5.22 4.69-10.4 9.39-15.6 14.1-3.08 2.8-6.17 5.58-9.31 8.31-3.89 3.38-7.69 6.87-11.5 10.4-4.11 3.78-8.26 7.51-12.4 11.2-2.11 1.93-4.15 3.93-6.16 5.97 9.34 13.1 18.7 26.2 28.3 39.2 2.34 3.16 4.67 6.33 6.99 9.49 1.14 1.56 2.29 3.11 3.43 4.66 15.8 21.4 15.8 21.4 14.3 31.7-2.28 6.7-5.25 12.5-11.4 16.2-6.55 3.22-13.1 3.81-20.1 1.69-10.5-5.26-16.8-15.7-23.5-24.9-1.11-1.54-2.23-3.08-3.34-4.62-1.67-2.31-3.34-4.62-5-6.94-3.07-4.27-6.17-8.5-9.34-12.7-3.34-4.43-6.63-8.88-9.88-13.4-0.442-0.605-0.885-1.21-1.34-1.83-3.1-4.31-3.1-4.31-3.1-6.54-4.29 1.41-6.87 3.46-10.1 6.56-3.68 3.44-7.38 6.72-11.3 9.88-5.13 4.14-9.97 8.54-14.8 13-4.57 4.22-9.28 8.29-14 12.3-1.21 1.03-2.42 2.07-3.62 3.1-0.609 0.52-1.22 1.04-1.84 1.58-3.54 3.03-7.02 6.1-10.5 9.24-4.36 3.96-8.88 7.68-13.5 11.4-2.31 1.84-2.31 1.84-4.04 3.7-1.31 1.24-1.31 1.24-3.31 1.24v2c-1.55 1.39-3.17 2.71-4.81 4-4.03 3.22-7.9 6.5-11.7 10-3.51 3.24-7.08 6.33-10.8 9.31-5.06 4.07-9.77 8.44-14.5 12.9-4.33 4.06-8.83 7.84-13.5 11.5-3.09 2.55-6.04 5.22-8.98 7.94-0.505 0.467-1.01 0.933-1.53 1.41-0.488 0.451-0.976 0.903-1.48 1.37-9.24 8.53-9.24 8.53-11.7 8.53v2c-4.47 4-4.47 4-7 4v2c-1.53 1.37-3.13 2.67-4.75 3.94-4.24 3.38-8.29 6.86-12.2 10.6-3.71 3.45-7.49 6.77-11.4 9.94-4.89 3.93-9.49 8.11-14.1 12.4-8.69 8.16-8.69 8.16-11.5 8.16v2c-1.49 1.35-3.04 2.63-4.62 3.88-4.46 3.57-8.86 7.21-13.2 10.9-0.586 0.504-1.17 1.01-1.78 1.53-1.81 1.55-3.61 3.11-5.41 4.66-2.39 2.06-4.79 4.13-7.19 6.19-0.582 0.5-1.16 1-1.76 1.52-3.56 3.05-7.16 6.03-10.8 8.98-4.38 3.56-8.57 7.28-12.7 11.1-2.51 2.24-5.08 4.37-7.7 6.48-5.14 4.16-10.1 8.47-15.1 12.8-4.06 3.53-8.14 7.03-12.3 10.5-6.25 5.27-12.5 10.6-18.7 15.9-3.5 3.01-7 6.01-10.5 9.01-2.96 2.53-5.91 5.07-8.86 7.61-5.23 4.5-10.5 8.98-15.8 13.3-5.67 4.61-11.2 9.39-16.7 14.2-3.92 3.42-7.87 6.8-11.8 10.2-0.609 0.522-1.22 1.04-1.85 1.58-1.4 1.2-2.81 2.4-4.22 3.61 2.13 6.62 4.53 13.1 7.06 19.6 0.387 0.995 0.775 1.99 1.17 3.02 0.825 2.12 1.65 4.24 2.48 6.36 2.18 5.58 4.35 11.2 6.52 16.7 0.425 1.09 0.85 2.19 1.29 3.31 2.97 7.65 5.9 15.3 8.79 23 5.24 13.9 10.6 27.7 15.9 41.6 12.9 33.4 12.9 33.4 18.6 48.3 0.431 1.14 0.862 2.28 1.31 3.45 4.07 10.8 4.07 10.8 4.26 15.7 0.049 0.878 0.098 1.76 0.148 2.66-1.37 8.61-6.6 15.1-12.6 21-0.698 0.705-1.4 1.41-2.12 2.14-2.29 2.3-4.59 4.59-6.9 6.87-1.61 1.61-3.22 3.22-4.82 4.83-3.36 3.36-6.73 6.72-10.1 10.1-4.31 4.28-8.61 8.58-12.9 12.9-3.31 3.32-6.64 6.64-9.97 9.95-1.59 1.58-3.17 3.17-4.75 4.75-2.22 2.22-4.44 4.43-6.67 6.63-0.642 0.649-1.28 1.3-1.95 1.97-6.34 6.21-13.1 10.8-22.2 11.3-15-0.711-26.1-16.6-36-26.5-1.46-1.45-2.92-2.91-4.37-4.36-3.99-3.98-7.97-7.96-11.9-11.9-4.3-4.3-8.61-8.6-12.9-12.9-9.89-9.87-19.8-19.8-29.7-29.6-4.89-4.88-9.77-9.77-14.7-14.7-16.7-16.7-33.5-33.5-50.2-50.2-1.05-1.05-2.1-2.1-3.15-3.15-1.05-1.05-2.1-2.1-3.15-3.15-2.11-2.11-4.22-4.22-6.33-6.32-0.523-0.523-1.05-1.05-1.58-1.58-17-17-34-33.9-50.9-50.9-18-17.9-35.9-35.9-53.9-53.8-1.97-1.97-3.94-3.94-5.91-5.91-0.728-0.728-0.728-0.728-1.47-1.47-7.81-7.81-15.6-15.6-23.4-23.4-7.85-7.83-15.7-15.7-23.5-23.5-4.25-4.25-8.49-8.5-12.7-12.7-3.89-3.88-7.78-7.77-11.7-11.7-1.41-1.41-2.82-2.81-4.23-4.22-1.92-1.91-3.82-3.82-5.73-5.74-0.551-0.544-1.1-1.09-1.67-1.65-5.61-5.69-9-11.4-9.54-19.4 0.377-15.7 17.4-27.6 27.7-38 0.732-0.736 1.46-1.47 2.22-2.23 3.86-3.88 7.73-7.77 11.6-11.6 3.98-3.99 7.95-8 11.9-12 3.07-3.1 6.15-6.18 9.23-9.27 1.47-1.47 2.93-2.95 4.39-4.43 2.04-2.07 4.1-4.12 6.16-6.17 0.593-0.606 1.19-1.21 1.8-1.84 5.04-4.98 11-9.22 18.3-9.45 6.17 0.308 11.3 2.15 17 4.31 1.45 0.539 1.45 0.539 2.93 1.09 2.97 1.11 5.93 2.22 8.9 3.35 0.859 0.326 1.72 0.652 2.6 0.987 4.97 1.89 9.93 3.81 14.9 5.74 3.74 1.46 7.49 2.91 11.2 4.36 2 0.776 4 1.55 6.01 2.33 10.6 4.11 21.2 8.19 31.8 12.3 3.27 1.26 6.54 2.51 9.8 3.77 11 4.24 22.1 8.47 33.1 12.7 2.17 0.828 4.33 1.66 6.5 2.48 4.07 1.55 8.14 3.1 12.2 4.65 1.84 0.703 3.68 1.41 5.53 2.11 0.816 0.31 1.63 0.619 2.47 0.938 0.775 0.296 1.55 0.593 2.35 0.898 1.12 0.427 1.12 0.427 2.25 0.862 3.15 1.3 6.19 2.82 9.22 4.37 2.06 0.764 2.06 0.764 4.13-0.172 3-2.01 5.12-4.77 7.4-7.53 1.07-1.27 2.14-2.55 3.21-3.82 0.545-0.653 1.09-1.31 1.65-1.98 2.54-3.03 5.12-6.02 7.7-9.01 6.58-7.67 13.1-15.4 19.6-23.1 4.94-5.86 9.92-11.7 14.9-17.4 3.69-4.24 7.34-8.51 10.9-12.9 6.2-7.65 12.7-15 19.2-22.5 11.4-12.8 11.4-12.8 21.9-26.3 0.456-0.561 0.913-1.12 1.38-1.7h2c0.229-0.539 0.459-1.08 0.695-1.63 1.69-3.07 3.89-5.6 6.18-8.24 0.483-0.564 0.966-1.13 1.46-1.71 1.55-1.81 3.1-3.61 4.66-5.41 2.04-2.37 4.08-4.75 6.12-7.12 0.504-0.585 1.01-1.17 1.53-1.77 3.07-3.57 6.07-7.19 9.04-10.9 3.55-4.38 7.27-8.56 11.1-12.7 2.33-2.62 4.55-5.31 6.75-8.03 3.66-4.52 7.47-8.87 11.4-13.2 1.9-2.09 3.76-4.2 5.62-6.33 2.59-2.97 5.22-5.9 7.88-8.81 3.11-3.44 6.09-6.95 9-10.6 3.68-4.55 7.55-8.86 11.5-13.1 2.97-3.21 5.78-6.5 8.52-9.92 3.84-4.78 7.93-9.25 12.1-13.7 3.12-3.35 6.08-6.77 8.94-10.3 3.34-4.17 6.85-8.1 10.5-12 4.46-4.76 8.64-9.67 12.7-14.8 2.87-3.46 5.9-6.74 8.96-10 5.18-5.59 10.1-11.4 15-17.2 2.08-2.44 4.19-4.84 6.31-7.25 1.66-1.9 3.31-3.8 4.96-5.71 9.84-11.4 9.84-11.4 14.8-16.8 2.97-3.27 5.79-6.62 8.56-10.1 3.89-4.81 8.01-9.33 12.2-13.8 3.93-4.22 7.6-8.62 11.2-13.1 3.28-3.96 6.82-7.68 10.4-11.4 2.19-2.21 2.19-2.21 1.87-5.31l-1.96-0.609c-4.32-1.98-7.88-4.78-11.7-7.64-1.71-1.27-3.42-2.55-5.13-3.82-0.872-0.653-1.74-1.31-2.64-1.98-4.04-3.02-8.1-6.02-12.2-9.01l-2.38-1.75c-6.07-4.47-12.2-8.88-18.3-13.3-7.9-5.7-15.7-11.5-23.6-17.3-8.62-6.36-17.3-12.7-26-18.9-8.67-6.25-17.3-12.6-25.9-18.9-3.96-2.93-7.93-5.85-11.9-8.77-4.76-3.51-9.53-7.02-14.3-10.5-8.45-6.24-16.9-12.4-25.4-18.6-6.26-4.51-12.5-9.08-18.7-13.7-5.34-3.94-10.7-7.85-16.1-11.7-10.2-7.34-20.3-14.8-30.4-22.3-9.24-6.83-18.5-13.6-27.8-20.3-6.26-4.51-12.5-9.08-18.7-13.7-5.34-3.94-10.7-7.85-16.1-11.7-8.58-6.18-17.1-12.4-25.6-18.7-3.96-2.93-7.93-5.85-11.9-8.77-4.76-3.51-9.53-7.02-14.3-10.5-8.45-6.24-16.9-12.4-25.4-18.6-6.26-4.51-12.5-9.08-18.7-13.7-5.34-3.94-10.7-7.85-16.1-11.7-8.58-6.18-17.1-12.4-25.6-18.7-3.96-2.93-7.93-5.85-11.9-8.77-4.76-3.51-9.53-7.02-14.3-10.5-8.45-6.24-16.9-12.4-25.4-18.6-6.26-4.51-12.5-9.08-18.7-13.7-5.34-3.94-10.7-7.85-16.1-11.7-8.57-6.17-17.1-12.4-25.6-18.7-2.5-1.84-5-3.68-7.5-5.51-3.99-2.92-7.96-5.85-11.9-8.8-1.73-1.28-3.47-2.56-5.21-3.83-6.91-5.22-12.5-10.8-13.9-19.7-0.387-9.62 4.05-16.6 10.4-23.4 3.91-4.11 7.92-8.11 11.9-12.1 1.3-1.3 2.6-2.6 3.89-3.91 2.71-2.72 5.42-5.43 8.14-8.14 3.47-3.46 6.93-6.94 10.4-10.4 2.67-2.69 5.35-5.37 8.03-8.05 1.28-1.28 2.55-2.56 3.83-3.84 1.78-1.79 3.57-3.58 5.37-5.36 0.517-0.525 1.03-1.05 1.57-1.59 5.09-5.02 10.7-9 18.1-9.23 9.57 0.517 18.2 3.05 27.3 5.88 2.96 0.921 5.93 1.83 8.9 2.73 3.33 1.01 6.66 2.02 9.99 3.04 9.68 2.96 19.4 5.85 29.1 8.73 1.16 0.343 1.16 0.343 2.34 0.693 3.16 0.937 6.32 1.87 9.47 2.81 8.82 2.61 17.6 5.23 26.4 7.85 0.779 0.232 1.56 0.463 2.36 0.702 14.1 4.19 28.2 8.41 42.3 12.6 15.4 4.62 30.7 9.23 46.1 13.8 2.05 0.61 4.09 1.22 6.14 1.83 5.29 1.58 10.6 3.16 15.9 4.71 1.92 0.567 3.84 1.14 5.76 1.72 0.977 0.286 1.95 0.571 2.96 0.865 1.18 0.35 1.18 0.35 2.38 0.708 2.48 0.408 3.69 0.2 6.06-0.661 2.25-1.83 2.25-1.83 4.49-4.19 0.882-0.892 1.76-1.78 2.67-2.7 0.467-0.48 0.935-0.959 1.42-1.45 1.48-1.51 2.96-3.02 4.45-4.52 3.7-3.74 7.38-7.49 11.1-11.2 3.1-3.16 6.21-6.32 9.33-9.47 1.44-1.46 2.88-2.94 4.31-4.41 16.3-16.4 34.5-26.6 58-27.2 20.2 0.313 38.1 7.56 52.8 21.5 14.2 14.9 21.7 34.1 21.5 54.7-0.804 12.7-4.32 25.1-11 36v3c0.726 0.202 1.45 0.403 2.2 0.611 3.31 0.92 6.62 1.84 9.93 2.76l3.46 0.961c1.11 0.309 2.22 0.619 3.36 0.938 1.02 0.283 2.03 0.566 3.08 0.857 3.02 0.882 5.99 1.87 8.98 2.87 0.612-0.619 1.22-1.24 1.86-1.88 5.82-5.88 11.6-11.7 17.5-17.6 3-3.01 5.99-6.03 8.98-9.05 2.89-2.92 5.79-5.84 8.7-8.75 1.1-1.1 2.19-2.21 3.29-3.32 16.3-16.5 34.2-29.3 58.2-29.6 20.9-0.0515 37.8 4.91 53.5 19.2 0.608 0.517 1.22 1.03 1.84 1.57 12.2 11.1 19.8 28.5 21.4 44.8 0.922 19.1-3.33 37.2-15.2 52.7 0.633 0.169 1.27 0.338 1.92 0.513 7.69 2.08 15.3 4.3 23 6.57 1.36 0.404 2.73 0.807 4.1 1.21 3.69 1.09 7.38 2.18 11.1 3.28 2.33 0.69 4.66 1.38 6.98 2.07 29.1 8.61 58.2 17.3 87.2 26 3.73 1.12 7.47 2.23 11.2 3.34 7.1 2.11 14.2 4.25 21.3 6.44 3.43 1.06 6.87 2.11 10.3 3.16 1.65 0.505 3.29 1.02 4.93 1.53 2.27 0.713 4.55 1.41 6.83 2.1 0.673 0.216 1.35 0.433 2.04 0.656 2.8 0.832 4.65 1.34 7.47 0.422 2.47-1.81 4.57-3.87 6.73-6.05 0.471-0.471 0.942-0.943 1.43-1.43 0.993-0.996 1.98-1.99 2.97-3 1.5-1.52 3-3.02 4.51-4.53 5.59-5.6 5.59-5.6 10.8-11.6 0.76-0.88 1.52-1.76 2.3-2.67h2c0.243-0.568 0.485-1.14 0.736-1.72 1.51-2.72 3.3-4.56 5.5-6.75 1.31-1.32 1.31-1.32 2.65-2.66 0.958-0.951 1.92-1.9 2.88-2.85 0.987-0.986 1.97-1.97 2.96-2.96 2.07-2.07 4.14-4.13 6.22-6.2 2.64-2.62 5.28-5.25 7.91-7.89 2.04-2.04 4.08-4.08 6.13-6.11 0.971-0.968 1.94-1.94 2.91-2.9 5.02-5.01 10.1-9.92 15.5-14.5 2.34-2.02 4.49-4.21 6.64-6.42 3.59-3.63 7.27-7.05 11.1-10.4 1.81-1.6 3.49-3.27 5.16-5.01 4.05-4.1 8.5-7.65 13-11.3 3.29-2.66 6.55-5.36 9.82-8.06 0.724-0.596 1.45-1.19 2.2-1.8 3.65-3 7.3-6.02 10.9-9.06 9.28-7.77 18.8-15 28.7-22 1.87-1.32 3.72-2.66 5.57-4.01 17-12.3 34.6-23.6 52.8-33.9 2.23-1.28 4.45-2.58 6.66-3.9 48.2-28.5 122-55.4 172-16.6zm-92 32c-0.835 0.237-1.67 0.473-2.53 0.717-27.9 8.22-54 22.8-78.5 38.3-1.34 0.828-2.68 1.65-4.02 2.48-8.85 5.51-17.2 11.7-25.6 17.8-2.36 1.72-4.73 3.42-7.11 5.11-8.32 5.95-16.4 12-24.2 18.6-1.71 1.4-3.41 2.79-5.12 4.19-1.4 1.15-2.81 2.3-4.21 3.45-1.21 0.994-2.43 1.99-3.64 2.98-11.7 9.52-11.7 9.52-22.9 19.5-2.08 1.87-2.08 1.87-4.84 3.98-0.737 0.621-1.47 1.24-2.23 1.88v2c-0.576 0.248-1.15 0.495-1.75 0.75-2.59 1.44-4.27 3.11-6.32 5.25-2.27 2.37-4.18 4.16-6.94 6v2c-0.588 0.262-1.18 0.524-1.78 0.794-2.34 1.27-3.86 2.61-5.71 4.51-0.641 0.648-1.28 1.3-1.94 1.96-0.659 0.676-1.32 1.35-2 2.05-0.983 0.997-0.983 0.997-1.99 2.01-1.23 1.25-2.47 2.5-3.7 3.76-3.77 3.83-7.59 7.62-11.4 11.4-2.32 2.3-4.64 4.6-6.96 6.9-1.23 1.21-2.45 2.43-3.68 3.64-1.78 1.75-3.55 3.52-5.32 5.28-0.553 0.543-1.11 1.09-1.68 1.64-1.32 1.32-2.58 2.69-3.84 4.06v2c-0.99 0.33-1.98 0.66-3 1-1.58 1.56-1.58 1.56-3.12 3.5-4.74 5.59-9.98 10.7-15.2 15.8-3.45 3.42-6.83 6.83-9.98 10.5-5.39 6.27-11.4 12-17.3 17.8-5.42 5.35-10.8 10.7-15.7 16.5-4.08 4.6-8.59 8.81-13 13.1-0.735 0.724-1.47 1.45-2.23 2.2-0.668 0.651-1.34 1.3-2.02 1.97-1.67 1.54-1.67 1.54-1.45 3.66h-2c-1.33 1.28-1.33 1.28-2.75 3.06-3.53 4.16-7.21 8.15-10.9 12.1-1.23 1.31-2.46 2.63-3.69 3.94-0.609 0.65-1.22 1.3-1.84 1.97-2.65 2.83-5.28 5.68-7.9 8.53-0.486 0.527-0.972 1.05-1.47 1.6-0.977 1.06-1.95 2.12-2.93 3.18-1.5 1.63-3 3.25-4.5 4.87-5.69 6.16-11.4 12.3-17 18.5-2.22 2.41-4.46 4.8-6.72 7.18-0.64 0.678-1.28 1.36-1.94 2.05-1.26 1.33-2.52 2.66-3.79 3.98-0.572 0.605-1.14 1.21-1.73 1.83-0.511 0.536-1.02 1.07-1.55 1.63-1.45 1.63-1.45 1.63-2.22 4.53h-2c-1.4 1.35-1.4 1.35-2.88 3.19-3.15 3.7-6.38 7.31-9.69 10.9-0.506 0.547-1.01 1.09-1.53 1.66-4.62 4.98-9.26 9.94-13.9 14.9-3.92 4.2-7.77 8.44-11.6 12.7-1.9 2.09-3.81 4.16-5.75 6.21-6.16 6.53-12.1 13.1-17.7 20.1-2.27 2.75-4.72 5.22-7.28 7.69-2.4 2.39-4.58 4.94-6.79 7.5-2.1 2.42-4.24 4.79-6.38 7.17-2.67 2.96-5.32 5.93-7.94 8.94-2.81 3.23-5.68 6.4-8.56 9.56-4.51 4.96-4.51 4.96-9 9.94-0.536 0.597-1.07 1.19-1.62 1.81-1.43 1.83-2.41 3.65-3.38 5.75h-2c-1.27 1.43-2.46 2.92-3.62 4.44-4.87 6.1-10.1 11.7-15.5 17.4-5.91 6.2-11.5 12.6-17.1 19.2-4.69 5.53-9.49 10.9-14.5 16.2-4.56 4.85-8.83 9.83-13 15-3.68 4.43-7.62 8.6-11.5 12.8-4.32 4.63-8.44 9.42-12.5 14.2-1.03 1.21-2.07 2.42-3.1 3.63-0.518 0.607-1.04 1.21-1.57 1.84-3.79 4.42-7.65 8.76-11.6 13.1-4 4.43-7.91 8.93-11.8 13.5-5.33 6.24-10.7 12.4-16.2 18.5-4 4.43-7.91 8.93-11.8 13.5-1.03 1.21-2.06 2.41-3.09 3.62-0.52 0.609-1.04 1.22-1.57 1.84-3.03 3.54-6.1 7.02-9.24 10.5-3.01 3.31-5.88 6.7-8.69 10.2-3.68 4.55-7.55 8.86-11.5 13.1-3.82 4.13-7.38 8.45-10.9 12.8-2.16 2.62-4.39 5.14-6.68 7.65-3.82 4.2-7.41 8.54-11 12.9-3.49 4.23-7.1 8.36-10.7 12.5-3.25 3.74-6.44 7.52-9.56 11.4-3.53 4.36-7.23 8.52-11 12.7-2.31 2.6-4.5 5.26-6.68 7.96-3.08 3.8-6.25 7.46-9.56 11.1-4.04 4.39-7.85 8.92-11.6 13.6-4.19 5.13-8.53 10.1-12.9 15.1-2.52 2.93-5.03 5.86-7.55 8.8-0.993 1.16-1.99 2.32-2.98 3.48-2.07 2.41-4.13 4.82-6.2 7.23-8.71 10.2-8.71 10.2-12.4 14.4-6.51 7.41-12.9 15-19.1 22.6-3.57 4.39-7.31 8.6-11.1 12.8-2.33 2.62-4.55 5.31-6.75 8.03-3.61 4.46-7.38 8.73-11.2 13-2.33 2.62-4.55 5.31-6.75 8.03-2.91 3.59-5.89 7.08-9 10.5-3.86 4.24-7.51 8.62-11.1 13.1-2.59 3.17-5.23 6.3-7.88 9.42-3.35 3.95-6.67 7.92-9.94 11.9-3.46 4.25-6.99 8.42-10.6 12.6-3.78 4.39-7.54 8.8-11.2 13.2-0.727 0.871-1.45 1.74-2.2 2.64-1.74 1.94-1.74 1.94-1.55 4.11h-2c-1.67 1.81-1.67 1.81-3.44 4.19-3.25 4.16-6.57 8.23-10 12.2-3.38 3.97-6.72 7.96-10 12-3.96 4.86-8.03 9.62-12.1 14.4-3.77 4.39-7.45 8.85-11.1 13.3-2.76 3.34-5.58 6.63-8.41 9.91-1.51 1.76-3.02 3.53-4.52 5.29-1.32 1.54-2.66 3.06-3.99 4.59-0.737 0.866-1.47 1.73-2.23 2.62-0.646 0.744-1.29 1.49-1.96 2.25-1.48 2.16-1.48 2.16-1.05 4.89 0.6 2.45 0.6 2.45 2.82 3.42 0.66 0.289 1.32 0.578 2 0.875 0.495 1.49 0.495 1.49 1 3 1.66 1.34 3.33 2.67 5 4 1.19 1.45 2.38 2.9 3.55 4.36 2.3 2.59 4.97 4.74 7.6 6.98 2.24 2.02 3.99 4.29 5.85 6.66 1.65 1.35 3.32 2.69 5 4 1.67 1.67 3.33 3.33 5 5l3 2 1.7-1.58c4.95-4.54 9.99-8.81 15.3-12.9 5.06-3.92 9.87-8 14.6-12.3 3.4-3.06 6.94-5.91 10.5-8.79 3.17-2.59 6.3-5.23 9.42-7.88 3.95-3.35 7.92-6.67 11.9-9.94 4.25-3.46 8.42-6.99 12.6-10.6 5.01-4.32 10.1-8.55 15.2-12.7 3.12-2.56 6.2-5.16 9.28-7.78 3.95-3.35 7.92-6.67 11.9-9.94 4.86-3.96 9.62-8.03 14.4-12.1 3.5-3.01 7.04-5.97 10.6-8.88 5.05-4.1 9.96-8.35 14.9-12.6 6.7-5.83 13.5-11.6 20.3-17.3 1.6-1.35 3.19-2.69 4.79-4.04l1.61-1.36c4.89-4.14 9.73-8.35 14.6-12.6 4.56-3.96 9.22-7.79 13.9-11.6 3.43-2.85 6.71-5.85 10-8.86 3.51-3.12 7.16-6.05 10.8-9 2.64-2.19 5.19-4.44 7.72-6.75 3.32-3.02 6.7-5.93 10.2-8.75 5.14-4.16 10.1-8.47 15.1-12.8 4.56-3.97 9.15-7.88 13.8-11.8 4.22-3.56 8.38-7.17 12.5-10.8 5.2-4.53 10.5-8.93 15.8-13.3 2.58-2.14 5.07-4.35 7.54-6.61 4.2-3.82 8.53-7.41 12.9-11 4.25-3.51 8.4-7.14 12.5-10.8 4.5-3.92 9.1-7.65 13.9-11.3l1.66-1.49v-2l1.6-0.664c3.28-1.83 5.97-4.25 8.77-6.71 1.26-1.09 2.52-2.19 3.78-3.28l1.94-1.69c2.37-2.06 4.75-4.09 7.13-6.13 14.9-12.7 14.9-12.7 29.5-25.8 3.45-3.17 6.97-6.19 10.6-9.12 4.8-3.87 9.29-7.97 13.8-12.2 4.21-3.92 8.6-7.56 13.1-11.2 4.14-3.43 8.06-7.09 12-10.7 3.53-3.26 7.13-6.41 10.8-9.55 1.11-0.965 2.22-1.93 3.33-2.89 5.7-4.95 11.4-9.89 17.2-14.8 5.78-4.93 11.5-9.95 17.1-15.1 2.77-2.53 5.59-5 8.42-7.46 2.36-2.07 4.7-4.17 7.03-6.28 3.62-3.27 7.27-6.5 10.9-9.7 2.31-2.03 4.59-4.11 6.86-6.18 4.56-4.13 9.3-7.98 14.1-11.8 0.678-0.61 1.36-1.22 2.05-1.85v-2c0.595-0.272 1.19-0.545 1.8-0.825 2.14-1.14 3.62-2.3 5.37-3.97 0.578-0.544 1.16-1.09 1.75-1.65 0.603-0.576 1.21-1.15 1.83-1.75 1.26-1.19 2.52-2.38 3.79-3.56 0.602-0.567 1.2-1.13 1.82-1.72 2.5-2.33 5.07-4.56 7.65-6.79 2.53-2.21 5.01-4.47 7.49-6.74 3.12-2.85 6.25-5.67 9.44-8.44 2.83-2.45 5.59-4.97 8.34-7.51 4.39-4.06 8.81-7.99 13.5-11.7 4.05-3.26 7.74-6.69 11.4-10.4 2.47-2.48 5.1-4.76 7.75-7.05 2.41-2.08 4.77-4.21 7.13-6.35 2.94-2.65 5.89-5.28 8.88-7.88 6.78-5.92 13.4-12 19.9-18.2 0.978-0.915 0.978-0.915 1.98-1.85 1.26-1.18 2.52-2.36 3.77-3.54 3.08-2.88 6.18-5.71 9.37-8.48 4.19-3.64 8.22-7.43 12.2-11.2 9.68-9.15 19.5-18.2 29.3-27.2 4.23-3.88 8.45-7.77 12.7-11.7 3.54-3.27 7.1-6.53 10.7-9.79 4.81-4.4 9.57-8.85 14.3-13.3 4.23-3.98 8.47-7.95 12.8-11.8 11.1-9.96 21.9-20.3 32.4-31 0.583-0.592 1.17-1.18 1.77-1.79 0.51-0.521 1.02-1.04 1.54-1.58 1.33-1.24 1.33-1.24 3.33-2.24v-2c0.541-0.214 1.08-0.428 1.64-0.648 3.21-1.84 5.59-4.35 8.15-6.98 0.544-0.55 1.09-1.1 1.65-1.67 1.73-1.75 3.46-3.51 5.19-5.27 1.73-1.76 3.47-3.52 5.21-5.28 1.08-1.09 2.16-2.19 3.23-3.29 3.71-3.76 3.71-3.76 5.94-4.87v-2c0.537-0.21 1.07-0.42 1.63-0.637 3.28-1.89 5.72-4.49 8.35-7.18 0.564-0.57 1.13-1.14 1.71-1.73 1.8-1.82 3.59-3.64 5.38-5.46 1.79-1.82 3.59-3.64 5.39-5.46 1.12-1.13 2.23-2.26 3.35-3.4 2.31-2.34 4.46-4.31 7.2-6.14v-2c0.585-0.26 1.17-0.52 1.77-0.787 2.39-1.3 3.96-2.7 5.88-4.62 0.698-0.695 1.4-1.39 2.11-2.11 0.745-0.752 1.49-1.5 2.26-2.28 0.777-0.777 1.55-1.55 2.35-2.36 1.64-1.65 3.29-3.3 4.92-4.95 2.49-2.51 4.99-5.01 7.49-7.51 1.6-1.61 3.2-3.21 4.8-4.82 1.11-1.11 1.11-1.11 2.24-2.24 4.04-4.08 7.93-8.25 11.7-12.6 2.22-2.54 4.6-4.87 7.01-7.23 3.75-3.7 7.35-7.48 10.8-11.5 1.94-2.26 3.96-4.44 5.98-6.63 4.03-4.46 7.72-9.11 11.4-13.9 3.45-4.44 7.08-8.68 10.8-12.9 10.1-11.5 18.8-23.9 27.6-36.4 1.93-2.76 3.89-5.5 5.88-8.23 8.86-12.2 16.6-25 24.1-38 0.547-0.946 1.09-1.89 1.66-2.87 17.4-30.3 38.9-71.5 30.1-108-4.37-14.1-10.5-23.4-23.8-30.4-17.7-8.37-38.6-6.25-57-1zm-1102 2c-0.33 0.99-0.66 1.98-1 3l-1.75 0.812c-2.67 1.41-4.12 3.29-5.98 5.62-1.92 2.36-4.09 4.43-6.27 6.56-0.706 0.717-1.41 1.43-2.14 2.17-3.79 3.84-7.51 7.6-11.9 10.8 1.3 3.89 3.63 5.11 6.88 7.31 1.29 0.896 2.57 1.79 3.86 2.69 0.691 0.482 1.38 0.965 2.1 1.46 3.83 2.7 7.59 5.5 11.4 8.28 0.801 0.591 1.6 1.18 2.43 1.79 2.46 1.82 4.92 3.64 7.39 5.46 9.3 6.88 18.6 13.7 28 20.5 8.58 6.18 17.1 12.4 25.6 18.7 3.96 2.93 7.93 5.85 11.9 8.77 4.76 3.51 9.53 7.02 14.3 10.5 7.71 5.69 15.4 11.4 23.2 17 10.2 7.34 20.3 14.8 30.4 22.3 12.2 9.04 24.5 18 36.9 26.9 8.63 6.2 17.2 12.4 25.7 18.8 5.65 4.25 11.4 8.39 17.1 12.5 9.5 6.84 18.9 13.8 28.3 20.8 9.24 6.83 18.5 13.6 27.8 20.3 6.26 4.51 12.5 9.08 18.7 13.7 5.34 3.94 10.7 7.85 16.1 11.7 8.58 6.18 17.1 12.4 25.6 18.7 3.96 2.93 7.93 5.85 11.9 8.77 4.76 3.51 9.53 7.02 14.3 10.5 10.7 7.89 21.4 15.7 32.2 23.5 11.6 8.34 23.1 16.7 34.6 25.2 3.96 2.93 7.93 5.85 11.9 8.77 4.76 3.51 9.53 7.02 14.3 10.5 7.77 5.74 15.6 11.4 23.4 17.1 5.65 4.06 11.3 8.18 16.8 12.4 7.8 5.89 15.7 11.6 23.7 17.3 2.45 1.77 4.9 3.55 7.34 5.33 1.22 0.891 1.22 0.891 2.47 1.8 1.57 1.14 3.13 2.28 4.69 3.42l2.14 1.55c0.619 0.451 1.24 0.903 1.87 1.37 1.88 1.25 3.79 2.25 5.82 3.21 6.73-7.34 6.73-7.34 13.3-14.8 3.31-3.81 6.75-7.5 10.2-11.2 4.01-4.29 7.98-8.6 11.8-13.1 2.89-3.31 5.89-6.52 8.88-9.74 2.01-2.15 2.01-2.15 2.82-5.2h2c1.47-1.41 1.47-1.41 3-3.31 2.94-3.46 5.94-6.84 9-10.2 2.85-3.12 5.67-6.25 8.44-9.44 2.89-3.32 5.84-6.57 8.81-9.81 0.468-0.51 0.935-1.02 1.42-1.54 2.38-2.59 4.77-5.18 7.17-7.76 4.32-4.66 8.53-9.34 12.5-14.3 4.18-5.2 8.78-9.86 13.6-14.5 3.63-3.54 7.01-7.21 10.3-11 3.82-4.36 7.86-8.52 11.9-12.7 3.9-4.12 7.69-8.31 11.4-12.6 1.93-2.18 3.97-4.23 6.06-6.26 3.45-3.4 6.67-6.92 9.82-10.6 1.66-1.88 3.39-3.64 5.18-5.4 2.29-2.26 4.46-4.56 6.56-7 3.42-3.97 6.98-7.8 10.6-11.6 0.596-0.639 1.19-1.28 1.81-1.94 3.1-3.32 6.22-6.63 9.36-9.92 0.601-0.634 1.2-1.27 1.82-1.92 1.15-1.21 2.31-2.42 3.47-3.62 3.21-3.18 3.21-3.18 3.91-7.48-20.2-6.34-40.5-12.5-60.9-18.5-4-1.19-8-2.37-12-3.56-5.85-1.74-11.7-3.47-17.6-5.21-16.1-4.78-32.2-9.56-48.3-14.3-2.34-0.695-4.67-1.39-7.01-2.08-20.3-6.03-40.6-12.1-60.8-18.1-1.14-0.34-2.28-0.679-3.45-1.03-11.8-3.51-23.5-7.02-35.3-10.5-6.28-1.88-12.6-3.75-18.8-5.63-1.81-0.542-1.81-0.542-3.67-1.09-12.1-3.61-24.2-7.21-36.3-10.7-0.629-0.181-1.26-0.363-1.91-0.55-1.78-0.512-3.55-1.02-5.33-1.53-8.16-2.36-16.3-4.84-24.4-7.38-12.8-3.98-25.6-7.81-38.4-11.6-6.53-1.91-13.1-3.83-19.6-5.76-0.707-0.208-1.41-0.417-2.14-0.632-20.4-6.02-40.8-12.2-61.2-18.3-28.7-8.63-57.5-17.2-86.2-25.7-14.7-4.31-29.3-8.67-43.9-13.1-7.25-2.18-14.5-4.35-21.8-6.51-0.667-0.199-1.33-0.398-2.02-0.604-7.77-2.32-15.5-4.64-23.3-6.96-0.735-0.219-1.47-0.438-2.23-0.664-3.68-1.1-7.36-2.2-11-3.29-8.68-2.59-17.4-5.18-26-7.78-17.1-5.11-34.1-10.2-51.2-15.1-1.52-0.439-3.03-0.881-4.55-1.32-2.05-0.598-4.1-1.19-6.14-1.77-1.71-0.495-1.71-0.495-3.46-1-2.81-0.644-5.17-0.841-8.03-0.696zm301 20c-1.73 1.74-3.48 3.48-5.22 5.21-1.1 1.1-2.21 2.21-3.31 3.32-0.522 0.518-1.04 1.04-1.58 1.57-2.77 2.48-2.77 2.48-3.61 5.88 7.6 2.38 15.2 4.75 22.8 7.09 4.03 1.24 8.05 2.5 12.1 3.76 3.05 0.957 6.11 1.89 9.17 2.83 1.71 0.544 1.71 0.544 3.45 1.1 1.06 0.322 2.12 0.643 3.21 0.975 1.39 0.433 1.39 0.433 2.8 0.874 2.95 0.434 4.02-0.0103 6.47-1.64 7.49-6.5 12.4-14.4 13.3-24.4-0.661-7.67-3.27-15-9.14-20.3-19.6-15.5-36.2-0.685-50.5 13.7zm200 48.7c-0.605 0.611-1.21 1.22-1.83 1.85-1.91 1.92-3.81 3.85-5.7 5.79-1.92 1.95-3.84 3.9-5.77 5.84-1.19 1.2-2.38 2.41-3.57 3.62-4.07 4.12-4.07 4.12-6.29 5.23v2c7.23 2.25 14.5 4.48 21.7 6.7 3.36 1.03 6.72 2.07 10.1 3.11 3.86 1.2 7.72 2.38 11.6 3.57 1.2 0.377 2.41 0.754 3.65 1.14 1.12 0.34 2.24 0.681 3.4 1.03 0.986 0.304 1.97 0.608 2.99 0.922 2.71 0.546 4.06 0.52 6.61-0.475 8.13-5.73 15.3-14.3 17.5-24.1 1.23-8-0.488-14.3-4.99-21-4.69-6.01-9.98-9.38-17.5-10.9-13.7-1.68-22.8 6.44-31.8 15.7zm569 569c-2.21 2.66-2.21 2.66-1.87 4.86 0.179 0.698 0.359 1.4 0.544 2.11 0.202 0.799 0.404 1.6 0.612 2.42 0.237 0.859 0.473 1.72 0.717 2.6 0.361 1.31 0.361 1.31 0.73 2.66 0.822 2.91 1.67 5.82 2.53 8.72 0.308 1.05 0.616 2.11 0.933 3.19 0.975 3.33 1.95 6.66 2.93 9.99 0.666 2.27 1.33 4.54 2 6.81 1.62 5.54 3.25 11.1 4.88 16.6 4.36 0.0225 4.36 0.0225 7.22-2.69 0.604-0.588 1.21-1.18 1.83-1.78 0.642-0.647 1.28-1.29 1.94-1.96 0.671-0.664 1.34-1.33 2.03-2.01 1.42-1.41 2.83-2.83 4.24-4.25 2.14-2.15 4.3-4.28 6.46-6.41 1.38-1.38 2.76-2.76 4.13-4.14 0.64-0.626 1.28-1.25 1.94-1.9 6.25-6.38 10.7-14 11.4-23-0.63-9.77-3.88-16.4-11.2-22.9-16.1-11.9-32-0.716-44 11zm58 191c-0.632 0.558-1.26 1.12-1.91 1.69-2.83 6.02 2.31 16.3 4.14 22.4 0.306 1.03 0.611 2.05 0.926 3.11 0.641 2.15 1.28 4.3 1.93 6.45 0.989 3.3 1.97 6.6 2.96 9.91 0.625 2.09 1.25 4.19 1.88 6.28 0.295 0.99 0.59 1.98 0.893 3 0.274 0.912 0.548 1.82 0.83 2.76 0.24 0.803 0.481 1.61 0.729 2.43 0.6 2.01 0.6 2.01 1.64 3.96 4.07-1.63 6.85-4.53 9.9-7.57 0.56-0.553 1.12-1.11 1.7-1.68 1.18-1.17 2.36-2.35 3.54-3.52 1.78-1.78 3.58-3.54 5.38-5.3 8.36-8.27 15.5-15.8 15.7-28.2-0.123-8.42-2.56-13.8-8.28-20-5.89-5.27-12.8-7.12-20.5-6.96-8.86 0.743-15.1 5.22-21.4 11.2zm-1148 45.1c-1.77 1.9-3.49 3.86-5.12 5.88-2.62 3.07-5.46 5.43-8.56 8l-2 2.5c-2.36 2.95-5.1 5.08-8 7.5-0.619 0.784-1.24 1.57-1.88 2.38-1.92 2.38-3.81 4.15-6.12 6.12-3.04 2.62-5.86 5.06-8 8.5 0.126 2.26 0.126 2.26 1 4h2v2c1.48 1.51 1.48 1.51 3.44 3.07 4.74 4.03 9.12 8.35 13.5 12.7 0.823 0.822 1.65 1.64 2.49 2.49 1.73 1.72 3.45 3.45 5.17 5.18 2.63 2.64 5.27 5.27 7.91 7.91 1.68 1.68 3.36 3.37 5.05 5.05 0.785 0.783 1.57 1.57 2.38 2.37 3.58 3.59 6.92 7.18 10 11.2 1.98 1.69 3.98 3.35 6 5 1.68 1.65 3.34 3.32 5 5 1.47 1.48 2.95 2.95 4.42 4.42l37.6 37.6c1.32-0.66 2.64-1.32 4-2v-2h2c1.68-1.99 3.25-3.98 4.81-6.06 4.11-5.36 8.36-10.5 12.8-15.6 4.48-5.11 8.85-10.3 13.1-15.6 2.54-3.11 5.14-6.18 7.74-9.24 4.12-4.85 8.17-9.75 12.2-14.7 3.05-3.71 6.17-7.37 9.28-11 3.58-4.22 7.05-8.52 10.5-12.9 1.56-1.93 1.56-1.93 3.56-3.93-0.0183-2.06-0.0183-2.06-1-4-1.72-1.18-1.72-1.18-3.94-1.92-0.842-0.322-1.68-0.644-2.55-0.975-0.924-0.335-1.85-0.67-2.8-1.02-0.957-0.361-1.91-0.722-2.9-1.09-3.14-1.18-6.29-2.34-9.43-3.5-2.17-0.814-4.35-1.63-6.52-2.45-4.32-1.62-8.64-3.24-13-4.85-7.32-2.73-14.6-5.55-21.9-8.39-2.42-0.938-4.84-1.88-7.25-2.81-1.23-0.476-2.45-0.951-3.72-1.44-19.1-7.39-38.2-14.8-57.3-22-0.978-0.371-1.96-0.743-2.96-1.13-0.875-0.328-1.75-0.657-2.65-0.995-0.747-0.282-1.49-0.563-2.26-0.853-3.19-1.04-3.54-0.839-6.12 1.54zm265 181c-0.802 0.645-1.6 1.29-2.43 1.95-3.47 2.87-6.91 5.77-10.3 8.69-4.56 3.88-9.17 7.68-13.8 11.5-5.98 4.91-11.9 9.89-17.7 14.9-4.01 3.45-8.11 6.78-12.3 10.1-3.61 2.9-7.13 5.91-10.7 8.91-4.43 3.77-8.93 7.46-13.4 11.1-3.2 2.62-6.33 5.31-9.46 8.02 0.559 3.61 1.74 4.97 4.55 7.24 4.48 3.75 8.6 7.78 12.7 11.9 0.754 0.755 1.51 1.51 2.28 2.29 2.38 2.39 4.76 4.78 7.14 7.17 1.61 1.61 3.21 3.22 4.82 4.84 2.95 2.96 5.89 5.91 8.84 8.87 2.88 2.89 5.76 5.78 8.65 8.67l10 10 2.64 2.6c1.84 1.87 3.53 3.73 5.18 5.77 2.02 2.39 4.08 4.45 6.48 6.45 6.75 5.83 12.9 12.3 19.2 18.6 1.31 1.32 2.62 2.63 3.94 3.95 3.19 3.2 6.38 6.41 9.56 9.61 4.1-1.44 6.06-2.96 8.76-6.43 2.82-3.58 6.19-6.55 9.68-9.45 3.07-2.59 5.61-5.39 8.17-8.47 3.82-4.54 8.27-8.32 12.8-12.1l1.57-1.55v-2c1.32-0.66 2.64-1.32 4-2-1.93-6.76-4.16-13.3-6.7-19.9-0.354-0.923-0.709-1.85-1.07-2.8-1.15-3-2.31-6-3.47-9-0.812-2.11-1.62-4.22-2.43-6.33-2.05-5.33-4.1-10.7-6.16-16-2.67-6.92-5.33-13.8-8-20.8-0.608-1.58-1.22-3.16-1.83-4.74-4.71-12.2-9.38-24.5-14-36.8-0.293-0.773-0.586-1.55-0.887-2.34-3.2-8.45-6.37-16.9-9.43-25.4-3.57 0-4.16 0.625-6.88 2.81z" fill="#000002"/>
<path transform="translate(240 165)" d="m0 0c4.92 5.03 7.34 10.5 7.85 17.5-0.485 11-7.87 18.4-15.2 25.7-1.24 1.24-1.24 1.24-2.5 2.51-2.28 2.29-4.56 4.57-6.84 6.85-2.47 2.46-4.92 4.93-7.38 7.4-4.82 4.83-9.64 9.65-14.5 14.5-3.92 3.92-7.84 7.84-11.8 11.8-0.558 0.559-1.12 1.12-1.69 1.69-1.13 1.13-2.27 2.27-3.4 3.4-10.6 10.6-21.3 21.3-31.9 31.9-9.73 9.72-19.4 19.5-29.2 29.2-9.98 10-20 20-30 30-5.61 5.61-11.2 11.2-16.8 16.8-4.77 4.78-9.54 9.55-14.3 14.3-2.44 2.43-4.87 4.86-7.3 7.3-2.64 2.65-5.28 5.28-7.93 7.92-0.763 0.77-1.53 1.54-2.31 2.33-6.46 6.4-12.5 10.8-21.8 11.2-5.97-0.0968-10.6-1.81-15.4-5.38-4.3-4.92-7.44-10.6-8.5-17.1 1.1-8.65 5.66-15.4 11.6-21.7 0.516-0.551 1.03-1.1 1.56-1.67 7.81-8.27 15.9-16.3 23.9-24.3 1.85-1.85 3.7-3.71 5.54-5.56 5.5-5.52 11-11 16.5-16.5 2.08-2.08 4.16-4.17 6.24-6.25 9.18-9.2 18.4-18.4 27.6-27.6 2.24-2.24 4.47-4.48 6.71-6.72 0.556-0.556 1.11-1.11 1.68-1.69 9.02-9.03 18-18.1 27-27.1 9.28-9.31 18.6-18.6 27.9-27.9 5.21-5.21 10.4-10.4 15.6-15.6 4.88-4.91 9.77-9.8 14.7-14.7 1.79-1.79 3.58-3.59 5.37-5.39 2.44-2.46 4.9-4.91 7.36-7.36 0.698-0.709 1.4-1.42 2.12-2.15 11.7-11.5 24.8-17.3 39.4-7.47z" fill="#000002"/>
<path transform="translate(1445 1359)" d="m0 0c5.4 4.4 8.99 9.26 10 16.2 0.04 1.05 0.0799 2.1 0.121 3.18 0.0947 1.55 0.0947 1.55 0.191 3.13-1.92 9.51-9.44 17-16.2 23.6-1.23 1.23-1.23 1.23-2.48 2.49-2.72 2.73-5.46 5.45-8.19 8.16-1.97 1.96-3.93 3.93-5.89 5.9-4.76 4.77-9.53 9.53-14.3 14.3-5.57 5.54-11.1 11.1-16.7 16.6-9.91 9.91-19.8 19.8-29.8 29.7-9.62 9.59-19.2 19.2-28.9 28.8-0.593 0.592-1.19 1.18-1.8 1.79-2.38 2.38-4.77 4.76-7.15 7.14-9.17 9.16-18.3 18.3-27.5 27.5-2.77 2.76-5.54 5.53-8.31 8.29-5.82 5.81-11.6 11.6-17.5 17.4-2.41 2.4-4.82 4.8-7.22 7.2-2.61 2.6-5.22 5.2-7.83 7.8-0.759 0.759-1.52 1.52-2.3 2.3-9.55 9.49-9.55 9.49-13.6 10.2-0.979-0.0209-1.96-0.0419-2.97-0.0635-1.07-0.0129-2.13-0.0258-3.23-0.0391-1.1-0.0335-2.21-0.067-3.34-0.102-1.12-0.018-2.24-0.0361-3.4-0.0547-2.76-0.047-5.52-0.113-8.29-0.195-0.33-0.99-0.66-1.98-1-3-0.598-0.268-1.2-0.536-1.81-0.812-4.15-2.25-5.79-6.2-7.5-10.4-1.53-8.36 0.0563-14 4.5-21.2 2.95-4.22 6.44-7.77 10.1-11.4 0.82-0.826 1.64-1.65 2.48-2.5 2.25-2.27 4.52-4.52 6.78-6.78 2.45-2.44 4.89-4.9 7.33-7.35 4.77-4.79 9.56-9.57 14.3-14.4 3.89-3.88 7.78-7.77 11.7-11.7 0.554-0.555 1.11-1.11 1.68-1.68 1.13-1.13 2.25-2.26 3.38-3.38 10.5-10.6 21.1-21.1 31.7-31.6 9.05-9.04 18.1-18.1 27.1-27.1 10.5-10.5 21-21.1 31.5-31.6 1.12-1.12 2.25-2.24 3.37-3.37 0.553-0.552 1.11-1.1 1.67-1.67 3.88-3.88 7.76-7.77 11.6-11.7 4.73-4.74 9.46-9.47 14.2-14.2 2.42-2.41 4.83-4.82 7.24-7.24 2.61-2.63 5.24-5.24 7.87-7.85 0.752-0.761 1.5-1.52 2.28-2.31 9.69-9.55 22.9-16.5 35.8-8.16z" fill="#000002"/>
<path transform="translate(1342 1257)" d="m0 0c6.05 3.59 10 8.8 12.2 15.5 1.7 7.04-0.0281 12.8-3.53 19-1.77 2.11-3.54 4.1-5.43 6.09-0.797 0.849-0.797 0.849-1.61 1.71-5.49 5.82-11.1 11.5-16.8 17.1-1.12 1.13-2.25 2.25-3.37 3.38-3.01 3.02-6.02 6.03-9.03 9.04-1.89 1.89-3.77 3.78-5.66 5.66-6.59 6.6-13.2 13.2-19.8 19.8-6.13 6.13-12.3 12.3-18.4 18.4-5.28 5.29-10.6 10.6-15.9 15.9-3.15 3.15-6.3 6.3-9.44 9.45-2.95 2.96-5.9 5.91-8.86 8.86-1.08 1.08-2.16 2.16-3.24 3.24-16.1 16.1-16.1 16.1-28 16.6-5.65-0.182-10.2-1.24-14.5-5.01-5.2-5.55-7.65-10.7-8.49-18.2 0.748-14.8 15.6-25.4 25.3-35.1 1.17-1.18 2.33-2.35 3.5-3.53 3.8-3.82 7.6-7.64 11.4-11.5 1.32-1.32 2.63-2.64 3.95-3.97 5.48-5.5 11-11 16.4-16.5 7.82-7.84 15.6-15.7 23.4-23.5 5.51-5.55 11-11.1 16.5-16.6 3.29-3.29 6.58-6.59 9.85-9.9 3.08-3.11 6.17-6.21 9.27-9.3 1.13-1.13 2.26-2.27 3.38-3.4 10.1-10.2 21.7-19.8 36.7-13.2z" fill="#000002"/>
<path transform="translate(337 264)" d="m0 0c5.5 3.72 8.49 8.27 10.6 14.5 0.676 7.48 0.573 13.8-4 20-1.62 1.81-3.3 3.48-5.07 5.14-1.8 1.74-3.4 3.52-5.01 5.43-4.51 5.2-9.38 10-14.3 14.9-1.03 1.03-2.05 2.05-3.08 3.08-2.76 2.77-5.53 5.53-8.3 8.3-2.91 2.9-5.81 5.81-8.72 8.72-4.87 4.88-9.75 9.75-14.6 14.6-5.63 5.62-11.3 11.3-16.9 16.9-4.84 4.85-9.69 9.69-14.5 14.5-2.89 2.89-5.78 5.77-8.66 8.66-2.71 2.72-5.43 5.43-8.14 8.14-0.993 0.992-1.99 1.98-2.98 2.98-4.76 4.77-9.51 9.37-14.7 13.6-0.763 0.846-1.53 1.69-2.31 2.56-5.8 5.26-12.1 7.22-19.9 6.88-5.91-0.932-10.8-3.09-14.7-7.67-4.74-6.92-5.68-12.5-5.08-20.8 3.09-11.7 15.7-20.9 24.1-29.3 1.19-1.2 2.38-2.39 3.57-3.59 3.86-3.89 7.74-7.78 11.6-11.7 1.34-1.35 2.68-2.69 4.02-4.04 5.57-5.59 11.1-11.2 16.7-16.8 7.96-7.98 15.9-16 23.9-24 5.61-5.64 11.2-11.3 16.8-16.9 3.35-3.35 6.7-6.71 10-10.1 3.13-3.16 6.28-6.32 9.44-9.46 1.15-1.15 2.3-2.31 3.44-3.47 10.2-10.4 22-19.3 36.8-11.3z" fill="#000002"/>
<path transform="translate(466 341)" d="m0 0c4.55 4.17 7.29 9.69 8.26 15.8 0.411 10.2-3.78 15.7-10.4 23-6.93 7.42-14.2 14.6-21.3 21.8-0.874 0.878-1.75 1.76-2.65 2.66-4.14 4.16-8.29 8.32-12.4 12.5-4.76 4.77-9.51 9.55-14.3 14.3-4.14 4.17-8.29 8.33-12.4 12.5-1.75 1.76-3.51 3.52-5.25 5.29-2.44 2.47-4.9 4.93-7.36 7.38-1.07 1.09-1.07 1.09-2.15 2.19-6.61 6.54-13.8 11.6-23.3 12-6.01-0.0989-11-1.94-15.6-5.82-4.56-4.84-6.99-10.3-7.34-17 0.567-11.1 7.29-18.3 14.8-25.7 0.866-0.873 1.73-1.75 2.62-2.64 2.36-2.37 4.72-4.73 7.09-7.09 2.49-2.48 4.97-4.97 7.45-7.46 4.17-4.17 8.34-8.34 12.5-12.5 4.82-4.8 9.62-9.61 14.4-14.4 4.13-4.15 8.28-8.3 12.4-12.4 2.47-2.47 4.94-4.93 7.4-7.41 2.75-2.76 5.51-5.5 8.27-8.24 0.805-0.813 1.61-1.63 2.44-2.46 11-10.8 23.2-14.8 36.8-6.05z" fill="#000002"/>
<path transform="translate(1266 1130)" d="m0 0c5.99 3.46 10.6 8.91 12.8 15.5 1.1 8.27-0.0329 14.3-5 21-3.61 4.62-7.4 8.37-12 12-1.21 1.47-2.42 2.94-3.61 4.43-2.04 2.31-4.39 4.18-6.76 6.14-2.17 1.92-3.82 4.17-5.62 6.44-0.969 0.804-1.94 1.61-2.94 2.44-2.6 2.17-4.56 4.33-6.65 6.96-1.65 1.87-3.45 3.42-5.35 5.04-3.24 2.76-5.93 5.66-8.63 8.94-2.22 2.5-4.86 4.49-7.43 6.62-0.825 0.99-1.65 1.98-2.5 3-2.59 3.11-5.4 5.42-8.5 8-1.67 2-3.34 4-5 6-1.67 1.33-3.33 2.67-5 4-0.763 0.949-1.53 1.9-2.31 2.88-5.16 6.42-12.5 11.2-20.5 12.9-5.84 0.489-10.8-0.129-15.7-3.52-5.94-5.04-9.25-9.37-10.4-17.2-0.572-7.78 2.51-12.9 6.88-19.1 1.56-1.71 3.16-3.38 4.81-5 0.912-0.906 1.82-1.81 2.76-2.74 0.955-0.938 1.91-1.88 2.87-2.81 0.952-0.942 1.9-1.88 2.85-2.83 1.76-1.74 3.52-3.48 5.28-5.21 2.49-2.46 4.96-4.93 7.43-7.4 45-45 45-45 47.7-47.7 1.81-1.82 3.42-3.62 4.99-5.64 1.14-1.33 1.14-1.33 2.31-2.69h2c0.33-0.99 0.66-1.98 1-3 2.11-1.75 2.11-1.75 4.75-3.56 0.861-0.599 1.72-1.2 2.61-1.82 7.03-4.32 15.1-5.53 22.9-2.12z" fill="#000002"/>
</svg>
