<?xml version="1.0" encoding="UTF-8"?>
<svg version="1.1" viewBox="0 0 1600 1600" width="1280" height="1280" xmlns="http://www.w3.org/2000/svg">
<path transform="translate(1128 38.5)" d="m0 0c1.73-0.0129 1.73-0.0129 3.5-0.0261 3.8-0.0226 7.61-0.0159 11.4-0.00685 1.98-0.00391 3.97-0.00784 5.95-0.0133 6.23-0.017 12.5-0.0135 18.7 0.00329 6.41 0.0169 12.8 0.0011 19.2-0.0312 5.52-0.0268 11-0.0339 16.6-0.0255 3.29 0.0049 6.58 7.21e-4 9.86-0.0178 3.67-0.0175 7.34-0.00286 11 0.0198 1.07-0.0117 2.15-0.0234 3.25-0.0354 7.75 0.0969 14.5 1.83 20.4 7.11 1.32 1.49 1.32 1.49 3.38 4.56 0.598 0.866 1.2 1.73 1.81 2.62 2.48 7.04 2.21 14-0.938 20.8-3.65 6.36-7.76 9.66-14.9 12-6.72 1.37-13.7 0.906-20.6 0.796-5.42-0.0619-10.8-0.124-16.4-0.188v54c6.76-0.0157 13.5-0.0314 20.5-0.0476 21.7-0.0483 43.4-0.0816 65-0.106 3.37-0.00375 6.75-0.00763 10.1-0.0116 1.01-0.00118 1.01-0.00118 2.03-0.00238 10.8-0.013 21.7-0.0366 32.5-0.0643 11.1-0.0282 22.3-0.0445 33.4-0.0508 6.25-0.0039 12.5-0.013 18.7-0.0349 5.89-0.0205 11.8-0.0266 17.7-0.0221 2.15-8.19e-4 4.3-0.0067 6.46-0.0183 32-0.164 32-0.164 44.8 6.86 0.648 0.34 1.3 0.679 1.96 1.03 15.4 8.51 26.1 22.9 31.6 39.5 3.64 15.9 0.442 31.6-3.5 47.1-0.496 2.02-0.991 4.05-1.48 6.07-1.06 4.33-2.12 8.66-3.2 13-1.74 7.01-3.43 14-5.12 21.1-5.69 23.8-11.5 47.5-17.3 71.2-4.67 19-9.27 38.1-13.8 57.1-5.73 23.8-11.6 47.6-17.4 71.4 0.969-0.00277 0.969-0.00277 1.96-0.00559 15.8-0.0442 31.5-0.0773 47.3-0.098 7.62-0.0103 15.2-0.0243 22.9-0.0473 6.64-0.02 13.3-0.0328 19.9-0.0373 3.51-0.0026 7.03-0.00867 10.5-0.0233 3.93-0.0162 7.86-0.0165 11.8-0.0156 1.73-0.0108 1.73-0.0108 3.5-0.0218 9.6 0.0244 17.6 1.45 26.1 5.81 0.69 0.351 1.38 0.702 2.09 1.06 15.5 8.22 24.5 22.1 29.8 38.6 3.06 12.8 0.988 24.8-2.4 37.3-0.693 2.55-1.36 5.11-2.02 7.67-0.961 3.71-1.93 7.41-2.9 11.1-2.52 9.65-4.87 19.3-7.24 29-0.499 2.04-0.999 4.08-1.5 6.12-4.38 17.9-8.62 35.8-12.9 53.7-3.5 14.8-7.03 29.6-10.8 44.3-2.76 10.9-5.39 21.8-7.98 32.7-0.352 1.48-0.703 2.96-1.06 4.44-1.42 5.97-2.83 11.9-4.24 17.9-3.33 14.2-6.7 28.3-10.5 42.4-0.262 0.982-0.523 1.96-0.793 2.98-4.18 14.9-12.7 28.7-26.3 36.7-5.04 2.63-10.1 4.69-15.5 6.47-1.62 0.537-1.62 0.537-3.28 1.09-0.825 0.272-1.65 0.544-2.5 0.824-5.97e-4 0.697-0.00119 1.39-0.00181 2.11-0.0359 41.3-0.0925 82.7-0.176 124-0.01 4.96-0.0199 9.92-0.0296 14.9-0.00194 0.988-0.00388 1.98-0.00588 2.99-0.031 16-0.048 32-0.0598 48-0.0124 16.4-0.0399 32.8-0.0814 49.2-0.0251 10.1-0.0385 20.3-0.0368 30.4 2.97e-5 6.94-0.0146 13.9-0.0407 20.8-0.0147 4.01-0.0228 8.01-0.0136 12 0.00829 3.67-0.00187 7.34-0.0265 11-0.00837 1.95 0.00285 3.91 0.0148 5.86-0.0895 9.14-1.87 16-8.54 22.7-6.24 4.3-13.2 5.85-20.7 4.52-7.85-2.12-12.1-5.47-16.3-12.5-1.76-3.73-2.25-6.65-2.26-10.8-0.00747-1.16-0.0149-2.32-0.0226-3.51 0.00194-1.27 0.00387-2.54 0.00587-3.85-5e-3 -1.36-0.0109-2.72-0.0175-4.09-0.0158-3.75-0.0192-7.5-0.0206-11.2-0.00377-4.1-0.0191-8.21-0.033-12.3-0.0252-7.97-0.0402-15.9-0.0516-23.9-0.0136-9.21-0.04-18.4-0.0663-27.6-0.0633-24.3-0.109-48.7-0.157-73-0.186-81.5-0.186-81.5-0.375-165-175-0.33-350-0.66-531-1-0.33 222-0.66 445-1 674h123c-0.0348-13.2-0.0696-26.3-0.105-39.9-0.0153-8.35-0.0299-16.7-0.041-25.1-0.0178-13.2-0.0386-26.5-0.0798-39.7-0.03-9.65-0.0493-19.3-0.0559-29-0.00389-5.1-0.013-10.2-0.0349-15.3-0.0206-4.82-0.0266-9.63-0.0221-14.5-8.16e-4 -1.76-0.00666-3.51-0.0183-5.27-0.154-24.5 4.43-44.5 21.8-62.8 16.3-15.7 36-18.7 57.7-18.7 1.51-0.00464 3.02-0.00966 4.54-0.015 4.09-0.013 8.17-0.0196 12.3-0.024 2.56-0.00294 5.12-0.00705 7.68-0.0115 8.04-0.0137 16.1-0.0233 24.1-0.0272 9.24-0.00447 18.5-0.022 27.7-0.051 7.17-0.0217 14.3-0.0317 21.5-0.033 4.27-0.00104 8.53-0.0068 12.8-0.0248 4.02-0.0167 8.04-0.0186 12.1-0.00986 1.46 7.61e-4 2.92-0.00345 4.39-0.0135 20-0.129 36.9 3.72 52.9 16.4 1.28 0.98 1.28 0.98 2.58 1.98 6.48 5.41 10.9 12.3 14.7 19.8 0.325 0.606 0.65 1.21 0.986 1.84 6.17 12.5 6.13 25.9 6.04 39.4-8.48e-4 1.87-3.68e-4 3.75 0.00133 5.62 8.54e-4 5.04-0.0167 10.1-0.0377 15.1-0.0189 5.29-0.0205 10.6-0.0241 15.9-0.00929 9.99-0.0339 20-0.064 30-0.0336 11.4-0.0501 22.8-0.0651 34.2-0.0313 23.4-0.084 46.8-0.151 70.2 13.6 0.00832 27.2-0.0157 40.8-0.0803 6.32-0.029 12.6-0.0471 19-0.0398 6.11 0.00662 12.2-0.016 18.3-0.0584 2.32-0.0111 4.65-0.0119 6.97-0.00187 17.5 0.492 17.5 0.492 32.9-6.82 6.93-7.73 8.31-16.2 8.24-26.2 0.00226-0.898 0.00453-1.8 0.00686-2.72 0.00527-2.99-0.00352-5.98-0.0122-8.98 0.00111-2.15 0.00317-4.3 0.0061-6.46 0.00471-4.63 0.00361-9.25-0.00178-13.9-0.00762-7.32 0.00306-14.6 0.0172-22 0.0377-20.8 0.0559-41.6 0.0444-62.4-0.00622-11.5 0.00538-23 0.0364-34.5 0.0186-7.27 0.0154-14.5-0.00417-21.8-0.00689-4.53 0.0071-9.06 0.0269-13.6 0.00504-2.1 0.00159-4.19-0.0111-6.29-0.118-21-0.118-21 5.65-28.1 5.46-5.27 10.8-7.61 18.4-8.31 7.95 0.685 14.3 3.23 19.6 9.31 3.63 6.09 4.58 11.6 4.51 18.6 0.00624 0.923 0.0125 1.85 0.0189 2.8 0.0159 3.07 0.00335 6.14-0.00927 9.22 0.00542 2.21 0.0125 4.42 0.0212 6.64 0.0182 5.99 0.0112 12-0.00152 18-0.0102 6.29-7.28e-4 12.6 0.00554 18.9 0.00774 11.2-0.00468 22.5-0.025 33.7-0.0178 10.2-0.0148 20.3 0.00368 30.5 0.0215 11.8 0.0293 23.7 0.0176 35.5-0.00621 6.25-0.00714 12.5 0.00615 18.8 0.0116 5.89 0.00339 11.8-0.0196 17.7-0.00525 2.15-0.00384 4.3 0.00505 6.45 0.0573 15.3-0.845 29.9-8.22 43.7-0.514 0.986-0.514 0.986-1.04 1.99-9.6 17.8-25.7 29.6-44.8 35.6-6.83 1.89-13.6 2.21-20.7 2.19-0.914 0.00165-1.83 0.0033-2.77 5e-3 -3.07 0.00433-6.15 0.00152-9.22-0.00123-2.23 0.00165-4.46 0.00374-6.7 0.00622-6.16 0.00558-12.3 0.00489-18.5 0.00322-6-6.55e-4 -12 0.00338-18 0.00726-12.4 0.00787-24.9 0.011-37.3 0.0114-12.6 5.02e-4 -25.2 0.00315-37.8 0.00841-0.796 3.3e-4 -1.59 6.6e-4 -2.41 1e-3 -3.24 0.00135-6.48 0.00271-9.72 0.00409-38.4 0.0163-76.7 0.0227-115 0.0274-19.1 0.00238-38.2 0.00609-57.3 0.01-61.3 0.0127-123 0.0234-184 0.0268-2.93 1.62e-4 -5.86 3.28e-4 -8.79 4.94e-4 -5.87 3.34e-4 -11.7 6.64e-4 -17.6 9.95e-4 -6.88 3.87e-4 -13.8 7.77e-4 -20.6 0.00117-1.97 1.12e-4 -3.94 2.24e-4 -5.91 3.34e-4 -63.2 0.00355-126 0.0186-190 0.0419-45.4 0.0167-90.9 0.0322-136 0.0367-0.934 9.35e-5 -1.87 1.87e-4 -2.83 2.83e-4 -20.5 0.00202-41 0.00318-61.5 0.00353-7.34 1.36e-4 -14.7 3.45e-4 -22 5.93e-4 -1.83 6.16e-5 -3.65 1.2e-4 -5.48 1.75e-4 -29.1 9.2e-4 -58.2 0.0109-87.3 0.0255-29.3 0.0146-58.6 0.0197-87.9 0.0116-4.05-0.00112-8.1-0.00213-12.2-0.00307-0.794-1.9e-4 -1.59-3.8e-4 -2.41-5.76e-4 -12.6-0.00273-25.1 0.0046-37.7 0.0161-12.4 0.0112-24.7 0.0116-37.1 6.3e-4 -6.61-0.00555-13.2-0.00607-19.8 0.00651-6.02 0.0114-12 0.00879-18.1-0.00467-2.16-0.00243-4.32 1.23e-4 -6.47 0.0084-38 0.136-69.4-11.7-97.4-37.9-27.8-28.9-36.7-64.8-36.6-104 5e-3 -3.64-0.0132-7.27-0.0281-10.9-0.0253-7.09-0.0291-14.2-0.0244-21.3 0.00358-5.77 2.96e-5 -11.5-0.00845-17.3-0.00119-0.824-0.00238-1.65-0.00361-2.5-0.00242-1.68-0.00485-3.35-0.00728-5.03-0.0217-15.7-0.0175-31.3-0.00523-47 0.0104-14.3-0.0122-28.6-0.0502-42.9-0.0388-14.7-0.0553-29.4-0.0478-44.2 0.00382-8.25-0.0011-16.5-0.0294-24.8-0.0238-7.02-0.0266-14-0.00242-21.1 0.0118-3.58 0.014-7.15-0.01-10.7-0.0258-3.88-0.00475-7.76 0.0206-11.6-0.0147-1.12-0.0295-2.24-0.0447-3.4 0.107-7.82 2.17-12.8 6.79-19 0.472-0.641 0.944-1.28 1.43-1.94 1.32-1.68 1.32-1.68 3.57-4.06h2c0.381-0.869 0.381-0.869 0.769-1.76 1.37-2.5 2.9-4.15 4.93-6.15 1.14-1.13 1.14-1.13 2.3-2.29 0.821-0.807 1.64-1.61 2.49-2.45 0.846-0.841 1.69-1.68 2.56-2.55 2.71-2.69 5.43-5.38 8.14-8.06 2.7-2.67 5.4-5.34 8.09-8.02 1.68-1.66 3.35-3.32 5.04-4.98 4.18-4.14 8.16-8.37 12-12.8 2.86-3.24 5.94-6.27 9.02-9.3 0.669-0.665 1.34-1.33 2.03-2.01 2.11-2.1 4.22-4.19 6.34-6.29 2.8-2.77 5.59-5.55 8.39-8.32 0.635-0.627 1.27-1.25 1.93-1.9 2.61-2.6 5.03-5.12 7.31-8.02 0.558-0.681 1.12-1.36 1.69-2.06h2c0.26-0.586 0.521-1.17 0.789-1.78 1.29-2.37 2.67-3.92 4.59-5.81 1.03-1.03 1.03-1.03 2.08-2.07 0.743-0.729 1.49-1.46 2.25-2.21 1.15-1.14 1.15-1.14 2.32-2.3 2.44-2.43 4.9-4.85 7.35-7.27 2.44-2.42 4.89-4.83 7.33-7.25 1.52-1.51 3.04-3.01 4.56-4.51 3.49-3.45 6.76-6.89 9.74-10.8 17.6-17.8 40.7-26.8 65.5-27.1 2.02-0.00469 4.04-0.00399 6.06 0.00115 1.13-0.00115 2.25-0.00231 3.41-0.0035 3.77-0.00265 7.54 0.00184 11.3 0.00629 2.73 1.21e-4 5.46-0.00127 8.19-0.00259 5.94-0.00207 11.9-4.38e-4 17.8 0.00364 8.83 0.00604 17.7 0.00634 26.5 0.00546 14.8-0.00131 29.7 0.00202 44.5 0.00802 14.7 0.00592 29.4 0.00977 44.1 0.0109 0.914 6.87e-5 1.83 1.37e-4 2.77 2.08e-4 4.64 3.38e-4 9.29 6.4e-4 13.9 9.27e-4 32.9 0.0021 65.8 0.00884 98.6 0.0183 31.9 0.00919 63.9 0.0163 95.8 0.0205 0.985 1.32e-4 1.97 2.63e-4 2.98 3.99e-4 9.89 0.00132 19.8 0.00259 29.7 0.00384 20.1 0.00254 40.3 0.00536 60.4 0.00835 1.39 2.06e-4 1.39 2.06e-4 2.81 4.16e-4 28.4 0.00422 56.8 0.00965 85.2 0.0163 1.21 2.81e-4 1.21 2.81e-4 2.44 5.68e-4 32.6 0.00762 65.3 0.0165 97.9 0.0251v-134c-3.63-0.66-7.26-1.32-11-2-15.6-5.39-28.6-14.7-36.4-29.5-1.66-3.61-2.87-7.22-3.96-11-0.212-0.734-0.423-1.47-0.642-2.22-2.72-9.57-5.04-19.2-7.37-28.9-0.522-2.15-1.04-4.29-1.57-6.44-1.4-5.77-2.8-11.5-4.2-17.3-0.851-3.52-1.7-7.03-2.56-10.5-6.12-25.2-12.2-50.5-18.3-75.7-0.431-1.79-0.863-3.58-1.29-5.38-0.214-0.891-0.429-1.78-0.65-2.7-0.435-1.81-0.87-3.61-1.3-5.42-1.09-4.51-2.17-9.02-3.26-13.5-5.58-23.2-11.2-46.4-16.9-69.5-1.22-4.92-2.42-9.85-3.6-14.8-0.195-0.811-0.39-1.62-0.591-2.46-4.12-17.3-4.12-17.3-3.91-24.9l0.0366-2.24c0.575-16.1 8.32-29.3 19.5-40.4 0.565-0.576 1.13-1.15 1.71-1.75 11-10.4 25.5-13.7 40.2-13.7 1.25-0.0102 2.5-0.0204 3.79-0.0309 3.4-0.0249 6.79-0.0368 10.2-0.0429 3.56-0.00944 7.12-0.0356 10.7-0.06 6.73-0.0435 13.5-0.0722 20.2-0.0953 7.67-0.0271 15.3-0.071 23-0.116 15.8-0.0926 31.5-0.164 47.3-0.222-0.937-4.02-1.87-8.05-2.81-12.1-0.317-1.36-0.635-2.72-0.952-4.09-2.66-11.4-5.39-22.9-8.17-34.3-1.73-7.12-3.46-14.2-5.18-21.3-0.346-1.43-0.692-2.85-1.04-4.28-2.95-12.2-5.89-24.3-8.82-36.5-0.427-1.78-0.855-3.55-1.28-5.33-0.645-2.68-1.29-5.36-1.94-8.04-0.648-2.69-1.3-5.38-1.94-8.07-0.214-0.888-0.427-1.78-0.648-2.69-5.2-21.6-10.4-43.2-15.7-64.8-1.52-6.17-3.03-12.3-4.54-18.5-1.05-4.27-2.1-8.55-3.15-12.8-1.03-4.17-2.04-8.35-3.05-12.5-0.276-1.1-0.553-2.21-0.837-3.35-4.38-18.4-3.53-35.5 5.76-52.3 1.69-2.73 3.46-5.37 5.33-7.98 0.46-0.646 0.92-1.29 1.39-1.96 9.05-11.6 24.1-19.3 38.5-21.3 5.73-0.683 11.4-0.882 17.1-0.889 0.971-0.00494 1.94-0.00988 2.94-0.015 3.23-0.0153 6.47-0.0237 9.7-0.0321 2.33-0.00959 4.65-0.0196 6.98-0.03 6.3-0.027 12.6-0.048 18.9-0.068 5.92-0.0197 11.8-0.0438 17.8-0.0679 11.7-0.0476 23.4-0.0909 35.2-0.131 11.4-0.0394 22.8-0.0808 34.2-0.125 1.05-0.00409 1.05-0.00409 2.13-0.00826 3.52-0.0137 7.05-0.0274 10.6-0.0411 29.2-0.114 58.4-0.22 87.6-0.323v-52c-11.1-0.131-11.1-0.131-22.1-0.208-9.48-0.134-17.4-0.839-24.8-7.5-4.64-4.8-6.78-10.2-7.49-16.8 0.859-8.02 4.15-14.3 10.4-19.5 6.71-4.11 12-4.58 19.8-4.53zm-220 153c-4.62 5.68-5.75 9.33-5.19 16.7 0.694 4.11 1.69 8.14 2.69 12.2 0.473 1.97 0.947 3.94 1.42 5.91 0.545 2.26 1.1 4.52 1.65 6.78 1.4 5.74 2.77 11.5 4.15 17.2 5.52 23.1 11.1 46.1 16.8 69.2 3.94 16 7.83 32 11.7 48 0.239 0.99 0.478 1.98 0.724 3 2.42 10 4.83 20 7.24 30 4.34 18 8.68 36 13.2 53.9 0.395 1.58 0.789 3.17 1.18 4.76 0.537 2.16 1.08 4.32 1.62 6.48 0.303 1.21 0.607 2.43 0.919 3.68 0.649 2.75 0.649 2.75 1.77 4.83 51.6 0.0457 103 0.081 155 0.102 6.08 0.0025 12.2 0.00509 18.2 0.00773 1.82 7.87e-4 1.82 7.87e-4 3.67 0.00159 19.6 0.00871 39.3 0.0245 58.9 0.0429 20.1 0.0187 40.3 0.0298 60.4 0.0339 12.4 0.00275 24.9 0.0115 37.3 0.0277 8.51 0.0105 17 0.0138 25.5 0.0112 4.92-0.00129 9.84 7.47e-4 14.8 0.0114 4.5 0.00968 8.99 0.0103 13.5 0.00339 1.63-8.51e-4 3.27 0.00173 4.9 0.00797 2.21 0.00794 4.41 0.00375 6.62-0.00367 1.23 7.59e-4 2.46 0.00152 3.73 0.0023 2.98 0.0472 2.98 0.0472 4.85-2.25 0.789-2.39 0.789-2.39 1.41-5.23 0.262-1.1 0.524-2.21 0.794-3.35 0.28-1.21 0.559-2.42 0.847-3.67 0.456-1.94 0.912-3.87 1.37-5.81 0.487-2.07 0.97-4.14 1.45-6.21 1.01-4.32 2.02-8.64 3.04-13 0.17-0.72 0.34-1.44 0.515-2.18 0.344-1.46 0.688-2.92 1.03-4.38 0.519-2.2 1.04-4.4 1.56-6.61 2.99-12.7 6.06-25.3 9.17-38 0.49-1.99 0.979-3.99 1.47-5.98 1.68-6.85 3.37-13.7 5.06-20.6 1.7-6.9 3.4-13.8 5.09-20.7 0.241-0.982 0.483-1.96 0.731-2.98 3.15-12.8 6.24-25.7 9.3-38.5 0.165-0.692 0.329-1.38 0.499-2.1 1.78-7.47 3.55-15 5.32-22.4 3.22-13.6 6.5-27.2 9.95-40.7 5.84-17.6 5.84-17.6 3.07-34.9-4.26-5.53-7.96-6.65-14.7-7.75-2.99-0.249-5.95-0.27-8.94-0.252-1.29-0.00436-1.29-0.00436-2.6-0.00881-2.86-0.00728-5.72-3.67e-4 -8.59 0.00652-2.08-0.00231-4.15-0.00548-6.23-0.00945-5.7-0.00835-11.4-0.00422-17.1 0.00197-6.15 0.00452-12.3-0.00246-18.4-0.00796-11.3-0.00838-22.7-0.00765-34-0.00218-10.5 0.00503-21 0.00634-31.4 0.00395-0.696-1.53e-4 -1.39-3.06e-4 -2.11-4.63e-4 -2.82-6.23e-4 -5.65-0.00126-8.47-0.00192-26.5-0.00612-53-5.73e-4 -79.4 0.0102-23.5 0.00949-47 0.00864-70.6-9.22e-4 -26.4-0.0107-52.9-0.015-79.3-0.00878-2.82 6.41e-4 -5.64 0.00127-8.45 0.00189-0.694 1.58e-4 -1.39 3.16e-4 -2.1 4.79e-4 -10.5 0.00227-21-3.85e-4 -31.4-0.00544-11.9-0.00572-23.8-0.0041-35.7 0.00656-6.08 0.00526-12.2 0.00731-18.2 7.02e-4 -5.56-0.00595-11.1-0.0027-16.7 0.00796-2.01 0.00224-4.03 0.00109-6.04-0.00375-2.74-0.00607-5.47 1.5e-4 -8.21 0.00944-0.783-0.00468-1.57-0.00936-2.37-0.0142-6.28 0.0427-12.2 0.463-17.3 4.58zm-115 333c-0.598 0.392-1.2 0.784-1.81 1.19-2.58 3.93-2.32 8.89-1.68 13.4 0.449 1.82 0.449 1.82 0.908 3.68 0.165 0.686 0.331 1.37 0.501 2.08 0.557 2.3 1.13 4.59 1.71 6.88 0.41 1.67 0.819 3.35 1.23 5.02 1.13 4.62 2.27 9.24 3.42 13.9 1.24 5 2.47 10 3.7 15 0.518 2.11 1.04 4.22 1.55 6.33 0.262 1.07 0.525 2.14 0.795 3.24 0.818 3.33 1.64 6.66 2.46 9.99 4.19 17 8.27 34.1 12.3 51.2 5.04 21.3 10.2 42.5 15.6 63.8 2.61 10.3 5.16 20.7 7.63 31.1 0.272 1.14 0.543 2.28 0.823 3.45 1.31 5.48 2.61 11 3.9 16.5 3.59 20.9 3.59 20.9 16 36.5 2.03 0.302 2.03 0.302 4.29 0.259 1.32 0.0104 1.32 0.0104 2.67 0.0211 0.972-0.00251 1.94-0.00501 2.95-0.00759 1.03 0.00519 2.07 0.0104 3.14 0.0157 3.5 0.0151 7 0.0158 10.5 0.0168 2.52 0.00786 5.04 0.0166 7.57 0.0261 5.5 0.0187 11 0.0312 16.5 0.0381 8.18 0.0104 16.4 0.0321 24.5 0.056 15.5 0.0447 30.9 0.0756 46.4 0.102 11.9 0.0205 23.9 0.0441 35.8 0.07 3.43 0.00741 6.87 0.0148 10.3 0.0222 0.853 0.00184 1.71 0.00368 2.59 0.00557 24 0.0516 48 0.0988 72 0.137 1.36 0.00218 1.36 0.00218 2.74 0.0044 4.59 0.00735 9.18 0.0147 13.8 0.022 0.912 0.00145 1.82 0.00291 2.76 0.0044 1.84 0.00294 3.69 0.00587 5.53 0.00881 28.7 0.0457 57.4 0.108 86.1 0.182 32.2 0.0835 64.4 0.153 96.7 0.204 3.43 0.00547 6.87 0.011 10.3 0.0165 0.846 0.00136 1.69 0.00272 2.56 0.00412 13.6 0.0222 27.2 0.0573 40.9 0.0969 13.7 0.0394 27.4 0.0638 41.1 0.073 8.13 0.00589 16.3 0.0229 24.4 0.0559 6.07 0.0233 12.1 0.0258 18.2 0.02 2.46 9.28e-4 4.92 0.00869 7.38 0.0238 3.33 0.0195 6.67 0.0145 10 0.00323 0.963 0.0115 1.93 0.0231 2.92 0.035 6.94-0.0627 11.4-1.48 16.5-6.43 23-32.3 26.4-85.9 34.9-124 2.04-9.09 4.08-18.2 6.13-27.3 0.2-0.891 0.401-1.78 0.608-2.7 7.34-32.6 15.6-64.9 23.9-97.3 0.266-1.04 0.533-2.08 0.807-3.16 0.453-1.77 0.909-3.54 1.37-5.31 1.47-5.69 2.23-10.2 0.172-15.8-2.05-3.1-3.51-4.11-6.81-5.75-2.61-0.443-2.61-0.443-5.39-0.376-1.08-0.00751-2.16-0.015-3.27-0.0228-1.77 0.0105-1.77 0.0105-3.58 0.0213-1.26-0.00436-2.52-0.00872-3.82-0.0132-3.52-0.0117-7.03-0.00467-10.5 0.00533-3.82 0.00759-7.64-0.00216-11.5-0.00973-6.7-0.0109-13.4-0.0105-20.1-0.00286-9.96 0.0113-19.9 0.00556-29.9-0.00362-17.8-0.0158-35.6-0.0144-53.4-0.00576-15.6 0.00754-31.1 0.00952-46.7 0.00593-1.03-2.29e-4 -2.06-4.58e-4 -3.13-6.94e-4 -4.19-9.34e-4 -8.37-0.00189-12.6-0.00288-39.3-0.00918-78.6-8.48e-4 -118 0.0153-34.9 0.0142-69.9 0.013-105-0.00138-39.2-0.0161-78.5-0.0224-118-0.0132-4.18 9.62e-4 -8.36 0.0019-12.5 0.00283-1.03 2.37e-4 -2.06 4.74e-4 -3.12 7.19e-4 -15.6 0.00342-31.1-5.85e-4 -46.7-0.00816-17.7-0.00857-35.4-0.00646-53.1 0.00984-9.91 0.00883-19.8 0.00936-29.7-0.00194-6.61-0.00671-13.2-0.00257-19.8 0.0105-3.77 0.00716-7.54 0.00953-11.3-0.00122-4.06-0.0114-8.11 1.62e-4 -12.2 0.0142-1.18-0.00702-2.36-0.014-3.57-0.0213-5.69 0.0395-9.89 0.156-14.8 3.4zm-622 526c-0.945 1.09-1.88 2.19-2.8 3.3-3.56 4.11-7.37 7.93-11.2 11.8-0.637 0.632-1.27 1.26-1.93 1.91-2.67 2.65-5.35 5.29-8.04 7.93-1.97 1.94-3.94 3.89-5.91 5.84-0.612 0.599-1.22 1.2-1.86 1.81-1.45 1.44-2.85 2.94-4.24 4.44v2c-0.99 0.33-1.98 0.66-3 1-1.53 1.51-1.53 1.51-3.04 3.42-4.47 5.27-9.35 10.1-14.3 14.9-0.977 0.97-1.95 1.94-2.93 2.91-4.11 4.09-8.23 8.17-12.3 12.2-2.53 2.51-5.06 5.02-7.59 7.54-0.961 0.955-1.92 1.91-2.89 2.86-1.34 1.32-2.67 2.65-4.01 3.98-0.761 0.753-1.52 1.51-2.3 2.28-1.84 1.7-1.84 1.7-1.62 3.86 74.1 0.0171 148 0.033 222 0.0423 1.64 2.07e-4 1.64 2.07e-4 3.32 4.18e-4 23.8 0.00299 47.6 0.00576 71.4 0.0083 11.7 0.00125 23.3 0.00254 35 0.00387 1.16 1.31e-4 2.32 2.62e-4 3.52 3.96e-4 37.7 0.00427 75.4 0.0118 113 0.021 38.7 0.00942 77.4 0.0156 116 0.0176 5.46 2.88e-4 10.9 6.14e-4 16.4 9.62e-4 1.07 6.74e-5 2.15 1.35e-4 3.26 2.04e-4 17.3 0.00118 34.7 0.00583 52 0.0118 17.4 0.00587 34.8 0.00814 52.2 0.00667 10.4-7.64e-4 20.7 0.00129 31.1 0.0073 6.9 0.00373 13.8 0.00388 20.7 0.00103 3.94-0.00152 7.88-0.0014 11.8 0.00305 4.23 0.00475 8.46 0.00188 12.7-0.00184 1.87 0.00394 1.87 0.00394 3.77 0.00796 1.12-0.00225 2.23-0.00449 3.38-0.00681 1.45 2.34e-4 1.45 2.34e-4 2.94 4.73e-4 2.15 0.118 2.15 0.118 3.17-1.12 0.0954-1.39 0.122-2.79 0.12-4.18 0.00138-0.9 0.00275-1.8 0.00417-2.73-0.0054-1.5-0.0054-1.5-0.0109-3.03 1.21e-4 -1.06 2.41e-4 -2.12 3.65e-4 -3.21-7.49e-4 -3.45-0.00838-6.9-0.0162-10.4-0.00147-2.12-0.00249-4.25-0.00305-6.37-0.0023-4.64-0.00825-9.28-0.0165-13.9-0.0214-12.5-0.0343-25-0.0485-37.5-0.00288-2.5-0.00577-4.99-0.00866-7.49-7e-3 -6.06-0.014-12.1-0.0209-18.2-79.9-0.756-160-1.16-240-1.17-9.92-4.56e-4 -19.8-0.00258-29.8-0.00569-2.92-8.98e-4 -5.85-0.00179-8.77-0.00267-0.728-2.21e-4 -1.46-4.42e-4 -2.21-6.7e-4 -20.2-0.00607-40.4-0.0101-60.6-0.00966-0.748 1.56e-5 -1.5 3.12e-5 -2.27 4.72e-5 -3.78 8.3e-5 -7.57 1.82e-4 -11.4 2.85e-4 -0.751 1.99e-5 -1.5 3.99e-5 -2.28 6.04e-5 -1.52 4.04e-5 -3.04 8.22e-5 -4.56 1.25e-4 -23.9 6.2e-4 -47.8-0.00705-71.7-0.0206-27.2-0.0154-54.3-0.024-81.5-0.023-2.89 7.46e-5 -5.78 1.23e-4 -8.67 1.54e-4 -1.07 1.75e-5 -1.07 1.75e-5 -2.15 3.53e-5 -11.4 3.06e-5 -22.7-0.00631-34.1-0.015-11.4-0.00848-22.7-0.00929-34.1-0.00289-6.13 0.00326-12.3 0.00334-18.4-0.00535-5.62-0.00788-11.2-0.00642-16.9 0.00228-2.02 0.00153-4.05-2.66e-4 -6.07-0.00586-20.4-0.0526-37.8 0.0138-53.2 15.3zm-123 141c-0.925 2.78-1.13 4.42-1.13 7.29-0.00322 0.88-0.00645 1.76-0.00977 2.67 0.00155 0.967 0.0031 1.93 0.00469 2.93-0.00227 1.03-0.00453 2.05-0.00687 3.11-0.00636 3.46-0.00551 6.92-0.00469 10.4-0.00299 2.47-0.00639 4.95-0.0102 7.42-0.00794 6.04-0.0111 12.1-0.0116 18.1-4.75e-4 4.91-0.00253 9.83-0.0057 14.7-0.00881 13.9-0.0134 27.9-0.0127 41.8 4e-5 0.752 7.99e-5 1.5 1.21e-4 2.28 4.09e-5 0.753 8.18e-5 1.51 1.24e-4 2.28 4.05e-4 12.2-0.00913 24.3-0.0233 36.5-0.0144 12.5-0.0213 25-0.0204 37.5 3.31e-4 7.02-0.00235 14-0.0132 21.1-0.0101 6.61-0.00972 13.2-0.00248 19.8 0.00104 2.42-0.00128 4.83-0.00736 7.25-0.0687 29.2 1.95 56.3 23.5 78.1 14.8 14.4 34.5 23.8 55.5 23.8 0.65 0.00115 1.3 0.00231 1.97 0.0035 2.18 0.00264 4.35-0.00184 6.53-0.00629 1.58 4.36e-4 3.15 0.00131 4.73 0.00259 4.33 0.00224 8.66-0.00176 13-0.00678 4.67-0.00432 9.34-0.00286 14-0.0021 8.09 5.24e-4 16.2-0.00261 24.3-0.00824 11.7-0.00813 23.4-0.0107 35.1-0.012 19-0.00219 38-0.00884 56.9-0.0183 18.4-0.00918 36.9-0.0163 55.3-0.0205 1.14-2.63e-4 2.27-5.25e-4 3.44-7.96e-4 5.7-0.00131 11.4-0.00257 17.1-0.00381 47.3-0.0104 94.6-0.028 142-0.0503 0.00358-1.42 0.00358-1.42 0.00724-2.86 0.0589-23 0.135-46 0.228-69.1 0.0449-11.1 0.0843-22.3 0.111-33.4 0.0231-9.71 0.0565-19.4 0.102-29.1 0.0238-5.14 0.0426-10.3 0.0489-15.4 0.0061-4.85 0.0263-9.69 0.0567-14.5 0.00871-1.77 0.0125-3.53 0.0107-5.3-0.016-23.2 4.53-43.7 20.8-61.2 16.5-15.4 36.1-18.3 57.7-18.3 1.51-0.00464 3.02-0.00966 4.54-0.015 4.09-0.013 8.17-0.0196 12.3-0.024 2.56-0.00294 5.12-0.00705 7.68-0.0115 8.04-0.0137 16.1-0.0233 24.1-0.0272 9.24-0.00447 18.5-0.022 27.7-0.051 7.17-0.0217 14.3-0.0317 21.5-0.033 4.27-0.00104 8.53-0.0068 12.8-0.0248 4.02-0.0167 8.04-0.0186 12.1-0.00986 1.46 7.61e-4 2.92-0.00345 4.39-0.0135 18.8-0.121 38.1 2.87 52.6 15.9 1.1 1.14 2.18 2.29 3.27 3.44h2c0.273 0.588 0.547 1.18 0.828 1.78 1.14 2.15 2.39 3.84 3.92 5.72 8.85 11.6 13.4 25 13.4 39.5 0.00494 0.785 0.00988 1.57 0.015 2.38 0.0153 2.62 0.0237 5.24 0.0321 7.86 0.00958 1.88 0.0196 3.77 0.03 5.65 0.027 5.1 0.048 10.2 0.068 15.3 0.0219 5.34 0.0493 10.7 0.0761 16 0.0499 10.1 0.0948 20.2 0.138 30.3 0.0494 11.5 0.104 23 0.16 34.5 0.114 23.7 0.22 47.3 0.323 71h76c0.022-42.8 0.0405-85.6 0.0511-128 0.00125-5.05 0.00255-10.1 0.00387-15.1 2.62e-4 -1 5.25e-4 -2.01 7.95e-4 -3.04 0.00436-16.3 0.0122-32.6 0.0214-48.9 0.00934-16.7 0.0149-33.4 0.0169-50.1 0.00138-10.3 0.00573-20.6 0.0138-30.9 0.00527-7.06 0.00689-14.1 0.00558-21.2-6.44e-4 -4.08 3.76e-4 -8.16 0.0057-12.2 0.00483-3.73 0.00513-7.46 0.00169-11.2-6.29e-4 -2 0.00371-4 0.00818-6-0.00199-1.17-0.00398-2.34-0.00603-3.55 3.8e-4 -1.02 7.59e-4 -2.04 0.00115-3.09 0.132-2.25 0.132-2.25-1.12-3.28-1.77-0.0979-3.54-0.124-5.32-0.124-1.74-0.00337-1.74-0.00337-3.53-0.00681-1.3 0.00263-2.59 0.00525-3.93 0.00796-1.38-7.39e-4 -2.77-0.00192-4.15-0.0035-3.83-0.00309-7.67 1.23e-4 -11.5 0.00428-4.16 0.00342-8.32 0.00107-12.5-5.77e-4 -7.3-0.00208-14.6-4.2e-4 -21.9 0.00364-10.9 0.00602-21.7 0.00634-32.6 0.00546-18.3-0.00132-36.5 0.00204-54.8 0.00802-18.1 0.00591-36.2 0.00976-54.2 0.0109-1.12 6.87e-5 -2.25 1.37e-4 -3.4 2.08e-4 -5.7 3.38e-4 -11.4 6.4e-4 -17.1 9.27e-4 -40.4 0.0021-80.8 0.00885-121 0.0183-39.3 0.00918-78.6 0.0163-118 0.0205-1.82 1.97e-4 -1.82 1.97e-4 -3.67 3.99e-4 -12.2 0.00132-24.3 0.00259-36.5 0.00384-24.8 0.00254-49.5 0.00536-74.3 0.00835-1.71 2.06e-4 -1.71 2.06e-4 -3.45 4.16e-4 -76.1 0.00921-152 0.0251-228 0.0419zm506 140-1.62 1.39c-5.33 6.33-4.95 12.7-4.94 20.6-0.0102 1.29-0.0204 2.58-0.0309 3.91-0.0276 3.54-0.0369 7.09-0.0429 10.6-0.00947 3.76-0.0357 7.52-0.06 11.3-0.0438 7.17-0.0722 14.3-0.0953 21.5-0.0265 7.97-0.0707 15.9-0.116 23.9-0.0941 16.6-0.157 33.2-0.204 49.8-0.0131 4.63-0.0289 9.26-0.046 13.9-0.0208 5.72-0.0366 11.4-0.0474 17.2-0.00445 2.03-0.0105 4.07-0.0182 6.1-0.00982 2.73-0.0134 5.45-0.0152 8.18-0.00416 0.792-0.00833 1.58-0.0126 2.4-0.318 3.51-0.318 3.51 1.12 6.43 2.43 0.0977 4.83 0.13 7.26 0.12 0.769 8.54e-4 1.54 0.00171 2.33 0.00259 2.59 0.00166 5.19-0.00387 7.78-0.00932 1.85-2.82e-4 3.7-1.24e-4 5.56 4.43e-4 5.05 2.88e-4 10.1-0.00561 15.1-0.0126 5.27-0.00623 10.5-0.00684 15.8-0.00803 9.98-0.00311 20-0.0113 29.9-0.0213 11.4-0.0112 22.7-0.0167 34.1-0.0217 23.4-0.0105 46.7-0.0281 70.1-0.0503 0.0701-24 0.123-48 0.155-71.9 0.0155-11.1 0.0365-22.3 0.0709-33.4 0.0299-9.71 0.0493-19.4 0.0559-29.1 0.00391-5.14 0.0131-10.3 0.0349-15.4 0.0204-4.84 0.0266-9.68 0.0221-14.5 8.24e-4 -1.77 0.00677-3.55 0.0183-5.32 0.015-2.43 0.0113-4.85 0.00315-7.28 0.00874-0.697 0.0175-1.39 0.0265-2.11-0.0652-7.2-2.25-13.7-7.39-18.9-6.27-4.63-12.7-5.12-20.4-5.14-1.86-0.00857-1.86-0.00857-3.76-0.0173-1.36-0.00125-2.72-0.00237-4.07-0.00339-1.44-0.00463-2.89-0.00966-4.33-0.015-3.91-0.0131-7.82-0.0196-11.7-0.024-2.45-0.00294-4.89-0.00705-7.34-0.0115-7.66-0.0137-15.3-0.0233-23-0.0272-8.83-0.00448-17.7-0.022-26.5-0.051-6.84-0.0216-13.7-0.0317-20.5-0.033-4.08-0.00105-8.15-0.0069-12.2-0.0248-3.84-0.0165-7.67-0.0186-11.5-0.00986-1.4 7.67e-4 -2.8-0.00353-4.21-0.0135-13.6-0.0917-13.6-0.0917-25.3 6.18zm529-0.0625c-0.534 0.449-1.07 0.897-1.62 1.36-4.05 5.07-4.95 10.3-4.91 16.7-0.00735 0.75-0.0147 1.5-0.0223 2.27-0.0209 2.5-0.0207 5-0.0205 7.49-0.0107 1.8-0.0226 3.59-0.0358 5.39-0.0318 4.87-0.0452 9.74-0.055 14.6-0.0131 5.1-0.0423 10.2-0.0694 15.3-0.0433 8.56-0.0754 17.1-0.1 25.7-0.0317 11-0.0819 22-0.138 33-0.048 9.45-0.0873 18.9-0.125 28.3-0.0126 3.04-0.0264 6.07-0.0405 9.11-0.0215 4.77-0.0375 9.54-0.0494 14.3-0.00511 1.75-0.0119 3.5-0.0206 5.25-0.0115 2.39-0.0167 4.77-0.0203 7.16-0.00476 0.696-0.00951 1.39-0.0144 2.11 0.00187 3.35 0.294 5.98 1.12 9.27h187c1.16-3.48 1.14-6.6 1.14-10.2 0.00297-0.74 0.00594-1.48 9e-3 -2.24 0.00869-2.49 0.0102-4.97 0.0117-7.46 0.00463-1.78 0.00965-3.56 0.015-5.34 0.0131-4.84 0.0196-9.69 0.024-14.5 0.00293-3.03 0.00704-6.05 0.0115-9.08 0.0137-9.47 0.0233-18.9 0.0272-28.4 0.00448-10.9 0.022-21.9 0.051-32.8 0.0216-8.45 0.0317-16.9 0.033-25.3 0.00105-5.05 0.00695-10.1 0.0248-15.1 0.0165-4.75 0.0186-9.5 0.00986-14.2-7.7e-4 -1.74 0.00356-3.48 0.0135-5.22 0.0127-2.38 0.00683-4.76-0.00358-7.14 0.00806-0.683 0.0161-1.37 0.0244-2.07-0.0728-7.16-2.29-13.7-7.39-18.8-6.27-4.63-12.7-5.12-20.4-5.14-1.86-0.00857-1.86-0.00857-3.76-0.0173-1.36-0.00125-2.72-0.00237-4.07-0.00339-1.44-0.00463-2.89-0.00966-4.33-0.015-3.91-0.0131-7.82-0.0196-11.7-0.024-2.45-0.00294-4.89-0.00705-7.34-0.0115-7.66-0.0137-15.3-0.0233-23-0.0272-8.83-0.00448-17.7-0.022-26.5-0.051-6.84-0.0216-13.7-0.0317-20.5-0.033-4.08-0.00105-8.15-0.0069-12.2-0.0248-3.84-0.0165-7.67-0.0186-11.5-0.00986-1.4 7.67e-4 -2.8-0.00353-4.21-0.0135-8.87-0.0591-18.3-0.101-25.3 6.12z" fill="#000002"/>
<path transform="translate(728,54)" d="m0 0c0.989 0.764 1.98 1.53 3 2.32 6.08 4.85 11.6 10.1 17 15.7 0.825 0.804 1.65 1.61 2.5 2.44 18.1 18.6 18.1 18.6 18.7 30.4-0.154 7.59-3.51 13.3-8.19 19.1-2.77 2.39-5.75 4.25-8.88 6.12-0.866 0.541-1.73 1.08-2.63 1.64-1.86 1.16-3.72 2.31-5.59 3.45-2.94 1.8-5.86 3.62-8.78 5.46-4.03 2.53-8.07 5.05-12.1 7.57-5.73 3.57-11.4 7.19-17.1 10.8-0.901 0.574-1.8 1.15-2.73 1.74-2.72 1.73-5.43 3.46-8.14 5.2-12.3 7.86-24.6 15.7-37 23.4-9.45 5.9-18.8 11.9-28.2 17.9-18.5 11.8-37 23.5-55.5 35.1-9.69 6.04-19.3 12.2-29 18.3-4.9 3.13-9.81 6.23-14.7 9.33-6.84 4.32-13.7 8.65-20.5 13-12.8 8.17-25.7 16.3-38.6 24.4-10.5 6.55-21 13.2-31.4 19.9-12.2 7.79-24.4 15.5-36.6 23.1-10.5 6.55-21 13.2-31.4 19.9-8.55 5.49-17.1 10.9-25.7 16.3-3.93 2.48-7.85 4.96-11.8 7.44-4.71 2.98-9.43 5.96-14.1 8.93-1.56 0.982-3.11 1.96-4.67 2.95-0.775 0.489-1.55 0.978-2.35 1.48-5.21 3.29-10.4 6.6-15.6 9.91-4.58 2.92-9.16 5.83-13.7 8.73l-2.47 1.56c-21.1 13.3-42 22.5-66.5 27.4l-3.38 0.688c-26.7 4.46-55.2 1.62-80.6-7.69-0.932-0.336-0.932-0.336-1.88-0.679-21.3-7.77-38.4-19.8-55.3-34.7-2.82-2.49-5.69-4.92-8.56-7.35-0.535-0.453-1.07-0.905-1.62-1.37-3.31-2.79-6.65-5.53-10-8.25-5.83-4.75-11.5-9.67-17.2-14.6-1.98-1.73-3.97-3.4-6.02-5.04-5.9-4.72-9.67-10.1-10.9-17.7-0.328-7.56 1.27-13.6 6.27-19.3 7.42-7.12 16.3-12.6 24.8-18.3 2.25-1.5 4.5-3.02 6.74-4.54 1.32-0.892 2.64-1.78 3.96-2.68 0.591-0.401 1.18-0.803 1.79-1.22 9.77-6.54 17.2-7.69 28.6-6.15 0.936 0.118 1.87 0.237 2.84 0.359 3.06 0.39 6.12 0.795 9.18 1.2 2.13 0.274 4.26 0.548 6.39 0.821 10.9 1.4 21.7 2.86 32.6 4.35 1.51 0.208 1.51 0.208 3.06 0.419 4.82 0.663 9.64 1.33 14.5 2.01 1.32 0.185 1.32 0.185 2.67 0.373 1.63 0.228 3.27 0.46 4.9 0.695 7.41 1.42 7.41 1.42 14.3-0.596 0.63-0.626 1.26-1.25 1.91-1.9l2.16-2.09c0.724-0.732 1.45-1.46 2.2-2.22 1.44-1.42 2.89-2.84 4.34-4.25l2.16-2.13c2.67-2.57 5.44-5 8.25-7.42 2.86-2.48 5.62-5.06 8.38-7.64 4.05-3.76 8.14-7.46 12.3-11.1 3.66-3.24 7.22-6.59 10.8-9.93 4.17-3.89 4.17-3.89 6.39-5 0.33-0.99 0.66-1.98 1-3l-1.8-0.825c-2.14-1.14-3.62-2.3-5.37-3.97l-1.75-1.65-1.83-1.75c-1.26-1.19-2.52-2.37-3.78-3.56l-1.82-1.72c-2.52-2.35-5.11-4.61-7.72-6.86-2.33-2.03-4.63-4.1-6.92-6.17-2.98-2.69-5.97-5.36-9-8-3.9-3.39-7.73-6.86-11.6-10.3-2.09-1.87-4.19-3.72-6.3-5.55-2.85-2.47-5.63-5.01-8.4-7.57-4.27-3.95-8.56-7.79-13.1-11.4-5.12-4.11-9.91-8.51-14.7-13-2.67-2.52-5.35-4.96-8.19-7.28-5.57-4.7-9.28-10.3-9.97-17.7-0.278-7.66 1.66-14 6.94-19.7 2.92-2.44 6.1-4.04 9.5-5.69 0.706-0.347 1.41-0.694 2.14-1.05 7.54-3.67 15.2-6.97 23-10.2 1.5-0.638 3.01-1.28 4.51-1.92 2.34-0.993 4.68-1.99 7.01-2.98 5.63-2.39 11.3-4.81 16.9-7.24 2.36-1.02 4.72-2.04 7.08-3.06 1.5-0.651 3-1.3 4.5-1.96 4.55-1.98 9.11-3.91 13.7-5.78 1.4-0.571 1.4-0.571 2.82-1.15 9.81-3.53 18.8 0.0658 28.1 3.72 0.998 0.383 2 0.766 3.03 1.16 2.99 1.15 5.97 2.3 8.95 3.46 3.93 1.53 7.86 3.04 11.8 4.55 5.51 2.13 11 4.26 16.5 6.39 14 5.42 28 10.8 42.1 16.2 12.5 4.8 25.1 9.6 37.6 14.5 1.85 0.718 3.71 1.43 5.56 2.15 5.39 2.08 10.8 4.18 16.1 6.35 1.84 0.743 3.68 1.48 5.52 2.21 2.26 0.904 4.52 1.82 6.77 2.75 0.995 0.395 1.99 0.79 3.02 1.2 0.866 0.353 1.73 0.706 2.62 1.07 4.25 0.865 6.8-1.1 10.4-3.29 1.62-1.09 1.62-1.09 3.28-2.2 0.913-0.61 0.913-0.61 1.84-1.23 2.03-1.36 4.06-2.73 6.09-4.09 1.45-0.969 2.89-1.94 4.34-2.91 8.54-5.73 17.1-11.5 25.6-17.2 0.936-0.631 1.87-1.26 2.83-1.91 4.58-3.09 9.17-6.19 13.7-9.29 11-7.43 22-14.7 33.2-21.9 5.14-3.33 10.3-6.69 15.4-10 15.4-10 30.7-20 46.3-29.8 2.61-1.64 5.22-3.3 7.82-4.95 48.4-30.5 95.9-29.1 142 6.37zm-114 32c-0.854 0.539-1.71 1.08-2.59 1.63-10.2 6.42-20.3 12.9-30.4 19.4-2.81 1.81-5.63 3.59-8.45 5.38-4.17 2.65-8.29 5.37-12.4 8.12-8.09 5.4-16.2 10.7-24.4 16.1-8.34 5.47-16.7 10.9-25 16.5-2.86 1.91-5.72 3.82-8.59 5.72-9.28 6.17-18.6 12.4-27.7 18.7-7.32 5.03-14.7 10-22.1 14.9-0.987 0.663-1.97 1.33-2.99 2.01-20.8 13.9-20.8 13.9-31.4 12.6-11.6-3.21-22.9-7.96-34.1-12.4-5.38-2.11-10.8-4.2-16.1-6.29-1.68-0.654-1.68-0.654-3.39-1.32-12.7-4.94-25.4-9.83-38.1-14.7-2.13-0.82-4.27-1.64-6.4-2.46-11.3-4.34-22.6-8.67-33.9-13-4.72-1.8-9.43-3.6-14.1-5.4-0.72-0.275-1.44-0.551-2.18-0.835-2.88-1.1-5.76-2.2-8.63-3.3-2.17-0.829-4.33-1.66-6.5-2.49-0.637-0.244-1.27-0.488-1.93-0.739-1.85-0.708-3.7-1.41-5.55-2.12-0.671-0.29-1.34-0.581-2.03-0.88-5.59-2.34-9-2.22-14.8-0.0763-1.42 0.636-1.42 0.636-2.87 1.28-1.06 0.471-2.12 0.941-3.21 1.43l-3.31 1.5c-1.07 0.478-2.15 0.956-3.25 1.45-6.87 3.07-13.7 6.18-20.6 9.3v2c1.77 1.31 3.54 2.61 5.32 3.9 3.4 2.67 6.53 5.58 9.68 8.54 0.612 0.575 1.22 1.15 1.85 1.74 0.6 0.563 1.2 1.13 1.82 1.71 3.08 2.89 6.22 5.69 9.42 8.45 2.27 1.98 4.49 4.01 6.72 6.04 3.54 3.2 7.16 6.26 10.9 9.25 3.79 3.06 7.28 6.23 10.7 9.72 3.05 3.07 6.36 5.84 9.64 8.66 36.4 31.3 36.4 31.3 37.2 40.6 0.215 8.76-0.792 14.5-6.67 21.2-4.52 4.71-9.38 9.07-14.3 13.3-2.97 2.59-5.84 5.26-8.73 7.94-3.46 3.21-6.93 6.41-10.5 9.5-4.11 3.56-8.09 7.26-12.1 11-4.93 4.57-9.92 9.07-14.9 13.5-4.83 4.33-9.66 8.68-14.4 13.1-4.41 4.08-8.87 8.09-13.5 12l-2.55 2.16c-19.5 13.5-58.8 1.14-79.9-2.49-18.7-4.01-18.7-4.01-37.7-3.74-1.84 1.41-1.84 1.41-3 3 6.96 7.19 14.5 13.7 22.4 19.9 2.87 2.3 5.65 4.7 8.43 7.1 6.02 5.03 12.4 9.13 19.2 13 1.23 0.708 1.23 0.708 2.48 1.43 25.2 13.6 57.2 15 84.4 7.54 17-5.28 31.5-14.6 46.4-24.2 4.05-2.62 8.12-5.19 12.2-7.75 6.84-4.32 13.7-8.65 20.5-13 12.8-8.17 25.7-16.3 38.6-24.4 10.4-6.48 20.7-13 31-19.6 8.14-5.22 16.3-10.4 24.6-15.5 10.3-6.43 20.6-13 30.8-19.5 12.3-7.86 24.6-15.7 37-23.4 7.59-4.74 15.1-9.53 22.7-14.3 6.67-4.25 13.4-8.46 20.1-12.6 9.44-5.88 18.8-11.8 28.2-17.9 6.98-4.48 14-8.92 21-13.3 4.99-3.15 9.97-6.31 14.9-9.48 8.66-5.53 17.3-11 26.1-16.4 11.4-7.1 22.7-14.3 34-21.5 12.3-7.85 24.6-15.7 37-23.4 7.84-4.89 15.6-9.84 23.4-14.8 6.81-4.34 13.7-8.61 20.6-12.8-1.4-5.4-4.81-7.63-9.12-10.8-1.07-0.781-1.07-0.781-2.16-1.58-28.8-20.7-52.7-22.8-82.7-3.67z" fill="#000002"/>
<path transform="translate(985 582)" d="m0 0c1.71-0.00187 3.42-0.00417 5.13-0.00687 4.69-0.0061 9.37-0.00599 14.1-0.00481 5.06 2.04e-4 10.1-0.00532 15.2-0.0101 9.91-0.0083 19.8-0.0111 29.7-0.0116 8.05-4.76e-4 16.1-0.00253 24.2-0.0057 22.8-0.0088 45.7-0.0134 68.5-0.0127 1.85 5.99e-5 1.85 5.99e-5 3.73 1.21e-4 1.23 4.09e-5 2.47 8.18e-5 3.74 1.24e-4 20 4.06e-4 40-0.00916 59.9-0.0233 20.5-0.0144 41-0.0213 61.6-0.0204 11.5 3.32e-4 23-0.00241 34.6-0.0132 9.81-0.00911 19.6-0.0113 29.4-0.00449 5 0.00326 10 0.00333 15-0.00535 4.58-0.00788 9.17-0.00642 13.7 0.00228 1.65 0.00153 3.3-2.67e-4 4.96-0.00586 26.8-0.0846 26.8-0.0846 33.8 6.26 7.61 7.96 8.45 14.6 8.39 25.1 0.00789 1.81 0.00789 1.81 0.0159 3.66 0.0109 3.3 0.0084 6.59-0.00114 9.89-0.00763 3.46-5.42e-4 6.92 0.00416 10.4 0.00545 5.81-0.00171 11.6-0.016 17.4-0.0163 6.7-0.011 13.4 0.00548 20.1 0.0136 5.77 0.0155 11.5 0.00768 17.3-0.00466 3.44-0.00535 6.88 0.00461 10.3 0.00764 3.84-0.00402 7.67-0.0207 11.5 0.00607 1.13 0.0121 2.26 0.0184 3.42-0.0649 8.07-1.1 14.9-6.59 21.2-0.53 0.636-1.06 1.27-1.61 1.93-5.51 4.4-11.8 5.21-18.6 5.27-0.79 0.0176-1.58 0.0352-2.39 0.0533-2.59 0.0537-5.18 0.0865-7.77 0.118-1.84 0.0325-3.68 0.066-5.52 0.1-18 0.314-36 0.372-54 0.367-4.66-2.1e-4 -9.33 0.00537-14 0.0101-9.06 0.00818-18.1 0.011-27.2 0.0116-7.36 4.8e-4 -14.7 0.00256-22.1 0.0057-21 0.00876-41.9 0.0134-62.9 0.0127-1.12-4e-5 -2.24-7.99e-5 -3.4-1.21e-4 -1.12-4.09e-5 -2.25-8.18e-5 -3.4-1.24e-4 -18.3-4.08e-4 -36.6 0.00922-54.9 0.0233-18.9 0.0144-37.7 0.0213-56.6 0.0204-10.6-3.31e-4 -21.1 0.00239-31.7 0.0132-8.96 0.0091-17.9 0.0113-26.9 0.00449-4.56-0.00326-9.13-0.00332-13.7 0.00535-4.18 0.00787-8.36 0.00643-12.5-0.00228-1.51-0.00153-3.02 2.79e-4 -4.53 0.00586-23.3 0.0806-23.3 0.0806-32.3-8.26-4.42-6-6.12-11.7-6.14-19.1-0.00571-1.01-0.0114-2.03-0.0173-3.07-0.00112-1.1-0.00224-2.2-0.00339-3.34-0.00496-1.17-0.00993-2.34-0.015-3.54-0.0146-3.86-0.0214-7.73-0.0269-11.6-0.00274-1.33-0.00559-2.67-0.00857-4-0.0137-6.27-0.0233-12.5-0.0272-18.8-0.00448-7.22-0.022-14.4-0.051-21.7-0.0217-5.59-0.0317-11.2-0.033-16.8-0.00104-3.33-0.00835-6.67-0.0248-10-0.0171-3.72-0.0152-7.44-0.00869-11.2-0.00921-1.09-0.0184-2.19-0.0279-3.32 0.0488-8.96 1.93-17 8.38-23.6 10.1-7.62 22.7-6.15 34.7-6.13zm5.25 48.1c-0.0995 2.11-0.128 4.23-0.129 6.34-0.00175 0.662-0.0035 1.32-0.00531 2.01-0.00442 2.2-0.00148 4.39 0.00189 6.59-6.73e-4 1.52-0.00164 3.04-0.0029 4.56-0.00148 3.19 6.77e-4 6.38 0.00534 9.57 0.0057 4.1 0.00242 8.2-0.00357 12.3-0.00361 3.14-0.00247 6.28 1.28e-4 9.42 6.69e-4 1.51-1.59e-4 3.02-0.00248 4.54-0.00253 2.11 0.00131 4.22 0.0069 6.33 7.96e-4 1.2 0.00159 2.41 0.00241 3.64-0.18 2.61-0.18 2.61 1.13 3.7 1.97 0.0987 3.94 0.126 5.91 0.126 1.94 0.00391 1.94 0.00391 3.92 0.0079 1.45-0.00216 2.91-0.00442 4.36-0.00676 1.53 0.00115 3.06 0.00274 4.59 0.00473 4.23 0.0042 8.45 0.0021 12.7-9.86e-4 4.55-0.00225 9.1 0.00122 13.6 0.00398 8.92 0.00446 17.8 0.00348 26.8 5.87e-4 7.25-0.00225 14.5-0.00257 21.7-0.00148 1.03 1.53e-4 2.06 3.06e-4 3.12 4.64e-4 2.09 3.2e-4 4.18 6.44e-4 6.27 9.73e-4 19.6 0.00286 39.3-4.33e-4 58.9-0.0058 16.9-0.00447 33.7-0.00369 50.6 9.19e-4 19.6 0.00535 39.1 0.00746 58.7 0.00439 2.08-3.19e-4 4.17-6.33e-4 6.25-9.43e-4 1.03-1.54e-4 2.05-3.09e-4 3.11-4.68e-4 7.24-8.65e-4 14.5 5.98e-4 21.7 0.00295 8.82 0.0028 17.6 0.00206 26.5-0.00328 4.5-0.00264 9.01-0.00364 13.5-3.51e-4 4.12 0.00296 8.23 0.00137 12.3-0.00398 1.5-0.00112 2.99-5.31e-4 4.49 0.00188 2.02 3e-3 4.04-6.49e-4 6.06-0.00472 1.69-2.44e-4 1.69-2.44e-4 3.41-4.92e-4 2.44 0.158 2.44 0.158 3.5-1.13 0.0995-2.11 0.128-4.23 0.129-6.34 0.00175-0.662 0.0035-1.32 0.00531-2.01 0.00442-2.2 0.00148-4.39-0.00189-6.59 6.73e-4 -1.52 0.00164-3.04 0.0029-4.56 0.00148-3.19-6.77e-4 -6.38-0.00534-9.57-0.0057-4.1-0.00242-8.2 0.00357-12.3 0.00361-3.14 0.00247-6.28-1.28e-4 -9.42-6.69e-4 -1.51 1.59e-4 -3.02 0.00248-4.54 0.00253-2.11-0.00131-4.22-0.0069-6.33-7.96e-4 -1.2-0.00159-2.41-0.00241-3.64 0.18-2.61 0.18-2.61-1.13-3.7-1.97-0.0987-3.94-0.126-5.91-0.126-1.29-0.00261-2.59-0.00522-3.92-0.0079-1.45 0.00216-2.91 0.00442-4.36 0.00676-1.53-0.00115-3.06-0.00274-4.59-0.00473-4.23-0.0042-8.45-0.0021-12.7 9.86e-4 -4.55 0.00225-9.1-0.00122-13.6-0.00398-8.92-0.00446-17.8-0.00348-26.8-5.87e-4 -7.25 0.00225-14.5 0.00257-21.7 0.00148-1.03-1.53e-4 -2.06-3.06e-4 -3.12-4.64e-4 -2.09-3.2e-4 -4.18-6.44e-4 -6.27-9.73e-4 -19.6-0.00286-39.3 4.33e-4 -58.9 0.0058-16.9 0.00447-33.7 0.00369-50.6-9.19e-4 -19.6-0.00535-39.1-0.00746-58.7-0.00439-2.08 3.19e-4 -4.17 6.33e-4 -6.25 9.43e-4 -1.03 1.54e-4 -2.05 3.09e-4 -3.11 4.68e-4 -7.24 8.65e-4 -14.5-5.98e-4 -21.7-0.00295-8.82-0.0028-17.6-0.00206-26.5 0.00328-4.5 0.00264-9.01 0.00364-13.5 3.51e-4 -4.12-0.00296-8.23-0.00137-12.3 0.00398-1.5 0.00112-2.99 5.31e-4 -4.49-0.00188-2.02-3e-3 -4.04 6.49e-4 -6.06 0.00472-1.69 2.44e-4 -1.69 2.44e-4 -3.41 4.92e-4 -2.44-0.158-2.44-0.158-3.5 1.13z" fill="#000002"/>
<path transform="translate(484 452)" d="m0 0c4.94 4.02 8.65 9.89 9.32 16.3 0.253 7.52-0.695 12.4-5.27 18.4-5.63 5.77-12.3 9.9-19.1 14.1-2.15 1.32-4.29 2.65-6.44 3.97-1.08 0.663-2.16 1.33-3.27 2.01-4.79 2.96-9.55 5.99-14.3 9.02-0.896 0.572-1.79 1.14-2.72 1.73-1.81 1.15-3.62 2.31-5.43 3.46-4.64 2.96-9.28 5.91-13.9 8.87-0.913 0.581-1.83 1.16-2.77 1.76-9.77 6.22-19.6 12.4-29.4 18.6-10.2 6.42-20.3 12.9-30.5 19.3-6.66 4.24-13.3 8.47-20 12.7-5.05 3.18-10.1 6.38-15.1 9.59-9.59 6.12-19.2 12.2-28.9 18.2-7.39 4.61-14.7 9.3-22.1 14-7.42 4.76-14.9 9.5-22.4 14.1-0.72 0.446-1.44 0.893-2.18 1.35-7.98 4.87-14.4 6.44-23.8 4.91-6.2-1.81-10.1-6.49-13.8-11.6-3.14-6.29-3.26-13.9-1.2-20.6 4.84-9.71 15.5-15 24.4-20.5 2.14-1.32 4.27-2.65 6.41-3.97 1.07-0.663 2.14-1.33 3.25-2.01 4.78-2.97 9.53-5.99 14.3-9.02 0.899-0.573 1.8-1.15 2.72-1.74 1.81-1.16 3.62-2.31 5.43-3.47 5.49-3.5 11-6.99 16.5-10.5 4.56-2.9 9.12-5.8 13.7-8.71 9.43-6.02 18.9-12 28.4-17.9 11.4-7.14 22.8-14.4 34.2-21.7 12.2-7.85 24.5-15.6 36.8-23.4 6.07-3.83 12.1-7.68 18.2-11.5 9.29-5.92 18.6-11.8 27.9-17.7 1.95-1.23 3.9-2.48 5.84-3.74 11.8-7.49 22.2-12.1 35.2-4.25z" fill="#000002"/>
<path transform="translate(1083 908)" d="m0 0c2.09-0.00136 4.18-0.00314 6.27-0.00531 5.63-0.00453 11.3-0.00281 16.9 3.79e-4 5.93 0.00255 11.9 1.79e-4 17.8-0.00139 9.95-0.00181 19.9 5.65e-4 29.9 0.00534 11.5 0.00544 22.9 0.00368 34.4-0.00183 9.88-0.00456 19.8-0.00517 29.6-0.00256 5.88 0.00155 11.8 0.00179 17.7-0.00154 5.54-0.00291 11.1-8.38e-4 16.6 0.00489 2.02 0.00131 4.04 9.66e-4 6.05-0.00126 6.19-0.0062 12.4 0.0276 18.6 0.133 1.26 0.0197 1.26 0.0197 2.54 0.0398 2.44 0.0493 4.87 0.128 7.31 0.218 0.709 0.0136 1.42 0.0272 2.15 0.0412 6.3 0.295 11.5 2.52 16.2 6.63 5.45 6.49 7.27 11.6 7.16 20.2-0.671 4.84-2.89 8.77-5.4 12.9h-2v2c-13.5 8.28-30 6.15-45.3 6.15-2.24 3e-3 -4.48 0.0064-6.73 0.0102-6.06 0.00879-12.1 0.0112-18.2 0.0118-3.79 7.13e-4 -7.58 0.00285-11.4 0.0055-12.5 0.00876-25.1 0.0134-37.6 0.0127-0.674-4e-5 -1.35-7.99e-5 -2.04-1.21e-4 -0.675-4.09e-5 -1.35-8.18e-5 -2.05-1.24e-4 -10.9-4.07e-4 -21.9 0.00918-32.8 0.0233-11.3 0.0144-22.5 0.0211-33.8 0.0204-6.32-2.55e-4 -12.6 0.00258-19 0.0132-5.94 0.00969-11.9 0.00975-17.8 0.00248-2.17-0.00104-4.35 0.00131-6.52 0.00736-2.98 0.00775-5.95 0.00306-8.93-0.00463-0.853 0.00514-1.71 0.0103-2.58 0.0156-9.81-0.0557-18-1.26-25.2-8.26-4.5-5.57-6.33-10.9-5.81-18.1 1.11-8.41 5.15-12.8 11.4-18.2 9.76-7.19 30.9-3.89 42.6-3.88z" fill="#000002"/>
<path transform="translate(154 1278)" d="m0 0c0.846-0.00322 1.69-0.00645 2.56-0.00977 1.39 0.00232 1.39 0.00232 2.8 0.00469 0.986-0.00227 1.97-0.00453 2.99-0.00687 3.31-0.00634 6.63-0.00551 9.94-0.00469 2.37-0.00299 4.74-0.00639 7.12-0.0102 5.78-0.00793 11.6-0.0111 17.3-0.0116 4.7-4.75e-4 9.4-0.00253 14.1-0.0057 13.3-0.00881 26.7-0.0134 40-0.0127 0.718 4e-5 1.44 7.99e-5 2.18 1.21e-4 1.08 6.13e-5 1.08 6.13e-5 2.18 1.24e-4 11.7 4.06e-4 23.3-0.00916 35-0.0233 12-0.0144 23.9-0.0213 35.9-0.0204 6.72 3.32e-4 13.4-0.00241 20.2-0.0132 6.32-0.00968 12.6-0.00976 19-0.00248 2.32 0.00105 4.64-0.00132 6.96-0.00736 3.17-0.00772 6.33-0.00308 9.5 0.00463 0.916-0.00514 1.83-0.0103 2.77-0.0156 9.23 0.0496 16.6 1.67 23.3 8.26 3.91 5.14 6.33 10.9 5.87 17.4-1.19 8-4.65 12.9-10.7 18.2-5.77 3.8-11.6 3.73-18.2 3.71-1.51 0.0068-1.51 0.0068-3.05 0.0137-3.38 0.0127-6.75 0.011-10.1 0.00937-2.42 0.00598-4.84 0.0128-7.26 0.0204-5.89 0.0158-11.8 0.0221-17.7 0.0232-4.79 9.51e-4 -9.58 0.00507-14.4 0.0114-13.6 0.0176-27.2 0.0268-40.8 0.0253-1.1-1.2e-4 -1.1-1.2e-4 -2.22-2.42e-4 -0.733-8.18e-5 -1.47-1.64e-4 -2.22-2.48e-4 -11.9-8.13e-4 -23.8 0.0183-35.6 0.0465-12.2 0.0287-24.4 0.0425-36.6 0.0408-6.85-6.63e-4 -13.7 0.00481-20.6 0.0264-6.44 0.0201-12.9 0.0195-19.3 0.00497-2.36-0.00209-4.73 0.00264-7.09 0.0147-3.23 0.0154-6.46 0.00616-9.69-0.00926-0.934 0.0103-1.87 0.0206-2.83 0.0312-6.89-0.0726-12.2-1.7-17.5-6.24-5.26-6.61-7.69-11.6-7.41-20.2 0.811-6.3 3.03-11 7.82-15.2 5.26-3.82 9.29-5.98 15.8-5.99z" fill="#000002"/>
<path transform="translate(271,732)" d="m0 0c2.05 1.89 3.37 3.67 5 6 0.598 0.846 1.2 1.69 1.81 2.56 2.27 6.57 2.54 14.4-0.375 20.8-5.11 8.09-12.2 12.6-20.4 17.3-3.04 1.73-6.05 3.49-9.07 5.25-0.6 0.349-1.2 0.697-1.82 1.06-5.1 2.97-10.1 6.08-15.1 9.26-7.19 4.6-14.5 9.02-21.8 13.4-5.13 3.06-10.2 6.18-15.3 9.36-6.15 3.87-12.3 7.68-18.6 11.4-0.833 0.509-1.67 1.02-2.53 1.54-8.37 5.04-14.9 8.1-24.9 7.02-7.39-2.3-12.2-6.02-15.9-12.7-2.77-6.05-3.31-11.4-1.39-17.8 3.27-8.1 9.07-12.3 16.3-16.9 0.679-0.435 1.36-0.87 2.06-1.32 6.6-4.21 13.3-8.28 19.9-12.4 2.05-1.26 4.1-2.53 6.15-3.79 11.5-7.1 23.1-14.2 34.6-21.2 5.36-3.26 10.7-6.58 16-9.97 30.4-19.5 30.4-19.5 45.2-9.06z" fill="#000002"/>
<path transform="translate(1248 309)" d="m0 0c5.38 4.14 10 9.91 11.2 16.7 0.887 8.46 0.0104 15-5 22-5.12 5.79-10.7 9.3-18.4 10.3-7.32 0.366-13.7-1.45-19.7-5.82-6.41-5.87-9.13-12.3-9.52-20.9 0.256-7.31 2.32-12.9 7.21-18.4 9.45-8.7 22.9-10.4 34.2-3.84z" fill="#000002"/>
<path transform="translate(1117,309)" d="m0 0c6.47 4.76 11.4 9.9 13 18 0.946 8.98-1.23 15.7-6.75 22.8-4.59 5.03-10.8 7.79-17.5 8.39-7.51 0.143-12.7-1.13-18.9-5.39-6.01-6.01-8.94-11.8-9.19-20.4 0.0725-7.81 1.78-13.4 7.02-19.3 8.78-8.1 21.8-10.6 32.4-4.16z" fill="#000002"/>
</svg>
