<?xml version="1.0" standalone="no"?>
<!DOCTYPE svg PUBLIC "-//W3C//DTD SVG 20010904//EN"
 "http://www.w3.org/TR/2001/REC-SVG-20010904/DTD/svg10.dtd">
<svg version="1.0" xmlns="http://www.w3.org/2000/svg"
 width="329.000000pt" height="95.000000pt" viewBox="0 0 329.000000 95.000000"
 preserveAspectRatio="xMidYMid meet">

<g transform="translate(0.000000,95.000000) scale(0.100000,-0.100000)"
fill="#000000" stroke="none">
<path d="M764 779 c-15 -15 -28 -18 -47 -14 -15 4 -25 10 -23 14 5 7 -82 6
-90 -1 -2 -3 16 -13 41 -22 25 -10 45 -21 45 -25 0 -13 -24 -31 -43 -31 -11 0
-15 -4 -11 -11 4 -7 -3 -19 -16 -29 -22 -17 -25 -16 -72 8 -127 66 -281 5
-333 -132 -19 -50 -17 -129 5 -149 10 -9 11 -7 4 13 -8 28 -9 113 -1 127 3 4
30 6 61 5 l56 -4 0 -58 c0 -33 3 -61 8 -63 4 -3 5 22 4 55 -2 33 0 63 6 67 5
3 6 15 1 26 -6 17 -8 17 -8 3 -1 -15 -11 -18 -55 -18 -30 0 -57 4 -60 9 -6 9
26 55 54 79 20 17 92 52 108 52 9 0 7 -9 -7 -29 -12 -16 -21 -33 -21 -37 0 -5
12 8 26 29 33 49 68 48 101 -2 28 -42 28 -45 1 -59 -22 -11 -22 -11 4 -6 25 5
27 3 32 -38 11 -81 15 -93 11 -33 -1 33 -5 66 -6 74 -2 8 9 21 24 30 28 16 29
15 52 -14 14 -16 27 -42 31 -57 3 -16 10 -26 14 -23 12 7 -5 52 -35 91 l-25
32 25 16 c17 11 25 12 25 5 0 -7 11 0 25 15 13 14 29 26 34 26 6 0 16 -20 22
-45 12 -48 29 -52 29 -6 0 15 6 33 13 40 10 11 10 13 0 7 -24 -13 -14 40 12
64 14 13 25 27 25 32 0 15 -25 8 -46 -13z m-211 -129 l28 -17 -24 -16 c-24
-15 -25 -15 -50 24 -26 40 -26 40 -4 34 12 -4 35 -15 50 -25z"/>
<path d="M870 450 l0 -230 30 0 30 0 0 100 0 100 30 0 c28 0 30 3 30 35 0 32
-2 35 -30 35 l-30 0 0 60 0 60 45 0 c45 0 45 0 45 35 l0 35 -75 0 -75 0 0
-230z"/>
<path d="M1060 450 l0 -230 25 0 25 0 0 230 0 230 -25 0 -25 0 0 -230z"/>
<path d="M1170 650 c0 -27 3 -30 30 -30 27 0 30 3 30 30 0 27 -3 30 -30 30
-27 0 -30 -3 -30 -30z"/>
<path d="M1500 450 l0 -230 30 0 30 0 0 134 c0 99 3 136 13 145 8 6 17 8 20 4
4 -3 7 -69 7 -145 l0 -138 30 0 30 0 0 151 c0 84 -5 159 -10 170 -11 20 -54
26 -65 9 -16 -26 -25 -4 -25 60 l0 70 -30 0 -30 0 0 -230z"/>
<path d="M1870 450 l0 -230 30 0 30 0 0 100 0 100 30 0 30 0 0 -100 0 -100 30
0 30 0 0 230 0 230 -30 0 -30 0 0 -95 0 -95 -30 0 -30 0 0 95 0 95 -30 0 -30
0 0 -230z"/>
<path d="M2620 608 c0 -56 -3 -69 -12 -60 -19 19 -66 15 -78 -7 -5 -11 -10
-81 -10 -155 0 -123 2 -138 20 -156 24 -24 29 -24 58 -4 12 8 22 10 22 5 0 -6
14 -11 30 -11 l30 0 0 230 0 230 -30 0 -30 0 0 -72z m-5 -219 c0 -95 -3 -114
-15 -114 -12 0 -16 20 -18 104 -3 112 1 135 21 128 9 -3 12 -35 12 -118z"/>
<path d="M2730 450 l0 -230 30 0 30 0 0 230 0 230 -30 0 -30 0 0 -230z"/>
<path d="M1730 600 c0 -33 -3 -40 -20 -40 -14 0 -20 -7 -20 -24 0 -15 7 -26
20 -29 19 -5 20 -14 20 -127 0 -116 1 -122 25 -146 36 -36 69 -29 73 14 3 26
0 32 -17 32 -26 0 -33 37 -29 145 3 74 5 80 26 83 34 5 31 52 -3 52 -22 0 -25
4 -25 40 0 36 -2 40 -25 40 -22 0 -25 -4 -25 -40z"/>
<path d="M743 572 c22 -24 21 -33 -4 -68 -19 -26 -18 -25 10 4 36 37 39 57 12
72 -29 15 -36 12 -18 -8z"/>
<path d="M435 560 c-13 -6 -15 -9 -5 -9 8 0 22 4 30 9 18 12 2 12 -25 0z"/>
<path d="M1170 390 l0 -170 30 0 30 0 0 170 0 170 -30 0 -30 0 0 -170z"/>
<path d="M1300 538 c-17 -18 -20 -35 -20 -103 0 -58 5 -87 16 -104 15 -21 15
-24 -5 -42 -27 -25 -27 -44 0 -63 l21 -14 -20 -11 c-26 -14 -36 -45 -22 -70
25 -48 152 -46 186 3 33 47 6 109 -53 121 -47 10 -74 25 -68 35 3 6 16 10 29
10 12 0 32 10 44 23 19 20 22 35 22 101 0 69 2 78 20 83 13 3 20 14 20 29 0
26 -18 32 -38 12 -9 -9 -15 -9 -24 0 -21 21 -85 15 -108 -10z m78 -106 c2 -60
0 -73 -14 -79 -23 -9 -34 14 -34 74 0 63 8 85 29 81 13 -3 17 -18 19 -76z m16
-238 c25 -10 19 -41 -9 -48 -42 -11 -83 23 -58 47 8 9 46 9 67 1z"/>
<path d="M2137 548 c-15 -12 -37 -58 -37 -79 0 -5 13 -9 29 -9 22 0 30 6 35
25 10 40 36 31 36 -13 0 -33 -5 -40 -39 -62 -48 -29 -61 -55 -61 -120 0 -42 4
-52 25 -66 23 -15 27 -15 50 0 14 9 25 12 25 6 0 -5 15 -10 33 -10 l32 0 -5
156 c-4 139 -7 157 -24 170 -24 17 -77 18 -99 2z m63 -217 c0 -33 -5 -51 -14
-54 -8 -3 -17 -3 -20 0 -10 10 -7 63 4 84 18 33 30 21 30 -30z"/>
<path d="M2310 390 l0 -170 30 0 29 0 3 143 c3 118 5 142 18 142 13 0 15 -24
18 -142 l3 -143 29 0 30 0 0 151 c0 84 -5 159 -10 170 -12 22 -49 25 -69 7
-11 -10 -14 -10 -18 0 -3 6 -18 12 -34 12 l-29 0 0 -170z"/>
<path d="M2863 533 c-15 -22 -18 -49 -18 -150 0 -113 2 -124 22 -145 15 -15
35 -22 59 -22 47 0 74 31 74 85 0 35 -3 39 -24 39 -21 0 -25 -6 -28 -32 -2
-25 -8 -33 -23 -33 -17 0 -20 8 -23 53 l-3 52 50 0 51 0 0 68 c0 85 -20 112
-80 112 -32 0 -43 -5 -57 -27z m85 -66 c3 -34 1 -37 -22 -37 -23 0 -26 4 -26
33 0 38 7 49 30 45 9 -2 16 -16 18 -41z"/>
<path d="M3050 390 l0 -170 30 0 30 0 0 124 c0 132 8 156 51 156 14 0 19 7 19
30 0 35 -22 40 -52 13 -17 -15 -18 -15 -18 0 0 12 -9 17 -30 17 l-30 0 0 -170z"/>
<path d="M388 543 c7 -3 16 -2 19 1 4 3 -2 6 -13 5 -11 0 -14 -3 -6 -6z"/>
<path d="M590 450 c-122 -63 -244 -94 -379 -94 -114 -1 -115 -1 -121 24 l-6
25 -8 -24 c-6 -18 -4 -28 9 -37 23 -17 97 -28 130 -20 21 5 35 -1 71 -33 122
-107 324 -57 374 94 15 44 12 48 -20 28 -14 -8 -17 -12 -7 -9 42 13 -2 -66
-65 -117 -32 -25 -47 -30 -95 -31 l-57 -1 -25 44 c-18 33 -21 45 -11 51 15 9
139 24 146 18 2 -3 -7 -27 -21 -53 -13 -27 -22 -51 -20 -54 3 -2 17 23 32 56
24 51 33 62 63 71 l35 10 -39 -5 c-51 -8 -41 9 26 43 41 21 52 23 59 12 6 -9
9 -4 9 15 0 15 -1 27 -2 26 -2 0 -37 -18 -78 -39z m-60 -60 c0 -5 -12 -10 -27
-9 -25 0 -26 1 -8 9 27 12 35 12 35 0z m-147 -94 l27 -48 -32 6 c-34 7 -108
53 -108 67 0 6 81 29 86 25 0 -1 13 -23 27 -50z"/>
</g>
</svg>
