<?xml version="1.0" encoding="UTF-8"?>
<svg version="1.1" viewBox="0 0 1600 1600" width="1280" height="1280" xmlns="http://www.w3.org/2000/svg">
<path transform="translate(863,28)" d="m0 0c0.668 0.0967 1.34 0.193 2.02 0.293 52.3 7.66 104 23.9 150 49.7 0.773 0.429 1.55 0.858 2.34 1.3 25.1 14 48.6 30.3 70.7 48.7 0.592 0.493 1.18 0.986 1.79 1.49 14.1 11.8 28.2 24.2 40.2 38.2 1.95 2.22 3.95 4.4 5.96 6.57 15.3 16.5 29 34.7 41 53.7 0.754 1.18 0.754 1.18 1.52 2.39 35.7 56.4 58.2 119 67.5 185 0.181 1.28 0.362 2.55 0.548 3.87 2.45 18.3 2.73 36.6 2.76 55.1 0.00377 1.11 0.00753 2.21 0.0114 3.36 0.00563 3.27-0.00565 6.53-0.0231 9.8 0.00114 1.39 0.00114 1.39 0.0023 2.81-0.115 11.7-1.3 23.4-2.3 35.1 0.989-0.00277 0.989-0.00277 2-0.00559 16.1-0.0444 32.2-0.0774 48.4-0.098 7.8-0.0103 15.6-0.0242 23.4-0.0473 6.8-0.0201 13.6-0.0329 20.4-0.0373 3.59-0.00258 7.19-0.00857 10.8-0.0233 36-0.142 67.4 3.63 94.3 29.9 28.7 29.1 28.9 65.8 28.9 104-0.00257 3.74 7.34e-4 7.49 0.00324 11.2 0.00359 6.55 0.00351 13.1 9.53e-4 19.6-0.0038 9.73-0.00184 19.5 0.00121 29.2 0.00525 17.4 0.00481 34.8 0.00192 52.2-0.00252 15.2-0.00317 30.4-0.00198 45.6 7.64e-5 1.01 1.53e-4 2.02 2.31e-4 3.06 3.11e-4 4.1 6.3e-4 8.2 9.6e-4 12.3 0.00306 38.4 2.89e-4 76.9-0.0051 115-0.00475 34.1-0.00432 68.3 4.61e-4 102 0.00536 38.4 0.00748 76.8 0.00439 115-3.21e-4 4.09-6.34e-4 8.18-9.43e-4 12.3-7.91e-5 1.01-1.58e-4 2.01-2.4e-4 3.05-0.00114 15.2 1.92e-4 30.4 0.00272 45.6 0.00286 17.3 0.00214 34.6-0.00328 51.9-0.00294 9.67-0.00313 19.3 6.46e-4 29 0.00224 6.46 8.43e-4 12.9-0.0035 19.4-0.00238 3.68-0.0032 7.36 4.06e-4 11 0.00385 3.97-7.99e-5 7.94-0.00472 11.9 0.00234 1.13 0.00468 2.27 0.00709 3.43-0.0176 7.55-0.458 15-1.13 22.5 0.955-0.00666 1.91-0.0133 2.89-0.0202 9.03-0.061 18.1-0.106 27.1-0.135 4.64-0.0156 9.29-0.0368 13.9-0.0709 4.49-0.0328 8.97-0.0506 13.5-0.0583 1.71-0.00551 3.41-0.0163 5.12-0.0326 22.6-0.207 22.6-0.207 29.9 6.5 0.606 0.53 1.21 1.06 1.84 1.61 5.52 6.81 6.42 12.9 6.23 21.5-0.0198 1.58-0.0198 1.58-0.04 3.19-0.22 9.7-1.43 19-3.4 28.5l-0.738 3.85c-9.35 42.8-37.5 82.3-74.1 106-47.6 30.2-98.9 29.3-153 29.3-5.86-0.00256-11.7 7.33e-4 -17.6 0.00324-10.9 0.00383-21.8 0.00319-32.8 4.47e-4 -10.3-0.00254-20.6-0.00269-31-7.57e-4 -1.05 1.94e-4 -1.05 1.94e-4 -2.11 3.91e-4 -2.84 5.33e-4 -5.68 0.00108-8.52 0.00165-26.4 0.00528-52.8 0.00565-79.1 0.00285-25.4-0.0027-50.9-0.00375-76.3-0.00248-1.6 7.75e-5 -3.2 1.55e-4 -4.8 2.31e-4 -6.43 3.11e-4 -12.9 6.29e-4 -19.3 9.6e-4 -18 9.17e-4 -36 0.00149-54 0.00179-0.819 1.36e-5 -1.64 2.73e-5 -2.48 4.14e-5 -26.1 4.09e-4 -52.2-7.16e-4 -78.2-0.00289-0.845-7.02e-5 -1.69-1.4e-4 -2.56-2.13e-4 -13.7-0.00114-27.5-0.00236-41.2-0.00359-54.4-0.00485-109-0.00464-163 2.31e-4 -13.7 0.00122-27.4 0.00243-41.1 0.00357-1.27 1.06e-4 -1.27 1.06e-4 -2.56 2.13e-4 -26 0.00216-52.1 0.00307-78.1 0.00264-1.23-2.04e-5 -1.23-2.04e-5 -2.48-4.12e-5 -18-3.13e-4 -36-9.47e-4 -53.9-0.00187-6.44-3.29e-4 -12.9-6.42e-4 -19.3-9.51e-4 -1.6-7.74e-5 -3.2-1.56e-4 -4.8-2.36e-4 -25.4-0.00127-50.8 1.46e-4 -76.2 0.00285-26.3 0.00277-52.7 0.00171-79-0.00353-2.84-5.52e-4 -5.69-0.00109-8.53-0.00161-1.05-1.95e-4 -1.05-1.95e-4 -2.11-3.95e-4 -10.3-0.00183-20.5-9.41e-4 -30.8 0.00166-11.5 0.00288-23 0.00236-34.4-0.00251-5.76-0.00234-11.5-0.00327-17.3 4.06e-4 -22.3 0.0129-44.6-0.0616-66.9-0.403-2.16-0.0316-4.32-0.0589-6.47-0.0814-51.8-0.568-94.7-18-132-53.8-30.6-31.4-47.4-74.6-48.8-118 0.156-8.04 2.08-14.4 7.44-20.5 9.58-8.29 21.2-7.67 33.1-7.52 1.73 0.00748 3.47 0.0132 5.2 0.0172 4.53 0.0152 9.05 0.0543 13.6 0.0988 4.63 0.0412 9.26 0.0592 13.9 0.0793 9.06 0.0427 18.1 0.111 27.2 0.195-4.68e-4 -0.653-9.36e-4 -1.31-0.00142-1.98-0.0509-71.1-0.098-142-0.126-213-6.21e-4 -1.59-6.21e-4 -1.59-0.00126-3.22-0.00898-23.1-0.0173-46.2-0.0249-69.3-0.00374-11.3-0.00763-22.7-0.0116-34-3.92e-4 -1.13-7.85e-4 -2.26-0.00119-3.42-0.0128-36.5-0.0353-73.1-0.0629-110-0.0283-37.6-0.0468-75.1-0.0529-113-8.64e-4 -5.31-0.00184-10.6-0.00289-15.9-3.03e-4 -1.57-3.03e-4 -1.57-6.13e-4 -3.16-0.00354-16.8-0.0174-33.6-0.0353-50.4-0.0177-16.9-0.0244-33.8-0.02-50.7 0.00228-10-0.00377-20.1-0.0219-30.1-0.0113-6.71-0.0116-13.4-0.0031-20.1 0.00451-3.82 0.00443-7.64-0.00915-11.5-0.106-31.8 3.04-58.7 23.4-84.5 0.553-0.708 1.11-1.42 1.68-2.14 16.2-19.6 41-30.9 65.9-33.5 11.2-0.955 22.5-0.646 33.8-0.6 3.65 0.0127 7.31 0.0137 11 0.0161 6.89 0.00617 13.8 0.0225 20.7 0.0427 7.86 0.0225 15.7 0.0334 23.6 0.0434 16.1 0.0208 32.3 0.0559 48.4 0.101-0.0573-0.562-0.115-1.12-0.174-1.7-0.264-2.59-0.525-5.18-0.787-7.77-0.0902-0.883-0.18-1.77-0.273-2.68-7.69-76.3 6.39-155 38.2-225l1.39-3.04c17.5-38 40.2-74.6 68.5-106 1.91-2.1 3.79-4.22 5.65-6.37 1.17-1.33 2.33-2.67 3.5-4l1.87-2.16c4.88-5.53 9.99-10.8 15.2-16 0.661-0.665 1.32-1.33 2-2.02 4.48-4.47 9.14-8.67 13.9-12.8 1.08-0.95 2.16-1.9 3.25-2.85 22.4-19.6 46.9-36.5 72.8-51.1 0.831-0.478 1.66-0.956 2.52-1.45 55.5-31.9 118-49.5 181-55.6 0.928-0.095 1.86-0.19 2.81-0.288 32.5-2.96 65.9-1.4 98.2 3.29zm-134 52.2c-1.14 0.211-2.29 0.422-3.47 0.64-33.2 6.32-65 16.6-95.6 31.1-1.41 0.665-1.41 0.665-2.85 1.34-27.5 13.1-53.7 29.2-77.2 48.7-0.832 0.688-0.832 0.688-1.68 1.39-6.45 5.35-12.8 10.8-19 16.5-1.64 1.49-3.31 2.95-4.98 4.41-1.24 1.08-1.24 1.08-2.51 2.17-0.745 0.638-1.49 1.28-2.26 1.93-1.85 1.48-1.85 1.48-1.62 3.63l-3 1c-1.65 1.62-1.65 1.62-3.25 3.62-2.28 2.69-4.58 5.24-7.12 7.69-3.73 3.67-6.98 7.68-10.3 11.8-2.33 2.87-4.72 5.68-7.12 8.49-11.3 13.6-21.1 28.3-30.2 43.4-0.488 0.807-0.976 1.61-1.48 2.45-13.1 21.8-23.9 44.7-32.5 68.6l-1.04 2.88c-8.97 25.1-15 50.8-19 77.1l-0.5 3.16c-5.34 35.2-5.11 73.7 0.5 109 0.166 1.14 0.333 2.28 0.504 3.45 5.97 40.8 18.2 81.8 37.4 118 1.23 2.36 2.43 4.74 3.63 7.11 6.17 12.1 13 23.7 20.5 35 0.469 0.71 0.939 1.42 1.42 2.15 11.5 17.3 24.6 33.3 38.6 48.7 1.69 1.89 3.3 3.81 4.88 5.79 0.681 0.784 1.36 1.57 2.06 2.38h2c0.268 0.598 0.536 1.2 0.812 1.81 1.19 2.19 2.28 3.6 4.19 5.19h2l1 3c1.49 1.55 1.49 1.55 3.38 3.06 3.33 2.82 6.56 5.72 9.75 8.69 6.35 5.78 13.1 11 19.9 16.2 0.631 0.488 1.26 0.975 1.91 1.48 69.3 53.5 156 81.8 243 81.7 0.946-6.04e-4 1.89-0.00121 2.87-0.00183 63.8-0.11 126-16 182-45.2 1.25-0.643 2.5-1.28 3.75-1.92 35.8-18.2 67.8-43.5 96.1-71.8 1.62-1.62 3.24-3.22 4.87-4.83 6.52-6.48 12.5-13.2 18.2-20.4 1.07-1.29 2.15-2.58 3.23-3.87 13.6-16.3 25.2-33.8 35.8-52.1 0.438-0.755 0.876-1.51 1.33-2.29 16.5-28.5 28.8-59 37.7-90.7 0.415-1.48 0.415-1.48 0.839-3 6-21.8 10.3-44.4 12.2-67 0.129-1.51 0.129-1.51 0.261-3.06 0.852-11.1 0.939-22.2 0.927-33.4-6.04e-4 -0.975-0.00121-1.95-0.00183-2.95-0.0246-14.6-0.326-29.1-2.19-43.6l-0.391-3.16c-9.92-78.2-42.5-157-96.6-215-1.32-1.47-2.63-2.95-3.94-4.44-0.818-0.926-0.818-0.926-1.65-1.87-1.41-1.69-1.41-1.69-3.41-4.69h-2c-0.352-0.841-0.352-0.841-0.711-1.7-3.86-6.89-11.2-12.3-17.1-17.4-2.14-1.87-4.22-3.8-6.29-5.74-6.96-6.5-14.3-12.4-21.9-18.2-0.581-0.443-1.16-0.886-1.76-1.34-69-52.5-153-80.8-240-80.9-3.64-0.00962-7.27-0.0407-10.9-0.0723-21-0.0952-41.8 1.7-62.5 5.56zm-507 494c-0.699 0.037-1.4 0.074-2.12 0.112-13.5 0.858-25.3 7.44-34.4 17.5-8.75 11.8-11.5 22.5-11.4 37.2-0.00545 1.29-0.0109 2.58-0.0165 3.91-0.0146 3.57-0.0108 7.13-0.00387 10.7 0.00426 3.89-0.00889 7.77-0.0198 11.7-0.0167 6.81-0.0224 13.6-0.0207 20.4 0.00241 10.1-0.0123 20.2-0.0305 30.4-0.0301 17-0.0461 34.1-0.054 51.1-0.00783 16.9-0.0214 33.7-0.0428 50.6-0.00133 1.05-0.00265 2.1-0.00402 3.18-0.0054 4.26-0.0108 8.51-0.0163 12.8-0.0501 38.8-0.0857 77.6-0.112 116-0.0252 36.6-0.0596 73.3-0.104 110-0.00207 1.69-0.00207 1.69-0.00419 3.42-0.00557 4.55-0.0112 9.1-0.0167 13.7-0.00278 2.27-0.00556 4.54-0.00834 6.8-0.00277 2.26-0.00555 4.52-0.00833 6.79-0.0441 36-0.0803 72-0.115 108-0.0102 10.5-0.0209 21.1-0.0326 31.6-0.0246 22.2-0.0469 44.3-0.06 66.5-0.00548 9.17-0.0125 18.3-0.024 27.5-0.00952 7.6-0.0158 15.2-0.0174 22.8-9.27e-4 3.83-0.00347 7.66-0.0103 11.5-0.00734 4.11-0.00702 8.23-0.00585 12.3-0.00337 1.21-0.00675 2.41-0.0102 3.65 0.00158 1.09 0.00317 2.17 0.0048 3.29-7.33e-4 0.942-0.00147 1.88-0.00222 2.85-0.0229 2.27-0.0229 2.27 1.12 4.24h50c0.00147-3.75 0.00293-7.5 0.00444-11.4 0.0261-65.6 0.0573-131 0.112-197 8.58e-4 -1.03 0.00172-2.05 0.0026-3.11 0.0187-22.3 0.0382-44.6 0.0587-66.9 0.01-10.9 0.0199-21.9 0.0296-32.8 9.72e-4 -1.09 0.00194-2.18 0.00294-3.3 0.0314-35.3 0.0499-70.6 0.0616-106 0.0121-36.3 0.0373-72.5 0.079-109 0.00587-5.12 0.0116-10.2 0.0172-15.4 0.00167-1.51 0.00167-1.51 0.00337-3.05 0.0175-16.2 0.0213-32.5 0.0199-48.7-0.00108-16.3 0.0123-32.6 0.0405-48.9 0.0163-9.69 0.0215-19.4 0.0108-29.1-0.00606-6.47 0.00234-12.9 0.0225-19.4 0.0111-3.69 0.0159-7.38 0.00302-11.1-0.0137-3.98 0.0035-7.95 0.0237-11.9-0.0089-1.14-0.0178-2.29-0.027-3.46 0.0782-8.01 1.42-15.1 6.36-21.6l1.86-1.54 1.82-1.59c7.76-4.59 15.5-4.92 24.4-4.91 1.26-0.0102 2.52-0.0204 3.82-0.0309 3.43-0.0274 6.85-0.0368 10.3-0.0429 3.59-0.00943 7.18-0.0356 10.8-0.06 6.79-0.0435 13.6-0.0722 20.4-0.0953 7.73-0.0271 15.5-0.071 23.2-0.116 15.9-0.0927 31.8-0.164 47.7-0.222-0.311-1.42-0.623-2.85-0.936-4.27-0.261-1.19-0.261-1.19-0.527-2.4-0.752-3.26-1.68-6.46-2.63-9.68-0.192-0.654-0.384-1.31-0.582-1.98-0.605-2.06-1.21-4.12-1.82-6.17-0.806-2.72-1.61-5.44-2.41-8.16-0.285-0.969-0.285-0.969-0.576-1.96-1.03-3.56-1.93-7.1-2.67-10.7-0.508-3.67-0.508-3.67-2.84-5.66-2.29-0.301-2.29-0.301-4.98-0.247-1.58-0.00629-1.58-0.00629-3.19-0.0127-1.16 0.00562-2.32 0.0112-3.52 0.017-1.22-0.0019-2.44-0.0038-3.7-0.00575-3.36-0.00308-6.71 0.00283-10.1 0.013-3.53 0.00879-7.05 0.00702-10.6 0.00664-5.94 9.38e-4 -11.9 0.00963-17.8 0.0233-6.82 0.0156-13.6 0.021-20.5 0.0203-7.3-6.82e-4 -14.6 0.00631-21.9 0.0154-2.08 0.00211-4.16 0.00284-6.24 0.00324-18-0.0175-18-0.0175-36.1 0.603zm1015 0.564c-0.716 1.99-0.716 1.99-1.23 4.43-0.228 0.962-0.456 1.92-0.691 2.92-0.449 1.96-0.897 3.92-1.34 5.88-1.94 8.2-4.37 16.2-6.86 24.3-0.559 1.81-0.559 1.81-1.13 3.65-0.913 2.95-1.83 5.91-2.74 8.86 0.651 0.00331 1.3 0.00662 1.97 0.01 15.9 0.0813 31.8 0.173 47.6 0.277 7.68 0.05 15.4 0.0965 23 0.134 6.69 0.033 13.4 0.0729 20.1 0.121 3.54 0.0252 7.08 0.047 10.6 0.0606 3.96 0.0153 7.92 0.046 11.9 0.0778 1.16 0.00216 2.33 0.00432 3.53 0.00655 8.87 0.0909 17.2 0.37 24.2 6.31 8.91 10.3 8.15 21.4 8.12 34.6 8.54e-4 1.22 0.00171 2.45 0.00259 3.71 0.00136 3.38-0.00175 6.76-0.00678 10.1-0.00436 3.68-0.00285 7.37-0.00209 11.1 5.32e-4 6.45-0.00263 12.9-0.00823 19.4-0.0083 9.6-0.0108 19.2-0.0121 28.8-0.00233 16.1-0.00918 32.3-0.0185 48.4-0.0126 22-0.0186 44.1-0.0229 66.1-0.00201 10.3-0.00433 20.5-0.00674 30.8-2.41e-4 1.03-4.82e-4 2.06-7.3e-4 3.11-0.00581 24.5-0.0148 48.9-0.0242 73.4-6.2e-4 1.6-6.2e-4 1.6-0.00125 3.24-0.0063 16.3-0.0128 32.6-0.0193 48.8-0.00693 17.4-0.0138 34.7-0.0205 52.1-4.15e-4 1.07-8.29e-4 2.14-0.00126 3.24-0.00944 24.4-0.018 48.9-0.0237 73.3-3.61e-4 1.54-3.61e-4 1.54-7.3e-4 3.11-0.00238 10.2-0.00461 20.5-0.00661 30.7-0.00432 22-0.0114 44-0.024 66.1-0.00917 16-0.0149 32.1-0.0171 48.1-0.00142 9.54-0.00569 19.1-0.0139 28.6-0.00524 6.36-0.00689 12.7-0.00557 19.1 6.44e-4 3.63-3.42e-4 7.26-0.0057 10.9-0.00572 3.9-0.0038 7.8-0.00105 11.7-0.00291 1.14-0.00583 2.28-0.00883 3.46 0.00299 1.55 0.00299 1.55 0.00603 3.13-5.7e-4 1.34-5.7e-4 1.34-0.00115 2.71 0.034 2.43 0.034 2.43 1.12 5.26h50c0.0682-72.1 0.132-144 0.169-216 8.28e-4 -1.6 8.28e-4 -1.6 0.00167-3.23 0.012-23.2 0.0231-46.4 0.0332-69.6 0.00499-11.4 0.0102-22.7 0.0155-34.1 7.85e-4 -1.7 7.85e-4 -1.7 0.00158-3.43 0.017-36.7 0.0471-73.3 0.0839-110 0.0377-37.7 0.0624-75.4 0.0705-113 0.00115-5.32 0.00246-10.6 0.00385-16 2.7e-4 -1.05 5.39e-4 -2.1 8.17e-4 -3.17 0.00473-16.9 0.0233-33.7 0.047-50.6 0.0236-17 0.0325-33.9 0.0267-50.9-0.00304-10.1 0.00507-20.1 0.0292-30.2 0.015-6.73 0.0155-13.5 0.00414-20.2-0.00603-3.83-0.00581-7.67 0.0122-11.5 0.0193-4.14 0.0074-8.27-0.00734-12.4 0.0158-1.77 0.0158-1.77 0.0318-3.58-0.116-14.4-5.05-27.5-14.8-38.2-19.7-18.7-48-14.8-73.1-14.8-3.47 0.00257-6.95 1.74e-4 -10.4-0.00139-5.81-0.0018-11.6 5.41e-4 -17.4 0.00534-6.72 0.00548-13.4 0.00364-20.1-0.00183-5.79-0.00453-11.6-0.00518-17.4-0.00256-3.45 0.00156-6.9 0.00177-10.3-0.00154-3.82-0.00341-7.65 0.00131-11.5 0.0069-1.14-0.00202-2.28-0.00405-3.46-0.00613-1.55 0.00423-1.55 0.00423-3.14 0.00854-1.35 5.66e-4 -1.35 5.66e-4 -2.74 0.00114-2.21-0.0138-2.21-0.0138-4.16 1.13zm-962 100c-0.0997 1.53-0.129 3.07-0.132 4.61-0.00394 1-0.00787 2.01-0.0119 3.04 7.37e-4 1.12 0.00147 2.24 0.00223 3.39-0.00314 1.18-0.00628 2.36-0.00952 3.58-0.00777 3.31-0.011 6.62-0.0124 9.92-0.00262 3.59-0.011 7.17-0.0186 10.8-0.0126 6.3-0.0215 12.6-0.028 18.9-0.00964 9.36-0.025 18.7-0.0414 28.1-0.0292 16.7-0.0527 33.4-0.0737 50.2-0.0184 14.6-0.0387 29.3-0.0608 43.9-0.00146 0.969-0.00293 1.94-0.00443 2.94-0.00594 3.93-0.0119 7.86-0.0178 11.8-0.0559 36.9-0.106 73.8-0.153 111-0.0422 32.8-0.0897 65.7-0.141 98.5-0.0581 36.9-0.113 73.7-0.163 111-0.0053 3.93-0.0106 7.85-0.0159 11.8-0.0013 0.967-0.00261 1.93-0.00395 2.93-0.0198 14.6-0.0421 29.2-0.0655 43.9-0.0266 16.6-0.0497 33.2-0.0681 49.9-0.0104 9.31-0.0235 18.6-0.0406 27.9-0.0111 6.21-0.0186 12.4-0.0232 18.6-0.00268 3.55-0.00699 7.09-0.0156 10.6-0.00924 3.81-0.0109 7.61-0.0116 11.4-0.00395 1.12-0.00789 2.24-0.012 3.39 0.00107 1 0.00214 2.01 0.00324 3.04-0.00118 0.872-0.00236 1.74-0.00358 2.64-0.0946 1.97-0.0946 1.97 1.12 2.96 1.87 0.099 3.74 0.127 5.61 0.127 1.84 0.00451 1.84 0.00451 3.71 0.00911 1.38-0.00169 2.75-0.00346 4.13-0.0053 1.45 0.0017 2.9 0.00385 4.35 0.00641 3.16 0.00461 6.33 0.00601 9.49 0.00503 5.15-0.00159 10.3 0.0036 15.4 0.00963 7.47 0.00813 14.9 0.0131 22.4 0.0163 11.8 0.00549 23.6 0.0224 35.4 0.0413 4.04 0.00636 8.08 0.0127 12.1 0.019 1.01 0.00158 2.02 0.00317 3.06 0.0048 11.5 0.018 23 0.0342 34.5 0.0492 1.05 0.00138 2.1 0.00275 3.19 0.00417 17 0.0219 34.1 0.0327 51.1 0.0402 17.5 0.00808 35 0.0314 52.5 0.068 10.8 0.022 21.6 0.0317 32.4 0.0255 7.4-0.00318 14.8 0.00818 22.2 0.0309 4.27 0.0126 8.53 0.0189 12.8 0.00758 3.91-0.0102 7.82-0.00185 11.7 0.0209 1.41 0.00497 2.82 0.0033 4.23-0.00593 11.1-0.0668 20.2 1.71 29.4 8.06 0.971 0.658 1.94 1.32 2.94 1.99 0.994 0.691 1.99 1.38 3.01 2.09 1.05 0.716 2.1 1.43 3.19 2.17 2.09 1.42 4.17 2.85 6.25 4.28 3.54 2.43 7.11 4.81 10.7 7.18 1.16 0.772 2.32 1.54 3.48 2.32 0.58 0.387 1.16 0.774 1.76 1.17 2.14 1.43 4.28 2.86 6.41 4.29 0.785 0.525 1.57 1.05 2.38 1.59 1.5 1 3 2.01 4.5 3.01 1.39 0.931 2.79 1.85 4.2 2.76 2.4 1.62 2.4 1.62 4.61 3.4 8.52 6.42 16.7 6.22 26.9 6.15 1.81 0.0128 3.62 0.0285 5.43 0.0469 4.89 0.0403 9.78 0.0364 14.7 0.0217 4.1-0.00823 8.2 0.00521 12.3 0.0185 9.67 0.031 19.3 0.026 29-0.00219 9.95-0.0284 19.9 0.00149 29.9 0.0606 8.57 0.049 17.1 0.0627 25.7 0.0484 5.11-0.00827 10.2-0.00387 15.3 0.034 4.81 0.034 9.61 0.0237 14.4-0.0195 1.75-0.00863 3.51-0.00227 5.26 0.021 12.6 0.154 20-2.43 29.9-10.2 1.29-0.872 2.6-1.73 3.91-2.57 1.04-0.697 2.08-1.39 3.15-2.11 1.25-0.835 2.49-1.67 3.74-2.5 0.993-0.665 0.993-0.665 2.01-1.34 5.2-3.48 10.4-6.95 15.6-10.4 3.75-2.5 7.49-4.99 11.2-7.51 2.77-1.86 5.55-3.71 8.34-5.54 0.878-0.575 1.76-1.15 2.66-1.74 0.855-0.539 1.71-1.08 2.59-1.63 0.727-0.461 1.45-0.923 2.2-1.4 7.99-3.85 16.2-3.52 24.9-3.51 1.46-0.00501 2.92-0.0109 4.38-0.0176 4-0.0158 7.99-0.0192 12-0.0206 4.31-0.0037 8.63-0.0189 12.9-0.0326 7.47-0.0223 14.9-0.0373 22.4-0.0474 10.8-0.0146 21.6-0.0401 32.4-0.0683 17.5-0.0455 35-0.0821 52.6-0.113 17-0.0302 34-0.0645 51.1-0.104 1.05-0.00246 2.1-0.00492 3.18-0.00746 5.26-0.0124 10.5-0.0248 15.8-0.0373 43.7-0.104 87.3-0.193 131-0.273 0.0171-66.7 0.033-133 0.0423-200 1.38e-4 -0.987 2.76e-4 -1.97 4.18e-4 -2.99 0.00299-21.4 0.00576-42.9 0.0083-64.3 0.00125-10.5 0.00254-21 0.00387-31.5 1.31e-4 -1.05 2.62e-4 -2.09 3.96e-4 -3.17 0.00427-33.9 0.0118-67.9 0.021-102 0.00942-34.9 0.0156-69.7 0.0176-105 2.88e-4 -4.92 6.14e-4 -9.84 9.62e-4 -14.8 1.01e-4 -1.45 1.01e-4 -1.45 2.04e-4 -2.93 0.00118-15.6 0.00583-31.2 0.0118-46.9 0.00587-15.7 0.00814-31.4 0.00667-47-7.64e-4 -9.33 0.00129-18.7 0.0073-28 0.00373-6.22 0.00388-12.4 0.00103-18.7-0.00152-3.55-0.0014-7.1 0.00305-10.7 0.00475-3.81 0.00188-7.63-0.00184-11.4 0.00263-1.12 0.00525-2.24 0.00796-3.4-0.00225-1.01-0.00449-2.01-0.00681-3.05 1.56e-4 -0.873 3.12e-4 -1.75 4.73e-4 -2.65 0.0926-1.97 0.0926-1.97-1.12-2.97-1.5-0.0979-3.01-0.126-4.52-0.127-0.977-0.00282-1.95-0.00564-2.96-0.00854-1.08 0.00202-2.16 0.00405-3.28 0.00613-1.13-0.00175-2.26-0.0035-3.43-0.00531-3.76-0.00442-7.53-0.00148-11.3 0.00189-2.61-6.73e-4 -5.21-0.00164-7.82-0.0029-5.48-0.00182-11 5.84e-4 -16.4 0.00534-6.33 0.00543-12.6 0.00369-19-0.00183-6.09-0.00509-12.2-0.00454-18.3-0.00162-2.59 6.67e-4 -5.18-1.52e-4 -7.76-0.00248-3.62-0.00254-7.24 0.00134-10.9 0.0069-1.07-0.00202-2.14-0.00405-3.25-0.00613-7.15-0.0769-7.15-0.0769-14.2 1.14-1.6 2.41-2.69 4.44-3.81 7.06-0.684 1.47-1.37 2.94-2.06 4.41-0.349 0.754-0.699 1.51-1.06 2.29-5.89 12.4-13.5 23.9-21.1 35.2-0.661 0.997-0.661 0.997-1.34 2.02-13.3 20-28.5 38.3-44.7 56-0.942 1.05-1.88 2.09-2.82 3.14-0.975 1.08-1.95 2.16-2.93 3.23-1.32 1.47-1.32 1.47-2.67 2.96-2.58 2.66-2.58 2.66-5.41 4.89-0.717 0.585-1.43 1.17-2.17 1.77v2c-0.593 0.264-1.19 0.529-1.8 0.801-2.28 1.24-3.68 2.5-5.45 4.39-53 54.3-130 89.9-203 107-1.06 0.248-2.13 0.497-3.22 0.752-11.5 2.65-23.1 4.72-34.8 6.44-1.04 0.155-2.08 0.31-3.16 0.47-20.1 2.79-40.1 3.72-60.3 3.66-1.13-0.00182-2.26-0.00365-3.42-0.00552-92.8-0.251-190-30.2-263-87.9-1.7-1.33-3.42-2.64-5.15-3.94-11.6-8.75-22.5-18.2-33.1-28.1-1.44-1.32-2.9-2.63-4.36-3.93-27.9-25-51.4-55.7-71.1-87.4-0.499-0.802-0.998-1.6-1.51-2.43-5.79-9.36-11.4-18.7-16-28.7-1.56-3.3-2.38-4.77-5.5-6.85-2.31-0.298-2.31-0.298-4.91-0.247-1.01-0.00419-2.02-0.00839-3.07-0.0127-1.66 0.00843-1.66 0.00843-3.36 0.017-1.17-0.0019-2.34-0.0038-3.54-0.00575-3.87-0.00371-7.75 7e-3 -11.6 0.0182-2.68 0.00119-5.37 0.0017-8.05 0.00139-5.63 9.37e-4 -11.3 0.00962-16.9 0.0233-6.51 0.0157-13 0.021-19.5 0.0203-6.26-6.09e-4 -12.5 0.00449-18.8 0.0128-2.67 0.00319-5.33 0.00536-8 0.00589-3.72 0.00216-7.44 0.0109-11.2 0.0216-1.11-4.53e-4 -2.23-9.06e-4 -3.38-0.00137-1.51 0.0064-1.51 0.0064-3.05 0.0129-0.88 0.00168-1.76 0.00335-2.67 0.00508-1.99-0.091-1.99-0.091-2.99 1.13zm-197 749c-1.3 3.9-0.222 6.43 1 10.2 0.226 0.704 0.451 1.41 0.684 2.13 11.2 33.8 33.6 60.2 65.3 76.7 21.4 10.4 43 12.1 66.4 12.1 2.09 0.00135 4.18 0.00313 6.27 0.00531 5.75 0.00473 11.5 0.00323 17.2 7.22e-4 6.25-0.00163 12.5 0.00251 18.8 0.00591 11 0.00516 21.9 0.00661 32.9 0.00554 11.8-0.00112 23.5-8.9e-5 35.3 0.00357 1.11 3.44e-4 1.11 3.44e-4 2.25 6.96e-4 3.03 9.42e-4 6.05 0.0019 9.08 0.00287 31.6 0.0101 63.1 0.0132 94.7 0.0138 3.4 6.47e-5 6.79 1.33e-4 10.2 2.03e-4 1.26 2.55e-5 1.26 2.55e-5 2.55 5.15e-5 18.7 4.09e-4 37.4 0.0026 56 0.0051 7.69 0.00103 15.4 0.00202 23.1 0.00302 0.85 1.11e-4 1.7 2.21e-4 2.58 3.35e-4 48.7 0.00632 97.4 0.0104 146 0.00999 1.82-1.58e-5 3.65-3.15e-5 5.47-4.72e-5 8.23-7.34e-5 16.5-1.62e-4 24.7-2.54e-4 3.67-4.11e-5 7.34-8.13e-5 11-1.21e-4 1.84-2.04e-5 3.67-4.14e-5 5.51-6.31e-5 58.1-6.8e-4 116 0.00664 174 0.0205 14.6 0.0035 29.3 0.00697 43.9 0.0103 1.35 3.04e-4 1.35 3.04e-4 2.73 6.15e-4 27.8 0.00621 55.5 0.00998 83.3 0.0112 0.872 4e-5 1.74 7.99e-5 2.64 1.21e-4 19.1 8.53e-4 38.3 0.00111 57.4 8.3e-4 6.85-9.65e-5 13.7-1.49e-4 20.5-1.79e-4 1.7-7.91e-6 3.41-1.81e-5 5.11-3.06e-5 27.1-1.76e-4 54.3 0.00552 81.4 0.0142 27.3 0.00865 54.7 0.0108 82 0.00424 3.78-9.12e-4 7.56-0.00176 11.3-0.00256 0.741-1.6e-4 1.48-3.2e-4 2.24-4.85e-4 11.7-0.00235 23.4 2e-3 35.2 0.00916 11.5 0.0069 23.1 0.00647 34.6-0.00119 6.17-0.00389 12.3-0.00462 18.5 0.00346 5.61 0.00729 11.2 0.00533 16.8-0.00392 2.02-0.00172 4.03-1.05e-4 6.05 0.0053 14.1 0.0353 28-0.261 41.6-4.57 0.713-0.221 1.43-0.442 2.16-0.669 17.5-5.54 33.6-14.6 47.2-27 0.771-0.707 0.771-0.707 1.56-1.43 16.9-15.7 33.9-39.2 36-62.8 0.0826-0.893 0.165-1.79 0.25-2.71 0.0591-0.676 0.118-1.35 0.179-2.05-50.2-0.0171-100-0.033-151-0.0423-0.744-1.38e-4 -1.49-2.76e-4 -2.25-4.18e-4 -16.2-0.00299-32.3-0.00576-48.5-0.0083-7.93-0.00125-15.9-0.00254-23.8-0.00387-0.789-1.31e-4 -1.58-2.62e-4 -2.39-3.96e-4 -25.6-0.00426-51.1-0.0118-76.7-0.021-26.3-0.00944-52.6-0.0156-78.8-0.0176-3.71-2.88e-4 -7.43-6.14e-4 -11.1-9.62e-4 -0.731-6.74e-5 -1.46-1.35e-4 -2.21-2.04e-4 -11.8-0.00118-23.5-0.00582-35.3-0.0118-11.8-0.00589-23.6-0.00805-35.5-0.00667-6.4 6.41e-4 -12.8-3.44e-4 -19.2-0.0057-5.87-0.00487-11.7-0.00511-17.6-0.00169-2.12 4.22e-4 -4.24-8.4e-4 -6.36-0.00398-13-0.0229-13-0.0229-26.1 0.382-0.953 0.0453-1.91 0.0906-2.89 0.137-3.31 0.778-5.05 2.37-7.57 4.61-1.84 1.27-3.69 2.52-5.56 3.75-1.59 1.05-1.59 1.05-3.2 2.12-1.07 0.704-2.13 1.41-3.23 2.13-1.94 1.29-3.88 2.58-5.81 3.88-1 0.666-2 1.33-3.03 2.02-2.15 1.43-4.29 2.87-6.44 4.3-3.9 2.61-7.81 5.21-11.7 7.8-0.925 0.615-1.85 1.23-2.8 1.86-3.06 2.03-6.13 4.05-9.2 6.08-1.47 0.977-1.47 0.977-2.97 1.97-1.41 0.924-1.41 0.924-2.84 1.87-1.25 0.824-1.25 0.824-2.52 1.66-8.25 4.82-15.1 5.09-24.6 5.24-1.51 0.0327-3.02 0.0661-4.53 0.1-17.2 0.36-34.3 0.368-51.5 0.355-4.58-0.00259-9.17-1.68e-4 -13.7 0.00139-7.66 0.0018-15.3-5.25e-4 -23-0.00534-8.82-0.00548-17.6-0.00364-26.5 0.00183-7.65 0.00455-15.3 0.00518-22.9 0.00256-4.54-0.00155-9.08-0.00179-13.6 0.00154-4.25 0.0029-8.49 8.59e-4 -12.7-0.00489-1.55-0.00131-3.1-9.59e-4 -4.64 0.00126-22.2 0.0289-33.5-4.94-51.5-17.3-2.19-1.5-4.39-3-6.58-4.49-1.45-0.988-2.89-1.98-4.34-2.97-5.99-4.1-12-8.13-18.1-12.1-4.25-2.83-8.49-5.67-12.7-8.51-0.853-0.558-1.71-1.12-2.59-1.69-1.04-0.783-1.04-0.783-2.1-1.58-4.04-1.97-7.5-1.83-11.9-1.79-1.37-0.00519-1.37-0.00519-2.78-0.0105-3.09-0.00797-6.17 0.00555-9.26 0.0189-2.23-0.00131-4.46-0.00393-6.68-0.00777-6.13-0.00673-12.3 0.00532-18.4 0.0203-5.93 0.0116-11.9 0.00912-17.8 0.00695-12.1-0.00394-24.3 0.00609-36.4 0.0241-12 0.0177-24 0.0293-36.1 0.0326-0.747 2.06e-4 -1.49 4.12e-4 -2.26 6.25e-4 -3.79 0.00101-7.59 0.00192-11.4 0.00278-26.9 0.0063-53.7 0.0265-80.6 0.0549-26.1 0.0275-52.2 0.0488-78.3 0.0615-1.21 5.92e-4 -1.21 5.92e-4 -2.44 0.0012-8.08 0.00396-16.2 0.00778-24.2 0.0115-16.5 0.00761-32.9 0.0161-49.4 0.0251-1.14 6.18e-4 -1.14 6.18e-4 -2.29 0.00125-50.6 0.0276-101 0.0752-152 0.126z" fill="#000002"/>
<path transform="translate(362 975)" d="m0 0c1.55-0.00357 3.1-0.0089 4.65-0.0158 4.25-0.0139 8.5-0.00294 12.8 0.0121 4.63 0.012 9.26 6.74e-4 13.9-0.00764 8.11-0.0114 16.2-0.00787 24.3 0.00537 12.1 0.0196 24.1 0.0164 36.2 0.0085 20.3-0.0126 40.6-0.00621 60.9 0.0112 20.1 0.0172 40.2 0.027 60.3 0.0267 1.25-1.53e-5 2.5-3.06e-5 3.79-4.63e-5 5.07-8.18e-5 10.1-2.13e-4 15.2-4.12e-4 35.4-0.00135 70.8 0.00415 106 0.0257 1 6.09e-4 1 6.09e-4 2.02 0.00123 10.8 0.00662 21.7 0.0136 32.5 0.0206 43 0.0278 85.9 0.0411 129 0.0397 1.36-4.08e-5 2.72-8.12e-5 4.08-1.21e-4 2.71-8.04e-5 5.43-1.62e-4 8.14-2.44e-4 6.08-1.83e-4 12.2-3.52e-4 18.3-4.93e-4 1.35-3.15e-5 2.7-6.44e-5 4.04-9.87e-5 36-8.91e-4 72 0.00806 108 0.0207 1.88 6.61e-4 1.88 6.61e-4 3.81 0.00133 5.05 0.00178 10.1 0.00355 15.2 0.00538 17.6 0.00632 35.2 0.00934 52.8 0.0102 22.7 0.00119 45.3 0.00917 68 0.0289 12 0.0102 24 0.015 36 0.012 8-0.00147 16 0.00433 24 0.0161 4.56 0.00651 9.13 0.00987 13.7 0.00448 4.15-0.00483 8.3-4.52e-4 12.5 0.0112 1.49 0.0026 2.98 0.00187 4.48-0.00263 21.6-0.0599 21.6-0.0599 29.1 6.26 10.2 10.2 9.16 22.4 9.13 36.1 0.00156 1.16 0.00312 2.31 0.00473 3.51 0.00396 3.85 8.39e-4 7.69-0.00232 11.5 8.07e-4 2.77 0.0031 5.54 0.00531 8.31 0.00443 6.73 0.00349 13.5 5.87e-4 20.2-0.00227 5.47-0.00256 10.9-0.00148 16.4 2.3e-4 1.17 2.3e-4 1.17 4.64e-4 2.37 3.2e-4 1.59 6.44e-4 3.18 9.73e-4 4.76 0.00285 14.9-4.2e-4 29.7-0.0058 44.6-0.00446 12.7-0.0037 25.4 9.19e-4 38.2 0.00537 14.8 0.00745 29.6 0.00439 44.4-3.19e-4 1.58-6.33e-4 3.17-9.43e-4 4.75-1.54e-4 0.779-3.09e-4 1.56-4.68e-4 2.36-8.59e-4 5.46 5.84e-4 10.9 0.00295 16.4 0.00282 6.67 0.00201 13.3-0.00328 20-0.0026 3.39-0.00315 6.79-3.51e-4 10.2 0.0175 23.4 0.0175 23.4-0.465 34.3-0.0235 0.703-0.0471 1.41-0.0714 2.13-0.341 6.23-2.58 10.8-6.6 15.5-0.54 0.683-1.08 1.37-1.64 2.07-7.49 6.11-17.4 5.47-26.6 5.61-1.51 0.0327-3.02 0.0661-4.53 0.1-16.2 0.341-32.3 0.365-48.5 0.355-4.43-0.00167-8.86 0.00254-13.3 0.00591-7.73 0.0051-15.5 0.00658-23.2 0.00554-11.5-0.00154-23 0.00267-34.5 0.00787-21.7 0.00962-43.5 0.0125-65.2 0.0131-16.8 4.61e-4 -33.5 0.00253-50.3 0.0057-4.84 8.98e-4 -9.68 0.00179-14.5 0.00267-1.2 2.21e-4 -2.41 4.42e-4 -3.65 6.7e-4 -33.8 0.00614-67.6 0.0101-101 0.00966-1.27-1.56e-5 -2.54-3.12e-5 -3.85-4.72e-5 -6.44-8.31e-5 -12.9-1.82e-4 -19.3-2.85e-4 -1.28-1.99e-5 -2.56-3.99e-5 -3.88-6.04e-5 -2.59-4.04e-5 -5.18-8.22e-5 -7.76-1.25e-4 -40.3-6.14e-4 -80.6 0.00691-121 0.0206-45.4 0.0154-90.7 0.024-136 0.023-4.83-7.46e-5 -9.67-1.23e-4 -14.5-1.54e-4 -1.19-1.17e-5 -2.38-2.33e-5 -3.61-3.53e-5 -19.1-3.08e-5 -38.3 0.00635-57.4 0.015-19.2 0.00848-38.5 0.00947-57.7 0.00289-11.4-0.00369-22.8-0.00186-34.3 0.00794-7.63 6e-3 -15.3 0.0047-22.9-0.00247-4.34-0.00388-8.69-0.00466-13 0.00346-3.96 0.00733-7.92 0.00528-11.9-0.00392-1.42-0.00171-2.83-1.43e-4 -4.25 0.0053-7.34 0.0263-14.6-0.236-21.9-1.02-1.28-0.137-2.55-0.274-3.87-0.415-6.96-1.61-11.6-6.11-15.5-11.8-3.39-7-3.43-14-3.39-21.7-0.00539-1.25-0.0108-2.51-0.0163-3.8-0.0144-3.46-0.0102-6.92-0.00283-10.4 0.00474-3.74-0.00779-7.48-0.018-11.2-0.0172-7.32-0.018-14.6-0.0128-22 0.00405-5.95 0.00259-11.9-0.00275-17.9-7.48e-4 -0.848-0.0015-1.7-0.00227-2.57-0.00153-1.72-0.00307-3.45-0.00461-5.17-0.0137-16.1-0.00829-32.3 0.00319-48.4 0.00993-14.8-0.00301-29.5-0.0269-44.3-0.0244-15.2-0.034-30.3-0.0273-45.5 0.00349-8.51 0.00127-17-0.0163-25.5-0.0147-7.24-0.0153-14.5 0.00207-21.7 0.0085-3.69 0.0107-7.39-0.00465-11.1-0.0164-4.01-0.00168-8.02 0.016-12-0.00961-1.16-0.0192-2.32-0.0291-3.51 0.0793-8.75 1.65-16.5 7.59-23.2 8.74-7.61 19.3-7.7 30.4-7.62zm12.6 50.5c-0.102 1.33-0.136 2.67-0.141 4.01-0.00609 0.869-0.0122 1.74-0.0185 2.63-0.00166 0.965-0.00332 1.93-0.00503 2.93-0.00564 1.02-0.0113 2.03-0.0171 3.08-0.0178 3.44-0.0284 6.87-0.0391 10.3-0.0112 2.45-0.0228 4.9-0.0349 7.36-0.0281 5.98-0.0516 12-0.0728 18-0.0173 4.86-0.0365 9.72-0.0572 14.6-0.00293 0.691-0.00586 1.38-0.00887 2.09-0.00596 1.4-0.0119 2.81-0.0179 4.21-0.0558 13.2-0.105 26.3-0.153 39.5-0.041 11.3-0.0873 22.6-0.137 33.9-0.0581 13.1-0.113 26.2-0.163 39.4-0.0053 1.4-0.0106 2.8-0.0159 4.19-0.00391 1.03-0.00391 1.03-0.00791 2.08-0.0187 4.86-0.0397 9.72-0.0616 14.6-0.0294 6.53-0.0535 13.1-0.0739 19.6-0.00834 2.41-0.0184 4.81-0.0303 7.22-0.0159 3.27-0.0256 6.54-0.0337 9.81-0.00612 0.965-0.0122 1.93-0.0186 2.93-8.76e-4 0.869-0.00175 1.74-0.00265 2.63-0.00288 0.755-0.00575 1.51-0.00871 2.29-0.0679 1.75-0.0679 1.75 1.12 2.72 1.37 0.0993 2.74 0.129 4.11 0.132 0.893 0.00394 1.79 0.00787 2.71 0.0119 0.994-7.37e-4 1.99-0.00147 3.01-0.00223 1.05 0.00314 2.1 0.00628 3.18 0.00952 3.57 0.00942 7.13 0.0116 10.7 0.014 2.56 0.00528 5.13 0.011 7.69 0.0171 5.6 0.0126 11.2 0.0215 16.8 0.028 8.33 0.00964 16.7 0.025 25 0.0414 14.9 0.0292 29.7 0.0527 44.6 0.0737 13 0.0184 26 0.0387 39 0.0608 0.862 0.00146 1.72 0.00293 2.61 0.00443 3.5 0.00594 7 0.0119 10.5 0.0178 32.8 0.0559 65.7 0.106 98.5 0.153 29.2 0.0422 58.4 0.0897 87.6 0.141 32.8 0.0581 65.6 0.113 98.3 0.163 3.49 0.0053 6.98 0.0106 10.5 0.0159 0.86 0.0013 1.72 0.00261 2.61 0.00395 13 0.0198 26 0.042 39 0.0655 14.8 0.0267 29.6 0.0498 44.4 0.0681 8.28 0.0104 16.6 0.0235 24.8 0.0406 6.17 0.0124 12.3 0.0197 18.5 0.0248 2.51 0.00291 5.01 0.00753 7.52 0.014 3.39 0.00848 6.78 0.0109 10.2 0.0116 0.99 0.00395 1.98 0.00789 3 0.012 0.898-0.00107 1.8-0.00214 2.72-0.00324 1.16 0.00177 1.16 0.00177 2.35 0.00358 2.22-0.0485 2.22-0.0485 5.01-1.12v-250c-2.32-1.16-3.65-1.13-6.24-1.13-0.896-0.0025-1.79-0.00501-2.71-0.00759-1.49 0.00351-1.49 0.00351-3.01 0.00709-1.05-0.00145-2.1-0.00291-3.19-0.0044-3.57-0.00368-7.13-1.63e-4 -10.7 0.00326-2.57-0.00115-5.13-0.00274-7.7-0.00473-5.6-0.00362-11.2-0.0035-16.8-9.53e-4 -8.33 0.00377-16.7 0.00185-25-0.00121-14.9-0.00528-29.7-0.00481-44.6-0.00192-13 0.00251-26 0.00317-39 0.00198-0.862-7.64e-5 -1.72-1.53e-4 -2.61-2.31e-4 -3.5-3.11e-4 -7-6.3e-4 -10.5-9.6e-4 -32.8-0.00306-65.7-2.81e-4 -98.5 0.0051-29.2 0.00475-58.4 0.00432-87.6-4.61e-4 -32.8-0.00535-65.6-0.00748-98.4-0.00439-3.49 3.21e-4 -6.98 6.34e-4 -10.5 9.43e-4 -1.29 1.19e-4 -1.29 1.19e-4 -2.61 2.4e-4 -13 0.00114-26-1.97e-4 -39-0.00272-14.8-0.00285-29.6-0.00216-44.4 0.00328-8.28 0.00295-16.6 0.00311-24.9-6.46e-4 -6.17-0.00249-12.3 1.9e-4 -18.5 0.00497-2.51 0.00113-5.02 5.3e-4 -7.53-0.00188-3.39-3e-3 -6.77 3.7e-5 -10.2 0.00472-1.49-0.00351-1.49-0.00351-3.01-0.00709-0.893 0.0025-1.79 0.00501-2.71 0.00759-0.776 6.78e-5 -1.55 1.36e-4 -2.35 2.05e-4 -1.79-0.0661-1.79-0.0661-2.76 1.13zm675 0c-0.102 1.33-0.136 2.67-0.141 4.01-0.00609 0.869-0.0122 1.74-0.0185 2.63-0.00166 0.965-0.00332 1.93-0.00503 2.93-0.00564 1.02-0.0113 2.03-0.0171 3.08-0.0178 3.44-0.0284 6.87-0.0391 10.3-0.0112 2.45-0.0228 4.9-0.0349 7.36-0.0281 5.98-0.0516 12-0.0728 18-0.0173 4.86-0.0365 9.72-0.0572 14.6-0.00293 0.691-0.00586 1.38-0.00887 2.09-0.00596 1.4-0.0119 2.81-0.0179 4.21-0.0558 13.2-0.105 26.3-0.153 39.5-0.041 11.3-0.0873 22.6-0.137 33.9-0.0581 13.1-0.113 26.2-0.163 39.4-0.0053 1.4-0.0106 2.8-0.0159 4.19-0.00391 1.03-0.00391 1.03-0.00791 2.08-0.0187 4.86-0.0397 9.72-0.0616 14.6-0.0294 6.53-0.0535 13.1-0.0739 19.6-0.00834 2.41-0.0184 4.81-0.0303 7.22-0.0159 3.27-0.0256 6.54-0.0337 9.81-0.00612 0.965-0.0122 1.93-0.0186 2.93-8.76e-4 0.869-0.00175 1.74-0.00265 2.63-0.00288 0.755-0.00575 1.51-0.00871 2.29-0.0679 1.75-0.0679 1.75 1.12 2.72 2.25 0.0971 4.51 0.122 6.76 0.12 0.715 8.54e-4 1.43 0.00171 2.17 0.00259 2.42 0.00166 4.83-0.00387 7.25-0.00932 1.72-2.82e-4 3.45-1.24e-4 5.17 4.43e-4 4.7 2.88e-4 9.39-0.00561 14.1-0.0126 4.9-0.00623 9.8-0.00684 14.7-0.00803 9.29-0.00311 18.6-0.0113 27.9-0.0213 10.6-0.0112 21.1-0.0167 31.7-0.0217 21.8-0.0105 43.5-0.0281 65.3-0.0503 0.0253-7.1 0.0428-14.2 0.0549-21.3 0.00504-2.42 0.0119-4.84 0.0205-7.25 0.0121-3.47 0.0178-6.94 0.0222-10.4 0.00516-1.09 0.0103-2.18 0.0156-3.3 7.55e-5 -1 1.51e-4 -2 2.29e-4 -3.03 0.00222-0.886 0.00444-1.77 0.00673-2.68 0.104-2.02 0.104-2.02-1.12-3.02-1.59-0.096-3.19-0.122-4.79-0.12-1.55-0.00206-1.55-0.00206-3.14-0.00417-1.72 0.00539-1.72 0.00539-3.47 0.0109-1.2-1.46e-4 -2.4-2.92e-4 -3.64-4.43e-4 -3.3 5.79e-4 -6.6 0.00561-9.9 0.0126-3.44 0.00623-6.89 0.00684-10.3 0.00803-6.53 0.00311-13.1 0.0113-19.6 0.0213-7.43 0.0112-14.9 0.0167-22.3 0.0217-15.3 0.0105-30.6 0.0288-45.9 0.0503v-48c61.4-0.495 61.4-0.495 124-1v-50c-4.24-0.848-7.63-1.12-11.9-1.11-0.674-1.46e-4 -1.35-2.92e-4 -2.04-4.43e-4 -2.21 6.93e-4 -4.43 0.00846-6.64 0.0163-1.54 0.00187-3.08 0.00329-4.62 0.00429-4.04 0.00381-8.09 0.0136-12.1 0.0247-4.86 0.0121-9.71 0.0166-14.6 0.0225-7.37 0.00968-14.7 0.0288-22.1 0.0462v-48c24.4-0.33 48.8-0.66 74-1v-50c-4.27-0.854-7.7-1.13-12-1.13-1.04-0.00234-1.04-0.00234-2.1-0.00473-2.32-0.00398-4.64-8.32e-4 -6.95 0.00232-1.66-0.00136-3.33-0.00314-4.99-0.00531-4.51-0.00456-9.03-0.00279-13.5 3.79e-4 -4.72 0.00253-9.44 1.84e-4 -14.2-0.00139-7.92-0.00182-15.8 5.78e-4 -23.8 0.00534-9.17 0.00545-18.3 0.00367-27.5-0.00183-7.87-0.00453-15.7-0.00518-23.6-0.00256-4.7 0.00156-9.4 0.00176-14.1-0.00154-4.42-0.00288-8.83-9.05e-4 -13.2 0.00489-1.63 0.00133-3.25 9.33e-4 -4.88-0.00126-2.21-0.00271-4.42 6.68e-4 -6.63 0.00568-1.86 5.66e-4 -1.86 5.66e-4 -3.75 0.00114-2.66-0.188-2.66-0.188-3.75 1.13z" fill="#000002"/>
<path transform="translate(1051 214)" d="m0 0c3.25 2.83 5.94 6.1 8.65 9.44 0.773 0.891 0.773 0.891 1.56 1.8 11.4 13.9 13.6 30.9 12.4 48.2-1.6 12.7-8.14 24-15.8 34.1-2.09 2.78-4.04 5.62-5.98 8.5-6.12 9.09-12.7 17.7-19.5 26.3-1.75 2.22-3.49 4.46-5.22 6.69-11.2 14.4-22.7 28.7-35.3 41.9-0.914 0.969-1.81 1.95-2.7 2.95-0.935 1.05-1.9 2.07-2.9 3.06-2.33 2.62-3.59 4.45-3.48 8.03 0.633 3.02 1.46 5.92 2.37 8.87 0.319 1.12 0.638 2.24 0.966 3.39 1.06 3.7 2.17 7.39 3.27 11.1 0.754 2.59 1.5 5.19 2.24 7.78 1.36 4.73 2.72 9.45 4.1 14.2 3.6 12.3 7 24.7 10.4 37 1.01 3.69 2.03 7.38 3.05 11.1 3.75 13.6 7.43 27.2 11 40.8 2.75 10.5 5.64 20.9 8.6 31.3 3.36 11.9 6.57 23.8 9.68 35.7 1.73 6.63 3.5 13.2 5.38 19.8 0.329 1.17 0.657 2.33 0.996 3.53 0.605 2.14 1.22 4.27 1.85 6.4 3.01 10.7 3.57 19.3-1.96 29.3-4.14 6.75-8.51 13.3-12.9 19.9-1.06 1.57-2.11 3.14-3.17 4.71-2.19 3.25-4.38 6.5-6.57 9.74-2.75 4.07-5.5 8.15-8.24 12.2-2.09 3.11-4.18 6.22-6.28 9.33-0.993 1.48-1.98 2.95-2.98 4.43-1.38 2.06-2.77 4.12-4.16 6.17-0.401 0.598-0.802 1.2-1.22 1.81-5.13 7.57-10 14.1-19.5 15.9-7.71 0.622-14.3 0.268-20.8-4.23-9.17-8.04-13.8-21.8-18.8-32.6-2.45-5.23-5.05-10.3-7.8-15.4-4.13-7.65-7.88-15.4-11.6-23.3-4.87-10.3-9.85-20.4-15.2-30.4-4.51-8.41-8.69-16.9-12.8-25.6-3.26-6.87-6.59-13.7-10-20.5-1.87-3.71-3.73-7.43-5.59-11.2-2.74-5.48-5.49-10.9-8.25-16.4-1.78-3.51-3.55-7.03-5.32-10.5-0.913-1.81-1.83-3.62-2.75-5.43-1.34-2.65-2.68-5.3-4.01-7.96-0.412-0.809-0.825-1.62-1.25-2.45-0.375-0.749-0.749-1.5-1.14-2.27-0.331-0.656-0.662-1.31-1-1.99-0.705-1.77-0.705-1.77-0.705-4.77-4.67 2.46-8 5.74-11.7 9.46-0.625 0.628-1.25 1.26-1.89 1.9-1.99 2-3.97 4.01-5.95 6.01-1.33 1.34-2.66 2.68-4 4.02-2.45 2.47-4.91 4.94-7.35 7.42-2.71 2.74-5.43 5.46-8.15 8.18l-2.34 2.34c-27.7 27.7-27.7 27.7-29.3 29-1.81 1.49-3.05 2.73-4.32 4.7-0.173 2.2-0.173 2.2 0.214 4.57 0.116 0.888 0.232 1.78 0.351 2.69 0.688 4.33 1.5 8.63 2.38 12.9 0.293 1.45 0.293 1.45 0.592 2.92 0.421 2.08 0.844 4.15 1.27 6.23 0.674 3.3 1.34 6.6 2 9.89 1.89 9.37 3.78 18.7 5.7 28.1 1.17 5.75 2.33 11.5 3.49 17.2 0.439 2.18 0.882 4.35 1.33 6.53 6.2 30.1 6.2 30.1 1.4 39-4.4 6.3-9.91 11.7-15.3 17.1-1.13 1.14-2.27 2.28-3.4 3.42-2.36 2.37-4.73 4.74-7.11 7.1-3.03 3.01-6.03 6.04-9.03 9.07-2.33 2.35-4.67 4.7-7.02 7.03-1.11 1.11-2.22 2.23-3.32 3.35-6.95 7.03-13.7 13.6-23.8 15.5-7.42-0.177-13.8-1.03-19.4-6.18-5.22-5.78-8.54-12.1-12-19.1-0.631-1.26-1.26-2.53-1.9-3.79-1.7-3.4-3.39-6.82-5.08-10.2-1.78-3.59-3.56-7.17-5.35-10.8-3.38-6.79-6.76-13.6-10.1-20.4-3.81-7.69-7.64-15.4-11.5-23.1-6.55-13.2-13.1-26.3-19.6-39.5-0.818-1.65-0.818-1.65-1.65-3.33-0.777-1.57-0.777-1.57-1.57-3.17-1.09-2.19-2.2-4.38-3.31-6.57-0.551-1.08-1.1-2.17-1.67-3.29-0.498-0.972-0.996-1.94-1.51-2.94-1.08-2.36-1.08-2.36-1.08-4.36-0.963-0.367-0.963-0.367-1.95-0.742-4.04-1.66-7.98-3.51-11.9-5.38-0.848-0.401-1.7-0.802-2.57-1.22-5.01-2.39-9.93-4.88-14.8-7.53-5.75-3.12-11.6-5.98-17.5-8.77-14.8-7.04-29.5-14.4-44.2-21.8-3.94-1.97-7.88-3.94-11.8-5.91-3.09-1.54-6.18-3.09-9.27-4.63-1.45-0.726-2.9-1.45-4.36-2.18-32.8-16.4-32.8-16.4-36.6-25.9-2.55-8.03-2.18-13.7 1.61-21.2 2.56-4.43 5.97-7.79 9.61-11.3 0.693-0.689 1.39-1.38 2.1-2.09 2.2-2.18 4.41-4.36 6.62-6.53 1.48-1.47 2.96-2.93 4.44-4.4 2.72-2.7 5.45-5.39 8.18-8.08 4.23-4.17 8.42-8.35 12.5-12.7 1.53-1.59 3.06-3.19 4.59-4.78 0.744-0.802 1.49-1.6 2.25-2.43 5.45-5.62 10.2-9.46 18.1-10.5 3.36 0.169 6.65 0.644 9.97 1.14 0.965 0.139 1.93 0.278 2.92 0.421 10.7 1.59 21.3 3.71 31.9 5.88 2.09 0.422 4.18 0.844 6.27 1.27 5.42 1.09 10.8 2.2 16.3 3.3 8.73 1.78 17.5 3.55 26.2 5.31 3.04 0.615 6.07 1.23 9.11 1.85 1.85 0.375 3.7 0.749 5.55 1.12 0.839 0.173 1.68 0.346 2.54 0.524 0.773 0.156 1.55 0.311 2.34 0.471 0.668 0.136 1.34 0.272 2.03 0.413 2.25 0.388 2.25 0.388 5.91 0.288 1.84-1.57 1.84-1.57 3.44-3.69 0.601-0.726 1.2-1.45 1.82-2.2 0.862-1.05 0.862-1.05 1.74-2.11 1.61-1.77 3.23-3.38 5-5h2c0.33-0.99 0.66-1.98 1-3h2c0.33-0.99 0.66-1.98 1-3 1.47-1.24 2.95-2.48 4.46-3.68 1.72-1.39 1.72-1.39 3.48-3.75 2.23-2.77 4.67-4.83 7.4-7.09 2.18-1.94 3.85-4.19 5.66-6.47l2.94-2.44c3.12-2.61 5.47-5.43 8.06-8.56 0.784-0.619 1.57-1.24 2.38-1.88 3.13-2.53 5.52-5.42 8.07-8.52 0.512-0.531 1.02-1.06 1.55-1.61h2c0.33-0.99 0.66-1.98 1-3h2v-2c1.88-2.12 1.88-2.12 4-4h2c-2.04-3.06-2.63-3.54-5.79-4.99-0.818-0.381-1.64-0.762-2.48-1.15-0.924-0.422-1.85-0.844-2.8-1.28-2.12-0.992-4.24-1.99-6.36-2.98-0.586-0.276-1.17-0.551-1.78-0.835-8.27-3.9-16.4-8-24.6-12.1-0.861-0.428-1.72-0.856-2.61-1.3-6.49-3.23-13-6.46-19.5-9.69-0.962-0.479-1.92-0.959-2.92-1.45-9.1-4.53-18.2-9.07-27.3-13.6-11.6-5.76-23.1-11.5-34.7-17.3-8.18-4.07-16.4-8.14-24.5-12.2-4.86-2.43-9.73-4.85-14.6-7.27-4.57-2.26-9.13-4.54-13.7-6.83-1.67-0.833-3.34-1.66-5.01-2.49-21.5-10.6-21.5-10.6-25.7-20.5-2.46-7.48-1.86-13.9 1.31-21.1 2.93-5.23 6.22-7.95 11.1-11.1 0.696-0.464 1.39-0.929 2.11-1.41 1.48-0.989 2.97-1.97 4.46-2.95 2.32-1.53 4.63-3.07 6.94-4.61 3.78-2.53 7.57-5.05 11.4-7.57 2.74-1.82 5.47-3.64 8.2-5.46l9.35-6.23c0.925-0.617 0.925-0.617 1.87-1.25 1.27-0.845 2.54-1.69 3.8-2.53 3.25-2.16 6.5-4.34 9.73-6.55 21.3-14.5 21.3-14.5 32.5-13 2.92 0.634 5.78 1.38 8.66 2.16 1.18 0.308 2.36 0.615 3.58 0.932 4.44 1.16 8.87 2.37 13.3 3.57 1.87 0.506 3.75 1.01 5.62 1.52 12.6 3.41 25.2 6.85 37.8 10.3 13.2 3.61 26.4 7.21 39.5 10.8 2.74 0.748 5.48 1.5 8.23 2.24 16.2 4.41 32.4 8.82 48.6 13.2 0.78 0.212 1.56 0.423 2.36 0.641 7.57 2.05 15.1 4.11 22.7 6.16 18.4 4.99 36.8 10 55.2 15.1v-2c1.4-1.41 1.4-1.41 3.38-3.06 3.2-2.72 6.34-5.48 9.44-8.31 4.29-3.87 8.72-7.55 13.2-11.2 2.73-2.24 5.41-4.53 8.07-6.84 6.49-5.63 13.1-11 20-16.2 2.16-1.63 4.31-3.26 6.47-4.9 74.8-56.7 74.8-56.7 116-26zm-54.4 42.4c-0.54 0.375-1.08 0.75-1.64 1.14-3.59 2.51-7.15 5.06-10.7 7.64-1.52 1.1-3.04 2.2-4.56 3.29-7.16 5.16-14.2 10.5-21.1 15.9-0.572 0.442-1.14 0.885-1.73 1.34-6.99 5.42-13.9 10.9-20.6 16.7-3.26 2.79-6.57 5.49-9.92 8.16-5.92 4.8-11.4 10-16.9 15.3-1.05 0.999-1.05 0.999-2.11 2.02-0.621 0.597-1.24 1.19-1.88 1.81-1.84 1.67-1.84 1.67-4.07 3.26-0.583 0.465-1.17 0.929-1.77 1.41v2c-0.584 0.259-1.17 0.518-1.77 0.785-2.4 1.31-3.97 2.71-5.89 4.65-0.716 0.715-1.43 1.43-2.17 2.17-0.779 0.788-1.56 1.58-2.36 2.39-1.25 1.25-1.25 1.25-2.53 2.53-2.31 2.32-4.62 4.64-6.93 6.97-2.49 2.51-4.98 5.01-7.48 7.51-4.32 4.34-8.64 8.68-13 13-6.83 6.87-13.7 13.7-20.5 20.6-2.34 2.35-4.68 4.69-7.02 7.04-0.585 0.587-1.17 1.17-1.77 1.78-6.66 6.68-13.3 13.4-20 20-0.912 0.916-0.912 0.916-1.84 1.85-9.85 9.89-19.7 19.8-29.5 29.7-10.1 10.2-20.2 20.3-30.4 30.5-6.24 6.26-12.5 12.5-18.7 18.8-4.27 4.3-8.55 8.6-12.8 12.9-2.47 2.47-4.94 4.95-7.39 7.43-2.67 2.7-5.35 5.38-8.04 8.06-1.15 1.17-1.15 1.17-2.32 2.37-5.66 5.59-11.8 10-19.7 11.6-10.8-0.254-21.1-2.54-31.6-4.72-2.08-0.422-4.17-0.843-6.25-1.26-5.46-1.1-10.9-2.22-16.4-3.34-5.53-1.13-11.1-2.26-16.6-3.38-6.24-1.26-12.5-2.53-18.7-3.81-15.6-3.88-15.6-3.88-31.4-5.12-1.92 1.32-1.92 1.32-3.5 3.19-0.593 0.639-1.19 1.28-1.8 1.94-0.562 0.619-1.12 1.24-1.7 1.88-0.908 0.887-1.82 1.77-2.75 2.69-1.96 2.02-3.59 4.05-5.25 6.31 9.82 5.62 19.7 10.9 30 15.7 5.27 2.45 10.4 5.06 15.5 7.83 6.73 3.63 13.6 6.96 20.5 10.2 6.19 2.9 12.3 5.91 18.4 8.99 3.67 1.85 7.36 3.67 11 5.48 1.15 0.568 2.3 1.14 3.48 1.72 2.28 1.12 4.55 2.24 6.83 3.36 14.5 7.21 22 13.6 29.1 28.2 0.875 1.77 1.75 3.53 2.62 5.3 0.933 1.89 1.86 3.77 2.79 5.66 1.94 3.94 3.89 7.88 5.84 11.8 5.2 10.5 10.4 21 15.5 31.4 3.4 6.9 6.81 13.8 10.2 20.7 1.94 3.91 3.87 7.83 5.79 11.8 1.48 3 2.97 6 4.46 8.99 0.529 1.09 1.06 2.18 1.6 3.3 0.742 1.48 0.742 1.48 1.5 2.99 0.425 0.861 0.85 1.72 1.29 2.61 1.25 2.13 1.25 2.13 3.57 2.73 0.605 0.071 1.21 0.142 1.83 0.215 0.364-0.447 0.727-0.895 1.1-1.36 2.54-3.06 4.99-5.84 8.15-8.27 2.95-2.55 3.72-3.69 4.75-7.38-0.182-3.15-0.182-3.15-0.931-6.54-0.124-0.639-0.247-1.28-0.374-1.94-0.413-2.12-0.847-4.24-1.28-6.35-0.297-1.5-0.592-3-0.886-4.5-0.789-4-1.59-8.01-2.4-12-0.83-4.12-1.64-8.24-2.46-12.4-2.76-13.9-5.57-27.8-8.39-41.7-0.192-0.947-0.383-1.89-0.58-2.87-0.845-4.18-1.7-8.35-2.57-12.5-0.293-1.43-0.585-2.86-0.877-4.28-0.246-1.18-0.492-2.36-0.746-3.58-0.868-5.63-0.924-10.3 1.36-15.5 0.348-0.819 0.696-1.64 1.05-2.48 0.353-0.77 0.706-1.54 1.07-2.33 0.468-1.11 0.468-1.11 0.945-2.24 1.05-1.76 1.05-1.76 4.05-2.76 2.21-1.88 2.21-1.88 4-4v-2c0.99-0.33 1.98-0.66 3-1 2.21-1.88 2.21-1.88 4-4v-2c0.99-0.33 1.98-0.66 3-1 1.22-1.45 2.43-2.9 3.61-4.38 2.2-2.55 4.77-4.5 7.39-6.62 2.31-2.06 2.31-2.06 4-4v-2c0.99-0.33 1.98-0.66 3-1 2.21-1.88 2.21-1.88 4-4v-2c0.99-0.33 1.98-0.66 3-1 1.22-1.45 2.43-2.9 3.61-4.38 2.2-2.55 4.77-4.5 7.39-6.62 2.31-2.06 2.31-2.06 4-4v-2c0.99-0.33 1.98-0.66 3-1 2.21-1.88 2.21-1.88 4-4v-2c1.32-0.66 2.64-1.32 4-2v-2c1.32-0.66 2.64-1.32 4-2v-2c0.99-0.33 1.98-0.66 3-1v-2c0.99-0.33 1.98-0.66 3-1 2.21-1.88 2.21-1.88 4-4v-2c0.99-0.33 1.98-0.66 3-1 2.21-1.88 2.21-1.88 4-4v-2c0.99-0.33 1.98-0.66 3-1 2.71-2.38 2.71-2.38 5-5v-2c0.99-0.33 1.98-0.66 3-1 1.35-1.65 2.69-3.32 4-5l3-2v-2c0.99-0.33 1.98-0.66 3-1 2.21-1.88 2.21-1.88 4-4v-2l4-2v-2l4-2v-2c0.99-0.33 1.98-0.66 3-1v-2c0.99-0.33 1.98-0.66 3-1 2.21-1.88 2.21-1.88 4-4v-2c0.99-0.33 1.98-0.66 3-1 2.21-1.88 2.21-1.88 4-4v-2c0.99-0.33 1.98-0.66 3-1 2.71-2.38 2.71-2.38 5-5v-2c0.99-0.33 1.98-0.66 3-1v-2c0.99-0.33 1.98-0.66 3-1 2.21-1.88 2.21-1.88 4-4v-2c0.99-0.33 1.98-0.66 3-1 2.21-1.88 2.21-1.88 4-4v-2l4-2v-2l4-2v-2c0.99-0.33 1.98-0.66 3-1v-2c0.99-0.33 1.98-0.66 3-1 2.21-1.88 2.21-1.88 4-4v-2c0.99-0.33 1.98-0.66 3-1 2.21-1.88 2.21-1.88 4-4v-2c0.99-0.33 1.98-0.66 3-1 1.6-1.57 1.6-1.57 3.16-3.53 4.54-5.35 9.52-10.2 14.5-15.1 4.66-4.61 9.04-9.38 13.3-14.4 1.45-1.61 2.91-3.21 4.38-4.81 3.88-4.3 7.55-8.73 11.2-13.2 2.19-2.66 4.42-5.26 6.68-7.86 14.5-16.7 27.3-34.7 39.9-52.9 0.449-0.643 0.899-1.29 1.36-1.95 4.08-5.93 7.33-10.8 6.51-18.3-1.71-3.67-3.96-6.34-7-9-8.8-2.93-13.8-0.00496-21 5zm-376 25.6c-0.666 0.456-1.33 0.911-2.02 1.38-1.33 0.909-2.65 1.82-3.98 2.74-2.32 1.61-4.66 3.19-7 4.76-0.654 0.443-1.31 0.887-1.98 1.34-1.89 1.19-3.82 2.19-5.83 3.16 1.44 4.32 4.65 5.24 8.5 7.19 0.764 0.396 1.53 0.792 2.31 1.2 5.82 2.99 11.7 5.78 17.7 8.52 5.44 2.53 10.7 5.27 16 8.09 5.93 3.17 11.9 6.19 18 9 6.93 3.19 13.7 6.69 20.4 10.3 5.91 3.14 11.9 6.02 18 8.82 4.55 2.11 8.98 4.37 13.4 6.77 5.9 3.22 11.9 6.14 18 9 6.98 3.28 13.9 6.69 20.7 10.3 0.778 0.412 1.56 0.824 2.36 1.25 2.94 1.56 5.88 3.12 8.8 4.7 1.92 1.03 3.84 2.04 5.77 3.05 1.07 0.571 2.14 1.14 3.24 1.73 3.18 1.19 4.69 1.1 7.88 0.082 0.33-0.99 0.66-1.98 1-3 0.99-0.33 1.98-0.66 3-1 1.21-1.44 2.43-2.89 3.59-4.38 1.45-1.68 2.98-3 4.72-4.38 0.887-0.742 1.77-1.48 2.69-2.25v-2l4-2v-2l4-2v-2c0.99-0.33 1.98-0.66 3-1v-2c0.99-0.33 1.98-0.66 3-1 0.578-0.722 1.15-1.44 1.75-2.19 2.31-2.88 4.75-5.04 7.57-7.39 2.02-1.7 3.92-3.44 5.68-5.42v-2l4-2v-2c0.99-0.33 1.98-0.66 3-1-0.33-0.99-0.66-1.98-1-3-2.47-1.06-2.47-1.06-5.58-1.8-1.81-0.483-1.81-0.483-3.65-0.975-1.34-0.344-2.67-0.687-4.01-1.03-1.38-0.365-2.76-0.731-4.15-1.1-2.95-0.782-5.9-1.56-8.86-2.32-4.66-1.21-9.32-2.44-14-3.68-1.56-0.412-3.11-0.825-4.67-1.24-0.768-0.203-1.54-0.407-2.33-0.616-2.33-0.615-4.65-1.23-6.98-1.84-11.4-3.01-22.8-6.12-34.1-9.33-18.6-5.24-37.2-10.3-55.8-15.4-2.32-0.631-4.65-1.26-6.97-1.89-8.43-2.29-16.9-4.57-25.3-6.84-3.25-0.877-6.5-1.76-9.75-2.64-1.72-0.464-3.45-0.927-5.17-1.39-0.745-0.204-1.49-0.408-2.26-0.618-7.27-1.94-10.6-0.894-16.6 3.31zm320 161c-6.82 6.66-13.6 13.3-20.4 20-3.15 3.11-6.3 6.21-9.47 9.3-3.06 2.98-6.1 5.98-9.12 8.99-1.16 1.15-2.32 2.29-3.49 3.42-1.64 1.59-3.25 3.2-4.86 4.81-0.926 0.91-1.85 1.82-2.81 2.76-2.15 2.53-2.15 2.53-1.68 5.41 0.95 3.78 2.44 7.07 4.19 10.5 0.525 1.06 0.525 1.06 1.06 2.14 1.17 2.36 2.35 4.71 3.54 7.06 0.843 1.69 1.69 3.38 2.53 5.08 2.29 4.59 4.58 9.18 6.88 13.8 2.4 4.8 4.8 9.6 7.19 14.4 4.02 8.06 8.06 16.1 12.1 24.2 4.67 9.31 9.32 18.6 14 28 3.99 8 7.99 16 12 24 2.39 4.78 4.78 9.56 7.16 14.3 2.24 4.49 4.49 8.98 6.74 13.5 0.827 1.65 1.65 3.3 2.47 4.95 1.12 2.25 2.25 4.49 3.38 6.74 0.325 0.659 0.65 1.32 0.985 2 1.63 3.2 2.58 4.69 5.63 6.73 2.55-3.77 5.1-7.54 7.64-11.3 0.864-1.28 1.73-2.57 2.6-3.85 1.25-1.84 2.49-3.69 3.73-5.54 0.389-0.57 0.777-1.14 1.18-1.73 2.81-4.22 4.24-6.53 3.29-11.6-0.332-1.21-0.665-2.41-1.01-3.66-0.188-0.693-0.376-1.39-0.57-2.1-0.653-2.4-1.32-4.79-1.98-7.18-0.483-1.76-0.965-3.53-1.45-5.29-1.13-4.13-2.26-8.26-3.4-12.4-2.11-7.68-4.2-15.4-6.29-23-6.94-25.5-13.9-51.1-20.9-76.6-0.313-1.14-0.627-2.27-0.949-3.45-1.76-6.4-1.76-6.4-3.53-12.8-2.71-9.81-5.39-19.6-7.86-29.5-0.19-0.757-0.38-1.51-0.576-2.29-0.855-3.41-1.69-6.82-2.51-10.2-0.278-1.13-0.556-2.26-0.843-3.42-0.23-0.969-0.461-1.94-0.698-2.94-0.281-0.709-0.563-1.42-0.853-2.15-0.99-0.33-1.98-0.66-3-1z" fill="#000002"/>
<path transform="translate(431 1175)" d="m0 0c1.13-0.00261 2.25-0.00522 3.41-0.0079 1.25 0.00223 2.51 0.00446 3.8 0.00676 1.32-0.00156 2.64-0.00312 4-0.00473 3.68-0.0042 7.36-0.0021 11 9.86e-4 3.96 0.00225 7.92-0.00122 11.9-0.00398 7.77-0.00446 15.5-0.00348 23.3-5.87e-4 6.31 0.00225 12.6 0.00257 18.9 0.00148 0.896-1.53e-4 1.79-3.06e-4 2.72-4.64e-4 1.82-3.2e-4 3.64-6.44e-4 5.46-9.73e-4 17.1-0.00286 34.2 4.33e-4 51.3 0.0058 14.7 0.00447 29.4 0.00369 44-9.19e-4 17-0.00535 34-0.00746 51.1-0.00439 1.81 3.19e-4 3.63 6.33e-4 5.44 9.43e-4 0.892 1.54e-4 1.78 3.09e-4 2.7 4.68e-4 6.3 8.65e-4 12.6-5.98e-4 18.9-0.00295 7.68-0.0028 15.4-0.00206 23 0.00328 3.92 0.00264 7.84 0.00364 11.8 3.51e-4 4.24-0.0035 8.48 6.65e-4 12.7 0.00568 1.25-0.00223 2.51-0.00446 3.8-0.00676 1.13 0.00261 2.25 0.00522 3.41 0.0079 0.98 1.62e-4 1.96 3.25e-4 2.97 4.92e-4 2.19 0.125 2.19 0.125 3.19 1.13 0.0931 1.5 0.117 3.01 0.114 4.52-1.21e-4 0.974-2.42e-4 1.95-3.66e-4 2.95-0.00512 1.03-0.0102 2.06-0.0155 3.13-0.00101 0.943-0.00201 1.89-0.00305 2.86-0.00309 2.08-0.00871 4.16-0.0165 6.24-0.0209 5.6-0.0343 11.2-0.0485 16.8-0.00428 1.66-0.00428 1.66-0.00866 3.36-0.00699 2.71-0.0139 5.43-0.0209 8.14-36.4 0.892-72.7 1.15-109 1.14-5.19-0.00232-10.4-0.00255-15.6-0.00148-0.75 1.53e-4 -1.5 3.06e-4 -2.27 4.64e-4 -1.53 3.2e-4 -3.05 6.44e-4 -4.58 9.73e-4 -14.1 0.00281-28.2-3.68e-4 -42.3-0.0058-12.1-0.00451-24.2-0.00365-36.3 9.19e-4 -14.1 0.00534-28.3 0.00747-42.4 0.00439-1.5-3.18e-4 -3.01-6.33e-4 -4.51-9.43e-4 -0.739-1.54e-4 -1.48-3.09e-4 -2.24-4.68e-4 -5.2-8.62e-4 -10.4 5.91e-4 -15.6 0.00295-6.96 0.00308-13.9 9.14e-4 -20.9-0.00489-2.56-0.00133-5.11-9.32e-4 -7.67 0.00126-3.47 0.00271-6.94-6.64e-4 -10.4-0.00568-1.54 0.00335-1.54 0.00335-3.1 0.00676-0.922-0.00261-1.84-0.00522-2.79-0.0079-0.801-1.62e-4 -1.6-3.25e-4 -2.43-4.92e-4 -1.82-0.125-1.82-0.125-2.82-1.13-0.0983-1.5-0.128-3-0.129-4.5-0.00315-0.958-0.0063-1.92-0.00955-2.9 0.00202-1.04 0.00405-2.08 0.00613-3.16-9.57e-4 -1.06-0.00191-2.12-0.0029-3.22-6.82e-4 -2.25 0.00117-4.5 0.00534-6.75 0.00535-3.46 5.56e-5 -6.91-0.00635-10.4 6.61e-4 -2.18 0.00194-4.36 0.00391-6.54-0.00202-1.04-0.00405-2.08-0.00613-3.16 0.00315-0.958 0.0063-1.92 0.00955-2.9 7.96e-4 -0.847 0.00159-1.69 0.00241-2.57 0.261-3.98 2.91-3.06 6.29-3.06z" fill="#000002"/>
<path transform="translate(431 1075)" d="m0 0c0.767 0.00223 1.53 0.00446 2.32 0.00676 0.809-0.00156 1.62-0.00312 2.45-0.00473 2.73-0.00401 5.46-8.19e-4 8.19 0.00232 1.95-0.00135 3.9-0.00313 5.85-0.00531 5.31-0.00458 10.6-0.00278 15.9 3.79e-4 5.54 0.00252 11.1 1.86e-4 16.6-0.00139 9.31-0.00182 18.6 5.85e-4 27.9 0.00534 10.8 0.00544 21.6 0.00368 32.3-0.00183 9.24-0.00453 18.5-0.00518 27.7-0.00256 5.53 0.00156 11.1 0.00176 16.6-0.00154 5.19-0.00288 10.4-9.05e-4 15.6 0.00489 1.91 0.00133 3.82 9.33e-4 5.74-0.00126 2.6-0.00271 5.2 6.67e-4 7.8 0.00568 1.15-0.00335 1.15-0.00335 2.32-0.00676 5.19 0.0196 5.19 0.0196 6.31 1.13 0.0931 1.5 0.117 3.01 0.114 4.52-1.21e-4 0.974-2.42e-4 1.95-3.66e-4 2.95-0.00512 1.03-0.0102 2.06-0.0155 3.13-0.00101 0.943-0.00201 1.89-0.00305 2.86-0.00412 2.77-0.0134 5.55-0.0241 8.32-0.0176 5.03-0.0287 10.1-0.0414 15.1-0.00552 2.12-0.0111 4.24-0.0166 6.36-0.00239 0.917-0.00479 1.83-0.00726 2.78-0.00171 0.655-0.00342 1.31-0.00518 1.98-40.2 1.04-80.3 1.16-121 1.13-6.85-0.0044-13.7-0.0012-20.6 0.00363-6.69 0.00452-13.4 0.00519-20.1 0.00256-3.96-0.00155-7.92-0.00178-11.9 0.00154-3.68 0.00287-7.35 9.19e-4 -11-0.00489-1.99-0.00196-3.98 0.00103-5.98 0.00413-1.17-0.00282-2.35-0.00564-3.55-0.00854-1.02-3.77e-4 -2.05-7.54e-4 -3.1-0.00114-2.29-0.126-2.29-0.126-3.29-1.13-0.0983-1.5-0.128-3-0.129-4.5-0.00315-0.958-0.0063-1.92-0.00955-2.9 0.00202-1.04 0.00405-2.08 0.00613-3.16-9.57e-4 -1.06-0.00191-2.12-0.0029-3.22-6.82e-4 -2.25 0.00117-4.5 0.00534-6.75 0.00535-3.46 5.56e-5 -6.91-0.00635-10.4 6.61e-4 -2.18 0.00194-4.36 0.00391-6.54-0.00202-1.04-0.00405-2.08-0.00613-3.16 0.00315-0.958 0.0063-1.92 0.00955-2.9 7.96e-4 -0.847 0.00159-1.69 0.00241-2.57 0.266-4.05 3.02-3.06 6.43-3.07z" fill="#000002"/>
</svg>
