<?xml version="1.0" encoding="UTF-8"?>
<svg version="1.1" viewBox="0 0 1600 1600" width="1280" height="1280" xmlns="http://www.w3.org/2000/svg">
<path transform="translate(1207 145)" d="m0 0c22.8 20 35.9 47.7 50.6 73.6 5.03 8.82 10.1 17.6 15.3 26.4 3.56 6.09 7.08 12.2 10.6 18.3 2.85 4.98 5.76 9.93 8.66 14.9 5.88 10.1 11.7 20.2 17.4 30.3 3.38 5.92 6.77 11.8 10.2 17.7 0.337 0.581 0.674 1.16 1.02 1.76 1.59 2.75 3.19 5.49 4.79 8.23 13.7 23.6 13.7 23.6 10.4 36.2-3.34 7.93-11.2 12.9-18 17.7-16.7 12.1-26.3 29.3-29.7 49.5-2.89 20 2.83 39.4 14.5 55.7 6.95 8.9 14.8 15.5 24.8 20.8 0.678 0.379 1.36 0.758 2.05 1.15 16.5 8.82 37.3 9.22 55 4.2 5.72-1.89 11.2-4.33 16.7-6.86 6.18-2.85 12.1-3.69 18.7-1.77 12.8 5.33 19 18.8 25.3 30.5 1.75 3.24 3.51 6.46 5.28 9.68 0.345 0.63 0.689 1.26 1.04 1.91 3.71 6.76 7.61 13.4 11.6 20 2.67 4.49 5.31 9.01 7.94 13.5 0.588 1.01 1.18 2.01 1.78 3.05 4.92 8.45 9.77 16.9 14.6 25.4 4.64 8.14 9.32 16.3 14 24.3 6.73 11.5 13.4 23 20.1 34.6 1.26 2.2 2.52 4.39 3.79 6.58 20.9 36.1 31.2 70.6 20.3 112-4.92 17.3-13.6 32.8-25.2 46.5-0.681 0.871-1.36 1.74-2.06 2.64-2.94 3.58-6.4 6.38-9.94 9.36-0.77 0.681-1.54 1.36-2.33 2.06-9.24 7.95-19.8 14.5-30.7 19.9-0.0103 0.806-0.0206 1.61-0.0312 2.44-0.0987 7.66-0.201 15.3-0.308 23-0.0548 3.94-0.108 7.88-0.158 11.8-0.0484 3.81-0.101 7.63-0.156 11.4-0.0201 1.44-0.0389 2.88-0.0561 4.33-0.0895 7.4-0.261 14.8-0.674 22.2-0.0646 1.19-0.129 2.37-0.196 3.6-0.812 6.19-3.7 10.9-8.23 15.1-7.08 4.72-14 5.66-22.3 6.5-21.1 2.48-38.4 11.1-52.2 27.4-13.7 18-18.2 38.3-15.4 60.6 3.14 18.6 13.6 35.4 28.7 46.7 13.8 9.05 27.1 13.4 43.5 14.8 8.19 0.8 15 2.53 20.4 9.1 0.554 0.648 1.11 1.3 1.68 1.96 6.82 9.89 4.59 24.4 4.57 35.9 0.00136 1.78 0.00314 3.57 0.00531 5.35 0.00454 4.82 0.0028 9.64-3.79e-4 14.5-0.00255 5.08-1.79e-4 10.2 0.00139 15.2 0.00182 8.54-5.7e-4 17.1-0.00534 25.6-0.00542 9.81-0.0037 19.6 0.00183 29.4 0.00457 8.47 0.00516 16.9 0.00256 25.4-0.00154 5.04-0.00181 10.1 0.00154 15.1 0.0204 35.9 0.0204 35.9-0.535 51.1-0.0324 0.941-0.0649 1.88-0.0983 2.85-0.42 9.43-2.12 18.5-4.5 27.7-0.175 0.672-0.35 1.34-0.531 2.04-8.45 31-30.6 56.8-58.2 72.6-36.2 20.2-78.5 16.5-119 16.5-5.4-0.00257-10.8 7.35e-4 -16.2 0.00324-9.44 0.00359-18.9 0.00352-28.3 9.53e-4 -14-0.0038-28.1-0.00184-42.1 0.00121-23.6 0.00495-47.3 0.00515-70.9 0.00242-23.4-0.0027-46.8-0.00375-70.2-0.00248-1.47 7.75e-5 -2.95 1.55e-4 -4.42 2.31e-4 -5.92 3.11e-4 -11.8 6.29e-4 -17.8 9.6e-4 -16.6 9.17e-4 -33.1 0.00149-49.7 0.00179-1.13 2.05e-5 -1.13 2.05e-5 -2.28 4.14e-5 -24 4.09e-4 -48-7.16e-4 -72-0.00289-1.17-1.05e-4 -1.17-1.05e-4 -2.36-2.13e-4 -12.6-0.00114-25.3-0.00236-37.9-0.00359-50.1-0.00485-100-0.00463-150 2.31e-4 -12.6 0.00122-25.2 0.00243-37.8 0.00357-0.777 7.04e-5 -1.55 1.41e-4 -2.35 2.13e-4 -24 0.00216-47.9 0.00307-71.9 0.00264-1.13-2.04e-5 -1.13-2.04e-5 -2.28-4.12e-5 -16.5-3.13e-4 -33.1-9.46e-4 -49.6-0.00187-5.92-3.29e-4 -11.8-6.42e-4 -17.8-9.51e-4 -1.47-7.74e-5 -2.95-1.56e-4 -4.42-2.36e-4 -23.4-0.00127-46.8 1.48e-4 -70.2 0.00285-24.2 0.00277-48.5 0.00172-72.7-0.00353-13.9-0.00292-27.9-0.00315-41.8 6.46e-4 -9.34 0.00226-18.7 8.15e-4 -28-0.0035-5.31-0.00235-10.6-0.00325-15.9 4.06e-4 -18.9 0.0118-37.7-0.0122-56.6-0.403-1.58-0.0314-3.15-0.0588-4.73-0.0814-14.1-0.214-28.6-1.51-42-6.21-1.09-0.375-1.09-0.375-2.2-0.757-14.4-5.2-27.2-12.8-38.9-22.7l-2.32-1.9c-25.8-21.6-38.3-53-41.5-85.6-0.618-7.75-0.492-15.5-0.487-23.3-6e-3 -2.03-0.0128-4.07-0.0204-6.1-0.0175-5.47-0.0223-10.9-0.0236-16.4-0.00143-3.43-0.00571-6.85-0.011-10.3-0.0184-12-0.0267-23.9-0.0251-35.9 0.0012-11.1-0.02-22.3-0.0515-33.4-0.0262-9.59-0.0369-19.2-0.0356-28.8 5.09e-4 -5.71-0.00512-11.4-0.0264-17.1-0.0194-5.37-0.0195-10.7-0.00497-16.1 0.00208-1.96-0.00259-3.93-0.0147-5.89-0.13-22.4-0.13-22.4 6.88-31.1 7.99-6.28 14.9-8.15 24.8-8.94 16.3-1.53 30.3-7.58 42.8-18.1 0.99-0.763 1.98-1.53 3-2.31 2.09-1.54 2.09-1.54 3-3.69h2c0.251-0.539 0.503-1.08 0.762-1.63 1.5-2.88 3.28-5.52 5.05-8.24 4.21-6.68 6.94-13.5 9.19-21.1 0.246-0.816 0.492-1.63 0.746-2.47 2.61-10.5 2.38-23.2-0.309-33.6-0.438-1.95-0.438-1.95-0.438-5.95-7.39 1.91-14.3 4.02-21.2 7.19-7.33 3.23-13.5 4.94-21.4 2.81-9.47-3.76-14.2-11.2-19.1-19.7-1.51-2.65-3.04-5.28-4.57-7.91-7.31-12.6-14.5-25.2-21.7-37.9-6.34-11.1-12.7-22.2-19.1-33.2-1.88-3.26-3.76-6.53-5.64-9.79-6.05-10.5-12.1-21-18.2-31.4-1.73-2.97-3.47-5.94-5.2-8.92-1.24-2.12-2.47-4.24-3.71-6.35-4.41-7.55-8.77-15.1-13.1-22.7l-1.52-2.65c-17.1-30-23.9-63.8-14.9-97.6 6.04-21.2 16.8-39.3 31.4-55.7 0.572-0.657 1.14-1.31 1.73-1.99 11.3-12.1 26.8-20.1 41-28.2 4.3-2.45 8.58-4.93 12.9-7.41 6.55-3.79 13.1-7.56 19.7-11.3 11.6-6.67 23.2-13.4 34.7-20.1 17-9.91 34-19.7 51-29.4 10.2-5.84 20.4-11.7 30.6-17.6 3.31-1.91 6.62-3.82 9.93-5.72 10.5-6.04 21-12.1 31.4-18.2 13.7-8.02 27.5-16 41.3-23.9 3.28-1.89 6.56-3.78 9.83-5.67 1.08-0.622 2.16-1.24 3.27-1.88 7.17-4.14 14.3-8.31 21.5-12.5 9.82-5.74 19.7-11.4 29.6-17 11.1-6.35 22.2-12.8 33.3-19.2 3.26-1.88 6.53-3.76 9.79-5.64 10.5-6.05 21-12.1 31.4-18.2 17-9.91 34-19.7 51-29.4 16.4-9.34 32.7-18.8 48.9-28.3 10.6-6.17 21.2-12.3 31.8-18.4 5.43-3.13 10.9-6.26 16.3-9.39 6.52-3.76 13-7.53 19.6-11.3 10.7-6.17 21.4-12.4 32.1-18.6 7.05-4.12 14.1-8.19 21.2-12.2 5.84-3.27 11.6-6.64 17.4-10 8.89-5.2 17.8-10.3 26.8-15.4 9.72-5.54 19.4-11.1 29.1-16.8 10.5-6.16 21.1-12.2 31.7-18.3 3.24-1.87 6.47-3.74 9.71-5.61 10.6-6.14 21.3-12.3 31.9-18.3 10.3-5.86 20.5-11.8 30.7-17.7 12.7-7.43 25.5-14.8 38.2-22.1 3.28-1.89 6.56-3.78 9.83-5.67 1.08-0.622 2.16-1.24 3.27-1.88 7.17-4.14 14.3-8.31 21.5-12.5 9.82-5.74 19.7-11.4 29.6-17 7.91-4.51 15.8-9.04 23.7-13.6 1.06-0.61 2.12-1.22 3.21-1.85 5.5-3.17 11-6.35 16.5-9.54 6.38-3.71 12.8-7.39 19.2-11 0.824-0.472 1.65-0.945 2.5-1.43 10.4-5.94 20.9-10.4 32.5-13.6 0.988-0.267 0.988-0.267 2-0.539 38.3-9.74 80.6 1.13 110 26.5zm-164 55.5c-6.37 3.73-12.8 7.42-19.2 11.1-8.31 4.78-16.6 9.6-24.9 14.4-9.82 5.74-19.7 11.4-29.6 17-11.1 6.35-22.2 12.8-33.3 19.2-5.4 3.12-10.8 6.24-16.2 9.36-1.07 0.618-2.14 1.24-3.25 1.87-5.44 3.14-10.9 6.28-16.3 9.41-26.9 15.5-26.9 15.5-53.5 31.3-5.22 3.14-10.5 6.08-15.9 8.93 3.05 1.01 3.05 1.01 6 0 8.25-0.579 15.1 0.927 21.5 6.46 2.71 2.81 4.53 6.09 6.43 9.48 0.425 0.745 0.851 1.49 1.29 2.26 1.28 2.26 2.53 4.53 3.77 6.81 0.369 0.675 0.738 1.35 1.12 2.04 4.62 8.55 8.2 15.9 5.67 25.7-1.83 5.31-4.33 9.71-9.22 12.6-7.04 3.21-13.3 5.2-21 2.9-7.93-3.26-12.2-8.7-16.5-15.8-0.432-0.7-0.865-1.4-1.31-2.12-13-21.3-13-21.3-10.3-33.5 1.69-4.89 4.36-8.73 7.5-12.8-3.64 1.37-6.97 3-10.4 4.91-1.02 0.573-2.05 1.15-3.1 1.74-1.08 0.612-2.17 1.22-3.29 1.86-1.13 0.634-2.26 1.27-3.42 1.92-6.74 3.8-13.4 7.66-20.1 11.6-6.72 3.98-13.5 7.85-20.3 11.7-8.88 5.06-17.7 10.2-26.6 15.3-16 9.38-32.1 18.7-48.3 27.8-5.21 2.92-10.4 5.95-15.5 8.99-6.47 3.82-13 7.58-19.5 11.3-1.11 0.637-2.21 1.27-3.35 1.93-3.4 1.96-6.81 3.92-10.2 5.88-4.38 2.52-8.75 5.04-13.1 7.56-1.08 0.622-2.16 1.24-3.27 1.88-7.17 4.14-14.3 8.31-21.5 12.5-8.64 5.05-17.3 10-26 15-17.4 9.91-34.7 19.9-52 30-9.27 5.42-18.6 10.8-27.9 16.1-9.12 5.2-18.2 10.5-27.3 15.8-12.7 7.43-25.5 14.8-38.2 22.1-3.28 1.89-6.56 3.78-9.83 5.67-1.61 0.93-1.61 0.93-3.26 1.88-7.28 4.2-14.5 8.44-21.8 12.7-8.68 5.08-17.4 10.1-26.2 15-7.86 4.43-15.7 8.96-23.4 13.5-7.38 4.32-14.8 8.6-22.2 12.9-8.35 4.81-16.7 9.64-25 14.5-17.9 10.4-35.8 20.8-53.8 31-11.7 6.67-23.4 13.4-35 20.1-3.26 1.88-6.53 3.76-9.79 5.64-11.5 6.61-22.9 13.2-34.4 19.9-5.31 3.11-10.6 6.18-16 9.21-1.17 0.665-2.34 1.33-3.51 2-2.21 1.26-4.43 2.51-6.66 3.75-19.2 10.9-33.9 26-40.9 47.3-6.94 25.8-0.621 46.6 12.1 69.1 0.671 1.19 1.34 2.39 2.01 3.58 5.53 9.84 11.2 19.6 16.9 29.4 2.23 3.81 4.46 7.62 6.69 11.4 0.584 0.999 1.17 2 1.77 3.03 4.56 7.82 9.06 15.7 13.5 23.5 5.53 9.71 11.1 19.4 16.8 29 4.46 7.62 8.89 15.3 13.3 22.9 0.619 1.07 1.24 2.14 1.88 3.25 3.41 5.91 6.77 11.8 10.1 17.8 5.58-0.49 10.9-1.36 16.4-2.5 5.85-1.2 11.6-2.21 17.6-2.5 1.59-0.0793 1.59-0.0793 3.21-0.16 34.7-0.865 65.8 12 91.1 35.4 8.4 8.05 15.2 17.5 20.7 27.7 0.862 1.59 0.862 1.59 1.74 3.2 15.8 30.3 18 64.1 7.97 96.6-6.27 19.4-17.7 41.1-34.7 53.2 0.589 3.98 1.82 6.81 3.85 10.3l1.81 3.1 1.97 3.33c0.68 1.16 1.36 2.32 2.04 3.49 1.41 2.41 2.82 4.83 4.24 7.24 3.23 5.51 6.41 11.1 9.6 16.6 1.25 2.16 2.5 4.33 3.75 6.49 2.51 4.36 5.03 8.72 7.54 13.1 1.26 2.18 2.52 4.37 3.78 6.55 0.621 1.08 1.24 2.15 1.88 3.26 3.6 6.25 7.23 12.5 10.9 18.7 5.41 9.23 10.7 18.5 15.9 27.9 5.45 9.77 11 19.5 16.8 29.1 0.38 0.63 0.759 1.26 1.15 1.91 12 19.8 27.9 34.4 50.5 40.6 21.8 4.46 40.2 0.0543 59.3-10.5 0.936-0.514 1.87-1.03 2.83-1.56 12.3-6.75 24.4-13.7 36.5-20.7 5.08-2.96 10.2-5.87 15.3-8.78 6.17-3.52 12.3-7.07 18.4-10.7 7.45-4.41 15-8.71 22.5-13 9.87-5.62 19.7-11.3 29.5-17 7.3-4.27 14.6-8.5 21.9-12.7 8.35-4.81 16.7-9.64 25-14.5 17.9-10.4 35.8-20.8 53.8-31 11.7-6.67 23.4-13.4 35-20.1 3.26-1.88 6.53-3.76 9.79-5.64 11.5-6.62 23-13.3 34.4-19.9 8.43-4.92 16.9-9.8 25.3-14.7 7.21-4.15 14.4-8.34 21.6-12.5 9.27-5.42 18.6-10.8 27.9-16.1 8.1-4.61 16.2-9.27 24.2-14 8.63-5.06 17.3-10 26-15 9.72-5.54 19.4-11.1 29.1-16.8 8.38-4.9 16.8-9.76 25.2-14.6 7.47-4.3 14.9-8.64 22.4-13 7.05-4.12 14.1-8.19 21.2-12.2 5.84-3.27 11.6-6.64 17.4-10 8.89-5.2 17.8-10.3 26.8-15.4 9.72-5.54 19.4-11.1 29.1-16.8 11.6-6.79 23.3-13.5 34.9-20.2 4.2-2.42 8.39-4.84 12.6-7.26 1.68-0.97 3.37-1.94 5.05-2.91 1.02-0.59 2.05-1.18 3.1-1.79 0.898-0.517 1.8-1.03 2.72-1.57 2.53-1.47 5.04-2.97 7.54-4.48-0.572-3.65-1.54-6.31-3.43-9.47-0.484-0.819-0.968-1.64-1.47-2.48-0.507-0.842-1.01-1.68-1.54-2.55-1-1.68-2-3.35-3-5.03-0.444-0.738-0.888-1.48-1.35-2.24-3.5-6.41-4.08-12-3.22-19.2 2.22-7.39 6.25-12.3 13-16 7.3-2.82 13.4-2.44 20.7-0.145 6.22 3.08 9.51 7.45 12.8 13.3 0.769 1.33 1.54 2.66 2.31 3.98 0.555 0.972 0.555 0.972 1.12 1.96 1.51 2.62 3.07 5.21 4.63 7.8 0.812 1.35 1.62 2.71 2.44 4.06 3.49-0.669 6.11-2.07 9.16-3.85 1.54-0.895 1.54-0.895 3.11-1.81 1.11-0.649 2.21-1.3 3.35-1.97 1.16-0.677 2.33-1.35 3.49-2.03 2.42-1.41 4.84-2.82 7.26-4.23 5.63-3.29 11.3-6.54 16.9-9.8 1.63-0.938 1.63-0.938 3.28-1.9 7.47-4.31 15-8.59 22.4-12.9 10.2-5.84 20.4-11.7 30.6-17.6 4.36-2.52 8.73-5.04 13.1-7.56 2.16-1.25 4.32-2.49 6.48-3.74 5.44-3.14 10.9-6.28 16.3-9.41 11.5-6.62 22.9-13.3 34.4-19.9 7.33-4.28 14.7-8.53 22-12.8 11.5-6.62 23-13.3 34.4-20 2.34-1.37 4.69-2.73 7.04-4.08 18.9-11 34.3-25.9 40.5-47.4 8.72-34.1-6.84-59.3-23.5-87.8-4.03-6.88-7.98-13.8-11.9-20.7-4.96-8.82-10-17.6-15.1-26.3-4.29-7.34-8.56-14.7-12.8-22.1-0.619-1.07-1.24-2.15-1.88-3.25-2.55-4.42-5.1-8.85-7.65-13.3-7.62-13.2-15.3-26.5-23-39.6-0.565 0.126-1.13 0.251-1.71 0.38-1.61 0.358-3.22 0.715-4.84 1.07-2.02 0.452-4.05 0.923-6.06 1.4-31.5 6.6-66.2 1.87-93.6-15.6-5.17-3.45-10-7.23-14.8-11.2-0.871-0.706-1.74-1.41-2.64-2.14-23.2-19.7-36.5-49.5-40.1-79.3-2.78-35.3 7.82-67.9 30.5-95 3.25-3.69 6.69-7.17 10.3-10.6-1.74-4.8-4.16-9.17-6.62-13.6-0.476-0.864-0.952-1.73-1.44-2.62-4.46-8.03-9.14-15.9-13.8-23.8-5.22-8.75-10.3-17.6-15.3-26.5-3.82-6.8-7.72-13.6-11.7-20.3-4.92-8.4-9.82-16.8-14.7-25.2-0.935-1.62-0.935-1.62-1.89-3.27-3.63-6.3-7.21-12.6-10.8-19-15.5-27.6-30.1-47.4-61.5-56.8-36.5-8.8-69.5 17.2-99.1 34.5zm375 707c-0.932 0.549-1.86 1.1-2.82 1.66-1.02 0.606-2.04 1.21-3.09 1.84-2.2 1.29-4.4 2.59-6.59 3.88-0.86 0.506-0.86 0.506-1.74 1.02-6.36 3.73-12.8 7.39-19.2 11-2.37 1.35-4.74 2.7-7.11 4.05-0.585 0.334-1.17 0.668-1.77 1.01-9.36 5.34-18.7 10.7-28 16.1-3.26 1.88-6.53 3.76-9.79 5.64-10.5 6.02-20.9 12.1-31.3 18.2-9.82 5.74-19.7 11.4-29.6 17-11.1 6.35-22.2 12.8-33.3 19.2-5.4 3.12-10.8 6.24-16.2 9.36-2.17 1.25-4.33 2.5-6.5 3.75-13 7.5-13 7.5-16.3 9.38-2.16 1.25-4.32 2.49-6.49 3.74-5.49 3.17-11 6.33-16.5 9.49-10.9 6.27-21.8 12.6-32.5 19.1-4.91 2.98-9.91 5.78-15 8.51-4.52 2.45-9 4.98-13.5 7.52-0.976 0.552-1.95 1.1-2.96 1.67-10.3 5.82-20.5 11.7-30.7 17.8-1.83 1.06-3.69 2.05-5.58 2.98-4.95 2.37-4.95 2.37-7.96 6.69-0.299 2.46-0.294 4.73-0.157 7.21 0.0286 1.62 0.0495 3.24 0.0625 4.86 0.00886 0.796 0.0177 1.59 0.0269 2.41-0.269 7.26-2.28 13.9-7.09 19.4-7.3 5.74-13.9 6.64-23 6-6.06-1.79-12.1-5.51-15.2-11.2-0.264-0.597-0.529-1.19-0.801-1.81-4.21 0.595-7.21 2.05-10.9 4.18-1.14 0.657-2.28 1.31-3.45 1.99-1.22 0.715-2.45 1.43-3.67 2.15-1.27 0.734-2.54 1.47-3.81 2.2-2.55 1.47-5.09 2.95-7.64 4.43-3.92 2.28-7.86 4.52-11.8 6.76-9.19 5.23-18.3 10.5-27.5 15.9-12.8 7.5-25.7 14.9-38.6 22.3-11.6 6.67-23.2 13.4-34.7 20.1-11.5 6.74-23.1 13.4-34.7 20.1-3.42 1.97-6.84 3.95-10.3 5.92-18.9 10.9-18.9 10.9-26.2 15.1-6.03 3.43-12 6.94-18 10.4-8.89 5.2-17.8 10.3-26.8 15.4-17.4 9.91-34.7 19.9-52 30-9.82 5.74-19.7 11.4-29.6 17-11.1 6.35-22.2 12.8-33.3 19.2-5.4 3.12-10.8 6.24-16.2 9.36l-3.25 1.87c-5.44 3.14-10.9 6.28-16.3 9.41-10.7 6.19-21.5 12.4-32.2 18.7-7.73 4.51-15.5 9.01-23.2 13.4-1.53 0.867-3.06 1.74-4.58 2.6-11.7 6.67-23.5 13.3-35.4 19.5v2h501c0.33-9.57 0.66-19.1 1-29 5.47-13.7 5.47-13.7 7.8-15.1l2.2-0.887c0.807-0.365 1.61-0.73 2.45-1.11 7.42-3 13.1-3.7 20.7-1.17 6.17 2.69 10.3 7.05 13.1 13.1 1.65 7.49 1.8 14.9 1.69 22.6-0.0254 1.77-0.0465 3.54-0.0625 5.31-0.0174 1.16-0.0174 1.16-0.0352 2.33-0.0267 2.01-0.0267 2.01 1.1 3.92 35.8 0.0458 71.7 0.081 108 0.102 4.24 0.0025 8.47 0.00509 12.7 0.00773 0.843 5.25e-4 1.69 0.00105 2.56 0.00159 13.6 0.00869 27.3 0.0245 40.9 0.0429 14 0.0187 28 0.0298 42 0.0339 8.64 0.00274 17.3 0.0114 25.9 0.0277 5.93 0.0106 11.9 0.0138 17.8 0.0112 3.42-0.00128 6.83 6.32e-4 10.2 0.0114 3.71 0.00999 7.43 0.00754 11.1 0.0021 1.6 0.00874 1.6 0.00874 3.23 0.0177 21.2-0.0837 39.6-7.61 55-22.3 13.4-15 21.2-32.6 21.1-52.9 8.54e-4 -0.766 0.00171-1.53 0.00259-2.32 0.00164-2.55-0.00384-5.1-0.00932-7.65-2.82e-4 -1.83-1.23e-4 -3.67 4.43e-4 -5.5 2.87e-4 -4.97-0.00559-9.93-0.0126-14.9-0.00626-5.19-0.00684-10.4-0.00803-15.6-0.00311-9.83-0.0113-19.7-0.0213-29.5-0.0112-11.2-0.0167-22.4-0.0217-33.6-0.0104-23-0.028-46-0.0503-69.1-0.682-0.222-1.36-0.444-2.07-0.673-3.13-1.02-6.26-2.05-9.39-3.08-1.07-0.349-2.14-0.698-3.25-1.06-31.7-10.5-55.7-31.9-71.3-61.2-14.9-29.8-17.1-64.1-6.88-95.7 10.9-31.8 33.4-57.1 63.3-72.2 9.47-4.58 19.4-7.26 29.5-10.1v-23c-2.74 0-4.1 1.1-6.46 2.5zm-1145 128c-0.00935 0.804-0.0187 1.61-0.0283 2.44-0.566 38.9-9 74.1-37.7 102-14.6 13.4-31.4 22.5-50.1 28.6-2.32 0.758-4.64 1.53-6.96 2.3-1.2 0.4-1.2 0.4-2.42 0.808-0.602 0.201-1.2 0.402-1.83 0.61-0.156 19.2-0.303 38.4-0.443 57.5-0.065 8.91-0.132 17.8-0.205 26.7-0.0638 7.79-0.123 15.6-0.177 23.4-0.0286 4.1-0.0592 8.21-0.0955 12.3-0.144 16.5-0.189 33 0.121 49.5 0.0272 1.56 0.0485 3.12 0.063 4.68 0.239 23.3 7.44 42.2 23.9 59.1 17.6 16.7 38.8 20.1 62 20 1.8-5.65e-4 3.61-2.45e-4 5.41 8.85e-4 4.86 5.7e-4 9.73-0.0111 14.6-0.0251 5.1-0.0126 10.2-0.0137 15.3-0.0161 9.64-0.0062 19.3-0.0226 28.9-0.0427 11-0.0224 22-0.0334 32.9-0.0434 22.6-0.0209 45.1-0.056 67.7-0.101-2.36-2.46-4.39-3.82-7.5-5.25-31.5-15.4-47.7-41.4-64.5-70.8-2.54-4.42-5.08-8.83-7.62-13.2-0.624-1.08-1.25-2.17-1.89-3.28-4.4-7.63-8.87-15.2-13.5-22.7-2.97-4.89-5.76-9.86-8.48-14.9-7.58-14-15.4-27.8-23.6-41.5-6.15-10.3-12.2-20.8-18.1-31.2-1.79-3.11-3.58-6.21-5.37-9.31-1.09-1.89-2.18-3.78-3.27-5.67-0.498-0.859-0.995-1.72-1.51-2.6-4.78-8.33-8.03-15.6-5.44-25.3 2.68-7.95 7.48-11.8 14.2-16.4 16.5-11.3 28.4-27.1 32.9-46.9 3.29-22.9-1.15-42.8-14.2-61.8-6.41-8.35-13.6-14.7-23.2-19.1z" fill="#000002"/>
<path transform="translate(606 590)" d="m0 0c4.33 3 8.71 5.93 13.1 8.85 0.765 0.508 1.53 1.02 2.32 1.54 1.51 1 3.01 2 4.52 3 3.02 2 6.03 4.01 9.04 6.02 1.21 0.805 2.41 1.61 3.62 2.41 50.6 33.7 50.6 33.7 52.8 35.2 1.52 1.01 3.03 2.02 4.55 3.03 3.96 2.64 7.92 5.28 11.9 7.93 3.41 2.28 6.83 4.56 10.3 6.83 3.88 2.57 7.73 5.18 11.6 7.8 2.63 1.79 5.27 3.57 7.92 5.34 1.3 0.878 2.6 1.76 3.89 2.65 1.81 1.25 3.64 2.48 5.48 3.7 1.06 0.717 2.11 1.43 3.2 2.17 2.8 1.61 2.8 1.61 5.56 0.609 1.16-0.65 1.16-0.65 2.34-1.31 9.05-4.05 18-7.53 27.6-9.88 1.21-0.304 1.21-0.304 2.45-0.615 12.7-2.92 26-2.65 39-2.42 1.51 0.0215 3.03 0.0426 4.54 0.0631 4.01 0.0561 8.01 0.12 12 0.186 3.32 0.054 6.64 0.104 9.95 0.155 8.22 0.125 16.4 0.259 24.7 0.398 6.06 0.102 12.1 0.194 18.2 0.283 4.26 0.0653 8.53 0.139 12.8 0.216 1.9 0.0335 3.81 0.0641 5.71 0.0917 2.59 0.0387 5.18 0.089 7.77 0.143 0.725 0.00838 1.45 0.0168 2.2 0.0254 9.04 0.22 16.6 1.82 23.1 8.35 3.94 5.26 6.17 9.46 6.31 16.1 0.0374 1.08 0.0748 2.17 0.113 3.29-1.1 9.41-7.18 18-11.6 26.2-0.677 1.26-1.35 2.52-2.03 3.78-4.48 8.32-9.05 16.6-13.7 24.8-1.94 3.42-3.84 6.86-5.74 10.3-5.84 10.5-11.7 21-17.6 31.5-1.09 1.94-2.18 3.88-3.27 5.83-5.2 9.3-10.3 18.2-17.4 26.2-0.706 0.825-1.41 1.65-2.14 2.5-12.9 14.7-12.9 14.7-20.2 18-3.92 1.8-5.95 3.15-8.66 6.54-0.611 3.5-0.279 6.88 0.0115 10.4 0.0667 1.09 0.133 2.17 0.202 3.29 0.195 3.09 0.415 6.18 0.642 9.27 0.252 3.53 0.464 7.06 0.681 10.6 0.507 8.16 1.05 16.3 1.61 24.5 0.37 5.46 0.734 10.9 1.1 16.4 1.03 15.5 2.07 31 3.12 46.5 0.583 8.61 1.16 17.2 1.73 25.8 0.299 4.53 0.601 9.05 0.912 13.6 1.14 16.7 2.21 33.3 2.25 50 0.00417 1.16 0.00834 2.33 0.0126 3.53-0.127 18.4-6.97 34.4-19.3 48.1-0.592 0.684-1.18 1.37-1.79 2.07-11.9 12.9-30 20.6-45.1 29.2-1.94 1.1-3.88 2.2-5.8 3.32-0.779 0.449-1.56 0.898-2.36 1.36-0.654 0.383-1.31 0.765-1.98 1.16-6.11 2.84-13.8 2.88-20.1 0.794-7.24-3.09-11.3-7.97-14.9-14.9-0.896-2.31-1.72-4.65-2.49-7.01-0.22-0.669-0.439-1.34-0.665-2.03-0.476-1.45-0.948-2.9-1.42-4.36-1.3-4.03-2.63-8.05-3.96-12.1-0.28-0.853-0.56-1.71-0.848-2.58-3.26-9.9-6.63-19.8-10-29.6-0.643-1.88-1.29-3.77-1.93-5.65-1.9-5.56-3.8-11.1-5.7-16.7-2.21-6.46-4.42-12.9-6.62-19.4-0.273-0.797-0.545-1.59-0.826-2.42-5.66-16.6-11.3-33.2-16.9-49.8-0.697-2.06-1.39-4.12-2.09-6.17-2.51-7.41-5.02-14.8-7.52-22.2-0.916-2.71-1.84-5.41-2.76-8.11-0.464-1.36-0.927-2.73-1.39-4.09-0.374-1.09-0.749-2.18-1.13-3.31-0.744-2.54-0.744-2.54-0.744-5.54-14.1 6.7-28.2 13.5-42.2 20.3-0.793 0.385-1.59 0.771-2.4 1.17-2.32 1.13-4.64 2.25-6.95 3.38-0.733 0.356-1.47 0.713-2.22 1.08-5.38 2.62-10.7 5.31-16 8.05-2.19 1.01-2.19 1.01-4.19 1.01 0.0501 0.662 0.1 1.32 0.152 2.01 0.524 6.94 1.04 13.9 1.56 20.8 0.192 2.59 0.386 5.17 0.582 7.76 0.282 3.73 0.559 7.47 0.834 11.2 0.0875 1.14 0.175 2.28 0.265 3.46 1.9 26.1-1.68 48.1-19 68.4-7.69 8.15-17 13.7-26.7 19.2-0.645 0.369-1.29 0.739-1.96 1.12-8.26 4.59-15.7 7.56-25.2 4.94-9.12-3.43-14-10.5-18.6-18.8-0.545-0.951-1.09-1.9-1.65-2.88-1.17-2.04-2.33-4.08-3.48-6.13-1.82-3.21-3.66-6.4-5.52-9.59-3.78-6.52-7.54-13-11.3-19.6-0.637-1.11-1.27-2.22-1.93-3.36-1.84-3.21-3.68-6.42-5.51-9.64-0.562-0.98-1.12-1.96-1.7-2.97-0.764-1.35-0.764-1.35-1.54-2.72-0.449-0.788-0.898-1.58-1.36-2.39-0.955-1.93-0.955-1.93-0.955-3.93-4.8 0.901-9.59 1.8-14.4 2.71-1.7 0.32-3.4 0.639-5.09 0.958-8.41 1.58-16.8 3.17-25.2 4.91-1.12 0.232-2.23 0.464-3.38 0.702-2.02 0.423-4.04 0.855-6.05 1.3-7.66 1.6-15.9 3.17-23.1-0.639-0.768-0.383-1.54-0.766-2.33-1.16-6.99-5.13-11-12.7-15.2-20.1-0.607-1.05-1.21-2.11-1.84-3.19-21.3-37-21.3-37-18.9-47.8 2.71-8.19 8.63-13.7 14.5-19.7 1.22-1.36 2.43-2.74 3.62-4.12 2.58-2.98 5.22-5.9 7.88-8.81 3.52-3.89 6.76-7.91 9.93-12.1 2.02-2.55 4.2-4.75 6.57-6.98 0.66-0.66 1.32-1.32 2-2-0.0581-6.16-3.61-11.1-6.62-16.2-0.863-1.5-0.863-1.5-1.74-3.03-1.23-2.14-2.47-4.28-3.71-6.41-1.92-3.31-3.83-6.62-5.73-9.93-4.81-8.37-9.64-16.7-14.5-25.1-0.508-0.87-1.02-1.74-1.54-2.64-0.935-1.6-1.87-3.2-2.81-4.8-4.98-8.53-7.22-16.2-4.74-26.2 5.92-13.6 23.9-20.9 36.7-26.6 20.6-7.97 41-6.58 61.1 2.05 9.52 4.66 18.2 11.2 27 17.2 1.09 0.74 2.18 1.48 3.31 2.24 4.7 3.2 9.38 6.4 13.9 9.81 0.959 0.714 0.959 0.714 1.94 1.44 1.62 1.22 3.23 2.46 4.83 3.7 2.51 1.73 2.51 1.73 5.03 1.28 3.03-0.907 5.04-2.16 7.64-3.97 1.05-0.723 2.11-1.45 3.19-2.19 0.598-0.413 1.2-0.827 1.81-1.25 3.98-2.73 8-5.39 12-8.07 1.83-1.22 3.66-2.45 5.49-3.67 0.925-0.618 1.85-1.24 2.8-1.87 1.89-1.26 3.77-2.52 5.66-3.79 2.76-1.85 5.53-3.7 8.3-5.55 1.24-0.835 1.24-0.835 2.51-1.69 5.64-3.76 11.4-7.3 17.2-10.7-1.62-3.41-3.48-5.8-6.06-8.56-3.19-3.48-6.24-7-9.19-10.7-4.1-5.07-8.48-9.81-12.9-14.6-4.04-4.32-7.8-8.8-11.5-13.4-2.66-3.2-5.46-6.24-8.31-9.28-3.63-3.87-7.12-7.79-10.4-11.9-3.51-4.38-7.22-8.48-11.1-12.6-4.63-4.91-8.97-9.95-13.2-15.2-2.66-3.2-5.46-6.24-8.31-9.28-3.65-3.9-7.16-7.83-10.5-12-4.34-5.4-9-10.4-13.7-15.5-3.35-3.59-6.57-7.27-9.77-11-0.959-1.09-1.92-2.19-2.88-3.28-16.5-18.9-16.5-18.9-17.4-29 0.747-8.81 3.93-14.6 10.3-20.7 3.19-2.33 6.55-4.26 10-6.19 1.43-0.817 1.43-0.817 2.88-1.65 2.01-1.15 4.02-2.29 6.04-3.42 3.07-1.74 6.13-3.51 9.18-5.29 44-25.6 75.7-16.2 116 11.8zm-90 30.8c1.5 3.45 3.5 5.82 6.06 8.56 3.21 3.5 6.28 7.05 9.25 10.8 3.89 4.81 8.02 9.34 12.2 13.9 3.9 4.19 7.52 8.56 11.1 13 2.68 3.21 5.49 6.26 8.34 9.31 4.44 4.74 8.59 9.62 12.7 14.7 3.16 3.79 6.53 7.38 9.9 11 3.1 3.33 6.04 6.72 8.88 10.3 4.59 5.71 9.56 11 14.6 16.4 3.43 3.66 6.74 7.4 10 11.2 1.45 1.7 2.9 3.39 4.35 5.09 1.05 1.23 2.1 2.45 3.15 3.68 4.11 4.8 8.28 9.54 12.5 14.2 4.17-0.606 7.24-2.98 10.6-5.31 1.35-0.918 2.71-1.84 4.06-2.75 0.708-0.482 1.42-0.965 2.14-1.46 3.58-2.43 7.19-4.82 10.8-7.22 1.51-1.01 3.03-2.02 4.54-3.03 3.43-2.29 6.86-4.57 10.3-6.85 0.922-0.613 1.84-1.23 2.79-1.86 1.77-1.18 3.54-2.35 5.31-3.53 5.87-3.91 11.7-7.92 17.4-12-1.49-4.5-5.02-6.15-8.89-8.42-1.47-0.888-2.93-1.78-4.4-2.67-0.773-0.472-1.55-0.944-2.34-1.43-4-2.49-7.9-5.13-11.8-7.78-0.82-0.556-1.64-1.11-2.49-1.68-1.72-1.17-3.44-2.33-5.16-3.5-16.8-11.4-33.7-22.7-50.7-33.8-10.4-6.84-20.8-13.7-31.1-20.7-0.972-0.661-1.94-1.32-2.95-2-4.65-3.16-9.3-6.34-13.9-9.52-16.5-12.4-16.5-12.4-35.9-16.9-8.14 1.68-14.7 5.66-21.4 10.5zm248 119c-7.98 5.54-16.1 10.9-24.2 16.2-4.14 2.71-8.28 5.43-12.4 8.15-0.838 0.55-1.68 1.1-2.54 1.67-11.6 7.63-23.2 15.3-34.7 23.1-4.81 3.22-9.63 6.43-14.4 9.64-5.6 3.73-11.2 7.47-16.8 11.2-18.4 12.3-36.8 24.5-55.3 36.6-6.22 4.05-12.4 8.16-18.6 12.3-3.06 2.05-6.13 4.09-9.2 6.14-1.27 0.844-2.53 1.69-3.8 2.53l-7.03 4.69c-0.555 0.37-1.11 0.74-1.68 1.12-1.19 0.794-2.38 1.59-3.57 2.38-4.01 2.67-8.02 5.35-12 8.03-10.5 6.99-20.9 14-31.4 20.9-0.859 0.565-1.72 1.13-2.6 1.71-4.28 2.81-8.56 5.62-12.8 8.43-1.58 1.04-3.16 2.07-4.74 3.11-0.725 0.474-1.45 0.948-2.2 1.44-3.26 2.14-6.48 4.29-9.56 6.69 0.586 3.94 1.78 6.73 3.81 10.1 0.578 0.981 1.16 1.96 1.75 2.97 0.62 1.04 1.24 2.07 1.88 3.14 1.28 2.15 2.55 4.3 3.83 6.46 0.948 1.59 0.948 1.59 1.92 3.22 1.65 2.79 3.26 5.59 4.87 8.4 0.451 0.787 0.901 1.57 1.37 2.38 0.832 1.46 1.66 2.91 2.48 4.38 2.17 3.96 2.17 3.96 6.11 5.92 2.51-1.16 4.85-2.39 7.25-3.75 6.31-3.48 12.7-6.7 19.2-9.75 11.3-5.34 22.4-10.9 33.6-16.5 0.898-0.45 1.8-0.9 2.72-1.36 6.54-3.28 13.1-6.56 19.6-9.84 6.57-3.3 13.1-6.6 19.7-9.89 2.59-1.3 5.17-2.6 7.76-3.89 8.4-4.21 16.8-8.35 25.4-12.3 4.77-2.21 9.42-4.62 14-7.12 7.14-3.84 14.4-7.39 21.7-10.8 4.93-2.31 9.81-4.69 14.7-7.13 7.26-3.64 14.5-7.25 21.8-10.9 11.5-5.69 22.9-11.4 34.4-17.1 6.9-3.43 13.8-6.86 20.7-10.3 6.08-3.01 12.1-6.03 18.2-9.05 3.19-1.59 6.39-3.18 9.59-4.76 18.3-8.8 18.3-8.8 34.6-20.6 0.814-0.704 1.63-1.41 2.47-2.13 12.8-11.5 20.3-29.5 28.5-44.3 2.5-4.56 5.02-9.11 7.55-13.7 1.1-1.99 2.21-3.98 3.31-5.98 0.715-1.29 1.43-2.58 2.15-3.86 0.998-1.8 1.99-3.59 2.99-5.39 0.57-1.03 1.14-2.05 1.73-3.11 1.44-2.58 1.44-2.58 2.34-5.57-8.68-0.84-17.3-1.21-26-1.35-1.3-0.0232-2.61-0.0463-3.95-0.0702-2.74-0.048-5.48-0.093-8.22-0.136-3.47-0.0547-6.94-0.119-10.4-0.185-3.37-0.0628-6.73-0.117-10.1-0.171-1.22-0.0239-2.45-0.0478-3.71-0.0724-24.2-0.346-42.2 4.21-61.9 18zm-328 101c-1.38 3-1.38 3 0.26 5.74 0.637 1.09 1.27 2.17 1.93 3.29 0.342 0.591 0.685 1.18 1.04 1.79 1.1 1.9 2.22 3.79 3.33 5.68 1.09 1.86 2.17 3.72 3.25 5.57 0.709 1.22 1.42 2.43 2.13 3.65 3.13 5.36 6.12 10.8 9.06 16.3 3.89-0.57 6.48-1.69 9.76-3.84 0.873-0.57 1.75-1.14 2.64-1.73 0.898-0.598 1.8-1.2 2.72-1.81 0.906-0.59 1.81-1.18 2.75-1.79 5.39-3.51 5.39-3.51 10.1-7.84-4.38-3.76-8.91-7.13-13.7-10.4-0.701-0.478-1.4-0.955-2.12-1.45-2.06-1.4-4.12-2.79-6.19-4.18-1.07-0.726-2.14-1.45-3.24-2.2-7.96-5.26-14.3-7.19-23.8-6.8zm358 45.8c-6.79 3.66-13.7 7.08-20.6 10.4-10.5 4.94-20.8 10.1-31.1 15.3-1.14 0.572-2.27 1.14-3.44 1.73-1.52 0.767-1.52 0.767-3.06 1.55-2.55 1.22-2.55 1.22-5.55 2.22 0.578 4.96 1.65 9.36 3.3 14.1 0.232 0.668 0.464 1.34 0.703 2.02 0.501 1.44 1.01 2.88 1.51 4.32 1.39 3.95 2.75 7.9 4.12 11.8 0.283 0.816 0.566 1.63 0.858 2.47 2.54 7.31 4.99 14.7 7.42 22 7.86 23.7 15.9 47.4 24 71 1.08 3.16 2.15 6.32 3.23 9.48 1.63 4.8 3.27 9.61 4.91 14.4 0.597 1.75 1.19 3.5 1.79 5.25 0.818 2.4 1.64 4.81 2.46 7.21 0.234 0.687 0.467 1.37 0.708 2.08 1.59 4.64 3.28 9.22 5.01 13.8 9.35-2.21 17.6-9.2 23-17 4.81-10.5 1.85-25.2 1.1-36.4-0.0973-1.49-0.194-2.98-0.291-4.47-0.26-4-0.527-8.01-0.794-12-0.281-4.22-0.556-8.44-0.831-12.7-0.523-8-1.05-16-1.58-24-0.773-11.7-1.54-23.4-2.31-35.1-0.114-1.74-0.228-3.48-0.342-5.22-0.0558-0.851-0.112-1.7-0.169-2.58-0.328-5-0.657-10-0.988-15-0.206-3.12-0.412-6.24-0.618-9.36-0.0975-1.48-0.195-2.96-0.293-4.44-0.628-9.52-1.21-19-1.65-28.6-0.208-2.82-0.602-5.45-1.24-8.2-3.42 0-6.24 2.2-9.19 3.81zm-350 75.2c-1.91 2-3.65 3.98-5.38 6.12-0.469 0.57-0.938 1.14-1.42 1.73-0.939 1.14-1.88 2.29-2.81 3.43-2.11 2.59-4.25 5.15-6.4 7.71 1.57 4.31 3.68 8.06 6 12 9.3-0.448 18-1.84 27-4-1.64-6.18-4.93-11.4-8.12-16.9-0.563-0.975-1.13-1.95-1.71-2.95-1.38-2.39-2.77-4.78-4.17-7.17h-3zm113 42.6c-1.59 0.805-1.59 0.805-3.22 1.63-1.11 0.568-2.23 1.14-3.38 1.72-2.2 1.12-4.39 2.23-6.59 3.34-1.47 0.746-1.47 0.746-2.96 1.51-2.51 1.22-2.51 1.22-5.51 2.22 0.61 2.82 1.46 5.11 2.86 7.62 0.387 0.698 0.774 1.4 1.17 2.11 0.421 0.746 0.843 1.49 1.28 2.26 0.434 0.776 0.869 1.55 1.32 2.35 5.26 9.33 10.8 18.5 16.4 27.6 4.35-2.01 5.38-3.88 7.11-8.29 2.85-8.68 1.81-18 1.01-27-0.0915-1.13-0.183-2.26-0.277-3.43-0.455-5.47-0.986-10.9-1.85-16.3-2.89 0-4.76 1.28-7.34 2.59z" fill="#000002"/>
<path transform="translate(1136 217)" d="m0 0c8.82 5.26 13.4 11.8 18.3 20.8 0.979 1.74 1.96 3.49 2.94 5.23 1.01 1.8 2.01 3.6 3.01 5.4 3.1 5.56 6.3 11.1 9.49 16.6 1.24 2.15 2.48 4.3 3.72 6.46 2.25 3.9 4.51 7.8 6.77 11.7 22.6 38.9 22.6 38.9 20.6 49-2.67 9.51-9.04 15-17.4 19.7-0.986 0.543-1.97 1.09-2.99 1.65-2.16 1.22-4.32 2.45-6.47 3.67-1.11 0.622-2.22 1.24-3.36 1.88-4.32 2.43-8.61 4.92-12.9 7.41-10.9 6.33-21.9 12.6-32.8 18.8-7.55 4.31-15.1 8.65-22.6 13.1-6.18 3.65-12.4 7.21-18.7 10.8-7.05 4.02-14.1 8.06-21.1 12.1-1.08 0.623-2.16 1.25-3.27 1.89-5.11 2.95-10.2 5.9-15.3 8.85-1.75 1.02-3.51 2.03-5.26 3.04-2.19 1.27-4.38 2.53-6.57 3.8-4.94 2.86-9.9 5.69-14.9 8.47-0.866 0.483-1.73 0.965-2.62 1.46-6.2 3.05-13.5 3.32-20.1 1.37-11-4.89-16.1-15.8-21.7-25.9-0.669-1.17-1.34-2.35-2.01-3.52-1.86-3.26-3.71-6.53-5.55-9.79-1.35-2.38-2.71-4.75-4.06-7.12-0.594-1.04-1.19-2.09-1.8-3.16-2.33-4.07-4.7-8.11-7.07-12.2-1.82-3.11-3.63-6.23-5.45-9.34-2.35-4.03-4.71-8.05-7.09-12.1-1.07-1.84-2.15-3.67-3.22-5.51-0.739-1.24-0.739-1.24-1.49-2.5-4.79-8.25-8.31-16.6-5.82-26.1 3.82-11.6 14.8-16.9 24.9-22.5 1.24-0.697 2.48-1.4 3.73-2.1 2.55-1.44 5.1-2.87 7.65-4.3 5.69-3.19 11.3-6.46 17-9.73 1.07-0.617 2.14-1.23 3.24-1.87 7.18-4.15 14.4-8.32 21.5-12.5 17.3-10.1 34.6-20.1 52-30 9.28-5.3 18.6-10.6 27.8-15.9 1.08-0.621 2.16-1.24 3.27-1.88 7.06-4.07 14-8.24 21-12.5 7.85-4.35 16.1-5.02 24.7-2.57zm-25.2 59.9c-1.69 0.967-1.69 0.967-3.4 1.95-1.23 0.712-2.46 1.42-3.69 2.14-1.27 0.729-2.53 1.46-3.8 2.19-3.27 1.88-6.53 3.77-9.8 5.65-2.93 1.7-5.87 3.39-8.8 5.08-3.26 1.88-6.53 3.77-9.79 5.65-6.63 3.83-13.3 7.64-19.9 11.4-8.38 4.78-16.7 9.62-25 14.5-5.49 3.21-11 6.4-16.5 9.56-0.594 0.341-1.19 0.683-1.8 1.03-2.89 1.66-5.77 3.31-8.66 4.96-1.04 0.595-2.07 1.19-3.14 1.8-0.916 0.524-1.83 1.05-2.77 1.59-2.27 1.38-4.37 2.86-6.46 4.5 1.48 3.99 3.37 7.57 5.48 11.3 0.338 0.591 0.676 1.18 1.02 1.79 0.715 1.25 1.43 2.49 2.15 3.74 1.08 1.87 2.15 3.75 3.23 5.62 3.96 6.91 7.98 13.8 12.1 20.6 3.7-0.581 6.44-1.59 9.68-3.45 1.35-0.766 1.35-0.766 2.72-1.55 1.44-0.837 1.44-0.837 2.92-1.69 1.52-0.871 1.52-0.871 3.07-1.76 9.18-5.27 18.3-10.6 27.5-16 9.6-5.61 19.2-11.2 28.9-16.7 3.26-1.88 6.53-3.76 9.79-5.65 1.07-0.619 2.15-1.24 3.25-1.88 2.15-1.24 4.29-2.48 6.43-3.72 5.1-2.95 10.2-5.88 15.3-8.77 2.43-1.37 4.86-2.75 7.29-4.13 1.72-0.977 3.45-1.94 5.18-2.91 1.04-0.59 2.07-1.18 3.14-1.79 0.919-0.517 1.84-1.03 2.78-1.57 2.38-1.38 2.38-1.38 3.09-4.48-1.04-2.55-1.04-2.55-2.68-5.3-0.595-1.05-1.19-2.11-1.8-3.19-0.644-1.12-1.29-2.23-1.95-3.38-0.643-1.13-1.29-2.26-1.95-3.42-3.92-6.86-7.93-13.7-12.2-20.3-1.28-2.08-2.41-4.15-3.45-6.36-3 0-4.82 1.48-7.41 2.97z" fill="#000002"/>
<path transform="translate(1387 650)" d="m0 0c6.2 3.78 11 9.57 13.1 16.5 1.63 7.44-0.0562 13.4-3.56 20-2.85 4.15-5.78 6.36-10.1 8.88-0.638 0.372-1.28 0.745-1.93 1.13-2.31 1.34-4.62 2.67-6.94 4-1.95 1.13-3.9 2.26-5.86 3.39-5.56 3.22-11.1 6.43-16.7 9.63-5.52 3.18-11 6.36-16.6 9.54-1.08 0.62-2.15 1.24-3.26 1.88-6.25 3.6-12.5 7.23-18.7 10.9-10.3 6.03-20.6 11.9-31.1 17.7-6.47 3.61-12.9 7.29-19.3 11.1-9.73 5.77-19.5 11.4-29.3 17-3.12 1.8-6.23 3.61-9.33 5.43-1.87 1.08-3.73 2.17-5.6 3.25-0.842 0.497-1.68 0.995-2.55 1.51-8.26 4.78-15.3 6.77-24.8 4.68-6.61-2.74-11.8-7.74-15.1-14.1-2.79-7.12-2.39-14.1 0.633-21.1 5.17-8.89 14.6-13.5 23.3-18.3 1.24-0.698 2.49-1.4 3.73-2.1 2.55-1.44 5.1-2.87 7.66-4.3 5.65-3.17 11.3-6.42 16.9-9.66 2.15-1.24 4.29-2.48 6.44-3.72 1.59-0.918 1.59-0.918 3.21-1.86 3.26-1.88 6.53-3.76 9.79-5.64 10.5-6.05 21-12.1 31.4-18.2 11.5-6.74 23.1-13.4 34.7-20.1 4.48-2.58 8.95-5.16 13.4-7.74 2.19-1.26 4.38-2.53 6.58-3.79 5.03-2.9 10-5.8 15.1-8.73 0.881-0.513 1.76-1.03 2.67-1.56 1.63-0.95 3.26-1.9 4.88-2.86 0.713-0.415 1.43-0.831 2.16-1.26 0.615-0.36 1.23-0.72 1.86-1.09 6.44-3.41 16.5-3.34 23.1-0.385z" fill="#000002"/>
<path transform="translate(1443 741)" d="m0 0c5.1 5.39 7.94 11.3 8.31 18.8-0.427 8.69-3.81 14.7-10.1 20.5-3.83 2.66-7.85 4.89-11.9 7.12-1.75 0.981-3.5 1.96-5.24 2.94-1.78 1-3.57 2-5.36 2.99-5.19 2.91-10.3 5.92-15.5 8.94-9.4 5.5-18.8 10.9-28.3 16.4-7.43 4.28-14.8 8.6-22.2 12.9-7.66 4.48-15.4 8.87-23.1 13.2-5.53 3.05-11 6.22-16.4 9.43-14.3 8.49-28.8 16.8-43.3 25-0.724 0.411-1.45 0.821-2.2 1.24-6.92 3.85-12.6 4.48-20.4 3.88-7.02-2.11-12.8-6.31-16.4-12.8-3.1-7.06-3.31-13.7-0.805-20.9 3.1-6.04 6.37-9.92 12.4-13.3 0.951-0.545 0.951-0.545 1.92-1.1 1.46-0.834 2.92-1.66 4.38-2.48 2.8-1.58 5.58-3.19 8.36-4.8 5.56-3.22 11.1-6.44 16.7-9.64 5.52-3.18 11-6.36 16.6-9.54 1.08-0.621 2.15-1.24 3.26-1.88 8.21-4.74 16.4-9.51 24.6-14.3 8.43-4.92 16.9-9.8 25.3-14.7 7.21-4.15 14.4-8.34 21.6-12.5 8.31-4.86 16.6-9.68 25-14.5 1.75-1 3.5-2.01 5.25-3.01 5.63-3.22 11.3-6.39 17-9.5 1.04-0.57 2.08-1.14 3.15-1.73 9.76-4.81 18.7-2.01 27.6 3.32z" fill="#000002"/>
<path transform="translate(1180 1325)" d="m0 0c1.1-0.00468 1.1-0.00468 2.21-0.00945 2.43-0.00793 4.86-0.00167 7.29 0.00463 1.75-0.00271 3.5-0.00627 5.25-0.0106 4.74-0.0091 9.48-0.00559 14.2 7.58e-4 4.97 0.00507 9.94 3.65e-4 14.9-0.00277 8.35-0.00364 16.7 0.00115 25 0.0107 9.64 0.0109 19.3 0.00736 28.9-0.00365 8.29-0.00909 16.6-0.0103 24.9-0.00512 4.94 0.00311 9.89 0.00355 14.8-0.00307 4.65-0.0058 9.3-0.00173 14 0.00979 1.7 0.00263 3.4 0.0019 5.11-0.00253 22.1-0.0523 22.1-0.0523 29.8 6.27 5.88 5.92 8.84 11.5 9 20-0.757 7.22-4.43 12.7-8.81 18.3-7.32 5.65-15.9 5.24-24.7 5.37-1.58 0.033-3.17 0.0664-4.75 0.1-27.4 0.522-54.8 0.369-82.1 0.349-6.48-0.00436-13-0.00123-19.4 0.00363-6.33 0.00455-12.7 0.00517-19 0.00256-3.75-0.00154-7.49-0.00181-11.2 0.00154-4.15 0.00345-8.3-0.00134-12.4-0.0069-1.21 0.00202-2.42 0.00405-3.67 0.00613-23.2-0.0575-23.2-0.0575-30.8-6.9-5.2-5.52-7.65-10.6-8.5-18.1 0.276-6.35 2.8-12.1 6.81-17 7.44-6.02 13.6-8.37 23.2-8.38z" fill="#000002"/>
<path transform="translate(1180 1225)" d="m0 0c0.726-0.00312 1.45-0.00624 2.2-0.00945 2.41-0.00793 4.83-0.00168 7.24 0.00463 1.74-0.00271 3.48-0.00627 5.22-0.0106 4.71-0.0091 9.42-0.00559 14.1 7.58e-4 4.94 0.00507 9.88 3.65e-4 14.8-0.00277 8.3-0.00364 16.6 0.00115 24.9 0.0107 9.58 0.0109 19.2 0.00737 28.7-0.00365 8.23-0.00909 16.5-0.0103 24.7-0.00512 4.91 0.00311 9.82 0.00356 14.7-0.00307 4.62-0.0058 9.24-0.00172 13.9 0.00979 1.69 0.00263 3.38 0.00191 5.07-0.00253 24.2-0.0576 24.2-0.0576 32.9 8.27 5.04 5.13 6.59 10.9 7 18-0.509 7.18-4.49 12.8-8.81 18.3-7.76 5.99-17.2 5.23-26.6 5.36-1.61 0.0325-3.22 0.0658-4.83 0.1-4.93 0.0985-9.87 0.166-14.8 0.223-0.739 0.00865-1.48 0.0173-2.24 0.0262-9.88 0.11-19.8 0.139-29.7 0.141-2.27 7.27e-4 -4.55 0.00289-6.82 0.0055-7.98 0.00912-16 0.0133-24 0.0125-7.37-6.07e-4 -14.7 0.0101-22.1 0.0257-6.41 0.0131-12.8 0.0184-19.2 0.0178-3.8-2.53e-4 -7.59 0.00246-11.4 0.0132-3.55 0.00976-7.1 0.00971-10.7 0.00248-1.9-0.00152-3.79 0.00673-5.69 0.0154-22.7-0.0821-22.7-0.0821-30.8-7.76-5-5.25-6.95-10.8-7.86-17.9 0.914-7.44 3.52-13.8 9.44-18.6 6.47-4.92 12.5-6.25 20.5-6.25z" fill="#000002"/>
<path transform="translate(1063 1179)" d="m0 0c6.41 4.56 9.87 9.83 11.5 17.5 1.67 14.8 3.13 33.6-6.57 45.8-0.598 0.763-1.2 1.53-1.81 2.31-6.69 5.16-14 5.47-22.2 4.69-6.57-1.24-11-4.71-15-10-4.11-7.88-4.63-15.7-4.52-24.5 0.0215-2.03 8.75e-5 -4.05-0.0254-6.08 0.0367-9.34 0.885-17.9 6.92-25.4 9.84-7.74 20.3-10.9 31.7-4.4z" fill="#000002"/>
<path transform="translate(1063 1279)" d="m0 0c6.41 4.56 9.87 9.83 11.5 17.5 1.56 13.8 3.18 32.4-5.22 44.2-4.29 5.13-9.55 8.23-16.2 8.9-8.3 0.23-14.6-0.707-20.9-6.29-7.24-8.13-7.9-18-7.77-28.5 0.0215-2.03 8.75e-5 -4.05-0.0254-6.08 0.0367-9.34 0.885-17.9 6.92-25.4 9.84-7.74 20.3-10.9 31.7-4.4z" fill="#000002"/>
<path transform="translate(1106 759)" d="m0 0c6.19 4.83 9.99 11.7 13.5 18.6 1.11 2.15 2.28 4.27 3.48 6.37 4.85 8.61 7.09 16.2 4.43 26-2.61 6.14-7.68 10.9-13.6 13.8-8.04 2.94-15 2.36-22.7-1.1-6.28-3.84-9.32-9.9-12.9-16.2-1.08-1.87-2.18-3.73-3.28-5.58-5.32-9.07-9.18-16.5-7.78-27.2 2.18-6.78 5.81-12.3 12-16 9.21-4.22 18.2-3.97 26.9 1.37z" fill="#000002"/>
<path transform="translate(1155 845)" d="m0 0c7.25 5.47 11.5 12.9 15.7 20.8 0.516 0.938 1.03 1.88 1.56 2.84 4.62 8.57 8.71 16.4 6.19 26.2-2.46 7.49-7.66 12.6-14.5 16.4-8.31 2.08-15 1.99-22.7-2.06-6.69-5.5-10.8-12.3-15-19.8-0.52-0.911-1.04-1.82-1.58-2.76-4.85-8.59-8.7-15.6-7.24-25.7 2.76-8.54 7.64-13.5 15.2-17.9 8.12-2.44 14.7-1.75 22.3 2z" fill="#000002"/>
<path transform="translate(906,413)" d="m0 0c6.04 5.57 10.3 12.3 14.3 19.4 0.511 0.869 1.02 1.74 1.55 2.63 4.99 8.77 8.4 17.3 6.07 27.4-2.51 6.96-7.71 12.5-14.3 15.8-8.08 2.5-15.4 2.03-22.9-1.88-5.9-4.96-10-10.9-13.8-17.6-0.43-0.747-0.859-1.49-1.3-2.26-1.23-2.15-2.44-4.32-3.64-6.49-0.579-1.04-1.16-2.09-1.75-3.16-3.63-7.17-4.91-13.8-2.36-21.5 3.24-7.18 7.73-12 15-15.2 8.21-2.64 15.7-1.42 23.1 2.88z" fill="#000002"/>
<path transform="translate(1e3 585)" d="m0 0c6.05 4.12 9.53 9.42 13.1 15.7 0.52 0.888 1.04 1.78 1.58 2.69 11.8 20.4 11.8 20.4 9.02 31.4-2.14 6.65-5.91 11.3-11.7 15.2-6.41 3.21-14.3 2.91-21.2 1.57-8.34-3.08-13.3-11.5-17.4-18.8-0.472-0.84-0.944-1.68-1.43-2.55-1.33-2.39-2.64-4.8-3.94-7.2-0.899-1.63-0.899-1.63-1.82-3.3-3.15-6.21-4.42-11.8-3.18-18.7 2.53-7.7 6.77-13.2 13.9-17 7.8-3.36 15.6-2.87 23.1 1.03z" fill="#000002"/>
<path transform="translate(951 497)" d="m0 0c8.81 5.03 14.1 14.2 18.9 22.8 0.524 0.924 1.05 1.85 1.59 2.8 4.96 8.82 7.11 15.2 6.1 25.5-2.02 6.84-6.5 11.6-12.6 15.2-5.98 3.05-12 3.73-18.6 2.29-10.3-3.41-15-11.3-20.1-20.4-0.917-1.58-0.917-1.58-1.85-3.18-5.2-9.08-9.51-17.2-7.9-27.9 1.27-3.6 2.74-6.91 5-10 0.99-0.33 1.98-0.66 3-1v-2c8.08-5.21 17.1-7.44 26.4-4.15z" fill="#000002"/>
<path transform="translate(1054 672)" d="m0 0c7.47 4.9 12.3 13.2 16.6 20.8 0.518 0.921 1.04 1.84 1.57 2.79 4.31 7.87 8.11 15.4 6.68 24.6-2.33 7.78-6.7 13.4-13.7 17.4-6.11 2.92-13.7 2.93-20.2 1.26-9.57-4.27-14.6-14.3-19.4-23.1-0.572-1.02-1.14-2.04-1.73-3.09-4.61-8.28-7.72-14.6-6.46-24.2 2.65-7.74 6.78-13.5 14.1-17.3 7.44-3.03 15.5-2.94 22.6 0.833z" fill="#000002"/>
</svg>
