<?xml version="1.0" encoding="UTF-8"?>
<svg version="1.1" viewBox="0 0 1600 1600" width="1280" height="1280" xmlns="http://www.w3.org/2000/svg">
<path transform="translate(309 74.7)" d="m0 0c1.73-0.00436 1.73-0.00436 3.5-0.00881 3.19-0.00601 6.37-0.00316 9.56 0.00356 3.47 0.0051 6.95-0.00146 10.4-0.00649 6.08-0.00721 12.2-0.00701 18.2-0.00191 9.04 0.00758 18.1 0.00369 27.1-0.00242 16.2-0.0105 32.3-0.00962 48.5-0.00384 14.1 0.00503 28.3 0.00634 42.4 0.00395 1.41-2.29e-4 1.41-2.29e-4 2.84-4.63e-4 3.81-6.23e-4 7.61-0.00126 11.4-0.00192 35.7-0.00612 71.4-5.73e-4 107 0.0102 31.7 0.00949 63.4 0.00864 95.2-9.22e-4 35.6-0.0107 71.3-0.015 107-0.00878 3.8 6.41e-4 7.6 0.00127 11.4 0.00189 0.935 1.58e-4 1.87 3.16e-4 2.83 4.79e-4 14.1 0.00228 28.3-3.86e-4 42.4-0.00544 16.1-0.00571 32.1-0.0043 48.2 0.00656 8.99 0.00588 18 0.00625 27-0.00129 6-0.00448 12-0.0017 18 0.00701 3.42 0.00476 6.84 0.00638 10.3-8.12e-4 3.69-0.00606 7.37 1.36e-4 11.1 0.00944 1.06-0.00468 2.12-0.00936 3.21-0.0142 12.5 0.0631 21.1 2.79 30.4 11.3 1.33 1.67 2.67 3.33 4 5 1.45 1.19 2.9 2.38 4.36 3.55 2.59 2.28 4.74 4.91 6.98 7.53 2.98 3.45 6.12 6.48 9.66 9.36 3.07 2.63 5.42 5.46 8 8.56 1.49 1.24 1.49 1.24 3 2.5 3.11 2.59 5.42 5.4 8 8.5 1.49 1.24 1.49 1.24 3 2.5 3.1 2.59 5.43 5.4 8 8.5 0.804 0.639 1.61 1.28 2.44 1.94 2.77 2.23 4.83 4.67 7.09 7.4 1.94 2.18 4.19 3.85 6.47 5.66 0.804 0.969 1.61 1.94 2.44 2.94 1.95 2.33 3.55 3.96 5.88 5.81 0.887 0.743 1.77 1.49 2.69 2.25v2c0.99 0.33 1.98 0.66 3 1 0.459 0.508 0.918 1.02 1.39 1.54 2.17 1.97 3.45 1.84 6.35 1.84 0.975 0.0082 1.95 0.0164 2.96 0.0249 1.07-0.00615 2.14-0.0123 3.24-0.0186 1.69 0.00806 1.69 0.00806 3.42 0.0163 2.45 0.0098 4.91 0.0127 7.36 0.00964 3.89-0.00447 7.79 0.00951 11.7 0.0284 8.29 0.0379 16.6 0.0506 24.9 0.0609 9.56 0.0119 19.1 0.0339 28.7 0.08 3.82 0.0135 7.63 0.00941 11.5 0.00459 31.7 0.0692 31.7 0.0692 45.6 9.42 0.632 0.418 1.26 0.835 1.91 1.27 9.45 7.16 15.4 18.4 18.1 29.7 0.568 4.46 0.696 8.88 0.75 13.4 0.0289 1.23 0.0578 2.46 0.0876 3.73 0.29 14 0.253 27.9 0.162 41.9 0.637 0.00809 1.27 0.0162 1.93 0.0245 6.68 0.0866 13.4 0.186 20.1 0.293 2.49 0.0381 4.98 0.073 7.47 0.104 3.59 0.0461 7.19 0.104 10.8 0.164 1.1 0.0116 2.19 0.0231 3.33 0.035 14.9 0.279 29.6 2.92 40.9 13.6 9.27 10.4 14.4 20.9 15.1 34.8 0.0421 0.795 0.0843 1.59 0.128 2.41 0.445 9.11 0.456 18.2 0.444 27.3 0.00105 1.94 0.00253 3.88 0.0044 5.81 0.00387 5.3 0.00158 10.6-0.00178 15.9-0.00255 5.77 7.27e-4 11.5 0.00324 17.3 0.00361 10.1 0.00351 20.2 9.53e-4 30.3-0.00273 10.8-0.00333 21.7-0.00126 32.5 1.29e-4 0.686 2.58e-4 1.37 3.91e-4 2.08 5.33e-4 2.8 0.00108 5.59 0.00165 8.39 0.00528 26 0.00565 52 0.00285 78-8.28e-5 0.77-1.66e-4 1.54-2.51e-4 2.33-8.29e-5 0.771-1.66e-4 1.54-2.51e-4 2.34-0.00253 23.5-0.00317 47-0.00198 70.5 7.75e-5 1.57 1.55e-4 3.15 2.31e-4 4.72 3.1e-4 6.33 6.29e-4 12.7 9.6e-4 19 9.17e-4 17.7 0.00149 35.4 0.00179 53.1 1.36e-5 0.806 2.73e-5 1.61 4.14e-5 2.44 4.09e-4 25.7-7.17e-4 51.3-0.00289 77-7.02e-5 0.832-1.4e-4 1.66-2.13e-4 2.52-0.00114 13.5-0.00236 27-0.00359 40.5-0.00486 53.6-0.00463 107 2.31e-4 161 0.00122 13.5 0.00243 27 0.00357 40.5 1.06e-4 1.25 1.06e-4 1.25 2.13e-4 2.52 0.00216 25.6 0.00307 51.3 0.00264 76.9-2.04e-5 1.21-2.04e-5 1.21-4.12e-5 2.44-3.13e-4 17.7-9.46e-4 35.4-0.00187 53-3.29e-4 6.33-6.42e-4 12.7-9.51e-4 19-7.74e-5 1.57-1.56e-4 3.15-2.36e-4 4.72-0.00119 23.5-1.8e-4 47 0.00235 70.5 1.24e-4 1.15 1.24e-4 1.15 2.51e-4 2.33 8.27e-5 0.768 1.65e-4 1.54 2.51e-4 2.33 0.00276 25.9 0.00174 51.9-0.00353 77.8-5.52e-4 2.79-0.00109 5.58-0.00161 8.37-1.3e-4 0.684-2.6e-4 1.37-3.95e-4 2.07-0.00209 11.5-2.44e-4 22.9 0.00265 34.4 0.00225 9.99 8.39e-4 20-0.0035 30-0.00237 5.69-0.00321 11.4 4.06e-4 17.1 0.0224 38.8 0.0224 38.8-0.451 52.5-0.033 1.26-0.033 1.26-0.0666 2.55-0.626 13.8-6.74 26-16.7 35.4-11 8.71-23.2 11.5-37 11.9-1.18 0.0376-2.36 0.0752-3.58 0.114-13.4 0.39-26.8 0.411-40.3 0.397-3.77-0.00259-7.53 7.42e-4 -11.3 0.00324-6.57 0.00358-13.1 0.00352-19.7 9.53e-4 -9.77-0.00381-19.5-0.00183-29.3 0.00121-17.5 0.00525-34.9 0.00482-52.4 0.00192-15.3-0.00252-30.6-0.00317-45.9-0.00198-1.02 7.64e-5 -2.04 1.53e-4 -3.09 2.31e-4 -4.13 3.11e-4 -8.27 6.3e-4 -12.4 9.6e-4 -38.7 0.00306-77.5 2.93e-4 -116-0.0051-34.3-0.00474-68.6-0.00433-103 4.61e-4 -38.6 0.00537-77.3 0.00747-116 0.00439-4.13-3.21e-4 -8.27-6.34e-4 -12.4-9.43e-4 -1.02-7.91e-5 -2.04-1.58e-4 -3.08-2.4e-4 -15.3-0.00113-30.5 1.79e-4 -45.8 0.00272-17.4 0.00288-34.8 0.0021-52.2-0.00328-8.86-0.00265-17.7-0.0038-26.6-3.51e-4 -20.9 0.00741-41.9-0.0189-62.8-0.133-1.28-0.0064-2.55-0.0128-3.87-0.0194-7.08-0.0382-14.2-0.0989-21.2-0.198-2.06-0.0266-4.11-0.0472-6.17-0.0609-16.3-0.119-29.8-1.71-42.3-13.1-1.18-1.3-1.18-1.3-2.38-2.62-0.566-0.597-1.13-1.19-1.71-1.81-14.5-15.7-12.8-36.5-13-56.6-0.0332-2.49-0.0677-4.97-0.104-7.46-0.0842-6.04-0.153-12.1-0.209-18.1-1.05-0.00547-1.05-0.00547-2.11-0.011-6.63-0.0381-13.3-0.0953-19.9-0.173-3.41-0.0392-6.82-0.0715-10.2-0.0871-3.93-0.0183-7.87-0.0684-11.8-0.12-1.2-0.00123-2.4-0.00246-3.64-0.00372-13.6-0.231-24.8-3.84-34.9-13-1.18-1.3-1.18-1.3-2.38-2.62-0.566-0.597-1.13-1.19-1.71-1.81-14.5-15.7-12.8-36.5-13-56.6-0.0332-2.49-0.0677-4.97-0.104-7.46-0.0842-6.04-0.153-12.1-0.209-18.1-1.05-0.00547-1.05-0.00547-2.11-0.011-6.63-0.0381-13.3-0.0953-19.9-0.173-3.41-0.0392-6.82-0.0715-10.2-0.0871-3.93-0.0183-7.87-0.0684-11.8-0.12-1.2-0.00123-2.4-0.00246-3.64-0.00372-13.6-0.231-24.8-3.84-34.9-13-0.784-0.866-1.57-1.73-2.38-2.62-0.566-0.597-1.13-1.19-1.71-1.81-12.8-13.9-12.7-31.2-12.7-49.1-0.00313-1.99-0.00758-3.98-0.0132-5.97-0.0116-5.45-0.00471-10.9 0.00533-16.4 0.00762-5.94-0.00218-11.9-0.00973-17.8-0.0108-10.4-0.0106-20.8-0.00286-31.2 0.00827-11.2 0.00999-22.3 0.00379-33.5-3.88e-4 -0.705-7.75e-4 -1.41-0.00117-2.14-0.0016-2.87-0.00325-5.75-0.00495-8.62-0.0159-26.7-0.017-53.5-0.00856-80.2 2.48e-4 -0.792 4.97e-4 -1.58 7.53e-4 -2.4 2.49e-4 -0.793 4.98e-4 -1.59 7.54e-4 -2.4 0.00757-24.2 0.00952-48.3 0.00593-72.5-2.32e-4 -1.62-4.64e-4 -3.24-6.94e-4 -4.86-9.31e-4 -6.5-0.00189-13-0.00288-19.5-0.00275-18.2-0.00446-36.4-0.00536-54.5-4.09e-5 -0.828-8.19e-5 -1.66-1.24e-4 -2.51-0.00123-26.4 0.00215-52.8 0.00867-79.1 2.11e-4 -0.856 4.21e-4 -1.71 6.39e-4 -2.59 0.00343-13.9 0.00709-27.8 0.0108-41.7 0.0146-55.1 0.0139-110-6.92e-4 -165-0.00366-13.9-0.0073-27.8-0.0107-41.7-2.11e-4 -0.855-4.23e-4 -1.71-6.4e-4 -2.59-0.00647-26.4-0.00921-52.7-0.00791-79.1 4.08e-5 -0.827 8.15e-5 -1.65 1.23e-4 -2.51 9.37e-4 -18.2 0.00284-36.3 0.00561-54.5 9.87e-4 -6.5 0.00193-13 0.00285-19.5 2.32e-4 -1.62 4.68e-4 -3.23 7.09e-4 -4.85 0.00358-24.2 5.32e-4 -48.3-0.00705-72.5-2.48e-4 -0.792-4.97e-4 -1.58-7.53e-4 -2.4-2.48e-4 -0.79-4.96e-4 -1.58-7.52e-4 -2.4-0.00827-26.7-0.00523-53.3 0.0106-80 0.00166-2.86 0.00327-5.73 0.00484-8.59 3.91e-4 -0.703 7.81e-4 -1.41 0.00118-2.13 0.00592-11.1 0.0018-22.2-0.00649-33.4-0.00794-10.9-0.00489-21.9 0.00904-32.8 0.00715-5.85 0.00955-11.7-0.00122-17.6-0.0097-5.32-0.00556-10.6 0.00954-16 0.00302-1.91 0.00103-3.83-0.00662-5.74-0.0929-25-0.0929-25 6.45-36 0.507-0.869 1.01-1.74 1.54-2.63 1.1-1.77 2.25-3.51 3.4-5.24h2c0.249-0.589 0.498-1.18 0.754-1.79 4.05-7.2 13.7-11.8 21.2-14.2 8.05-1.69 15.8-2.29 24-2.25zm-9.04 50.3c-0.102 2.5-0.138 4.98-0.132 7.48-0.0021 0.798-0.00419 1.6-0.00635 2.42-0.00588 2.71-0.00455 5.43-0.00334 8.14-0.00275 1.96-0.00593 3.92-0.00952 5.88-0.00866 5.43-0.011 10.9-0.0124 16.3-0.00262 5.89-0.011 11.8-0.0186 17.7-0.0126 10.3-0.0215 20.7-0.028 31-0.00693 11.1-0.016 22.2-0.0278 33.3-7.39e-4 0.7-0.00148 1.4-0.00224 2.12-0.00302 2.85-0.00605 5.7-0.0091 8.55-0.0285 26.6-0.052 53.2-0.0723 79.7-6.04e-4 0.788-0.00121 1.58-0.00183 2.39-6.05e-4 0.79-0.00121 1.58-0.00183 2.39-0.0184 24-0.0387 48.1-0.0608 72.1-0.00148 1.61-0.00296 3.21-0.00443 4.82-0.00594 6.46-0.0119 12.9-0.0178 19.4-0.0166 18.1-0.0329 36.1-0.049 54.2-7.3e-4 0.822-0.00146 1.64-0.00221 2.49-0.0232 26.2-0.045 52.4-0.0656 78.6-6.71e-4 0.851-0.00134 1.7-0.00203 2.58-0.0109 13.8-0.0217 27.6-0.0325 41.4-0.0429 54.8-0.0909 110-0.143 164-0.0133 13.8-0.0265 27.6-0.0397 41.4-8.11e-4 0.85-0.00162 1.7-0.00246 2.58-0.025 26.2-0.0487 52.4-0.0711 78.6-7.02e-4 0.822-0.0014 1.64-0.00213 2.49-0.0154 18-0.0305 36.1-0.0453 54.1-0.00529 6.45-0.0106 12.9-0.0159 19.4-0.00132 1.61-0.00264 3.21-0.00396 4.82-0.0197 24-0.0417 48-0.0652 72.1-7.7e-4 0.788-0.00154 1.58-0.00233 2.39-7.69e-4 0.787-0.00154 1.57-0.00233 2.38-0.0259 26.5-0.0479 53-0.0658 79.5-0.00192 2.84-0.00386 5.69-0.00582 8.53-4.78e-4 0.698-9.55e-4 1.4-0.00145 2.11-0.00767 11.1-0.0187 22.1-0.0311 33.2-0.0121 10.9-0.0206 21.7-0.0254 32.6-0.00268 5.82-0.00698 11.6-0.0156 17.5-0.00782 5.29-0.0111 10.6-0.0106 15.9-6.48e-4 1.91-0.00301 3.82-0.00721 5.73-0.00541 2.58-0.00477 5.15-0.00249 7.73-0.00305 0.752-0.0061 1.5-0.00924 2.28-0.0531 3.79-0.0531 3.79 1.13 7.33h800c0.0287-174 0.0287-174 0.0482-347 1.09e-4 -1.35 2.19e-4 -2.69 3.28e-4 -4.04 5.49e-5 -0.675 1.1e-4 -1.35 1.66e-4 -2.05 0.00194-23.9 0.00395-47.7 0.00607-71.6 2.02e-4 -2.28 4.02e-4 -4.55 6.02e-4 -6.83 0.00307-34.9 0.00697-69.8 0.0133-105 2.05e-4 -1.13 2.05e-4 -1.13 4.15e-4 -2.27 0.00221-12.1 0.0045-24.2 0.00679-36.3 0.0066-34.8 0.0127-69.7 0.0153-105 5.35e-5 -0.716 1.07e-4 -1.43 1.62e-4 -2.17 0.00117-15.7 0.00206-31.4 0.0027-47.1 2.62e-4 -6.32 5.62e-4 -12.6 8.76e-4 -19 3.34e-5 -0.692 6.69e-5 -1.38 1.01e-4 -2.1 0.0011-22.3 0.00537-44.6 0.0113-67 0.00612-23.1 0.00873-46.2 0.00722-69.3-7.64e-4 -13.3 0.00129-26.7 0.0073-40 0.00373-8.89 0.00388-17.8 0.00103-26.7-0.00152-5.07-0.0014-10.1 0.00305-15.2 0.00401-4.61 0.00352-9.21-7.43e-4 -13.8-7.21e-4 -1.67 2.76e-4 -3.33 0.0031-5 0.00356-2.24 0.00108-4.49-0.00304-6.73 1.56e-4 -1.25 3.12e-4 -2.5 4.73e-4 -3.78 0.19-2.67 0.19-2.67-1.12-3.76-1.37-0.0988-2.75-0.129-4.13-0.131-0.891-0.00401-1.78-0.00802-2.7-0.0121-1.48 7.93e-4 -1.48 7.93e-4 -2.99 0.0016-1.55-0.00521-1.55-0.00521-3.13-0.0105-2.25-0.00738-4.51-0.0127-6.76-0.0163-3.57-0.00715-7.15-0.0228-10.7-0.0413-10.2-0.0525-20.3-0.1-30.5-0.116-6.21-0.0101-12.4-0.0396-18.6-0.0813-2.36-0.0123-4.72-0.0174-7.09-0.0152-18.7 0.0134-33.3-1-47.5-14.3-11.3-11.8-13.9-25.7-14-41.5-0.0099-1.01-0.0198-2.01-0.03-3.05-0.0314-3.31-0.0563-6.61-0.0811-9.92-0.0206-2.3-0.0416-4.6-0.063-6.9-0.0551-6.04-0.105-12.1-0.153-18.1-0.0503-6.17-0.106-12.3-0.161-18.5-0.107-12.1-0.209-24.2-0.307-36.3-3.31-0.739-6.36-1.13-9.75-1.13-0.934-0.0025-1.87-0.00501-2.83-0.00759-1.02 0.00234-2.04 0.00468-3.09 0.00709-1.09-0.00145-2.19-0.00291-3.31-0.0044-3.69-0.00367-7.37-1.69e-4 -11.1 0.00326-2.66-0.00115-5.32-0.0027-7.98-0.00473-5.8-0.00362-11.6-0.0035-17.4-9.53e-4 -8.62 0.00378-17.2 0.00185-25.9-0.00121-15.4-0.00527-30.8-0.00481-46.2-0.00192-13.5 0.00251-26.9 0.00317-40.4 0.00198-0.892-7.64e-5 -1.78-1.53e-4 -2.7-2.31e-4 -3.62-3.11e-4 -7.24-6.3e-4 -10.9-9.6e-4 -34-0.00306-68-2.83e-4 -102 0.0051-30.2 0.00475-60.4 0.00432-90.7-4.61e-4 -33.9-0.00535-67.9-0.00748-102-0.00439-3.61 3.21e-4 -7.23 6.34e-4 -10.8 9.43e-4 -0.89 7.91e-5 -1.78 1.58e-4 -2.7 2.4e-4 -13.5 0.00114-26.9-1.96e-4 -40.4-0.00272-15.3-0.00285-30.6-0.00216-45.9 0.00328-8.57 0.00295-17.1 0.00311-25.7-6.46e-4 -5.71-0.00223-11.4-8.68e-4 -17.1 0.0035-3.26 0.00239-6.53 0.00262-9.79-4.06e-4 -3.5-3e-3 -7.01 3.69e-5 -10.5 0.00472-1.03-0.00234-2.06-0.00468-3.12-0.00709-1.39 0.00376-1.39 0.00376-2.8 0.00759-0.802 6.78e-5 -1.6 1.36e-4 -2.43 2.05e-4 -1.84-0.0732-1.84-0.0732-2.82 1.13zm699 36c-0.0232 7.9-0.0409 15.8-0.0518 23.7-0.00522 3.67-0.0123 7.34-0.0236 11-0.0109 3.54-0.0168 7.08-0.0194 10.6-0.00275 2.01-0.0106 4.02-0.0184 6.03-7.55e-5 1.22-1.51e-4 2.44-2.29e-4 3.7-0.00222 1.08-0.00444 2.15-0.00673 3.26 0.0027 2.78 0.0027 2.78 1.12 5.68h64c-1.99-3.97-3.88-6.15-7-9.25-0.887-0.892-1.77-1.78-2.69-2.7-2.05-2.27-2.05-2.27-4.31-2.05-0.239-0.564-0.478-1.13-0.725-1.71-1.55-2.79-3.43-4.7-5.68-6.97-0.911-0.921-1.82-1.84-2.76-2.79-0.996-0.996-1.99-1.99-2.99-2.99-1.02-1.03-2.04-2.05-3.06-3.08-2.14-2.15-4.28-4.29-6.42-6.43-2.75-2.74-5.49-5.5-8.22-8.26-2.1-2.12-4.22-4.23-6.33-6.34-1.01-1.01-2.02-2.03-3.03-3.05-1.41-1.42-2.83-2.83-4.24-4.24-0.804-0.805-1.61-1.61-2.44-2.44-2.03-2.04-2.03-2.04-5.09-1.72zm137 64c1.88 4.32 4.89 7.22 8.12 10.6 7.87 10.1 5.02 29.6 5 42 0.00105 1.72 0.00253 3.45 0.0044 5.17 0.00387 4.71 0.00158 9.43-0.00178 14.1-0.00255 5.14 7.27e-4 10.3 0.00324 15.4 0.00361 9 0.00351 18 9.53e-4 27-0.00379 13.4-0.00185 26.8 0.00121 40.1 0.00496 22.5 0.00515 45 0.00242 67.6-8.28e-5 0.685-1.66e-4 1.37-2.51e-4 2.08-8.29e-5 0.686-1.66e-4 1.37-2.51e-4 2.08-0.00253 20.9-0.00317 41.8-0.00198 62.8 7.75e-5 1.4 1.55e-4 2.8 2.31e-4 4.21 3.1e-4 5.63 6.29e-4 11.3 9.6e-4 16.9 9.17e-4 15.7 0.00149 31.5 0.00179 47.2 1.36e-5 0.717 2.73e-5 1.43 4.14e-5 2.17 4.09e-4 22.8-7.17e-4 45.7-0.00289 68.5-1.05e-4 1.11-1.05e-4 1.11-2.13e-4 2.24-0.00114 12-0.00236 24.1-0.00359 36.1-0.00486 47.7-0.00463 95.4 2.31e-4 143 0.00122 12 0.00243 24 0.00357 36.1 1.06e-4 1.11 1.06e-4 1.11 2.13e-4 2.24 0.00216 22.8 0.00307 45.6 0.00264 68.5-2.04e-5 1.07-2.04e-5 1.07-4.12e-5 2.17-3.13e-4 15.7-9.46e-4 31.5-0.00187 47.2-3.29e-4 5.63-6.42e-4 11.3-9.51e-4 16.9-7.74e-5 1.4-1.56e-4 2.8-2.36e-4 4.2-0.00119 20.9-1.8e-4 41.8 0.00235 62.7 1.24e-4 1.03 1.24e-4 1.03 2.51e-4 2.07 8.27e-5 0.683 1.65e-4 1.37 2.51e-4 2.07 0.00276 23.1 0.00173 46.2-0.00353 69.2-0.00293 13.3-0.00313 26.6 6.46e-4 39.9 0.00225 8.89 8.4e-4 17.8-0.0035 26.7-0.00237 5.06-0.0032 10.1 4.06e-4 15.2 0.00326 4.62 0.00182 9.23-0.00318 13.8-9.97e-4 1.65-3.69e-4 3.3 0.00221 4.95 0.0128 8.84-0.151 17.7-0.563 26.5-0.0372 0.838-0.0744 1.68-0.113 2.54-0.304 5.91-1.01 11.2-3.45 16.7-0.601 1.35-0.601 1.35-1.21 2.72-6.13 12.4-15.2 19.2-27.8 24.3-7.47 2.37-14.9 2.44-22.7 2.62-1.43 0.0377-2.86 0.0757-4.29 0.114-14.2 0.361-28.3 0.402-42.5 0.382-2.81-8.46e-4 -5.62-1.58e-4 -8.43 4.51e-4 -6.04 5.26e-4 -12.1-0.00257-18.1-0.00823-8.99-0.00839-18-0.0108-27-0.0121-15.1-0.00232-30.2-0.00913-45.4-0.0185-20.6-0.0127-41.3-0.0187-61.9-0.0229-9.64-2e-3 -19.3-0.00433-28.9-0.00674-0.964-2.41e-4 -1.93-4.82e-4 -2.92-7.3e-4 -22.9-0.0058-45.8-0.0148-68.6-0.0242-1-4.14e-4 -2-8.27e-4 -3.03-0.00125-14.2-0.00588-28.4-0.0119-42.6-0.018-17.3-0.00738-34.6-0.0147-51.9-0.0218-1-4.15e-4 -2.01-8.29e-4 -3.04-0.00126-22.9-0.00944-45.8-0.018-68.7-0.0237-0.962-2.41e-4 -1.92-4.82e-4 -2.91-7.3e-4 -9.6-0.00238-19.2-0.00461-28.8-0.00661-20.6-0.00432-41.3-0.0114-61.9-0.024-15-0.00916-30-0.0149-45-0.0171-8.92-0.00142-17.8-0.0057-26.8-0.0139-5.95-0.00523-11.9-0.00689-17.8-0.00557-3.4 6.45e-4 -6.79-3.52e-4 -10.2-0.0057-3.65-0.00492-7.29-0.0038-10.9-0.00105-1.61-0.00437-1.61-0.00437-3.25-0.00883-0.962 0.00199-1.92 0.00398-2.91 0.00603-0.835-3.8e-4 -1.67-7.59e-4 -2.53-0.00115-1.9-0.083-1.9-0.083-2.89 1.12-0.128 1.49-0.188 2.99-0.221 4.49-0.0348 1.43-0.0348 1.43-0.0702 2.89-0.0198 1.04-0.0397 2.08-0.0602 3.15-0.0232 1.06-0.0463 2.12-0.0702 3.21-0.0477 2.25-0.0929 4.49-0.136 6.74-0.067 3.45-0.145 6.89-0.224 10.3-0.0449 2.18-0.0892 4.35-0.133 6.53-0.0239 1.04-0.0478 2.07-0.0724 3.14-0.0253 1.44-0.0253 1.44-0.0511 2.9-0.017 0.845-0.0339 1.69-0.0514 2.56-0.0483 2.12-0.0483 2.12 1.09 4.06h800v-1150c-3.89-0.778-6.88-1.13-10.8-1.13-1.7-0.00473-1.7-0.00473-3.44-0.00955-1.21 0.00202-2.43 0.00405-3.68 0.00613-1.88-0.00144-1.88-0.00144-3.8-0.0029-2.65-6.8e-4 -5.29 6.57e-4 -7.94 0.00534-3.39 0.00571-6.79 0.0024-10.2-0.00357-3.24-0.00448-6.48-0.00135-9.71 0.00113-1.22-0.00202-2.44-0.00405-3.7-0.00613-1.12 0.00315-2.25 0.0063-3.41 0.00955-1.49 0.00119-1.49 0.00119-3.01 0.00241-2.39-0.03-2.39-0.03-4.37 1.13zm114 100c-0.1 2.25-0.128 4.51-0.129 6.76-0.00185 0.72-0.0037 1.44-0.0056 2.18-0.00504 2.45-0.00287 4.9-8.11e-4 7.35-0.00214 1.77-0.00472 3.53-0.0077 5.3-0.00698 4.9-0.00767 9.8-0.00743 14.7-8.24e-4 5.32-0.00742 10.6-0.0133 15.9-0.00954 9.33-0.0154 18.7-0.0188 28-0.00514 13.9-0.016 27.8-0.0281 41.6-0.0196 22.6-0.0351 45.3-0.0479 67.9-0.0136 23.9-0.0295 47.7-0.049 71.6-8.78e-4 1.08-8.78e-4 1.08-0.00177 2.18-0.00655 8.03-0.0132 16.1-0.0198 24.1-0.0123 14.8-0.0243 29.7-0.0362 44.5-8.94e-4 1.11-8.94e-4 1.11-0.00181 2.25-0.0284 35.4-0.0537 70.8-0.0784 106-0.00164 2.35-0.00327 4.7-0.00491 7.05-0.0153 22-0.0305 44-0.0457 66-0.0179 25.9-0.0358 51.8-0.0539 77.7-0.00164 2.34-0.00327 4.69-0.00491 7.03-0.0247 35.3-0.0502 70.6-0.0785 106-5.95e-4 0.743-0.00119 1.49-0.0018 2.25-0.0119 14.8-0.0239 29.7-0.0362 44.5-0.00665 8.03-0.0133 16.1-0.0198 24.1-8.78e-4 1.08-8.78e-4 1.08-0.00177 2.18-0.0194 23.8-0.0348 47.7-0.0484 71.5-0.0133 23.2-0.0299 46.5-0.0501 69.7-0.0119 13.8-0.0209 27.6-0.026 41.4-0.00369 9.22-0.0109 18.4-0.0211 27.7-0.00567 5.25-0.0098 10.5-0.00953 15.8 2.15e-4 4.79-0.0042 9.58-0.0121 14.4-0.00205 1.71-0.00249 3.42-0.00102 5.13 0.00682 9.02-0.151 18-0.572 27-0.0371 0.835-0.0743 1.67-0.113 2.53-0.305 5.9-1.01 11.2-3.45 16.6-0.601 1.35-0.601 1.35-1.21 2.72-6.13 12.4-15.2 19.2-27.8 24.3-6.97 2.14-13.6 2.44-20.9 2.62-0.684 0.0185-1.37 0.037-2.07 0.0561-25.5 0.675-51 0.452-76.5 0.429-8.19-0.00741-16.4-0.00875-24.6-0.00993-15.1-0.00232-30.2-0.00913-45.3-0.0185-20.6-0.0127-41.2-0.0187-61.8-0.0229-9.62-2e-3 -19.2-0.00433-28.9-0.00674-1.44-3.62e-4 -1.44-3.62e-4 -2.92-7.3e-4 -22.8-0.0058-45.7-0.0148-68.5-0.0242-1.5-6.2e-4 -1.5-6.2e-4 -3.02-0.00125-14.2-0.00588-28.4-0.0119-42.5-0.018-17.3-0.00738-34.5-0.0147-51.8-0.0218-1-4.15e-4 -2-8.29e-4 -3.04-0.00126-22.9-0.00944-45.7-0.018-68.6-0.0237-0.96-2.41e-4 -1.92-4.82e-4 -2.91-7.3e-4 -9.58-0.00238-19.2-0.00461-28.7-0.00661-20.6-0.00432-41.2-0.0114-61.8-0.024-15-0.00916-30-0.0149-44.9-0.0171-8.91-0.00142-17.8-0.0057-26.7-0.0139-5.94-0.00523-11.9-0.00689-17.8-0.00557-3.39 6.45e-4 -6.78-3.52e-4 -10.2-0.0057-3.64-0.00492-7.28-0.0038-10.9-0.00105-1.07-0.00291-2.14-0.00583-3.24-0.00883-0.96 0.00199-1.92 0.00398-2.91 0.00603-1.25-5.7e-4 -1.25-5.7e-4 -2.53-0.00115-1.9-0.0826-1.9-0.0826-2.88 1.12-0.128 1.49-0.188 2.99-0.221 4.49-0.0348 1.43-0.0348 1.43-0.0702 2.89-0.0198 1.04-0.0397 2.08-0.0602 3.15-0.0232 1.06-0.0463 2.12-0.0702 3.21-0.0477 2.25-0.0929 4.49-0.136 6.74-0.067 3.45-0.145 6.89-0.224 10.3-0.0449 2.18-0.0892 4.35-0.133 6.53-0.0239 1.04-0.0478 2.07-0.0724 3.14-0.0253 1.44-0.0253 1.44-0.0511 2.9-0.017 0.845-0.0339 1.69-0.0514 2.56-0.0483 2.12-0.0483 2.12 1.09 4.06h800v-1150c-2.39-1.19-3.86-1.13-6.53-1.13-0.938-0.00315-1.88-0.0063-2.84-0.00955-1.01 0.00202-2.03 0.00405-3.07 0.00613-1.04-9.57e-4 -2.08-0.00191-3.15-0.0029-2.2-6.81e-4 -4.39 0.00117-6.59 0.00534-3.38 0.00535-6.75 5.04e-5 -10.1-0.00635-2.13 6.61e-4 -4.26 0.00194-6.39 0.00391-1.02-0.00202-2.03-0.00405-3.08-0.00613-0.934 0.00315-1.87 0.0063-2.83 0.00955-1.24 0.00119-1.24 0.00119-2.51 0.00241-1.9-0.0806-1.9-0.0806-2.89 1.13z" fill="#000002"/>
<path transform="translate(835,257)" d="m0 0c0.716 0.353 1.43 0.705 2.17 1.07 15.5 7.71 30.2 17.2 43.8 27.9 1.22 0.954 2.44 1.91 3.66 2.86 3.46 2.7 6.9 5.42 10.3 8.14 0.96 0.726 1.92 1.45 2.91 2.2 1.03 0.891 1.03 0.891 2.09 1.8v2c0.576 0.251 1.15 0.501 1.74 0.759 2.56 1.41 4.28 3.02 6.34 5.09 0.768 0.77 1.54 1.54 2.33 2.33 0.793 0.806 1.59 1.61 2.4 2.44 0.782 0.782 1.56 1.56 2.37 2.37 31.9 32.1 56.3 72.8 69.8 116 0.246 0.782 0.491 1.56 0.744 2.37 13.7 44.3 18.3 92.7 10.3 139-0.172 0.992-0.343 1.98-0.52 3.01-4.07 22.7-10.7 44.7-19.5 66-0.305 0.754-0.61 1.51-0.924 2.29-11.9 29.1-29.7 56.4-51 79.5-1.81 1.97-3.55 3.99-5.28 6.03-8.44 9.65-17.7 18.3-27.8 26.2-1.17 0.954-2.33 1.91-3.49 2.87-14.8 12.2-30.7 21.9-47.5 31.1-0.692 0.379-1.38 0.758-2.1 1.15-33.2 18-70.5 27.7-108 31.9-0.791 0.0957-1.58 0.191-2.4 0.29-9.36 1.01-18.8 0.954-28.2 0.96-1.36 0.00101-1.36 0.00101-2.76 0.00204-66.4-0.078-131-23-183-64.3-0.9-0.705-1.8-1.41-2.73-2.14-50.7-40.4-86.3-97.1-102-160l-0.671-2.57c-19.2-74.9-5.59-157 33.3-223 13.7-22.9 30.3-43.3 49-62.2 0.858-0.868 1.72-1.74 2.6-2.63 5.95-5.92 12.2-11.3 18.8-16.5 1.07-0.87 2.14-1.74 3.21-2.61 77.8-61.1 183-78.8 320-31.4zm-193 23.8c-1.63 0.385-1.63 0.385-3.3 0.778-29.1 7.09-57.2 20.1-81.6 37.5-0.659 0.468-1.32 0.936-2 1.42-8.55 6.13-16.5 12.6-24.1 19.9-1.98 1.86-3.93 3.6-6.03 5.31-2.29 1.92-4.18 3.73-6.09 6-1.93 2.28-3.87 4.5-5.93 6.67-31.7 33.4-51.6 77.7-59.8 123-0.232 1.22-0.464 2.44-0.703 3.7-5.14 28.7-4.4 60.9 1.7 89.3 0.22 1.03 0.439 2.06 0.666 3.12 8.36 38.1 24.7 73.6 49.3 104 1.09 1.37 1.09 1.37 2.21 2.77 12.2 15.1 26.2 28.7 41.8 40.2l2.93 2.31c8.22 6.42 17 11.6 26.1 16.7l2.44 1.37c46.8 26 103 37.4 157 28.6 0.921-0.151 1.84-0.301 2.79-0.457 24.9-4.22 48.4-11.7 71.2-22.5 0.761-0.362 1.52-0.723 2.31-1.1 46.9-22.7 85.6-62 110-108 0.397-0.749 0.794-1.5 1.2-2.27 11.7-22.5 19.3-46.8 23.8-71.7 0.232-1.27 0.464-2.54 0.703-3.85 2.12-12.7 2.51-25.4 2.48-38.3-9.37e-4 -0.727-0.00187-1.45-0.00284-2.2-0.173-62.1-23.9-122-66.1-167-2.07-2.31-2.07-2.31-4.07-5.31h-2c-0.33-0.99-0.66-1.98-1-3-1.52-1.58-1.52-1.58-3.44-3.12-3.15-2.66-6.22-5.39-9.25-8.19-23.9-21.5-52.3-36.6-82.3-47.7-1.13-0.419-1.13-0.419-2.29-0.847-21.8-7.96-45.6-12.2-68.8-12.4-0.935-0.0057-1.87-0.0114-2.83-0.0173-1.97-0.00939-3.94-0.016-5.91-0.0198-2.94-0.00962-5.88-0.0407-8.82-0.0723-17.5-0.0989-34.4 2.02-51.4 6.06z" fill="#000002"/>
<path transform="translate(603 375)" d="m0 0c1.57-0.0064 1.57-0.0064 3.17-0.0129 1.14 4.53e-4 2.27 9.06e-4 3.44 0.00137 1.21-0.00336 2.41-0.00672 3.65-0.0102 3.3-0.00787 6.61-0.0112 9.91-0.0118 2.07-7.13e-4 4.15-0.00285 6.22-0.0055 7.27-0.00926 14.5-0.0133 21.8-0.0125 6.72 5.97e-4 13.4-0.00987 20.2-0.0257 5.8-0.0132 11.6-0.0184 17.4-0.0178 3.45 2.52e-4 6.9-0.00242 10.4-0.0132 33.9-0.0871 62.2 1.59 89.6 23.2 0.982 0.77 0.982 0.77 1.98 1.55 18.3 14.9 29.7 38.3 33 61.4 0.748 13.6 1.27 27.9-3 41-0.298 0.935-0.298 0.935-0.602 1.89-8.36 25.7-24.9 46.6-49.2 59-10.2 5.05-10.2 5.05-15.2 6.09 2.66 6.09 8.01 10.4 13.1 14.5 2.32 1.97 4.08 3.75 6.02 6.05 4.28 4.95 8.89 9.53 13.5 14.1 1.25 1.24 1.25 1.24 2.52 2.51 1.6 1.59 3.2 3.18 4.8 4.77 1.54 1.53 3.07 3.06 4.6 4.6 2.15 2.13 4.33 4.23 6.52 6.32 1.5 1.45 3 2.91 4.5 4.36 1.13 1.07 1.13 1.07 2.29 2.16 5.62 5.5 9.28 10.7 10.7 18.6-0.0945 7.66-1.34 13.5-6.59 19.3-6.61 6.19-12 8.31-21.1 8.11-8.53-1.11-14.3-6.23-19.9-12.4-1.15-1.16-2.3-2.31-3.46-3.46-1.74-1.73-3.47-3.47-5.2-5.21-0.684-0.687-1.37-1.37-2.07-2.08-0.735-0.738-1.47-1.48-2.23-2.24-7.99-8.02-16-16-24-24.1-4.84-4.85-9.67-9.7-14.5-14.6-4.68-4.7-9.36-9.39-14-14.1-1.79-1.79-3.57-3.58-5.35-5.37-2.48-2.5-4.98-4.99-7.47-7.48-0.739-0.746-1.48-1.49-2.24-2.26-0.678-0.676-1.36-1.35-2.06-2.05-0.588-0.59-1.18-1.18-1.78-1.79-3.26-2.76-6.58-2.5-10.7-2.49-1.86 1.13e-4 -1.86 1.13e-4 -3.76 2.29e-4 -1.35 0.00511-2.71 0.0103-4.06 0.0156-1.39 0.00187-2.77 0.00329-4.16 0.00429-3.64 0.00382-7.29 0.0136-10.9 0.0247-3.72 0.0102-7.44 0.0148-11.2 0.0198-7.3 0.0107-14.6 0.0278-21.9 0.0488-0.0103 0.762-0.0206 1.52-0.0312 2.31-0.099 7.26-0.202 14.5-0.308 21.8-0.0546 3.73-0.108 7.46-0.158 11.2-0.666 49.4-0.666 49.4-7.92 57.2-6.32 5.81-12.4 7-20.7 6.74-6.81-0.645-11.7-2.93-16.3-8.06-5.3-7.13-6.23-15.6-6.15-24.2-0.00936-1.57-0.00936-1.57-0.0189-3.17-0.0158-3.48-0.00336-6.96 0.00927-10.4-0.00542-2.51-0.0125-5.01-0.0212-7.52-0.0163-6.08-0.014-12.2-0.00235-18.2 0.00906-4.95 0.0102-9.89 0.0059-14.8-6.13e-4 -0.706-0.00123-1.41-0.00186-2.14-0.00128-1.43-0.00258-2.87-0.00389-4.3-0.0114-13.4 0.00168-26.9 0.0232-40.3 0.0179-11.5 0.0148-23-0.00368-34.5-0.0214-13.4-0.0298-26.8-0.0176-40.1 0.00127-1.43 0.00253-2.86 0.00377-4.29 6.17e-4 -0.703 0.00123-1.41 0.00187-2.13 0.00344-4.94-0.00235-9.87-0.0118-14.8-0.0124-6.65-0.00349-13.3 0.0196-20 0.00528-2.44 0.00379-4.87-0.00505-7.31-0.011-3.33 0.00285-6.67 0.0227-10-0.00892-0.957-0.0178-1.91-0.027-2.9 0.0979-8.51 1.98-16.7 7.85-23.1 6.03-5.39 13-7.12 21-7.13zm21.7 50.1c-0.125 3.1-0.186 6.19-0.205 9.29-0.0099 0.976-0.0198 1.95-0.03 2.96-0.0317 3.24-0.0564 6.48-0.0811 9.72-0.0206 2.24-0.0416 4.48-0.063 6.72-0.0553 5.91-0.105 11.8-0.153 17.7-0.0501 6.03-0.106 12.1-0.161 18.1-0.108 11.8-0.209 23.7-0.307 35.5 13.9 0.0703 27.7 0.123 41.6 0.155 6.44 0.0156 12.9 0.0368 19.3 0.0709 6.22 0.0327 12.4 0.0506 18.7 0.0583 2.37 0.00552 4.74 0.0163 7.1 0.0326 3.33 0.022 6.66 0.0248 9.99 0.0234 1.45 0.0162 1.45 0.0162 2.93 0.0327 14.4-0.0642 26.7-4.75 37.2-14.7 9.88-10.6 14.8-23.2 14.6-37.7-0.589-13.3-6.35-25.4-15.5-35-10.5-9.14-21.9-13.2-35.7-13.4-1.41-0.0292-1.41-0.0292-2.85-0.059-3.11-0.0608-6.23-0.107-9.34-0.152-2.19-0.0375-4.37-0.0751-6.56-0.113-17.9-0.288-35.8-0.366-53.6-0.387-1.3-0.00268-2.59-0.00536-3.92-0.00812-3.66-0.00577-7.32-0.00418-11 3.05e-4 -1.66-0.00296-1.66-0.00296-3.35-0.00598-1 0.0031-2 0.0062-3.03 0.0094-0.877 7.96e-4 -1.75 0.00159-2.66 0.00241-1.99-0.0925-1.99-0.0925-2.99 1.13z" fill="#000002"/>
<path transform="translate(431 900)" d="m0 0c0.939-0.00291 1.88-0.00581 2.84-0.00881 3.15-0.00731 6.3-3.52e-4 9.45 0.00652 2.28-0.0023 4.56-0.00548 6.84-0.00945 6.27-0.00836 12.5-0.00422 18.8 0.00197 6.07 0.00405 12.1-0.00127 18.2-0.00629 13.2-0.0105 26.3-0.00962 39.5-0.00384 11.5 0.00503 23.1 0.00634 34.6 0.00395 0.765-1.53e-4 1.53-3.06e-4 2.32-4.63e-4 3.1-6.23e-4 6.21-0.00126 9.31-0.00192 29.1-0.00612 58.3-5.69e-4 87.4 0.0102 25.9 0.00949 51.7 0.00864 77.6-9.22e-4 29.1-0.0107 58.1-0.015 87.2-0.00878 3.1 6.41e-4 6.2 0.00127 9.3 0.00189 0.763 1.58e-4 1.53 3.16e-4 2.31 4.79e-4 11.5 0.00227 23-3.84e-4 34.6-0.00544 13.1-0.00572 26.2-0.00429 39.3 0.00656 6.69 0.00535 13.4 0.00731 20.1 7.02e-4 6.12-0.00596 12.2-0.00269 18.4 0.00796 2.21 0.00223 4.43 0.0011 6.64-0.00375 3.01-0.00609 6.02 1.61e-4 9.03 0.00944 0.859-0.00468 1.72-0.00936 2.6-0.0142 9.85 0.0607 17.9 1.24 25.2 8.27 5.04 5.13 6.59 10.9 7 18-0.51 7.19-4.52 12.7-8.75 18.3-8.19 6.15-18.9 5.24-28.6 5.37-1.77 0.0328-3.54 0.0662-5.31 0.1-21.7 0.386-43.3 0.363-65 0.351-6.22-0.0023-12.4 0.00125-18.7 0.00398-11.4 0.00415-22.8 0.00385-34.3 0.00109-10.5-0.00253-21.1-0.00316-31.6-0.00198-1.06 1.15e-4 -1.06 1.15e-4 -2.13 2.31e-4 -2.86 3.11e-4 -5.72 6.3e-4 -8.58 9.6e-4 -26.7 0.00304-53.4 3.09e-4 -80.1-0.0051-23.7-0.00476-47.4-0.00431-71 4.61e-4 -26.7 0.00536-53.4 0.00748-80.1 0.00439-2.84-3.21e-4 -5.69-6.34e-4 -8.53-9.43e-4 -0.7-7.91e-5 -1.4-1.58e-4 -2.12-2.4e-4 -10.6-0.00114-21.1 1.88e-4 -31.7 0.00272-12 0.00286-24 0.00205-35.9-0.00328-6.11-0.00263-12.2-0.00366-18.3-3.51e-4 -5.59 0.00298-11.2 0.00134-16.8-0.00398-2.02-0.00112-4.04-5.52e-4 -6.06 0.00188-30.7 0.034-30.7 0.034-38.4-6.86-5.33-5.58-7.53-11.1-8.5-18.7 0.914-7.44 3.52-13.8 9.44-18.6 7.1-5.41 13.8-6.3 22.5-6.25z" fill="#000002"/>
<path transform="translate(430 1e3)" d="m0 0c0.73-0.00291 1.46-0.00581 2.21-0.00881 2.44-0.00729 4.88-3.63e-4 7.32 0.00652 1.77-0.0023 3.54-0.00548 5.31-0.00945 4.86-0.00835 9.72-0.00422 14.6 0.00197 5.24 0.00452 10.5-0.00246 15.7-0.00796 10.3-0.0089 20.5-0.00697 30.8-0.00117 8.34 0.00452 16.7 0.00513 25 0.00295 1.19-3.06e-4 2.37-6.13e-4 3.6-9.29e-4 2.41-6.39e-4 4.82-0.00129 7.23-0.00195 22.6-0.0057 45.2 8.57e-4 67.9 0.0116 19.4 0.00893 38.8 0.00739 58.2-0.00184 22.5-0.0107 45.1-0.0149 67.6-0.00878 2.4 6.37e-4 4.81 0.00127 7.21 0.00189 1.18 3.09e-4 2.36 6.17e-4 3.58 9.35e-4 8.33 0.00173 16.7-0.00119 25-0.00589 10.2-0.00561 20.3-0.00409 30.5 0.00656 5.18 0.00526 10.4 0.00732 15.5 7.02e-4 4.74-0.00596 9.49-0.00268 14.2 0.00796 1.72 0.00223 3.43 0.0011 5.15-0.00375 13.1-0.0344 23.5 0.0623 33.3 9.79 4.2 5.03 5.28 11 5.46 17.5-1.19 7.35-5.19 14.3-11 19-7.92 4.05-16.4 3.57-25.1 3.68-1.9 0.033-3.8 0.0664-5.7 0.1-34 0.541-68.1 0.388-102 0.39-6.25 5e-4 -12.5 0.0028-18.8 0.0055-20.7 0.00876-41.5 0.0134-62.2 0.0127-1.11-4e-5 -2.22-7.99e-5 -3.36-1.21e-4 -1.11-4.09e-5 -2.22-8.18e-5 -3.36-1.24e-4 -18.1-4.08e-4 -36.2 0.00922-54.2 0.0233-18.7 0.0144-37.3 0.0213-56 0.0204-10.4-3.31e-4 -20.9 0.00237-31.3 0.0132-8.86 0.00912-17.7 0.0113-26.6 0.00449-4.51-0.00325-9.02-0.00336-13.5 0.00535-4.14 0.00792-8.28 0.00638-12.4-0.00228-1.49-0.00152-2.97 2.37e-4 -4.46 0.00586-7.55 0.0266-15-0.211-22.6-1.02-1.27-0.137-2.54-0.274-3.85-0.415-6.85-1.6-11.7-6.08-15.5-11.8-2.85-6.03-4.19-11.9-2.27-18.5 2.85-7.85 7.02-12.3 14.3-16.5 4.98-1.69 9.29-2.25 14.5-2.25z" fill="#000002"/>
<path transform="translate(781 1100)" d="m0 0c0.833-0.00312 1.67-0.00624 2.52-0.00945 2.78-0.00795 5.55-0.00167 8.33 0.00463 2-0.00271 3.99-0.00627 5.99-0.0106 5.41-0.00911 10.8-0.00559 16.2 7.58e-4 5.67 0.00507 11.3 3.66e-4 17-0.00277 9.52-0.00364 19 0.00115 28.6 0.0107 11 0.0109 22 0.00736 33-0.00365 9.45-0.00909 18.9-0.0104 28.4-0.00512 5.64 0.00311 11.3 0.00355 16.9-0.00307 5.31-0.00579 10.6-0.00174 15.9 0.00979 1.94 0.00264 3.89 0.0019 5.83-0.00253 2.66-0.00549 5.32 0.00143 7.98 0.0114 0.763-0.00446 1.53-0.00892 2.31-0.0135 10.4 0.075 17.6 2.43 25 9.79 4.2 5.03 5.28 11 5.46 17.5-1.18 7.3-5.17 14.4-11 19-7.02 3.25-14 3.53-21.6 3.68-1.88 0.0496-1.88 0.0496-3.8 0.1-16.2 0.402-32.5 0.367-48.7 0.355-4.56-0.00258-9.11-1.7e-4 -13.7 0.00139-7.63 0.0018-15.3-5.34e-4 -22.9-0.00534-8.77-0.00547-17.5-0.00365-26.3 0.00183-7.6 0.00456-15.2 0.00517-22.8 0.00256-4.51-0.00155-9.02-0.0018-13.5 0.00154-4.23 0.00292-8.46 8.36e-4 -12.7-0.00489-1.54-0.00131-3.08-9.7e-4 -4.62 0.00126-32.5 0.0427-32.5 0.0427-40.3-6.89-5.18-5.47-7.6-10.7-8.45-18.1 0.276-6.35 2.8-12.1 6.81-17 7.73-6.26 14.4-8.44 24.2-8.38z" fill="#000002"/>
<path transform="translate(582 1100)" d="m0 0c0.99-0.0035 1.98-0.00701 3-0.0106 3.26-0.00877 6.52-0.00298 9.77 0.00378 2.28-0.00135 4.55-0.00329 6.83-0.0058 4.77-0.00295 9.53 0.00133 14.3 0.0107 6.09 0.0114 12.2 0.00484 18.3-0.00714 4.7-0.00725 9.4-0.00492 14.1 2.56e-4 2.24 0.00133 4.49-2.83e-4 6.73-0.00496 3.15-0.00512 6.29 0.00272 9.44 0.0138 0.916-0.00405 1.83-0.0081 2.78-0.0123 11.2 0.0728 19.1 1.75 27.2 9.8 4.21 5.02 5.28 11 5.46 17.5-1.18 7.3-5.17 14.4-11 19-7.65 3.73-15.9 3.56-24.2 3.69-1.56 0.032-3.13 0.0643-4.69 0.0969-5.71 0.107-11.4 0.165-17.1 0.216-1.21 0.011-2.42 0.0219-3.66 0.0332-8.86 0.0758-17.7 0.121-26.6 0.147-2.05 0.00711-4.11 0.0174-6.16 0.0285-40.6 0.202-40.6 0.202-49.4-7.85-4.45-5.14-6.75-9.92-7.64-16.7 0.773-6.52 2.66-12.5 6.81-17.6 8.58-6.74 15.1-8.37 25.7-8.32z" fill="#000002"/>
<path transform="translate(962 1e3)" d="m0 0c1.89-0.0242 1.89-0.0242 3.83-0.0488 10.5-0.00547 19.3 0.902 27.1 8.41 4.48 5.18 6.8 11.1 6.69 18-0.791 7.24-4.45 12.6-8.75 18.3-11.5 8.65-32.5 6.84-46 4.94-7.01-1.4-11.5-4.8-15.9-10.3-3.59-5.39-5.11-11.6-4.32-18 2.62-8.94 6.82-14.3 15-19 7.39-2.45 14.6-2.33 22.4-2.31z" fill="#000002"/>
</svg>
